<?xml version="1.0" encoding="UTF-8" standalone="no"?>
<!-- Created with Inkscape (http://www.inkscape.org/) -->

<svg
   version="1.1"
   id="svg257"
   width="209.6114"
   height="354.55814"
   viewBox="0 0 209.61138 354.55815"
   sodipodi:docname="SamuelMorseKey_B-C-F-H-J-L-P-Q-V-X-Y-7_4-bit.svg"
   inkscape:version="1.2.2 (732a01da63, 2022-12-09)"
   xmlns:inkscape="http://www.inkscape.org/namespaces/inkscape"
   xmlns:sodipodi="http://sodipodi.sourceforge.net/DTD/sodipodi-0.dtd"
   xmlns="http://www.w3.org/2000/svg"
   xmlns:svg="http://www.w3.org/2000/svg">
  <defs
     id="defs261">
    <clipPath
       clipPathUnits="userSpaceOnUse"
       id="clipPath1233">
      <path
         id="path1235"
         style="fill:#ff0000;fill-opacity:1;fill-rule:nonzero;stroke:none"
         d="m 43.662109,21.726562 v 1.558594 c 0.05388,-0.0477 0.107196,-0.09593 0.16211,-0.142578 0.449505,-0.367261 0.962101,-0.644809 1.482422,-0.896484 0.405383,-0.199633 0.826645,-0.362819 1.25,-0.519532 z m 12.017579,0 c 0.06756,0.09733 0.131645,0.197674 0.1875,0.302735 0.07848,0.147629 0.114581,0.243816 0.169921,0.384765 0.07249,0.195644 0.13549,0.393352 0.19336,0.59375 0.05036,0.192052 0.111864,0.381178 0.177734,0.56836 0.06561,0.190805 0.141995,0.379074 0.234375,0.558594 0.06768,0.125796 0.106406,0.171428 0.191406,0.298828 0.05269,0.07661 0.09986,0.156952 0.148438,0.236328 v -2.94336 z m -4.667969,3.06836 c -0.222249,0.04776 -0.443185,0.09906 -0.66211,0.160156 -0.30992,0.08967 -0.623783,0.167891 -0.921875,0.292969 -0.424255,0.167858 -0.851677,0.326359 -1.283203,0.474609 -0.330183,0.120771 -0.6593,0.243691 -0.974609,0.400391 -0.181148,0.08593 -0.362846,0.174691 -0.53125,0.283203 0.369782,0.656906 0.408439,1.64318 -0.142578,2.816406 0.02792,-0.01962 0.05618,-0.03876 0.08398,-0.05859 0.205507,-0.257809 0.416838,-0.509836 0.634766,-0.757812 0.234408,-0.268817 0.472411,-0.53502 0.71875,-0.792969 0.725141,-0.759317 1.46061,-1.14942 2.113281,-1.261719 0.0958,-0.156049 0.19066,-0.312526 0.279297,-0.472656 0.06395,-0.111453 0.131719,-0.221218 0.193359,-0.333984 0.154847,-0.283302 0.320508,-0.531952 0.492188,-0.75 z m 2.615234,3.943359 c -0.02548,0.04091 -0.05035,0.08238 -0.07617,0.123047 -0.219096,0.340273 -0.44185,0.678786 -0.701172,0.990234 -0.381204,0.442377 -0.794383,0.858512 -1.261718,1.210938 -0.477453,0.347256 -0.968993,0.675874 -1.484375,0.964844 -0.120237,0.06808 -0.238574,0.138565 -0.357422,0.208984 0.369376,-0.0083 0.739401,-0.01291 1.107422,-0.04687 0.172683,-0.02363 0.337007,-0.0803 0.505859,-0.123047 0.266043,-0.07364 0.530163,-0.151154 0.798828,-0.214844 0.234953,-0.05799 0.469521,-0.121326 0.701172,-0.191406 0.276228,-0.09111 0.555642,-0.175056 0.820313,-0.296875 0.0083,-0.09079 0.01365,-0.182625 0.01367,-0.273437 -0.01528,-0.282292 -0.04529,-0.563095 -0.05469,-0.845703 -0.0095,-0.39907 -0.0055,-0.798113 -0.0098,-1.197266 -6.52e-4,-0.102662 -0.0013,-0.205861 -0.002,-0.308594 z m -8.857422,0.902344 c -0.190421,0.0061 -0.404903,0.06931 -0.630859,0.166016 0.291408,0.415071 0.567606,0.78591 0.800781,0.976562 0.01595,-0.0259 0.02781,-0.04736 0.04492,-0.07422 0.136149,-0.213746 0.294147,-0.406919 0.466797,-0.58789 -0.137567,-0.359994 -0.379749,-0.490099 -0.681641,-0.480469 z m 8.851563,2.070313 c -0.0034,0.0092 -0.0086,0.01518 -0.01172,0.02539 -0.0074,0.02394 -0.03015,0.05154 -0.01953,0.07422 0.01358,0.029 0.02316,-0.04292 0.03125,-0.09961 z m -5.736328,0.191406 c -0.08235,0.0013 -0.16637,0.01233 -0.251954,0.0293 0.266891,0.06997 0.533346,0.141627 0.800782,0.208984 0.04771,0.01064 0.09638,0.02016 0.144531,0.03125 -0.201959,-0.196654 -0.438962,-0.273539 -0.693359,-0.269531 z m 9.097656,2.376953 c -0.311292,0.318623 -0.674016,0.552907 -1.06836,0.767578 h 1.06836 z m -13.320313,0.685547 v 0.08203 h 0.134766 c -0.04484,-0.02726 -0.09048,-0.05387 -0.134766,-0.08203 z" />
    </clipPath>
    <clipPath
       clipPathUnits="userSpaceOnUse"
       id="clipPath1374">
      <path
         id="path1376"
         style="fill:#ff0000;fill-opacity:1;fill-rule:nonzero;stroke:none"
         d="M 0,0 V 85.333984 H 234.66602 V 0 Z m 14.021484,10.304688 c 1.075266,-1e-6 2.150391,1.064441 2.150391,3.193359 v 2.683594 c -1.79e-4,0.0508 1.99e-4,0.101544 0,0.152343 0.08236,-0.0901 0.168066,-0.177667 0.261719,-0.257812 0.270811,-0.230811 0.557168,-0.442086 0.871094,-0.611328 0.378455,-0.190318 0.767781,-0.339035 1.191406,-0.390625 0.338617,-0.04373 0.679742,-0.0705 1.021484,-0.06641 0.273189,-0.0016 0.545259,-0.0022 0.81836,-0.0098 0.34158,-0.01136 0.683971,-0.02754 1.02539,-0.04297 0.550774,-0.02054 1.101913,-0.03083 1.652344,-0.06055 0.499906,-0.02487 0.999808,-0.03691 1.5,-0.05469 0.496126,-0.02294 0.992849,-0.04355 1.484375,-0.119141 0.455227,-0.08322 0.90928,-0.183261 1.369141,-0.238281 0.495312,-0.04248 0.992645,-0.04739 1.486328,0.02148 0.326256,0.04795 0.656243,0.09681 0.964843,0.220703 0.461598,0.185309 0.83489,0.452274 1.148438,0.837891 0.05196,0.0707 0.10683,0.138438 0.15625,0.210938 0.218284,0.320257 0.384598,0.673133 0.539062,1.027343 0.195831,0.480828 0.382519,0.964997 0.53711,1.460938 0.187274,0.555358 0.361347,1.118578 0.460937,1.697265 0.08759,0.624907 0.126172,1.249555 0.107422,1.88086 -0.0044,0.615056 -0.01032,1.230798 -0.02539,1.845703 -0.01886,0.720051 -0.0474,1.440232 -0.07031,2.160156 -0.01291,0.922901 -0.0309,1.845765 -0.08008,2.767578 -0.06487,1.044349 -0.162351,2.086375 -0.347656,3.117188 -0.07552,0.417336 -0.121444,0.694741 -0.214844,1.111328 -0.104212,0.464792 -0.243353,0.923422 -0.375,1.380859 -0.212017,0.655249 -0.454591,1.303049 -0.816406,1.892578 -0.168194,0.263885 -0.205699,0.331587 -0.398438,0.589844 -0.309941,0.415299 -0.660562,0.802935 -1.041015,1.154297 -0.09837,0.08169 -0.194329,0.165201 -0.294922,0.244141 -0.435967,0.342107 -0.921317,0.623029 -1.431641,0.83789 -0.113882,0.04365 -0.226753,0.09037 -0.341797,0.13086 -0.480077,0.168974 -0.977395,0.269852 -1.474609,0.373046 -0.35948,0.07342 -0.720942,0.142006 -1.076172,0.234376 -0.487226,0.130952 -0.972514,0.269529 -1.449219,0.435546 -0.642264,0.2076 -1.283799,0.416585 -1.925781,0.625 -0.483859,0.142989 -0.9701,0.284238 -1.46875,0.367188 -0.142035,0.02363 -0.284019,0.04979 -0.427735,0.05859 -0.20311,0.0125 -0.405888,0.0042 -0.609374,0.0059 -0.207672,-0.0412 -0.419222,-0.06579 -0.623047,-0.123047 -0.506121,-0.142191 -0.984846,-0.493782 -1.394532,-0.8125 -0.208491,-0.177884 -0.301203,-0.249689 -0.501953,-0.447266 -0.336855,-0.331532 -0.634346,-0.698833 -0.917968,-1.076171 -0.2017,-0.272878 -0.248755,-0.326636 -0.433594,-0.607422 -0.285706,-0.434016 -0.539434,-0.888685 -0.792969,-1.341797 -0.201235,-0.387624 -0.325511,-0.613611 -0.509766,-1.021484 -0.405568,-0.897793 -0.717491,-1.83266 -0.929687,-2.794922 -0.148038,-0.692342 -0.20674,-0.93073 -0.328125,-1.640625 -0.194649,-1.138364 -0.320488,-2.285482 -0.398438,-3.4375 -0.107367,-1.854051 -0.161808,-3.711662 -0.199218,-5.56836 -0.02808,-2.04011 -0.006,-4.078934 0.002,-6.11914 v -2.683594 c 0,-2.128918 1.075125,-3.193359 2.15039,-3.193359 z m 38.71875,8.060546 h 1.044922 c 1.13315,0 1.964282,0.304875 2.494141,0.751954 0.196021,-0.04747 0.38593,-0.07209 0.566406,-0.07422 1.687727,-0.01994 2.591923,1.848642 0.994141,3.794922 0.0068,0.0094 0.01492,0.01784 0.02148,0.02734 0.19002,0.275306 0.330018,0.581066 0.433594,0.898438 0.09716,0.282475 0.178016,0.568584 0.253906,0.857422 0.06435,0.237877 0.125961,0.478008 0.212891,0.708984 0.13211,0.431577 0.213491,0.853743 0.238281,1.304688 0.01247,0.359775 0.0071,0.720158 0,1.080078 -0.0084,0.404338 -0.01793,0.808978 -0.06641,1.210937 -0.05926,0.457124 -0.144761,0.909824 -0.271485,1.353516 -0.03135,0.10406 -0.05953,0.209351 -0.09375,0.3125 -0.128352,0.386878 -0.304932,0.75734 -0.505859,1.111328 -0.189965,0.313372 -0.392808,0.618922 -0.607422,0.916016 -0.236593,0.319992 -0.484033,0.630603 -0.757812,0.919921 -0.244565,0.250866 -0.503617,0.485727 -0.783204,0.697266 -0.218809,0.165136 -0.446718,0.318384 -0.679687,0.462891 -0.294563,0.173435 -0.593011,0.34034 -0.900391,0.490234 -0.478397,0.227007 -0.964393,0.444533 -1.484375,0.558594 -0.424221,0.08608 -0.853514,0.148594 -1.285156,0.183594 -0.223745,0.01742 -0.448245,0.02768 -0.669922,0.06445 -0.217524,0.03803 -0.434528,0.07417 -0.65039,0.121094 -0.29365,0.05065 -0.589205,0.08967 -0.886719,0.109374 -0.219933,0.01786 -0.440029,0.03132 -0.658203,0.06641 -0.355043,0.04232 -0.714344,0.05351 -1.072266,0.03711 -0.02325,0.03984 -0.04718,0.07921 -0.07031,0.119141 -2.134454,3.684185 -5.876196,1.753994 -3.820313,-1.97461 0.03333,-0.06045 0.06951,-0.119595 0.103516,-0.179687 -0.0049,-0.0076 -0.0086,-0.0096 -0.01367,-0.01758 -0.248249,-0.388589 -0.447698,-0.802931 -0.609375,-1.234375 -0.178848,-0.47032 -0.3412,-0.94739 -0.464844,-1.435547 -0.09993,-0.369176 -0.20547,-0.734786 -0.320312,-1.09961 -0.07185,-0.222529 0.0083,0.02054 -0.111329,-0.314453 -0.114045,-0.319436 -0.210154,-0.644495 -0.302734,-0.970703 -0.166528,-0.60712 -0.324725,-1.221344 -0.328125,-1.855468 -0.0101,-0.4212 -0.0093,-0.842415 -0.002,-1.263672 0.0067,-0.398575 0.01162,-0.797013 0.05859,-1.19336 0.05096,-0.390412 0.119142,-0.77891 0.226562,-1.158203 0.135043,-0.502253 0.291737,-1.001877 0.515625,-1.472656 0.06062,-0.11206 0.116431,-0.226484 0.181641,-0.335938 0.239563,-0.402111 0.563001,-0.749744 0.894531,-1.076171 0.294604,-0.247077 0.319279,-0.283984 0.644531,-0.488282 0.411195,-0.258272 0.862745,-0.442253 1.310547,-0.625 0.135168,-0.0492 0.270164,-0.09988 0.40625,-0.146484 0.599239,-0.205218 1.214769,-0.357979 1.828125,-0.513672 0.542354,-0.127298 1.086085,-0.247362 1.623047,-0.396484 0.602121,-0.146774 1.212091,-0.258742 1.832031,-0.294922 0.50976,-0.03009 1.020561,-0.04531 1.53125,-0.03711 z m -28.878906,4.882813 c 9.75e-4,-0.01579 7.17e-4,-0.0095 -0.0059,0.01758 -5.6e-5,0.0096 0.0037,0.01965 0.0039,0.0293 9.36e-4,-0.0142 0.0016,-0.04035 0.002,-0.04687 z m -9.49414,28.324219 c 0.954368,0.0309 2.004455,0.874174 2.46289,2.679687 0.09571,0.37695 0.210928,0.7478 0.332031,1.117188 0.0016,0.0044 0.0023,0.0092 0.0039,0.01367 0.452303,-0.254215 0.982958,-0.547555 1.65039,-0.939453 0.129121,-0.07582 0.554589,0.514554 0.712891,0.728516 0.02656,0.03784 0.05351,0.07545 0.08008,0.113281 0.01498,-9.74e-4 0.02996,-0.0012 0.04492,-0.002 0.281419,-0.02958 0.560681,-0.07512 0.839844,-0.121094 0.599751,-0.08803 1.199489,-0.185318 1.80664,-0.205078 0.690824,-0.01177 1.382763,0.01848 2.066407,0.125 0.522025,0.08525 1.039311,0.19489 1.554687,0.3125 0.06131,-0.01691 0.121607,-0.03636 0.183594,-0.05078 0.09627,-0.02239 0.194785,-0.03605 0.291015,-0.05859 0.03188,-0.0075 0.06249,-0.02155 0.09375,-0.03125 0.07465,-0.02326 0.14979,-0.04568 0.22461,-0.06836 0.460584,-0.150311 0.910171,-0.328956 1.359375,-0.509766 0.279313,-0.109936 0.56116,-0.215664 0.83789,-0.332031 0.386399,-0.163017 0.797767,-0.304394 1.222657,-0.308594 0.509316,-0.0051 0.56467,0.03052 0.996093,0.134766 0.348582,0.112916 0.669724,0.278646 0.972657,0.482422 0.07441,0.05005 0.1502,0.09844 0.21875,0.15625 0.338318,0.285295 0.315827,0.285386 0.578125,0.597656 0.09069,0.144625 0.191987,0.283569 0.273437,0.433594 0.111738,0.205822 0.214066,0.476806 0.291016,0.703125 0.03726,0.109606 0.12396,0.394746 0.15039,0.513672 0.02809,0.126426 0.04818,0.255561 0.07227,0.382812 0.0307,0.287644 0.05622,0.579958 0.02539,0.869141 -0.01324,0.124209 -0.02026,0.251596 -0.05664,0.371094 -0.07195,0.236342 -0.12491,0.489709 -0.267578,0.691406 -0.220897,0.312292 -0.53346,0.546706 -0.800781,0.820312 -0.344223,0.112223 -0.679217,0.261891 -1.033203,0.337891 -0.177534,0.03813 -0.363536,0.01025 -0.544922,0.002 -0.128249,-0.0059 -0.255465,-0.02864 -0.382813,-0.04492 -0.252146,-0.03224 -0.503568,-0.07201 -0.755859,-0.103516 -0.408213,-0.03175 -0.817712,-0.02977 -1.226563,-0.04687 -0.397155,-0.02171 -0.794882,-0.04149 -1.1875,-0.109376 -0.10054,-0.01738 -0.200646,-0.039 -0.300781,-0.05859 -0.10315,-0.02315 -0.203061,-0.05544 -0.304688,-0.08398 -0.0072,0.0497 -0.01676,0.09865 -0.02344,0.148438 -0.05009,0.385437 -0.09435,0.773477 -0.109375,1.162109 -0.0216,0.531516 -0.04107,1.061697 -0.04297,1.59375 -0.0086,0.626562 -0.01202,1.254241 -0.01172,1.88086 -0.0015,0.467716 -0.0038,0.934658 -0.0098,1.402343 -0.0069,0.511626 -0.01671,1.023597 -0.02734,1.535157 -0.0063,0.410678 -0.0022,0.821705 -0.0039,1.232421 -8e-4,0.396091 -0.0024,0.791441 -0.0078,1.1875 -0.006,0.332589 -0.01483,0.666089 -0.03711,0.998047 -0.02865,0.404195 -0.06945,0.806937 -0.134766,1.207032 -0.06769,0.485919 -0.126553,0.976238 -0.283203,1.443359 -0.06292,0.170562 -0.127597,0.361273 -0.216797,0.519531 -0.08269,0.146701 -0.170424,0.291078 -0.271484,0.425781 -0.213819,0.285 -0.487101,0.489197 -0.787109,0.673829 -0.508542,0.21589 -0.674519,0.338943 -1.328125,0.283203 -0.631696,-0.05387 -1.174656,-0.380503 -1.583985,-0.839844 -0.08268,-0.09658 -0.172929,-0.186763 -0.255859,-0.283203 -0.0031,-0.0037 0.01607,0.0097 0.01367,0.0059 -0.174212,-0.156538 -0.36021,-0.329136 -0.507813,-0.521484 -0.144145,-0.181697 -0.289592,-0.365223 -0.412109,-0.5625 -0.187286,-0.302118 -0.363416,-0.61052 -0.5,-0.939453 -0.11537,-0.302622 -0.205218,-0.613033 -0.273438,-0.929688 -0.06067,-0.324772 -0.105947,-0.652173 -0.123047,-0.982422 -0.02394,-0.354929 -0.03513,-0.71096 -0.04883,-1.066406 -0.01623,-0.531166 -0.0196,-1.062847 -0.04492,-1.59375 -0.02401,-0.472896 -0.05518,-0.944713 -0.134765,-1.412109 -0.05349,-0.348151 -0.09913,-0.698973 -0.175781,-1.042969 -0.0649,-0.288524 -0.142394,-0.574639 -0.214844,-0.861328 -0.06893,-0.257782 -0.160862,-0.509016 -0.275391,-0.75 -0.157607,-0.338013 -0.311446,-0.676769 -0.449219,-1.023438 -0.0051,-0.01228 -0.011,-0.0246 -0.01562,-0.03711 -0.510656,-0.08408 -1.021212,-0.170528 -1.509766,-0.349609 -0.325566,-0.122614 -0.489047,-0.17345 -0.804688,-0.341797 -0.543588,-0.289923 -1.007676,-0.690528 -1.392578,-1.169922 -0.08973,-0.128781 -0.186201,-0.253709 -0.269531,-0.386719 -0.337573,-0.538808 -0.536132,-1.143511 -0.724609,-1.746094 -0.242982,-0.750413 -0.510952,-1.492058 -0.777344,-2.234375 -0.166609,-0.508996 -0.324949,-1.021703 -0.449219,-1.542968 -0.55541,-2.329745 0.51319,-3.633484 1.740235,-3.59375 z m 4.804687,3.703125 c 0.02335,0.0053 0.04864,0.0079 0.07227,0.01172 -0.0112,-0.0023 -0.01746,-0.0055 -0.0293,-0.0078 -0.01409,-0.0027 -0.05697,-0.007 -0.04297,-0.0039 z m -0.191406,7.74414 c 0.01804,0.0061 0.03068,0.01355 0.05078,0.01953 0.0041,0.0012 -0.0058,-0.0063 -0.0098,-0.0078 -0.01293,-0.0047 -0.02723,-0.0078 -0.04102,-0.01172 z" />
    </clipPath>
  </defs>
  <sodipodi:namedview
     id="namedview259"
     pagecolor="#ffffff"
     bordercolor="#000000"
     borderopacity="0.25"
     inkscape:showpageshadow="2"
     inkscape:pageopacity="0.0"
     inkscape:pagecheckerboard="0"
     inkscape:deskcolor="#d1d1d1"
     showgrid="false"
     showguides="true"
     inkscape:zoom="4.1100582"
     inkscape:cx="128.22203"
     inkscape:cy="156.93209"
     inkscape:window-width="3840"
     inkscape:window-height="2054"
     inkscape:window-x="1909"
     inkscape:window-y="-11"
     inkscape:window-maximized="1"
     inkscape:current-layer="g263">
    <sodipodi:guide
       position="-41.02421,343.1268"
       orientation="0,-1"
       id="guide413"
       inkscape:locked="false" />
    <sodipodi:guide
       position="43.534929,313.01927"
       orientation="1,0"
       id="guide415"
       inkscape:locked="false" />
    <sodipodi:guide
       position="14.373639,316.37411"
       orientation="1,0"
       id="guide1447"
       inkscape:locked="false" />
    <sodipodi:guide
       position="-44.207005,283.08379"
       orientation="0,-1"
       id="guide1495"
       inkscape:locked="false" />
    <sodipodi:guide
       position="119.12986,247.86864"
       orientation="0,-1"
       id="guide1497"
       inkscape:locked="false" />
    <sodipodi:guide
       position="-29.153242,313.27734"
       orientation="0,-1"
       id="guide1499"
       inkscape:locked="false" />
    <sodipodi:guide
       position="3.8790151,308.11605"
       orientation="1,0"
       id="guide1590"
       inkscape:locked="false" />
    <sodipodi:guide
       position="55.836003,349.75045"
       orientation="0,-1"
       id="guide1614"
       inkscape:locked="false" />
    <sodipodi:guide
       position="57.556433,336.24508"
       orientation="0,-1"
       id="guide1616"
       inkscape:locked="false" />
    <sodipodi:guide
       position="36.825251,315.5139"
       orientation="1,0"
       id="guide1618"
       inkscape:locked="false" />
    <sodipodi:guide
       position="76.653207,326.18056"
       orientation="1,0"
       id="guide1708"
       inkscape:locked="false" />
    <sodipodi:guide
       position="48.313393,99.804178"
       orientation="1,0"
       id="guide1756"
       inkscape:locked="false" />
    <sodipodi:guide
       position="62.889766,311.55691"
       orientation="1,0"
       id="guide1758"
       inkscape:locked="false" />
    <sodipodi:guide
       position="89.728476,287.21282"
       orientation="1,0"
       id="guide1760"
       inkscape:locked="false" />
    <sodipodi:guide
       position="7.5742591,225.36288"
       orientation="0,-1"
       id="guide429"
       inkscape:locked="false" />
    <sodipodi:guide
       position="115.84523,311.12809"
       orientation="1,0"
       id="guide664"
       inkscape:locked="false" />
    <sodipodi:guide
       position="57.57355,209.18306"
       orientation="0,-1"
       id="guide666"
       inkscape:locked="false" />
    <sodipodi:guide
       position="155.74732,276.70035"
       orientation="1,0"
       id="guide712"
       inkscape:locked="false" />
    <sodipodi:guide
       position="169.08758,299.71815"
       orientation="1,0"
       id="guide758"
       inkscape:locked="false" />
    <sodipodi:guide
       position="88.108391,168.06442"
       orientation="0,-1"
       id="guide804"
       inkscape:locked="false" />
    <sodipodi:guide
       position="64.021143,139.23271"
       orientation="0,-1"
       id="guide806"
       inkscape:locked="false" />
    <sodipodi:guide
       position="94.312682,261.49376"
       orientation="0,-1"
       id="guide808"
       inkscape:locked="false" />
    <sodipodi:guide
       position="-0.030691281,115.46009"
       orientation="1,0"
       id="guide1124"
       inkscape:locked="false" />
    <sodipodi:guide
       position="146.89402,229.00849"
       orientation="0,-1"
       id="guide1487"
       inkscape:locked="false" />
    <sodipodi:guide
       position="72.227366,198.21278"
       orientation="0,-1"
       id="guide1489"
       inkscape:locked="false" />
    <sodipodi:guide
       position="99.926287,105.65364"
       orientation="0,-1"
       id="guide1535"
       inkscape:locked="false" />
    <sodipodi:guide
       position="95.10909,75.718157"
       orientation="0,-1"
       id="guide1537"
       inkscape:locked="false" />
    <sodipodi:guide
       position="109.73274,45.954717"
       orientation="0,-1"
       id="guide1561"
       inkscape:locked="false" />
    <sodipodi:guide
       position="95.625213,17.395574"
       orientation="0,-1"
       id="guide1585"
       inkscape:locked="false" />
    <sodipodi:guide
       position="-27.980136,296.40812"
       orientation="1,0"
       id="guide1827"
       inkscape:locked="false" />
    <sodipodi:guide
       position="21.410887,62.104856"
       orientation="1,0"
       id="guide1829"
       inkscape:locked="false" />
  </sodipodi:namedview>
  <g
     inkscape:groupmode="layer"
     inkscape:label="Image"
     id="g263"
     transform="translate(-6.6156087,11.345309)">
    <path
       style="fill:#000000;stroke:#000000;stroke-width:1.06667;stroke-dasharray:none"
       id="path480"
       sodipodi:type="arc"
       sodipodi:cx="102.5831"
       sodipodi:cy="0.33673489"
       sodipodi:rx="6.2279754"
       sodipodi:ry="6.2279754"
       sodipodi:start="2.283996"
       sodipodi:end="2.1373448"
       sodipodi:arc-type="slice"
       d="m 98.508403,5.0467804 a 6.2279754,6.2279754 0 0 1 -0.78154,-8.6093586 6.2279754,6.2279754 0 0 1 8.574927,-1.0965879 6.2279754,6.2279754 0 0 1 1.41016,8.5289687 6.2279754,6.2279754 0 0 1 -8.471548,1.7218395 L 102.5831,0.33673489 Z" />
    <path
       style="fill:#000000;stroke:#000000;stroke-width:1.06667;stroke-dasharray:none"
       id="path480-4"
       sodipodi:type="arc"
       sodipodi:cx="129.41927"
       sodipodi:cy="0.40114692"
       sodipodi:rx="6.2279754"
       sodipodi:ry="6.2279754"
       sodipodi:start="2.283996"
       sodipodi:end="2.1373448"
       sodipodi:arc-type="slice"
       d="m 125.34457,5.1111924 a 6.2279754,6.2279754 0 0 1 -0.78154,-8.6093586 6.2279754,6.2279754 0 0 1 8.57493,-1.0965878 6.2279754,6.2279754 0 0 1 1.41016,8.5289687 6.2279754,6.2279754 0 0 1 -8.47155,1.7218394 l 3.3427,-5.25490718 z" />
    <path
       style="fill:#000000;stroke:#000000;stroke-width:1.06667;stroke-dasharray:none"
       id="path480-4-8"
       sodipodi:type="arc"
       sodipodi:cx="155.22981"
       sodipodi:cy="0.13951971"
       sodipodi:rx="6.2279754"
       sodipodi:ry="6.2279754"
       sodipodi:start="2.283996"
       sodipodi:end="2.1373448"
       sodipodi:arc-type="slice"
       d="m 151.15512,4.8495652 a 6.2279754,6.2279754 0 0 1 -0.78154,-8.6093586 6.2279754,6.2279754 0 0 1 8.57492,-1.0965878 6.2279754,6.2279754 0 0 1 1.41016,8.5289687 6.2279754,6.2279754 0 0 1 -8.47154,1.7218394 l 3.34269,-5.25490719 z" />
    <path
       style="fill:#000000;stroke:#000000;stroke-width:1.06667;stroke-dasharray:none"
       id="path480-7"
       sodipodi:type="arc"
       sodipodi:cx="182.11465"
       sodipodi:cy="30.035957"
       sodipodi:rx="6.2279754"
       sodipodi:ry="6.2279754"
       sodipodi:start="2.283996"
       sodipodi:end="2.1373448"
       sodipodi:arc-type="slice"
       d="m 178.03996,34.746003 a 6.2279754,6.2279754 0 0 1 -0.78154,-8.609359 6.2279754,6.2279754 0 0 1 8.57492,-1.096588 6.2279754,6.2279754 0 0 1 1.41017,8.528969 6.2279754,6.2279754 0 0 1 -8.47155,1.72184 l 3.34269,-5.254908 z" />
    <path
       style="fill:#000000;stroke:#000000;stroke-width:1.06667;stroke-dasharray:none"
       id="path480-7-2"
       sodipodi:type="arc"
       sodipodi:cx="103.27284"
       sodipodi:cy="29.730919"
       sodipodi:rx="6.2279754"
       sodipodi:ry="6.2279754"
       sodipodi:start="2.283996"
       sodipodi:end="2.1373448"
       sodipodi:arc-type="slice"
       d="m 99.198146,34.440964 a 6.2279754,6.2279754 0 0 1 -0.78154,-8.609358 6.2279754,6.2279754 0 0 1 8.574924,-1.096588 6.2279754,6.2279754 0 0 1 1.41016,8.528969 6.2279754,6.2279754 0 0 1 -8.471545,1.721839 l 3.342695,-5.254907 z" />
    <path
       style="fill:#000000;stroke:#000000;stroke-width:1.06667;stroke-dasharray:none"
       id="path480-7-5"
       sodipodi:type="arc"
       sodipodi:cx="155.85339"
       sodipodi:cy="152.15004"
       sodipodi:rx="6.2279754"
       sodipodi:ry="6.2279754"
       sodipodi:start="2.283996"
       sodipodi:end="2.1373448"
       sodipodi:arc-type="slice"
       d="m 151.7787,156.86009 a 6.2279754,6.2279754 0 0 1 -0.78154,-8.60936 6.2279754,6.2279754 0 0 1 8.57492,-1.09659 6.2279754,6.2279754 0 0 1 1.41016,8.52897 6.2279754,6.2279754 0 0 1 -8.47154,1.72184 l 3.34269,-5.25491 z" />
    <path
       style="fill:#000000;stroke:#000000;stroke-width:1.06667;stroke-dasharray:none"
       id="path480-7-5-2"
       sodipodi:type="arc"
       sodipodi:cx="50.13554"
       sodipodi:cy="59.884155"
       sodipodi:rx="6.2279754"
       sodipodi:ry="6.2279754"
       sodipodi:start="2.283996"
       sodipodi:end="2.1373448"
       sodipodi:arc-type="slice"
       d="m 46.060844,64.594201 a 6.2279754,6.2279754 0 0 1 -0.781541,-8.609359 6.2279754,6.2279754 0 0 1 8.574926,-1.096588 6.2279754,6.2279754 0 0 1 1.410162,8.528969 6.2279754,6.2279754 0 0 1 -8.471549,1.721839 l 3.342698,-5.254907 z" />
    <path
       style="fill:#000000;stroke:#000000;stroke-width:1.06667;stroke-dasharray:none"
       id="path480-7-5-2-81"
       sodipodi:type="arc"
       sodipodi:cx="76.090034"
       sodipodi:cy="60.010487"
       sodipodi:rx="6.2279754"
       sodipodi:ry="6.2279754"
       sodipodi:start="2.283996"
       sodipodi:end="2.1373448"
       sodipodi:arc-type="slice"
       d="m 72.015338,64.720532 a 6.2279754,6.2279754 0 0 1 -0.78154,-8.609359 6.2279754,6.2279754 0 0 1 8.574926,-1.096587 6.2279754,6.2279754 0 0 1 1.410161,8.528968 6.2279754,6.2279754 0 0 1 -8.471548,1.72184 l 3.342697,-5.254907 z" />
    <path
       style="fill:#000000;stroke:#000000;stroke-width:1.06667;stroke-dasharray:none"
       id="path480-7-5-2-81-7"
       sodipodi:type="arc"
       sodipodi:cx="155.74596"
       sodipodi:cy="60.354572"
       sodipodi:rx="6.2279754"
       sodipodi:ry="6.2279754"
       sodipodi:start="2.283996"
       sodipodi:end="2.1373448"
       sodipodi:arc-type="slice"
       d="m 151.67126,65.064618 a 6.2279754,6.2279754 0 0 1 -0.78154,-8.609359 6.2279754,6.2279754 0 0 1 8.57493,-1.096588 6.2279754,6.2279754 0 0 1 1.41016,8.528969 6.2279754,6.2279754 0 0 1 -8.47155,1.72184 l 3.3427,-5.254908 z" />
    <text
       xml:space="preserve"
       style="font-weight:bold;font-size:28px;font-family:sans-serif;-inkscape-font-specification:'sans-serif Bold';fill:#000000;stroke:#000000;stroke-width:2;stroke-dasharray:none"
       x="6.0073748"
       y="9.6976595"
       id="text1302"><tspan
         sodipodi:role="line"
         id="tspan1300"
         x="6.0073748"
         y="9.6976595"
         style="font-style:normal;font-variant:normal;font-weight:normal;font-stretch:normal;font-family:Arial;-inkscape-font-specification:Arial">B</tspan></text>
    <rect
       style="fill:#000000;fill-rule:evenodd"
       id="rect1430"
       width="40.344086"
       height="13.591398"
       x="95.956993"
       y="54.215054" />
    <rect
       style="fill:#000000;fill-rule:evenodd"
       id="rect1430-2"
       width="40.344086"
       height="13.591398"
       x="122.34409"
       y="175.03227" />
    <rect
       style="fill:#000000;fill-rule:evenodd"
       id="rect1430-0"
       width="40.344086"
       height="13.591398"
       x="122.60216"
       y="114.96901" />
    <rect
       style="fill:#000000;fill-rule:evenodd"
       id="rect1430-0-4"
       width="40.344086"
       height="13.591398"
       x="175.88293"
       y="114.20166" />
    <rect
       style="fill:#000000;fill-rule:evenodd"
       id="rect1430-0-4-4"
       width="40.344086"
       height="13.591398"
       x="69.397949"
       y="145.38869" />
    <rect
       style="fill:#000000;fill-rule:evenodd"
       id="rect1430-6"
       width="40.344086"
       height="13.591398"
       x="43.290329"
       y="-6.2795706" />
    <text
       xml:space="preserve"
       style="font-style:normal;font-variant:normal;font-weight:normal;font-stretch:normal;font-size:28px;font-family:'Times New Roman';-inkscape-font-specification:'Times New Roman, ';fill:#000000;stroke:#000000;stroke-width:2;stroke-dasharray:none"
       x="7.1638236"
       y="38.208309"
       id="text1445"><tspan
         sodipodi:role="line"
         id="tspan1443"
         x="7.1638236"
         y="38.208309">C</tspan></text>
    <text
       xml:space="preserve"
       style="font-weight:bold;font-size:28px;font-family:sans-serif;-inkscape-font-specification:'sans-serif Bold';fill:#000000;stroke:#000000;stroke-width:2;stroke-dasharray:none"
       x="6.044786"
       y="69.630386"
       id="text1302-5"><tspan
         sodipodi:role="line"
         id="tspan1300-2"
         x="6.044786"
         y="69.630386"
         style="font-style:normal;font-variant:normal;font-weight:normal;font-stretch:normal;font-family:Arial;-inkscape-font-specification:Arial">F</tspan></text>
    <text
       xml:space="preserve"
       style="font-style:normal;font-variant:normal;font-weight:normal;font-stretch:normal;font-size:28px;font-family:'Times New Roman';-inkscape-font-specification:'Times New Roman, ';fill:#000000;stroke:#000000;stroke-width:2;stroke-dasharray:none"
       x="7.5980229"
       y="97.939468"
       id="text1445-7"><tspan
         sodipodi:role="line"
         id="tspan1443-8"
         x="7.5980229"
         y="97.939468">H</tspan></text>
    <path
       style="fill:#000000;stroke:#000000;stroke-width:1.06667;stroke-dasharray:none"
       id="path480-0"
       sodipodi:type="arc"
       sodipodi:cx="50.213387"
       sodipodi:cy="121.56746"
       sodipodi:rx="6.2279754"
       sodipodi:ry="6.2279754"
       sodipodi:start="2.283996"
       sodipodi:end="2.1373448"
       sodipodi:arc-type="slice"
       d="m 46.13869,126.2775 a 6.2279754,6.2279754 0 0 1 -0.78154,-8.60935 6.2279754,6.2279754 0 0 1 8.574926,-1.09659 6.2279754,6.2279754 0 0 1 1.410161,8.52897 6.2279754,6.2279754 0 0 1 -8.471548,1.72184 l 3.342698,-5.25491 z" />
    <path
       style="fill:#000000;stroke:#000000;stroke-width:1.06667;stroke-dasharray:none"
       id="path480-0-8"
       sodipodi:type="arc"
       sodipodi:cx="129.42516"
       sodipodi:cy="88.875984"
       sodipodi:rx="6.2279754"
       sodipodi:ry="6.2279754"
       sodipodi:start="2.283996"
       sodipodi:end="2.1373448"
       sodipodi:arc-type="slice"
       d="m 125.35046,93.58603 a 6.2279754,6.2279754 0 0 1 -0.78154,-8.609359 6.2279754,6.2279754 0 0 1 8.57493,-1.096588 6.2279754,6.2279754 0 0 1 1.41016,8.528969 6.2279754,6.2279754 0 0 1 -8.47155,1.721839 l 3.3427,-5.254907 z" />
    <path
       style="fill:#000000;stroke:#000000;stroke-width:1.06667;stroke-dasharray:none"
       id="path480-0-8-7"
       sodipodi:type="arc"
       sodipodi:cx="50.198837"
       sodipodi:cy="181.64925"
       sodipodi:rx="6.2279754"
       sodipodi:ry="6.2279754"
       sodipodi:start="2.283996"
       sodipodi:end="2.1373448"
       sodipodi:arc-type="slice"
       d="m 46.124141,186.35929 a 6.2279754,6.2279754 0 0 1 -0.78154,-8.60936 6.2279754,6.2279754 0 0 1 8.574926,-1.09658 6.2279754,6.2279754 0 0 1 1.410161,8.52896 6.2279754,6.2279754 0 0 1 -8.471548,1.72184 l 3.342697,-5.2549 z" />
    <path
       style="fill:#000000;stroke:#000000;stroke-width:1.06667;stroke-dasharray:none"
       id="path480-0-8-7-0"
       sodipodi:type="arc"
       sodipodi:cx="182.23253"
       sodipodi:cy="181.67833"
       sodipodi:rx="6.2279754"
       sodipodi:ry="6.2279754"
       sodipodi:start="2.283996"
       sodipodi:end="2.1373448"
       sodipodi:arc-type="slice"
       d="m 178.15783,186.38837 a 6.2279754,6.2279754 0 0 1 -0.78154,-8.60935 6.2279754,6.2279754 0 0 1 8.57493,-1.09659 6.2279754,6.2279754 0 0 1 1.41016,8.52897 6.2279754,6.2279754 0 0 1 -8.47155,1.72184 l 3.3427,-5.25491 z" />
    <path
       style="fill:#000000;stroke:#000000;stroke-width:1.06667;stroke-dasharray:none"
       id="path480-7-4"
       sodipodi:type="arc"
       sodipodi:cx="50.298927"
       sodipodi:cy="151.63164"
       sodipodi:rx="6.2279754"
       sodipodi:ry="6.2279754"
       sodipodi:start="2.283996"
       sodipodi:end="2.1373448"
       sodipodi:arc-type="slice"
       d="m 46.224231,156.34168 a 6.2279754,6.2279754 0 0 1 -0.78154,-8.60936 6.2279754,6.2279754 0 0 1 8.574926,-1.09658 6.2279754,6.2279754 0 0 1 1.410161,8.52897 6.2279754,6.2279754 0 0 1 -8.471548,1.72183 l 3.342697,-5.2549 z" />
    <path
       style="fill:#000000;stroke:#000000;stroke-width:1.06667;stroke-dasharray:none"
       id="path480-7-5-1"
       sodipodi:type="arc"
       sodipodi:cx="129.27405"
       sodipodi:cy="151.78154"
       sodipodi:rx="6.2279754"
       sodipodi:ry="6.2279754"
       sodipodi:start="2.283996"
       sodipodi:end="2.1373448"
       sodipodi:arc-type="slice"
       d="m 125.19935,156.49159 a 6.2279754,6.2279754 0 0 1 -0.78154,-8.60936 6.2279754,6.2279754 0 0 1 8.57493,-1.09659 6.2279754,6.2279754 0 0 1 1.41016,8.52897 6.2279754,6.2279754 0 0 1 -8.47155,1.72184 l 3.3427,-5.25491 z" />
    <path
       style="fill:#000000;stroke:#000000;stroke-width:1.06667;stroke-dasharray:none"
       id="path480-7-5-0"
       sodipodi:type="arc"
       sodipodi:cx="102.86727"
       sodipodi:cy="88.409798"
       sodipodi:rx="6.2279754"
       sodipodi:ry="6.2279754"
       sodipodi:start="2.283996"
       sodipodi:end="2.1373448"
       sodipodi:arc-type="slice"
       d="m 98.792575,93.119843 a 6.2279754,6.2279754 0 0 1 -0.78154,-8.609358 6.2279754,6.2279754 0 0 1 8.574925,-1.096588 6.2279754,6.2279754 0 0 1 1.41016,8.528968 6.2279754,6.2279754 0 0 1 -8.471546,1.72184 l 3.342696,-5.254907 z" />
    <path
       style="fill:#000000;stroke:#000000;stroke-width:1.06667;stroke-dasharray:none"
       id="path480-7-4-4"
       sodipodi:type="arc"
       sodipodi:cx="50.345066"
       sodipodi:cy="88.063438"
       sodipodi:rx="6.2279754"
       sodipodi:ry="6.2279754"
       sodipodi:start="2.283996"
       sodipodi:end="2.1373448"
       sodipodi:arc-type="slice"
       d="m 46.27037,92.773484 a 6.2279754,6.2279754 0 0 1 -0.781541,-8.609359 6.2279754,6.2279754 0 0 1 8.574926,-1.096588 6.2279754,6.2279754 0 0 1 1.410162,8.528969 6.2279754,6.2279754 0 0 1 -8.471549,1.72184 l 3.342698,-5.254908 z" />
    <path
       style="fill:#000000;stroke:#000000;stroke-width:1.06667;stroke-dasharray:none"
       id="path480-7-5-1-5"
       sodipodi:type="arc"
       sodipodi:cx="76.287933"
       sodipodi:cy="88.041298"
       sodipodi:rx="6.2279754"
       sodipodi:ry="6.2279754"
       sodipodi:start="2.283996"
       sodipodi:end="2.1373448"
       sodipodi:arc-type="slice"
       d="m 72.213237,92.751343 a 6.2279754,6.2279754 0 0 1 -0.78154,-8.609358 6.2279754,6.2279754 0 0 1 8.574926,-1.096588 6.2279754,6.2279754 0 0 1 1.410161,8.528969 6.2279754,6.2279754 0 0 1 -8.471548,1.721839 l 3.342697,-5.254907 z" />
    <path
       style="fill:#000000;stroke:#000000;stroke-width:1.06667;stroke-dasharray:none"
       id="path480-7-5-2-1"
       sodipodi:type="arc"
       sodipodi:cx="155.80946"
       sodipodi:cy="211.04361"
       sodipodi:rx="6.2279754"
       sodipodi:ry="6.2279754"
       sodipodi:start="2.283996"
       sodipodi:end="2.1373448"
       sodipodi:arc-type="slice"
       d="m 151.73477,215.75366 a 6.2279754,6.2279754 0 0 1 -0.78154,-8.60936 6.2279754,6.2279754 0 0 1 8.57492,-1.09659 6.2279754,6.2279754 0 0 1 1.41016,8.52897 6.2279754,6.2279754 0 0 1 -8.47154,1.72184 l 3.34269,-5.25491 z" />
    <text
       xml:space="preserve"
       style="font-weight:bold;font-size:28px;font-family:sans-serif;-inkscape-font-specification:'sans-serif Bold';fill:#000000;stroke:#000000;stroke-width:2;stroke-dasharray:none"
       x="8.0018978"
       y="130.44176"
       id="text1302-2"><tspan
         sodipodi:role="line"
         id="tspan1300-7"
         x="8.0018978"
         y="130.44176"
         style="font-style:normal;font-variant:normal;font-weight:normal;font-stretch:normal;font-family:Arial;-inkscape-font-specification:Arial">J</tspan></text>
    <rect
       style="fill:#000000;fill-rule:evenodd"
       id="rect1430-64"
       width="40.344086"
       height="13.591398"
       x="96.470894"
       y="204.02554" />
    <rect
       style="fill:#000000;fill-rule:evenodd"
       id="rect1430-64-8"
       width="40.344086"
       height="13.591398"
       x="175.83223"
       y="204.26886" />
    <rect
       style="fill:#000000;fill-rule:evenodd"
       id="rect1430-2-4"
       width="40.344086"
       height="13.591398"
       x="69.563789"
       y="175.18646" />
    <rect
       style="fill:#000000;fill-rule:evenodd"
       id="rect1430-0-8"
       width="40.344086"
       height="13.591398"
       x="43.294537"
       y="203.91826" />
    <rect
       style="fill:#000000;fill-rule:evenodd"
       id="rect1430-6-6"
       width="40.344086"
       height="13.591398"
       x="69.352951"
       y="115.0728" />
    <text
       xml:space="preserve"
       style="font-style:normal;font-variant:normal;font-weight:normal;font-stretch:normal;font-size:28px;font-family:'Times New Roman';-inkscape-font-specification:'Times New Roman, ';fill:#000000;stroke:#000000;stroke-width:2;stroke-dasharray:none"
       x="7.6304159"
       y="160.04729"
       id="text1445-9"><tspan
         sodipodi:role="line"
         id="tspan1443-1"
         x="7.6304159"
         y="160.04729">L</tspan></text>
    <text
       xml:space="preserve"
       style="font-weight:bold;font-size:28px;font-family:sans-serif;-inkscape-font-specification:'sans-serif Bold';fill:#000000;stroke:#000000;stroke-width:2;stroke-dasharray:none"
       x="5.6207938"
       y="190.98276"
       id="text1302-5-7"><tspan
         sodipodi:role="line"
         id="tspan1300-2-2"
         x="5.6207938"
         y="190.98276"
         style="font-style:normal;font-variant:normal;font-weight:normal;font-stretch:normal;font-family:Arial;-inkscape-font-specification:Arial">P</tspan></text>
    <text
       xml:space="preserve"
       style="font-style:normal;font-variant:normal;font-weight:normal;font-stretch:normal;font-size:28px;font-family:'Times New Roman';-inkscape-font-specification:'Times New Roman, ';fill:#000000;stroke:#000000;stroke-width:2;stroke-dasharray:none"
       x="6.9307265"
       y="218.31862"
       id="text1445-7-5"><tspan
         sodipodi:role="line"
         id="tspan1443-8-4"
         x="6.9307265"
         y="218.31862">Q</tspan></text>
    <rect
       style="fill:#000000;fill-rule:evenodd"
       id="rect1430-68"
       width="40.344086"
       height="13.591398"
       x="43.16555"
       y="23.464243" />
    <rect
       style="fill:#000000;fill-rule:evenodd"
       id="rect1430-68-3"
       width="40.344086"
       height="13.591398"
       x="122.44946"
       y="23.220936" />
    <path
       style="fill:#000000;stroke:#000000;stroke-width:1.06667;stroke-dasharray:none"
       id="path480-9"
       sodipodi:type="arc"
       sodipodi:cx="76.42231"
       sodipodi:cy="244.36678"
       sodipodi:rx="6.2279754"
       sodipodi:ry="6.2279754"
       sodipodi:start="2.283996"
       sodipodi:end="2.1373448"
       sodipodi:arc-type="slice"
       d="m 72.347614,249.07682 a 6.2279754,6.2279754 0 0 1 -0.781541,-8.60936 6.2279754,6.2279754 0 0 1 8.574926,-1.09659 6.2279754,6.2279754 0 0 1 1.410162,8.52897 6.2279754,6.2279754 0 0 1 -8.471549,1.72184 l 3.342698,-5.2549 z" />
    <path
       style="fill:#000000;stroke:#000000;stroke-width:1.06667;stroke-dasharray:none"
       id="path480-9-0"
       sodipodi:type="arc"
       sodipodi:cx="50.111542"
       sodipodi:cy="244.78468"
       sodipodi:rx="6.2279754"
       sodipodi:ry="6.2279754"
       sodipodi:start="2.283996"
       sodipodi:end="2.1373448"
       sodipodi:arc-type="slice"
       d="m 46.036846,249.49473 a 6.2279754,6.2279754 0 0 1 -0.781541,-8.60936 6.2279754,6.2279754 0 0 1 8.574926,-1.09659 6.2279754,6.2279754 0 0 1 1.410161,8.52897 6.2279754,6.2279754 0 0 1 -8.471548,1.72184 l 3.342698,-5.25491 z" />
    <path
       style="fill:#000000;stroke:#000000;stroke-width:1.06667;stroke-dasharray:none"
       id="path480-4-1"
       sodipodi:type="arc"
       sodipodi:cx="103.25848"
       sodipodi:cy="244.4312"
       sodipodi:rx="6.2279754"
       sodipodi:ry="6.2279754"
       sodipodi:start="2.283996"
       sodipodi:end="2.1373448"
       sodipodi:arc-type="slice"
       d="m 99.18378,249.14124 a 6.2279754,6.2279754 0 0 1 -0.78154,-8.60935 6.2279754,6.2279754 0 0 1 8.57493,-1.09659 6.2279754,6.2279754 0 0 1 1.41016,8.52897 6.2279754,6.2279754 0 0 1 -8.471551,1.72184 l 3.342701,-5.25491 z" />
    <path
       style="fill:#000000;stroke:#000000;stroke-width:1.06667;stroke-dasharray:none"
       id="path480-7-7"
       sodipodi:type="arc"
       sodipodi:cx="102.64204"
       sodipodi:cy="274.4101"
       sodipodi:rx="6.2279754"
       sodipodi:ry="6.2279754"
       sodipodi:start="2.283996"
       sodipodi:end="2.1373448"
       sodipodi:arc-type="slice"
       d="m 98.56734,279.12014 a 6.2279754,6.2279754 0 0 1 -0.78154,-8.60936 6.2279754,6.2279754 0 0 1 8.57493,-1.09659 6.2279754,6.2279754 0 0 1 1.41016,8.52897 6.2279754,6.2279754 0 0 1 -8.471551,1.72184 l 3.342701,-5.2549 z" />
    <path
       style="fill:#000000;stroke:#000000;stroke-width:1.06667;stroke-dasharray:none"
       id="path480-7-7-6"
       sodipodi:type="arc"
       sodipodi:cx="128.90724"
       sodipodi:cy="274.20404"
       sodipodi:rx="6.2279754"
       sodipodi:ry="6.2279754"
       sodipodi:start="2.283996"
       sodipodi:end="2.1373448"
       sodipodi:arc-type="slice"
       d="m 124.83255,278.91409 a 6.2279754,6.2279754 0 0 1 -0.78154,-8.60936 6.2279754,6.2279754 0 0 1 8.57492,-1.09659 6.2279754,6.2279754 0 0 1 1.41016,8.52897 6.2279754,6.2279754 0 0 1 -8.47155,1.72184 l 3.3427,-5.25491 z" />
    <path
       style="fill:#000000;stroke:#000000;stroke-width:1.06667;stroke-dasharray:none"
       id="path480-7-5-2-8"
       sodipodi:type="arc"
       sodipodi:cx="103.24357"
       sodipodi:cy="303.91418"
       sodipodi:rx="6.2279754"
       sodipodi:ry="6.2279754"
       sodipodi:start="2.283996"
       sodipodi:end="2.1373448"
       sodipodi:arc-type="slice"
       d="m 99.168872,308.62423 a 6.2279754,6.2279754 0 0 1 -0.78154,-8.60936 6.2279754,6.2279754 0 0 1 8.574928,-1.09659 6.2279754,6.2279754 0 0 1 1.41016,8.52897 6.2279754,6.2279754 0 0 1 -8.471549,1.72184 l 3.342699,-5.25491 z" />
    <path
       style="fill:#000000;stroke:#000000;stroke-width:1.06667;stroke-dasharray:none"
       id="path480-7-5-2-8-3"
       sodipodi:type="arc"
       sodipodi:cx="155.91798"
       sodipodi:cy="332.35455"
       sodipodi:rx="6.2279754"
       sodipodi:ry="6.2279754"
       sodipodi:start="2.283996"
       sodipodi:end="2.1373448"
       sodipodi:arc-type="slice"
       d="m 151.84329,337.0646 a 6.2279754,6.2279754 0 0 1 -0.78154,-8.60936 6.2279754,6.2279754 0 0 1 8.57492,-1.09659 6.2279754,6.2279754 0 0 1 1.41016,8.52897 6.2279754,6.2279754 0 0 1 -8.47154,1.72184 l 3.34269,-5.25491 z" />
    <path
       style="fill:#000000;stroke:#000000;stroke-width:1.06667;stroke-dasharray:none"
       id="path480-7-5-2-8-3-9"
       sodipodi:type="arc"
       sodipodi:cx="182.41261"
       sodipodi:cy="332.35458"
       sodipodi:rx="6.2279754"
       sodipodi:ry="6.2279754"
       sodipodi:start="2.283996"
       sodipodi:end="2.1373448"
       sodipodi:arc-type="slice"
       d="m 178.33792,337.06463 a 6.2279754,6.2279754 0 0 1 -0.78154,-8.60936 6.2279754,6.2279754 0 0 1 8.57492,-1.09659 6.2279754,6.2279754 0 0 1 1.41016,8.52897 6.2279754,6.2279754 0 0 1 -8.47154,1.72184 l 3.34269,-5.25491 z" />
    <text
       xml:space="preserve"
       style="font-weight:bold;font-size:28px;font-family:sans-serif;-inkscape-font-specification:'sans-serif Bold';fill:#000000;stroke:#000000;stroke-width:2;stroke-dasharray:none"
       x="7.6032796"
       y="252.99779"
       id="text1302-0"><tspan
         sodipodi:role="line"
         id="tspan1300-8"
         x="7.6032796"
         y="252.99779"
         style="font-style:normal;font-variant:normal;font-weight:normal;font-stretch:normal;font-family:Arial;-inkscape-font-specification:Arial">V</tspan></text>
    <rect
       style="fill:#000000;fill-rule:evenodd"
       id="rect1430-7"
       width="40.344086"
       height="13.591398"
       x="43.344589"
       y="297.21283" />
    <rect
       style="fill:#000000;fill-rule:evenodd"
       id="rect1430-2-8"
       width="40.344086"
       height="13.591398"
       x="122.35534"
       y="297.25583" />
    <rect
       style="fill:#000000;fill-rule:evenodd"
       id="rect1430-0-9"
       width="40.344086"
       height="13.591398"
       x="40.78545"
       y="325.79477" />
    <rect
       style="fill:#000000;fill-rule:evenodd"
       id="rect1430-0-4-6"
       width="40.344086"
       height="13.591398"
       x="94.410324"
       y="325.88763" />
    <rect
       style="fill:#000000;fill-rule:evenodd"
       id="rect1430-0-4-4-7"
       width="40.344086"
       height="13.591398"
       x="175.62427"
       y="297.54779" />
    <rect
       style="fill:#000000;fill-rule:evenodd"
       id="rect1430-6-1"
       width="40.344086"
       height="13.591398"
       x="122.61342"
       y="237.75047" />
    <text
       xml:space="preserve"
       style="font-style:normal;font-variant:normal;font-weight:normal;font-stretch:normal;font-size:28px;font-family:'Times New Roman';-inkscape-font-specification:'Times New Roman, ';fill:#000000;stroke:#000000;stroke-width:2;stroke-dasharray:none"
       x="7.4896455"
       y="283.4549"
       id="text1445-1"><tspan
         sodipodi:role="line"
         id="tspan1443-4"
         x="7.4896455"
         y="283.4549">X</tspan></text>
    <text
       xml:space="preserve"
       style="font-weight:bold;font-size:28px;font-family:sans-serif;-inkscape-font-specification:'sans-serif Bold';fill:#000000;stroke:#000000;stroke-width:2;stroke-dasharray:none"
       x="7.5335774"
       y="313.41711"
       id="text1302-5-6"><tspan
         sodipodi:role="line"
         id="tspan1300-2-25"
         x="7.5335774"
         y="313.41711"
         style="font-style:normal;font-variant:normal;font-weight:normal;font-stretch:normal;font-family:Arial;-inkscape-font-specification:Arial">Y</tspan></text>
    <text
       xml:space="preserve"
       style="font-style:normal;font-variant:normal;font-weight:normal;font-stretch:normal;font-size:28px;font-family:'Times New Roman';-inkscape-font-specification:'Times New Roman, ';fill:#000000;stroke:#000000;stroke-width:2;stroke-dasharray:none"
       x="8.3569031"
       y="342.21283"
       id="text1445-7-6"><tspan
         sodipodi:role="line"
         id="tspan1443-8-8"
         x="8.3569031"
         y="342.21283">Z</tspan></text>
    <rect
       style="fill:#000000;fill-rule:evenodd"
       id="rect1430-68-1"
       width="40.344086"
       height="13.591398"
       x="43.241322"
       y="267.66635" />
    <rect
       style="fill:#000000;fill-rule:evenodd"
       id="rect1430-68-3-1"
       width="40.344086"
       height="13.591398"
       x="148.28867"
       y="267.25098" />
  </g>
</svg>
