<?xml version="1.0" encoding="UTF-8" standalone="no"?>
<!-- Created with Inkscape (http://www.inkscape.org/) -->

<svg
   version="1.1"
   id="svg861"
   width="1066.6667"
   height="534.40002"
   viewBox="0 0 1066.6667 534.40002"
   sodipodi:docname="AndNotOr_wPQ.svg"
   inkscape:version="1.2.2 (732a01da63, 2022-12-09)"
   xmlns:inkscape="http://www.inkscape.org/namespaces/inkscape"
   xmlns:sodipodi="http://sodipodi.sourceforge.net/DTD/sodipodi-0.dtd"
   xmlns="http://www.w3.org/2000/svg"
   xmlns:svg="http://www.w3.org/2000/svg">
  <defs
     id="defs865">
    <clipPath
       clipPathUnits="userSpaceOnUse"
       id="clipPath1512">
      <path
         id="path1514"
         style="fill:#ff0000;fill-opacity:1;fill-rule:nonzero;stroke:none"
         d="m 28.890625,0 v 18.664062 c 2.065918,1.289949 4.044676,3.648634 5.521484,7.273438 1.099516,2.698727 1.945841,5.493556 2.806641,8.275391 0.291195,1.00853 0.565231,2.022071 0.847656,3.033203 0.278539,-0.09861 0.558075,-0.195921 0.855469,-0.277344 0.837197,-0.206999 1.684675,-0.364076 2.523437,-0.564453 0.08117,-0.01329 0.162902,-0.02045 0.244141,-0.0332 -2.159437,-1.966893 -3.192223,-4.299907 -3.628906,-7.390625 -2.252911,-15.945076 20.963251,13.458487 16.154297,-1.910157 -0.134588,-0.430102 -0.311677,-0.832118 -0.523438,-1.208984 -0.212318,-0.07958 -0.445133,-0.156874 -0.751953,-0.242187 -0.08523,-0.0237 -0.174116,-0.03177 -0.261719,-0.04492 -0.126259,-9.6e-4 -0.252627,-0.0031 -0.378906,-0.0039 -0.122632,-7.7e-4 0.246523,0.004 0.369141,0.002 0.0033,4.87e-4 0.0065,0.0015 0.0098,0.002 0.282495,0.0021 0.565179,0.0039 0.847657,0.0078 -0.407631,-0.641562 -0.932399,-1.195314 -1.566407,-1.65625 -0.311755,-0.18748 -0.585945,-0.363633 -0.966796,-0.574219 -0.126606,-0.07 0.259023,0.129206 0.388671,0.19336 0.202826,0.117998 0.393628,0.246713 0.578125,0.380859 0.762947,0.458787 1.406665,0.883027 1.878907,1.292969 0.159025,0.136985 0.272107,0.253046 0.412109,0.378906 0.841286,0.01775 1.682016,0.04341 2.521484,0.103516 1.714721,0.138762 3.428661,0.371756 5.033204,1.029297 1.415991,0.607902 2.767145,1.339071 4.019531,2.242187 0.67353,0.576273 2.110934,1.885976 2.302734,2.234375 0.836776,0.834122 1.68308,1.685792 2.404297,2.623047 0.01198,0.01556 -0.03115,-0.02339 -0.04687,-0.03516 0.113663,0.207768 -0.006,-0.0035 0.419922,0.457031 0.615276,0.6654 1.201154,1.363372 1.689453,2.128906 0.567554,0.870543 0.781906,1.313101 1.416016,2.134766 0.912003,1.307964 1.740067,2.66987 2.537109,4.050781 0.840565,1.436186 1.871399,2.75848 2.695313,4.207032 1.119601,1.791809 2.13263,3.650757 2.816406,5.658203 0.521717,1.466499 0.97683,2.955487 1.433594,4.443359 0.543825,1.946523 1.034441,3.913016 1.142578,5.941406 0.123081,2.150617 0.24839,4.301664 0.21875,6.457032 0.02079,2.233467 0.04053,4.46738 0.134765,6.699218 0.0513,0.849335 0.08402,1.705201 0.333985,2.525391 0.31154,1.002707 0.612578,2.021349 1.052734,2.972656 0.200349,0.438581 1.051624,2.248012 0.990234,2.470703 -1.909054,6.92474 -1.950359,12.403414 -10.427734,10.275391 -0.286438,-0.101462 -0.573079,-0.200881 -0.859375,-0.302735 -1.346527,0.09547 -2.69156,0.218623 -4.041016,0.267579 -0.901537,0.01203 -1.803069,-0.02422 -2.705078,-0.01758 -0.696573,0.360436 -1.437093,0.652023 -2.21875,0.865235 -1.995641,0.419557 -4.021735,0.628741 -6.058593,0.371094 -2.179547,-0.226395 -4.360579,-0.547503 -6.439454,-1.269532 -1.362934,-0.497118 -2.696652,-1.073788 -3.945312,-1.794921 0.149267,6.737126 -7.866017,10.521764 -16.054688,2.574218 l -0.789062,-0.767578 c -1.62282,-0.228653 -3.283155,-0.32405 -4.935547,-0.447266 v 35.88086 c 1.395627,0.52972 2.852698,0.8609 4.300781,1.20899 4.02232,0.83826 8.066684,1.56534 12.083985,2.42773 3.217005,0.68819 6.434729,1.37497 9.595703,2.29102 2.352345,0.64681 4.603874,1.55429 6.777344,2.65429 1.728249,0.97822 3.448292,1.96583 5.123046,3.03321 1.979263,1.19266 3.605914,2.81076 5.0625,4.58398 0.661919,0.96132 1.547124,1.69286 2.363282,2.51563 1.93365,1.97879 3.255047,4.39165 4.34375,6.9082 0.86523,2.22924 1.406851,4.56171 1.804687,6.91406 0.341809,2.20153 0.464623,4.42539 0.474609,6.65039 0.03912,2.94181 -0.389257,5.84692 -1.001953,8.71485 -0.493903,2.1222 -1.179023,4.19312 -1.699218,6.30859 -0.325263,1.4609 -0.456458,2.95273 -0.689453,4.42969 -0.277436,1.95346 -0.780536,3.86595 -1.316407,5.76172 -0.789129,2.91536 -2.607141,5.31013 -4.607422,7.5 -1.79995,1.80859 -3.947895,3.24964 -6.365234,4.0957 -0.568316,0.19891 -1.154952,0.34115 -1.732422,0.51172 -2.349054,0.57557 -4.764613,0.76477 -7.164062,1.00781 -2.145447,0.21147 -4.29945,0.27631 -6.447266,0.45508 -2.019426,0.13436 -4.025633,0.40852 -6.035156,0.64062 -1.740463,0.20292 -3.487031,0.35102 -5.236328,0.44922 -3.265404,0.0879 -5.407119,-0.77441 -7.857422,-3.18164 -0.804375,-0.79025 -1.356938,-1.78254 -1.777344,-2.83984 v 172.29883 c 0.09216,-0.26563 0.199272,-0.52584 0.287109,-0.79297 2.200696,-6.69285 6.369964,-9.64649 9.972657,-9.56055 3.800242,0.0906 6.760777,3.70483 6.326171,9.73633 1.010122,0.77079 1.972406,1.81493 2.859376,3.08984 2.79223,-0.75905 5.590415,-1.49959 8.390624,-2.23047 1.947714,-0.50837 3.72208,-0.70905 5.306641,-0.66406 3.979246,0.11297 6.748843,1.78303 8.046875,4.03906 4.883965,-2.14655 10.813557,1.89056 10.121094,11.8711 -0.147717,2.12886 -0.06782,1.03901 -0.248047,3.26953 -0.332297,3.40229 -0.784391,6.79006 -1.210937,10.18164 -0.326071,2.72759 -0.72116,5.46628 -0.6875,8.21875 0.0178,0.38927 0.03466,0.77685 0.05469,1.16601 0.01496,0.29213 0.300793,0.88971 0.01172,0.88086 0.147724,0.29762 0.330245,0.66595 0.371094,0.71289 0.564865,1.17845 1.04922,2.38183 1.388671,3.64649 -0.03217,0.16056 0.297988,0.62703 0.335938,0.84961 0.397181,0.81248 0.83629,1.60472 1.265625,2.40039 0.390337,0.73672 0.724901,1.50737 1.220703,2.17969 0.534447,0.79074 1.071874,1.58094 1.603516,2.37304 0.456822,0.60931 0.925146,1.19794 1.451171,1.75196 0.701175,0.88153 1.400671,1.76681 2.035157,2.69922 0.533046,0.87211 0.898942,1.50923 1.458984,2.47265 0.659651,1.32383 1.190403,2.69347 1.601563,4.11524 0.388527,1.31399 0.683914,2.64808 0.99414,3.98242 0.350676,1.5546 0.650481,3.12102 0.78711,4.71093 0.274021,2.8231 0.29329,5.67106 -0.5625,8.41016 -0.241892,0.60253 -0.437051,1.22452 -0.72461,1.80664 -1.005346,2.03522 -2.579742,3.66487 -4.392578,4.99414 -1.678797,1.20024 -3.470466,2.20204 -5.464844,2.7793 -2.06333,0.61628 -4.173136,1.00129 -6.332031,1.05469 -2.283194,0.1059 -4.56689,0.0676 -6.851562,0.0215 -2.90938,-0.0537 -5.816365,-0.15185 -8.72461,-0.24805 -3.501327,-0.10292 -7.004062,-0.11716 -10.505859,-0.19726 -3.696068,-0.11216 -7.393326,-0.26717 -11.072266,-0.6582 -3.073249,-0.35566 -6.18133,-0.77197 -9.113281,-1.74024 v 71.0957 H 995.19922 v -225.963 c -0.37501,0.23965 -0.74264,0.45141 -1.08594,0.59961 -4.0563,1.75119 -6.89563,2.03115 -11.09961,0.43946 -1.49615,-0.56647 -2.67743,-1.75417 -4.01562,-2.63086 -1.42836,-1.50575 -1.85383,-1.8645 -3.12305,-3.59375 -0.37612,-0.51245 -0.71978,-1.04567 -1.06055,-1.58008 0.74037,15.76756 -15.25487,16.66663 -16.21875,0.69922 -0.20024,-3.31716 -0.36014,-6.63632 -0.33984,-9.96094 0.0199,-5.78958 0.0494,-11.57952 0.0312,-17.36914 -0.0451,-4.37601 -0.24768,-8.74563 -0.71289,-13.09961 -0.44168,-4.51416 -0.75286,-9.05527 -1.60742,-13.51562 -0.64815,-2.87489 -1.3651,-5.73185 -2.45118,-8.47852 -3.33829,-8.44247 0.11487,-13.78343 4.76954,-14.29297 1.10997,-6.27091 5.06642,-9.61056 9.25586,-9.66016 4.93616,-0.0584 10.19324,4.44959 11.49218,14.10743 0.28287,2.10318 0.51669,4.21123 0.73047,6.32226 -0.0172,-0.4369 -0.0445,-0.87377 -0.0606,-1.31054 -0.51991,-14.1834 9.09912,-19.03143 15.4961,-14.07422 V 0 Z m 16.384766,52.505859 c -0.309486,0.713757 -0.649216,1.413915 -0.998047,2.109375 -0.0082,0.0164 -0.01714,0.03054 -0.02539,0.04687 0.507516,1.09632 1.02502,2.187996 1.529297,3.285157 0.213952,0.484947 0.424971,0.97076 0.630859,1.458984 0.854981,-0.08993 1.73538,0.0091 2.603516,0.285156 0.006,-0.0051 0.01157,-0.01056 0.01758,-0.01563 0.75214,-0.632555 1.620689,-1.110859 2.431641,-1.666015 0.04941,-0.01673 0.09733,-0.03884 0.146484,-0.05664 -0.585442,-0.606591 -1.156831,-1.227425 -1.701172,-1.871094 -0.132521,-0.07793 -0.885847,-0.71096 -0.890625,-0.714843 -0.451005,-0.378662 -0.880042,-0.783721 -1.302734,-1.19336 -0.06669,-0.06463 -0.108983,-0.100529 -0.203125,-0.189453 -0.06142,-0.0429 -0.123954,-0.08357 -0.183594,-0.128906 -0.734521,-0.558427 -0.528512,-0.406457 -0.546875,-0.425781 0.05188,0.04669 0.0058,0.0257 -0.271484,-0.16211 -0.479967,-0.325137 -0.614023,-0.451265 -0.382813,-0.248047 -0.147967,-0.10458 -0.529689,-0.326377 -0.853515,-0.513672 z m -16.384766,7.664063 v 4.771484 c 0.616324,-0.381494 1.290759,-0.399884 1.947266,-0.5625 -0.621269,-1.371087 -1.208878,-2.758447 -1.890625,-4.099609 -0.01912,-0.03633 -0.03756,-0.07303 -0.05664,-0.109375 z m 47.904297,33.691406 c -0.06382,0.0038 -0.127599,0.0096 -0.191406,0.01367 0.27255,0.0253 0.46956,0.03704 0.191406,-0.01367 z M 46.003906,162.01953 c -7.42e-4,0.002 -0.0012,0.003 -0.002,0.006 0.0013,-0.002 0.0026,-0.002 0.0039,-0.004 z m 440.851564,6.1543 c 3.80494,0 7.60973,3.52562 8.08398,10.57422 0.65545,-0.77537 1.33993,-1.52524 1.99219,-2.30274 3.23436,-3.85532 6.66299,-5.48568 9.53516,-5.52734 6.31868,-0.0917 9.94399,7.50806 2.88281,16.03515 -0.0874,0.1056 -0.18196,0.20506 -0.26953,0.31055 0.14162,-0.0405 0.27866,-0.0958 0.42187,-0.13086 0.96299,-0.32745 1.87947,-0.7788 2.84766,-1.09375 1.18972,-0.3937 2.37312,-0.81987 3.5957,-1.10156 1.7858,-0.38213 3.59665,-0.65536 5.42969,-0.59766 2.20489,0.0285 4.43102,0.12402 6.53711,0.85157 1.04959,0.38841 1.78578,0.6141 2.78125,1.21093 1.91856,1.15028 3.47731,2.7265 4.50781,4.71485 1.21646,2.501 1.72861,4.86977 1.15235,7.63672 -0.27074,1.34397 -0.58958,2.6884 -1.07422,3.97265 -0.44078,0.99478 -0.93306,1.94742 -1.53321,2.85547 -0.0185,0.028 0.0274,-0.0612 0.041,-0.0918 -0.45791,0.81946 -0.93393,1.62553 -1.37695,2.45313 -1.43677,2.36921 -3.25328,4.41783 -6.03711,5.21094 -0.78783,0.22444 -1.61619,0.27517 -2.42383,0.41211 -1.09892,-0.17488 -2.25316,-0.1343 -3.29492,-0.52539 -1.45281,-0.54541 -2.60161,-1.38434 -3.52149,-2.42188 -0.4315,-0.0134 -0.86383,-0.0128 -1.29492,-0.0371 -1.35675,-0.0799 -2.71128,-0.18969 -4.06445,-0.31641 -0.57095,-0.0479 -1.12658,-0.0923 -1.69922,-0.10351 -0.0849,-0.002 -0.18884,0.0308 -0.26172,0.008 4e-5,5.7e-4 -5e-5,0.003 0,0.004 -0.003,-0.004 -0.003,-0.002 -0.006,-0.006 -0.0158,-0.006 -0.0402,0.002 -0.0508,-0.0137 -0.0102,-0.0151 -10e-4,-0.0222 0.008,-0.0293 -0.0112,0.002 -0.018,0.004 -0.0293,0.006 0.0104,0.078 0.0488,0.26632 0.0625,0.60742 0.0237,0.59251 0.0588,1.18437 0.10742,1.77539 0.0154,0.18771 0.0339,0.37492 0.0508,0.5625 0.14438,1.26421 0.39072,2.51552 0.75976,3.73438 0.18432,0.59076 0.36646,1.18454 0.56055,1.77343 0.11166,-0.0916 0.22048,-0.18747 0.34375,-0.26171 0.3713,-0.25547 0.69796,-0.58946 1.05078,-0.87891 0.21595,-0.33732 0.4336,-0.67319 0.68946,-0.98242 0.17961,-0.21047 1.84512,-2.16816 2.15429,-2.12696 9.21022,1.22849 11.15886,-0.90137 12.93945,4.67188 0.18621,0.71878 0.32141,1.44307 0.48243,2.16602 0.0735,0.27577 0.1472,0.55227 0.2207,0.82812 -0.0325,-0.0668 -0.20416,-0.41202 -0.0781,-0.11719 0.62051,1.17386 1.21931,2.36309 1.69727,3.60352 0.55213,1.49808 0.9773,3.03099 1.31445,4.59179 0.51702,2.08872 0.9468,4.20445 0.81836,6.3711 -0.0283,1.52476 -0.0589,3.05115 -0.20312,4.57031 -0.15735,1.42966 -0.37994,2.8547 -0.83399,4.22461 -0.59379,1.78722 -1.37496,3.48714 -2.66406,4.89258 -1.1379,1.32972 -2.38957,2.54611 -3.82226,3.56055 -1.16288,0.78052 -2.36722,1.49374 -3.60157,2.15625 -1.50717,0.79299 -3.04673,1.54173 -4.68164,2.0371 -1.7091,0.59637 -3.42986,1.16094 -5.16601,1.67383 -1.19684,0.34507 -2.41539,0.60076 -3.59571,0.99024 -1.47262,0.54316 -2.96573,1.02782 -4.48632,1.41992 -1.67813,0.40182 -3.36479,0.76332 -5.06836,1.04101 -1.98102,0.31743 -3.9678,0.65177 -5.98047,0.66797 -2.29332,0.0327 -4.58888,-0.0399 -6.875,-0.22851 -2.38887,-0.27609 -4.78312,-0.68354 -6.94922,-1.78906 -1.83874,-0.98999 -3.54724,-2.16035 -5.02735,-3.64649 -1.48813,-1.53305 -2.86319,-3.17687 -3.98437,-5.00195 -1.03547,-1.69701 -2.05286,-3.41439 -2.76758,-5.27735 -0.90142,-2.18203 -1.66938,-4.41772 -2.08984,-6.74804 -0.5688,-2.62475 -1.10118,-5.26467 -1.25586,-7.95313 -0.13386,-2.94164 -0.10376,-5.88721 0.1875,-8.82031 0.34567,-3.40894 0.87935,-6.80563 2.23242,-9.98242 1.48538,-3.34559 3.27131,-6.5394 5.3457,-9.5586 2.17005,-3.13252 4.52755,-6.12061 7.10157,-8.93359 v -3.83008 -11.66211 c 0,-8.05179 4.066,-12.07812 8.13281,-12.07812 z m 33.2168,42.51367 c 0.028,0.004 0.0574,0.008 0.0918,0.0117 -0.0346,-0.0299 0.18242,-0.008 0.13672,-0.01 -0.0761,-0.003 -0.15236,-0.002 -0.22851,-0.002 z m -34.13672,18.90039 c 0.0109,0.20043 0.0119,0.37527 0.0293,0.59375 0.0622,0.7799 -0.003,-0.41893 -0.0195,-0.49023 -0.003,-0.0344 -0.007,-0.069 -0.01,-0.10352 z m -5.78907,0.46875 c 0.002,0.72963 -0.0826,1.45792 -0.043,2.1875 0.13309,1.79337 0.52441,3.55001 0.90429,5.30274 0.21599,1.3683 0.67149,2.6643 1.20899,3.93359 0.39596,1.09699 1.03518,2.07348 1.63867,3.0625 0.48696,0.713 1.00194,1.43556 1.64453,2.01953 0.31429,0.20566 -0.0979,-0.0721 0.57812,0.48828 0.0103,0.009 -0.0252,-0.0461 -0.0137,-0.0391 0.10152,0.0593 0.3734,0.26655 0.3125,0.16601 0.0339,0.008 0.0718,0.0436 0.10157,0.0254 0.0219,-0.0134 -0.0577,-0.0292 -0.0547,-0.0547 0.003,-0.0266 1.20063,0.12727 1.31055,0.13867 0.30614,0.015 0.61343,0.01 0.91992,0.0254 -0.65905,-0.78498 -1.2877,-1.59593 -1.87891,-2.42578 -2.03649,-3.0265 -3.9082,-6.17865 -5.12305,-9.63672 -0.5846,-1.73187 -0.86727,-2.45727 -1.31445,-4.29102 -0.0729,-0.29882 -0.12616,-0.60175 -0.19141,-0.90234 z m -4.6875,35.83008 c 2.76424,-0.13546 5.74351,1.79227 7.81836,5.95703 0.53411,-0.14427 1.07702,-0.22266 1.6211,-0.22266 3.63912,1e-5 7.12127,3.41093 7.85742,9.86719 0.28361,-0.0542 0.56502,-0.10939 0.86133,-0.1543 0.16742,-0.0254 0.33454,-0.0488 0.50195,-0.0742 1.42185,-0.20852 2.85163,-0.31596 4.28516,-0.41016 0.71753,-0.0301 1.43659,-0.0416 2.15429,-0.0449 0.71771,-0.003 1.43422,6e-4 2.15235,0.004 1.6875,0.005 3.37509,0.0127 5.0625,0.0312 1.74352,0.0252 3.48875,0.0631 5.22851,0.1875 2.237,0.183 4.47781,0.46469 6.57227,1.32422 2.27246,1.08158 5.52144,2.90358 5.66601,5.86328 0.157,3.21428 -0.0664,5.18196 -0.82031,6.61524 0.0495,0.0255 0.10501,0.0244 0.1543,0.0508 1.51697,0.94856 2.55159,1.80497 3.66406,3.18359 0.12321,0.1492 0.25666,0.29045 0.36719,0.44922 0.0642,0.0923 -0.15062,-0.16705 -0.22852,-0.24805 -0.0142,-0.0148 0.023,0.0339 0.0371,0.0488 0.42871,0.45214 0.8608,0.89215 1.26758,1.36524 0.92725,1.20472 1.7665,2.45368 2.26758,3.90234 0.48761,1.17867 0.88934,2.3859 1.20312,3.62305 0.26486,1.12258 0.54191,2.2411 0.70508,3.38476 0.0602,0.6821 0.30532,1.33791 0.35742,2.02149 0.002,0.11514 -0.043,-0.0449 -0.0762,-0.0684 l 0.33203,0.79883 c 0.16715,0.60495 0.38542,1.19774 0.50196,1.81445 0.31248,1.65366 0.10664,3.33411 -0.23438,4.96094 -0.26405,1.09126 -0.60419,2.15319 -0.98242,3.20898 -0.15566,0.4514 -0.26456,0.92595 -0.42383,1.37891 0.004,0.35491 0.0117,0.71018 0,1.06445 -10e-4,0.93654 -0.003,1.87214 -0.01,2.80859 -0.01,1.19814 -0.0223,2.39635 -0.0684,3.59376 -0.0761,1.70364 -0.18002,3.41508 -0.56641,5.08203 -0.45919,1.75095 -1.06168,3.46334 -1.99023,5.02734 -0.9426,1.66644 -1.98427,3.29554 -3.40625,4.60156 -1.14292,1.02551 -2.33639,2.00696 -3.68555,2.75391 -1.22598,0.69783 -2.44089,1.42349 -3.72266,2.01562 -1.49204,0.62652 -3.01409,1.14884 -4.60351,1.46875 -1.70454,0.41912 -3.42565,0.77889 -5.16992,0.98829 -1.17084,0.16549 -2.3418,0.33677 -3.51758,0.46093 -1.03131,0.1655 -2.03923,0.44784 -3.07032,0.61524 -1.47351,0.28753 -2.9425,0.60914 -4.44531,0.70507 -1.47303,0.16576 -2.95046,0.249 -4.42578,0.39063 -1.74081,0.18673 -3.47151,0.45787 -5.21289,0.64063 -1.89717,0.1505 -3.79006,0.13093 -5.68555,-0.0566 -2.93842,-0.3092 -5.76462,-0.94674 -8.125,-2.86328 -0.4323,-0.42399 -0.88877,-0.82416 -1.29687,-1.27148 -1.41912,-1.5555 -2.33026,-3.54166 -3.12891,-5.45899 -0.79117,-2.41059 -1.32965,-4.87948 -1.62305,-7.40234 -0.40154,-3.39319 -0.71622,-6.80312 -0.73632,-10.22266 0.0445,-5.17092 0.28008,-10.33928 0.52734,-15.5039 0.28947,-5.12909 0.60108,-10.25616 0.78516,-15.39063 0.15691,-3.89407 0.29901,-7.79862 -0.0488,-11.6875 -0.19273,-2.27359 -0.41354,-4.55304 -0.91602,-6.7832 -1.99096,-8.83677 1.80026,-14.17552 6.26953,-14.39453 z m 41.14454,43.1289 c -0.007,-0.0179 0.0148,0.0401 0.0195,0.0547 10e-4,7.8e-4 0.003,8e-4 0.004,0.002 -0.0259,-0.0639 0.009,0.024 -0.0234,-0.0566 z m 0.22265,0.6875 c -1.21685,0.047 -2.43163,0.1688 -3.63867,0.32618 -1.55414,0.14946 -3.09679,0.38243 -4.64453,0.58398 -1.48152,0.19625 -2.97465,0.26827 -4.4668,0.32617 -0.0189,5.6e-4 -0.0378,8.8e-4 -0.0566,0.002 -0.13655,0.78416 -0.25852,1.5712 -0.36719,2.36132 -0.11774,1.02254 -0.22548,2.04604 -0.32812,3.07032 0.68238,0.29219 1.40044,0.50338 2.01758,0.94531 1.01766,0.79672 1.92387,1.6494 2.74804,2.60352 1.2377,-0.37983 2.52363,-0.58076 3.87696,-0.50586 1.03885,0.13367 1.94259,0.25757 2.93164,0.55664 0.1808,0.0547 0.3599,0.11598 0.53906,0.17578 0.0843,0.0281 0.27745,0.003 0.25195,0.0879 -0.002,0.005 -0.007,0.004 -0.01,0.008 0.65267,0.1756 1.30093,0.37096 1.93554,0.59961 0.23524,-0.94276 0.44288,-1.8937 0.75782,-2.81055 0.0349,-0.24985 0.14366,-0.48878 0.25195,-0.72851 -0.17216,-0.61071 -0.30978,-1.23056 -0.42773,-1.86133 -0.1305,-0.83244 -0.32623,-1.72912 -0.46289,-2.69336 -0.10901,-0.6275 -0.25531,-1.14901 -0.4043,-1.76953 -0.10312,-0.25804 -0.21096,-0.70814 -0.28516,-0.95703 -0.0191,-0.0638 0.085,0.24796 0.0469,0.19336 -0.0434,-0.062 -0.14922,-0.44834 -0.0703,-0.16797 -0.0987,-0.23163 -0.0758,-0.18842 -0.0937,-0.23047 -0.0328,-0.0371 -0.0691,-0.0778 -0.10156,-0.11524 z m -13.5039,6.6875 c -0.11171,1.11567 -0.21368,2.23252 -0.3086,3.34961 1.67012,-1.07366 2.31726,-2.16731 0.3086,-3.34961 z m 30.00976,7.74219 c -0.006,0.15335 -8.3e-4,0.30729 0,0.46094 0.0537,-0.23704 0.10625,-0.47909 0.0234,-0.28125 -0.006,0.0363 -0.0145,0.14591 -0.0195,0.10938 -0.012,-0.0954 5.4e-4,-0.38517 -0.004,-0.28907 z M 53.835938,392.76172 c -0.04345,0.0117 -0.08741,0.0215 -0.13086,0.0332 0.04055,0.22729 0.08481,0.45348 0.13086,0.67969 -3.26e-4,-0.23768 -6.1e-5,-0.47537 0,-0.71289 z m -14.113282,18.17969 c -1.307371,0.56874 -2.844224,0.6901 -4.458984,0.29687 -0.47548,2.61304 -0.939238,5.22791 -1.273438,7.86328 0.205305,-0.26743 0.408104,-0.53556 0.623047,-0.79687 1.088184,-1.29107 2.431998,-2.32668 3.621094,-3.51367 0.494924,-0.46681 1.018996,-0.89565 1.556641,-1.30664 -0.01876,-0.84772 -0.03771,-1.69556 -0.06836,-2.54297 z m 38.199219,2.72461 c 0.0391,0.10268 0.08141,0.20496 0.123047,0.30664 0.02063,0.0418 0.03589,0.0655 0.05859,0.11132 -0.02746,-0.0304 -0.10787,-0.2305 -0.181641,-0.41796 z M 38.40625,427.13281 c -0.119507,-0.006 -0.46594,0.11401 -0.347656,0.0957 0.131935,-0.0203 0.262316,-0.058 0.392578,-0.0918 -0.01501,-8.4e-4 -0.02991,-0.003 -0.04492,-0.004 z m 17.373047,2.38086 c -0.05362,0.27154 -0.09536,0.54518 -0.164063,0.81445 -0.12325,0.48324 -0.298249,0.95181 -0.447265,1.42774 -0.83076,2.48549 -2.161269,4.37121 -3.990235,6.22656 -1.240958,1.15363 -2.570282,2.27432 -4.064453,3.09375 -0.494997,0.27147 -1.010789,0.50509 -1.515625,0.75781 -1.535729,0.63103 -3.135518,1.17171 -4.787109,1.40235 -0.482714,0.0674 -0.969143,0.17432 -1.455078,0.13672 -1.139149,-0.0881 -2.260862,-0.34126 -3.390625,-0.51172 -0.968006,-0.54039 -2.058967,-0.90383 -2.904297,-1.6211 -0.241942,-0.20528 -0.462888,-0.42611 -0.679688,-0.64843 0.09311,0.4365 0.160034,0.87678 0.253907,1.3125 0.333261,1.5469 0.743999,3.06066 1.175781,4.58203 0.182812,-0.005 0.227135,0.17436 0.25,0.38672 1.889365,0.50117 3.839932,0.72663 5.779297,0.9414 3.232592,0.33565 6.481665,0.46686 9.728515,0.56446 3.497001,0.0745 6.993757,0.0931 10.490235,0.19531 1.259752,0.0412 2.519694,0.0685 3.779297,0.10742 -1.855016,-0.89983 -2.104832,-2.01413 0.798828,-2.84375 -1.552395,-1.03196 -2.287946,-2.98381 -2.945313,-4.58008 -0.213451,-0.54506 -0.345168,-1.11183 -0.464844,-1.68359 -0.861472,-0.48283 -1.297967,-1.74762 -1.46289,-4.0625 -0.149343,0.0956 0.163974,0.99536 0.02734,0.59375 -0.544241,-1.60009 -0.827882,-3.07077 -0.916016,-4.41797 -0.03901,-0.0359 -0.08576,-0.0664 -0.123047,-0.10352 -0.956219,-0.73607 -1.983494,-1.37769 -2.972656,-2.07031 z m 7.431641,10.08203 c -0.204743,0.0371 -0.537924,0.20037 -0.720704,0.21094 0.281827,0.18551 0.661241,0.21032 0.986328,0.32227 -0.05579,-0.10591 -0.114488,-0.21032 -0.169921,-0.31641 -0.03374,-0.0716 -0.06262,-0.145 -0.0957,-0.2168 z m -29.111329,7.58594 c 0.01744,0.2276 0.0467,0.44999 0.197266,0.54297 0.08277,0.0511 0.0029,-0.20152 -0.03516,-0.29102 -0.04734,-0.11126 -0.10389,-0.17927 -0.16211,-0.25195 z" />
    </clipPath>
  </defs>
  <sodipodi:namedview
     id="namedview863"
     pagecolor="#ffffff"
     bordercolor="#000000"
     borderopacity="0.25"
     inkscape:showpageshadow="2"
     inkscape:pageopacity="0.0"
     inkscape:pagecheckerboard="0"
     inkscape:deskcolor="#d1d1d1"
     showgrid="false"
     showguides="true"
     inkscape:zoom="2"
     inkscape:cx="473"
     inkscape:cy="143"
     inkscape:window-width="3840"
     inkscape:window-height="2054"
     inkscape:window-x="1909"
     inkscape:window-y="-11"
     inkscape:window-maximized="1"
     inkscape:current-layer="g867">
    <sodipodi:guide
       position="525.87753,423.33732"
       orientation="0,-1"
       id="guide1442"
       inkscape:locked="false" />
    <sodipodi:guide
       position="519.7289,422.17537"
       orientation="0,-1"
       id="guide1444"
       inkscape:locked="false" />
    <sodipodi:guide
       position="476.49998,242.40002"
       orientation="1,0"
       id="guide1707"
       inkscape:locked="false" />
  </sodipodi:namedview>
  <g
     inkscape:groupmode="layer"
     inkscape:label="Image"
     id="g867">
    <path
       id="path940"
       style="display:inline;fill:#000000;stroke-width:1.06667"
       d="m 162.13281,0 v 27.732422 27.734375 h -16.89648 c -9.29295,0 -24.89234,0.315707 -34.66602,0.701172 l -17.769529,0.701172 v 7.832031 7.832031 h 34.503909 34.5039 l 0.69532,11.365235 c 0.3825,6.25125 0.69531,28.109852 0.69531,48.574222 v 37.20898 L 128,168.93945 92.800781,168.19531 v 8.70313 8.70117 h 27.572269 c 15.16478,0 31.24391,0.31003 35.73242,0.68945 l 8.16211,0.69141 V 213.49023 240 h 109.21484 c 119.54335,0 116.18212,0.1589 135.5293,-6.38086 42.38525,-14.32712 67.78365,-48.64114 73.63672,-99.48633 L 483.35352,128 h 31.92382 31.92188 v -8 -8 h -31.87305 -31.875 l -0.7539,-8.26758 C 480.94538,84.510052 475.5255,65.597372 467.82422,51.826172 452.84229,25.036005 427.85875,8.1614685 393.53516,1.6503906 386.02605,0.22594001 369.53595,0 273.48242,0 Z m 16.76563,14.591797 98.55078,0.6875 c 58.23459,0.406011 101.60544,1.137215 106.01758,1.787109 13.3918,1.972578 24.33391,5.309416 35.58398,10.853516 9.14383,4.506135 12.56618,6.937129 19.8418,14.095703 12.40631,12.206711 19.16857,24.704297 24.10351,44.541016 3.25764,13.094425 4.03717,39.604039 1.59375,54.216799 -7.93976,47.4832 -36.39606,75.51344 -83.375,82.12304 -5.33012,0.74991 -43.44864,1.42808 -104.00195,1.84961 l -95.58594,0.66407 -0.67187,-22.83789 c -0.36987,-12.5612 -0.98482,-59.99627 -1.36524,-105.410161 z m -117.558596,19.457031 -6.9375,0.308594 -6.935547,0.308594 -3.365235,9.601562 c -0.0482,0.137528 -0.190888,0.541182 -0.242187,0.6875 1.350386,-0.905194 2.778852,-1.332625 4.144531,-1.314453 2.136427,0.02843 4.117246,1.142202 5.402344,3.193359 0.182864,-0.572625 0.469709,-1.682723 0.591797,-2.033203 0.57258,-1.643713 6.765982,16.11523 6.789062,19.466797 0.01082,1.571797 -0.997706,1.865234 -6.386718,1.865234 -1.089149,0 -1.896577,-0.07841 -2.796875,-0.134765 -0.03537,0.09544 -0.06781,0.191773 -0.103516,0.287109 -0.242707,0.673566 -0.38598,1.370159 -0.503906,2.074219 -0.058,0.356138 -0.09525,0.713399 -0.13086,1.072266 -0.204283,2.058955 -0.652754,3.823835 -1.273437,5.304687 l 5.064453,0.158203 9.806641,0.304688 1.761718,5.867187 1.759766,5.867188 6.144531,0.324218 c 4.692801,0.247457 6.026482,-0.0042 5.646485,-1.066406 -0.273612,-0.764841 -4.533984,-12.810771 -9.466797,-26.767578 z m -26.736328,37.216797 -5.712891,16.201172 6.087891,-0.002 6.08789,-0.002 1.892578,-6.4375 0.134766,-0.458985 c -0.900115,0.131472 -1.802917,0.05616 -2.669922,-0.199218 -1.728445,2.752591 -4.7329,1.241724 -3.175781,-2.03125 0.0013,-0.0026 0.0027,-0.0052 0.0039,-0.0078 -1.424054,-1.574013 -2.437428,-3.937946 -2.648437,-7.0625 z M 548.26758,110.93359 v 53.33399 53.33203 h 53.82422 53.82617 l 1.63086,5.49219 c 7.43524,25.0372 8.37389,55.03413 2.52148,80.51172 l -2.29492,9.99609 h -54.75391 -54.7539 v 43.73437 43.73243 l -14.13477,0.13867 c -7.77331,0.0762 -19.90948,0.28814 -26.9707,0.4707 l -12.83984,0.33203 -1.8418,-5.1875 c -2.40411,-6.76891 -9.84068,-14.34727 -17.57813,-17.91211 -5.17441,-2.38395 -7.56204,-2.80857 -15.70312,-2.79297 -11.59983,0.0223 -19.21428,2.61475 -26.48828,9.01758 -5.11429,4.50178 -11.37696,15.47066 -11.37696,19.92578 0,1.42184 -0.40514,2.42603 -0.89843,2.23047 -0.49329,-0.19555 -55.871,-26.63592 -123.0625,-58.75586 -67.19152,-32.11992 -122.58845,-58.40027 -123.10352,-58.40039 -0.53038,-1.3e-4 -0.77566,24.28625 -0.56641,56 l 0.36915,56 H 133.43555 92.800781 v 8.36719 8.36719 l 16.167969,0.69922 c 8.89326,0.38493 27.13512,0.70117 40.53516,0.70117 h 24.36328 v 56.5332 c 1e-5,38.3766 0.35537,56.5332 1.10742,56.5332 0.60931,0 27.3695,-12.54951 59.4668,-27.88671 32.09728,-15.33721 86.83895,-41.49674 121.64843,-58.13282 34.80949,-16.63606 63.64229,-30.24804 64.07227,-30.24804 0.42998,0 1.60102,2.60289 2.60351,5.7832 3.72128,11.80526 15.4996,20.93232 29.50196,22.86523 18.48078,2.55116 34.87473,-5.74297 40.35351,-20.41601 l 2.07813,-5.56641 35.3164,0.41406 35.31836,0.41211 V 375.61328 330.66602 H 608 c 23.46663,0 42.66602,0.25438 42.66602,0.56445 0,0.31006 -1.39669,3.30942 -3.10352,6.66601 -4.00488,7.87586 -12.22226,19.49535 -19.1543,27.08008 -5.43131,5.9428 -5.47461,6.04356 -5.47461,13.03906 v 7.05079 h 23.94532 c 25.45092,0 38.52109,-1.24027 62.63476,-5.94141 48.52575,-9.46175 92.76077,-29.05016 125.80664,-55.71094 11.4094,-9.20486 29.02682,-27.905 37.19336,-39.48047 l 6.91211,-9.80078 h 29.08789 29.08594 v -8.5332 -8.5332 l -29.06641,-0.002 -29.0664,-0.002 -6.79102,-10.24219 c -35.94235,-54.2157 -90.36643,-85.86613 -166.54297,-96.85156 -16.84297,-2.42894 -34.17463,-3.70916 -61.0664,-4.51367 l -24.26563,-0.72656 v 7.99609 c 0,7.82227 0.089,8.08956 4.1211,12.32812 2.26668,2.38281 6.27468,7.13958 8.9082,10.57227 5.08293,6.62538 15.30529,23.62329 14.59375,24.26758 -0.23268,0.21069 -19.02454,0.60149 -41.75781,0.86914 l -41.33204,0.48633 V 156.0918 110.93359 h -8.5332 z M 35.199219,143.75781 v 28.92188 28.91992 l 12.533203,-0.006 c 15.282186,-0.007 19.822086,-1.16387 25.042969,-6.38477 3.744141,-3.74413 4.02539,-4.46173 4.02539,-10.3125 0,-7.22742 -1.777232,-10.53475 -6.794922,-12.64453 l -3.322265,-1.39648 3.005859,-1.36914 c 5.417596,-2.46843 7.739061,-10.99978 4.767578,-17.52149 -2.474672,-5.4313 -8.295344,-7.26807 -24.589843,-7.76172 z m 11.734375,9.8418 H 52.5625 c 3.368609,0 6.58138,0.66651 8,1.66016 3.177148,2.22534 3.177148,7.25511 0,9.48046 -1.41862,0.99364 -4.631391,1.66016 -8,1.66016 H 46.933594 V 160 Z m 598.208986,8.31445 11.5625,0.69336 c 62.84864,3.7588 94.18482,10.86533 130.67187,29.63867 24.44837,12.57918 45.41316,29.85705 61.82422,50.95313 8.18835,10.52595 14.79988,20.63279 14.79688,22.61719 -0.003,1.86724 -10.60784,15.89525 -19.45899,25.73828 -3.95729,4.40075 -11.639,11.7278 -17.06836,16.2832 -38.13887,31.99991 -90.35306,52.42582 -152.27148,59.56641 -7.91998,0.91335 -17.37338,1.6614 -21.00781,1.66211 h -6.60743 l 5.70118,-8.27539 c 11.18004,-16.23006 19.74804,-36.39426 24.27343,-57.12305 2.0735,-9.49777 2.37027,-13.95947 2.35157,-35.40039 -0.0186,-21.34012 -0.32726,-25.90743 -2.37305,-35.08789 -5.16063,-23.15818 -14.33113,-44.88856 -26.34961,-62.4375 z M 46.933594,176 h 6.447265 c 5.50057,0 6.852517,0.4033 9.1875,2.73828 2.208022,2.20802 2.60901,3.39356 2.080079,6.13281 -0.360655,1.86777 -1.665786,4.23505 -2.902344,5.26172 C 60.165918,191.44477 57.629928,192 53.214844,192 h -6.28125 v -8 z m 470.486326,14.0625 c -6.67459,-0.20418 -12.23008,1.70339 -17.00781,5.79297 -5.79418,4.95959 -8.14906,11.44343 -8.13086,22.38086 0.0125,7.4732 0.44282,9.47454 3.19922,14.85156 2.48439,4.84642 4.22043,6.76152 7.88672,8.69727 3.80563,2.00932 6.24456,2.4611 12.80078,2.375 12.21794,-0.1604 13.36759,-0.67811 13.76758,-6.21094 0.31822,-4.40163 0.21021,-4.59697 -2.13477,-3.89844 -1.35755,0.40438 -5.36195,1.0054 -8.90039,1.33594 -5.87316,0.54867 -6.73029,0.35152 -9.83594,-2.26172 -7.21347,-6.06973 -7.6588,-23.84118 -0.76953,-30.73047 3.76883,-3.76881 8.10138,-4.34262 14.85547,-1.96875 l 5.6875,2 1.70899,-4.35351 c 1.99274,-5.07308 1.68161,-5.43683 -6.06641,-7.10352 -2.48636,-0.53484 -4.83568,-0.83819 -7.06055,-0.90625 z m 446.84766,48.87109 v 26.66602 26.66797 h 15.46484 15.4668 V 288 283.73242 H 985.59961 976 v -7.46484 -7.4668 h 9.06641 9.0664 v -4.26758 -4.26562 H 985.06641 976 v -6.40039 -6.40039 h 9.59961 9.59961 v -4.26758 -4.26563 h -15.4668 z M 486.40039,288 v 26.7793 26.77929 l 12.5332,-0.41992 c 17.57202,-0.58763 25.31184,-4.40861 29.82227,-14.72656 2.67505,-6.11936 2.35805,-18.72953 -0.62305,-24.8418 C 523.29836,291.65801 515.02085,288 497.42969,288 Z m 11.73242,8.24023 6.11328,0.7168 c 11.00229,1.29311 14.70131,5.61728 14.65821,17.12891 -0.0329,8.77974 -2.11047,13.56755 -6.98047,16.08594 -1.78161,0.92128 -5.6119,1.95711 -8.51367,2.30078 l -5.27735,0.625 v -18.42969 z m -306.01758,22.69141 c 1.78391,-0.003 194.99148,92.00238 195.04688,92.88086 0.0212,0.33685 -43.0421,21.17395 -95.69531,46.30469 -52.65324,25.13073 -96.57294,46.11198 -97.59961,46.625 C 192.09703,505.6267 192,501.18578 192,418.86133 c 0,-47.74782 -0.30865,-89.76504 -0.68555,-93.3711 -0.54554,-5.21937 -0.38159,-6.55659 0.80078,-6.55859 z m -128.642574,68.18359 -6.935547,0.3086 -6.9375,0.30859 -3.363281,9.60156 c -1.850414,5.28 -6.030917,17.15846 -9.289062,26.39844 l -5.923828,16.80078 6.08789,-0.002 h 6.087891 l 1.892578,-6.43945 1.892578,-6.4375 9.804687,0.30664 9.806641,0.30664 1.761719,5.86523 1.761719,5.86719 6.142578,0.32422 c 4.6928,0.24746 6.026483,-0.004 5.646484,-1.06641 -0.273612,-0.76485 -4.533984,-12.81077 -9.466797,-26.76758 z m 394.365234,6.49805 c 3.3744,-0.10999 6.93318,0.60652 10.44531,2.38672 6.062,3.07266 8.82227,7.78095 8.82227,15.05078 0,6.74129 -2.3054,11.50691 -6.94531,14.35352 -8.001,4.90862 -21.00775,3.33024 -27.07032,-3.28516 -11.0401,-12.04683 0.12567,-28.02924 14.74805,-28.50586 z m -401.707031,4.25391 c 0.572583,-1.64371 6.765983,16.11524 6.789063,19.46679 0.01082,1.5718 -0.997705,1.86524 -6.386719,1.86524 -3.519992,0 -6.400391,-0.33442 -6.400391,-0.74414 0,-0.6949 4.761712,-17.03873 5.998047,-20.58789 z"
       clip-path="url(#clipPath1512)" />
    <rect
       style="fill:#000000;fill-rule:evenodd"
       id="rect1367"
       width="27.112082"
       height="16.654564"
       x="529.46021"
       y="111.54685" />
    <rect
       style="fill:#000000;fill-rule:evenodd"
       id="rect1446"
       width="81.481491"
       height="2.469136"
       x="480.22275"
       y="125.73229" />
    <rect
       style="fill:#000000;fill-rule:evenodd"
       id="rect1446-0"
       width="81.481491"
       height="2.469136"
       x="478.35876"
       y="110.89326" />
    <text
       xml:space="preserve"
       style="font-style:normal;font-variant:normal;font-weight:bold;font-stretch:normal;font-size:63.9999px;font-family:sans-serif;-inkscape-font-specification:'sans-serif Bold';display:inline;fill:#000000;stroke:#000000;stroke-width:0;stroke-dasharray:none"
       x="23.681002"
       y="85.017349"
       id="text304"><tspan
         sodipodi:role="line"
         id="tspan302"
         style="font-size:63.9999px;fill:#000000;stroke-width:0"
         x="23.681002"
         y="85.017349">P<tspan
   style="font-size:41.5999px;baseline-shift:sub;stroke-width:0"
   id="tspan1015">0</tspan></tspan></text>
    <text
       xml:space="preserve"
       style="font-style:normal;font-variant:normal;font-weight:bold;font-stretch:normal;font-size:63.9999px;font-family:sans-serif;-inkscape-font-specification:'sans-serif Bold';display:inline;fill:#000000;stroke:#000000;stroke-width:0;stroke-dasharray:none"
       x="26.396053"
       y="431.73996"
       id="text304-3"><tspan
         sodipodi:role="line"
         id="tspan302-2"
         style="font-size:63.9999px;fill:#000000;stroke-width:0"
         x="26.396053"
         y="431.73996">P<tspan
   style="font-size:41.5999px;baseline-shift:sub;stroke-width:0"
   id="tspan1015-8">0</tspan></tspan></text>
    <text
       xml:space="preserve"
       style="font-style:normal;font-variant:normal;font-weight:bold;font-stretch:normal;font-size:63.9999px;font-family:sans-serif;-inkscape-font-specification:'sans-serif Bold';display:inline;fill:#000000;stroke:#000000;stroke-width:0;stroke-dasharray:none"
       x="473.43237"
       y="340.49988"
       id="text304-2"><tspan
         sodipodi:role="line"
         id="tspan302-9"
         style="font-size:63.9999px;fill:#000000;stroke-width:0"
         x="473.43237"
         y="340.49988">Q<tspan
   style="font-size:41.5999px;baseline-shift:sub;stroke-width:0"
   id="tspan703">1</tspan></tspan></text>
    <text
       xml:space="preserve"
       style="font-style:normal;font-variant:normal;font-weight:bold;font-stretch:normal;font-size:63.9999px;font-family:sans-serif;-inkscape-font-specification:'sans-serif Bold';display:inline;fill:#000000;stroke:#000000;stroke-width:0;stroke-dasharray:none"
       x="940.08167"
       y="284.79996"
       id="text304-2-5"><tspan
         sodipodi:role="line"
         id="tspan302-9-6"
         style="font-size:63.9999px;fill:#000000;stroke-width:0"
         x="940.08167"
         y="284.79996">Q<tspan
   style="font-size:65%;baseline-shift:sub"
   id="tspan1741">2</tspan></tspan></text>
    <text
       xml:space="preserve"
       style="font-style:normal;font-variant:normal;font-weight:bold;font-stretch:normal;font-size:63.9999px;font-family:sans-serif;-inkscape-font-specification:'sans-serif Bold';display:inline;fill:#000000;stroke:#000000;stroke-width:0;stroke-dasharray:none"
       x="471.61365"
       y="243.93082"
       id="text304-2-7"><tspan
         sodipodi:role="line"
         id="tspan302-9-5"
         style="font-size:63.9999px;fill:#000000;stroke-width:0"
         x="471.61365"
         y="243.93082">Q<tspan
   style="font-size:65%;baseline-shift:sub"
   id="tspan2286">0</tspan></tspan></text>
    <text
       xml:space="preserve"
       style="font-style:normal;font-variant:normal;font-weight:bold;font-stretch:normal;font-size:63.9999px;font-family:sans-serif;-inkscape-font-specification:'sans-serif Bold';display:inline;fill:#000000;stroke:#000000;stroke-width:0;stroke-dasharray:none"
       x="27.183014"
       y="195.87857"
       id="text304-0"><tspan
         sodipodi:role="line"
         id="tspan302-5"
         style="font-size:63.9999px;fill:#000000;stroke-width:0"
         x="27.183014"
         y="195.87857">P<tspan
   style="font-size:41.5999px;baseline-shift:sub;stroke-width:0"
   id="tspan1103">1</tspan></tspan></text>
  </g>
</svg>
