<?xml version="1.0" encoding="UTF-8" standalone="no"?>
<!-- Created with Inkscape (http://www.inkscape.org/) -->

<svg
   version="1.1"
   id="svg1936"
   width="1144.1536"
   height="596.60461"
   viewBox="0 0 1144.1535 596.60461"
   sodipodi:docname="NorNandNxor_wPQ.svg"
   inkscape:version="1.2.2 (732a01da63, 2022-12-09)"
   xmlns:inkscape="http://www.inkscape.org/namespaces/inkscape"
   xmlns:sodipodi="http://sodipodi.sourceforge.net/DTD/sodipodi-0.dtd"
   xmlns="http://www.w3.org/2000/svg"
   xmlns:svg="http://www.w3.org/2000/svg">
  <defs
     id="defs1940">
    <clipPath
       clipPathUnits="userSpaceOnUse"
       id="clipPath2262">
      <path
         id="path2264"
         style="fill:#ff0000;fill-opacity:1;fill-rule:nonzero;stroke:none"
         d="M 56.005859,-0.33789062 C 57.462086,3.297897 58.509115,7.337044 59.035156,11.773438 c 1.375665,-0.489522 2.706046,-0.825502 3.923828,-0.792969 5.481986,0.14645 9.228953,5.989794 9.947266,21.423828 0.164521,3.534896 0.131042,2.075366 0.162109,4.373047 0.05547,3.110142 0.150062,6.220557 0.289063,9.328125 0.155706,3.260428 0.357292,6.516879 0.65625,9.767578 3.486421,37.909875 -13.176247,59.480903 -31.890625,62.125003 2.351839,4.03708 4.339763,8.25757 6.183594,12.54492 2.354417,5.81073 3.675338,11.94003 4.576171,18.12109 0.45233,3.39248 0.657701,6.81062 0.785157,10.22852 0.07323,2.17049 0.09119,4.34216 0.103515,6.51367 0.0088,1.91606 0.01187,3.83197 0.01367,5.74805 0.0014,1.75659 0.0017,3.51294 0.002,5.26953 0.106436,4.39409 -0.406273,8.75569 -1.191406,13.07031 -0.846069,5.24785 -2.832173,10.14345 -5.03125,14.93945 0.05635,-0.1 0.212519,-0.40653 0.167969,-0.30078 -1.146913,2.72226 -2.494862,5.36563 -3.824219,8.00196 -1.381993,2.40102 -2.557344,4.93583 -4.060547,7.26757 -0.815565,1.26515 -1.701892,2.48486 -2.552734,3.72657 C 8.2043516,265.58198 9.2055844,200.51301 0.0546875,173.7207 v 119.875 c 9.2514309,7.183 17.4971085,19.57285 22.5371095,37.85742 1.518076,5.5075 2.775275,11.09987 4.589844,16.52149 0.563087,1.85396 1.398364,3.70243 1.865234,4.61133 2.192445,3.95685 3.710843,8.21626 5.255859,12.45117 0.264657,0.77611 0.540502,1.54869 0.794922,2.32812 0.649169,1.98895 1.265656,4.00634 1.814453,6.02539 0.578517,2.12858 0.712541,3.13694 0.576172,2.14844 0.846429,2.99704 1.636004,6.00775 2.316407,9.04688 0.487743,2.51931 0.655504,3.04603 0.818359,3.66992 5.177906,2.98915 9.484245,7.33178 13.107422,12.01953 2.538332,3.38805 5.001779,6.83955 7.115234,10.51367 1.12817,2.474 2.453316,4.8673 3.384766,7.42188 2.091617,5.73633 3.248011,14.02078 2.589843,20.11914 -0.308877,2.86204 -0.906386,5.68454 -1.359374,8.52734 -0.460904,1.49409 -0.838406,3.01679 -1.382813,4.48242 -2.572942,6.92721 -6.42279,13.2425 -11.052734,18.98047 -1.025988,1.1774 -1.82418,2.07905 -2.667969,3.03711 0.0079,0.0385 0.01705,0.0768 0.02539,0.11524 -0.08552,-0.37089 0.08959,0.40553 0.234376,1.11718 0.112392,0.17719 0.118154,0.47587 0.193359,0.69532 1.588472,4.75573 0.09236,0.35968 0.169922,0.52734 0.271903,0.58779 1.166796,3.33072 1.304687,3.73828 0.129377,0.3824 -0.519421,-1.53026 -0.382812,-1.15039 0.319403,0.88822 0.619412,1.78433 0.929687,2.67578 -0.08411,-0.25772 -0.396638,-1.0027 -0.251953,-0.77344 0.177127,0.28067 0.244106,0.61832 0.353516,0.93165 0.320941,0.91905 0.646421,1.83658 0.9375,2.76562 0.765418,2.44303 1.305782,4.91746 1.798828,7.42578 0.672534,3.80605 0.910681,7.66758 1.060547,11.52344 0.07504,2.26227 0.09748,4.52576 0.113281,6.78906 0.01109,2.03052 0.01167,4.06126 0.01367,6.0918 0.0015,1.72451 0.0017,3.44737 0.002,5.17187 2.15e-4,1.57537 0.0019,3.15121 0.002,4.72657 0.0012,50.64 -34.039229,67.52213 -56.8066405,50.73632 v 19.80274 H 1108.2676 V 385.54102 c -0.7094,-0.55343 -1.3606,-1.0667 -2.3848,-1.87305 -3.1484,-2.58262 -5.8433,-5.58264 -8.289,-8.78516 -34.0667,41.32117 -84.7801,13.36013 -58.918,-48.37695 1.3613,-3.24944 2.547,-6.56317 3.9472,-9.79688 1.9605,-4.30762 4.2076,-8.45029 6.7852,-12.41796 3.3654,-4.24206 5.3032,-6.49355 8.9395,-9.35547 0.027,-0.81694 0.047,-1.63406 0.07,-2.45117 0.4559,-3.91584 1.0219,-7.85426 2.2265,-11.625 0.5689,-1.78117 1.0405,-3.62141 1.92,-5.27149 1.7,-3.18953 3.5761,-6.29302 5.6289,-9.26953 0.04,-0.49535 -0.03,-0.98889 0.029,-1.48438 1.1906,-6.30836 1.4022,-10.03748 4.9668,-15.92187 2.163,-3.57077 4.2636,-7.51154 7.705,-9.875 6.5419,-4.49279 13.6024,-9.56756 21.5137,-10.19336 2.1596,-0.17082 4.0643,-0.24302 5.8594,-0.26758 V -0.33789062 Z M 510.46875,143.40234 c 16.77126,-0.0173 29.61112,4.21019 38.41211,10.68555 0.94058,-0.32248 1.86123,-0.51396 2.74805,-0.46289 4.05953,0.2338 7.51547,4.6544 10.04882,15.38477 1.8675,1.00458 2.23216,3.82311 2.29493,9.29882 0.007,2.6e-4 0.0141,-2.6e-4 0.0215,0 v 1.16016 c 0.004,1.02008 0.002,2.24436 0,3.43945 -8.8e-4,0.60919 0,1.11082 0,1.76758 v 7.25586 c 0,15.75275 -3.30147,28.23279 -8.52734,37.46094 -0.0345,0.31287 -0.0203,0.62682 -0.0586,0.93945 6.13563,1.88841 10.28564,-2.73713 10.77344,-19.58789 0.0208,-0.83035 0.0636,-1.65976 0.0625,-2.49023 -5.4e-4,-0.39505 -0.0128,0.78859 -0.0195,1.18359 -0.008,0.45717 -0.0302,0.86626 -0.043,1.30664 -0.0386,1.53631 -0.0735,3.07185 -0.11523,4.60742 -0.13925,3.52658 -0.31303,7.05289 -0.55274,10.57422 -2.89628,42.5464 -28.24538,59.48566 -49.07031,52.91406 0.73275,0.87443 1.46989,1.74519 2.18945,2.62891 3.59246,4.26125 6.59394,8.95817 9.44922,13.73047 2.31655,3.86847 4.0376,8.03364 5.79102,12.17187 1.77104,4.71735 1.25593,3.02734 2.79883,7.72657 0.15039,0.45819 -0.2994,-0.91661 -0.44922,-1.375 0.20927,0.58981 0.41768,1.17775 0.62695,1.76757 -0.0559,-0.16734 -0.22837,-0.66771 -0.16797,-0.50195 2.12975,5.84078 0.42908,1.2685 0.39648,1.0918 -0.0542,-0.29376 0.23159,0.55018 0.33594,0.83008 0.35503,0.95233 0.69384,1.91001 1.04102,2.86523 l 0.28125,0.92188 c 0.51428,0.86231 1.11735,1.88348 1.4082,2.38085 2.52657,4.61096 0.37748,0.69264 0.39258,0.71094 0.54447,0.65926 1.053,1.62565 1.52344,2.48828 10e-4,0.002 0.003,0.004 0.004,0.006 0.79254,1.26301 1.61274,2.51246 2.33594,3.81641 0.16218,0.29241 0.29478,0.59994 0.44531,0.89844 0.26741,0.33915 0.39952,0.50538 0.68946,0.87304 1.25433,1.25085 2.6297,2.64103 2.0332,2.16602 0.96226,1.06814 1.8981,2.15955 2.80078,3.29687 3.46022,4.30126 5.78337,9.30471 7.80859,14.39454 0.69389,1.72046 1.32766,3.9086 1.84766,5.53515 23.10321,72.26628 -49.04047,96.3925 -72.73633,24.73242 -0.3852,-0.47597 -0.77488,-0.948 -1.15039,-1.43164 -0.21802,-0.28079 -0.64094,-0.80362 -0.95508,-1.20507 -0.10774,-0.12909 -0.29718,-0.33013 -0.52343,-0.60157 0.0943,0.10927 0.18033,0.22542 0.27539,0.33399 0.25946,0.29631 -0.50985,-0.59895 -0.76563,-0.89844 0.38243,0.45587 0.27811,0.30996 0.49024,0.56445 -2.9753,-3.44812 -5.56072,-7.24021 -7.51563,-11.35937 -0.20019,-0.30361 -0.40111,-0.60672 -0.60156,-0.91016 -0.9072,-1.52779 -1.86213,-3.08723 -3.09766,-5.25976 0.60892,0.94052 -0.26506,-0.46568 -0.5664,-0.96094 -1.37636,-2.26205 -2.77139,-4.49666 -3.86133,-6.92383 -1.2632,-2.89689 -2.31692,-5.76557 -3.26172,-8.69531 -0.0101,-0.0258 0.004,0.006 -0.006,-0.0195 -0.1091,-0.33857 -0.23802,-0.66917 -0.34375,-1.00977 -0.10183,-0.32805 0.22011,0.65116 0.33008,0.97656 -1.96479,-5.01874 0.88569,2.48832 -1.5,-3.97656 -0.0282,-0.0765 0.0625,0.15126 0.0937,0.22656 -3.17923,-9.00819 1.14136,3.00317 -1.5332,-4.26953 -0.29817,-0.69699 -0.59983,-1.39206 -0.88672,-2.09375 -0.0239,-0.0585 0.0485,0.12251 0.0976,0.16211 0.13372,0.10763 -0.35486,-0.44227 -0.1875,-0.48047 0.0334,-0.008 0.0457,0.0387 0.0684,0.0586 -0.88548,-1.51262 -1.7359,-3.04104 -2.92773,-4.34571 -1.30612,-1.62045 -2.73069,-3.49201 -3.85352,-4.48242 -19.19419,-16.93049 -26.65057,-34.62374 -25.8457,-48.82617 -18.34602,-15.65044 -14.70066,-42.86008 12.5039,-56.84375 -3.53068,-12.35115 0.28865,-30.13935 15.16993,-51.13086 3.1571,-4.45349 6.34458,-8.78657 10.35156,-12.56055 1.49215,-1.40539 3.17913,-2.58574 4.76953,-3.8789 10.3357,-5.37018 9.18854,-5.84982 19.57617,-7.76953 3.279,-0.60598 7.64732,-0.45759 10.3125,-0.63868 0.53916,-0.0358 1.07803,-0.0717 1.61719,-0.10742 2.37186,-0.1573 4.67306,-0.23402 6.90625,-0.23633 z m 37.09961,190.63477 c -0.59985,-0.66586 -1.23509,-1.30508 -1.86133,-1.94922 1.38964,1.76143 2.68079,3.38966 1.03906,1.23633 0.68075,0.62806 0.66132,0.58472 0.82227,0.71289 z m -1.86133,-1.94922 c -0.0682,-0.0865 -0.10322,-0.12974 -0.17187,-0.2168 -0.2173,-0.21668 -0.38746,-0.38966 -0.51368,-0.51562 0.008,0.0157 0.0158,0.0312 0.0234,0.0469 0.22493,0.22538 0.44069,0.4578 0.66211,0.68555 z m -6.56836,-10.06836 0.14453,0.47461 c -0.0386,-0.13293 -0.0496,-0.18218 -0.11523,-0.39844 -0.0109,-0.0288 -0.0187,-0.0482 -0.0293,-0.0762 z m -52.90625,58.54688 c 0.0818,0.10761 0.15793,0.22057 0.24414,0.32421 0.21419,0.2576 0.8447,0.9229 0.68164,0.74024 -0.63704,-0.7051 -0.74167,-0.86378 -0.92578,-1.06445 z m 4.89453,5.51562 c 0.0467,0.0459 0.0872,0.10237 0.13477,0.14649 0.24287,0.22515 0.96235,0.91024 0.72461,0.67968 -0.65974,-0.63982 -0.58611,-0.56735 -0.85938,-0.82617 z M 45.441406,427.04492 c 0.440315,0.60976 0.892108,1.20972 1.351563,1.80469 0.429388,0.55605 -0.820306,-1.14055 -1.230469,-1.71094 -0.04139,-0.0291 -0.07979,-0.0645 -0.121094,-0.0937 z" />
    </clipPath>
  </defs>
  <sodipodi:namedview
     id="namedview1938"
     pagecolor="#ffffff"
     bordercolor="#000000"
     borderopacity="0.25"
     inkscape:showpageshadow="2"
     inkscape:pageopacity="0.0"
     inkscape:pagecheckerboard="0"
     inkscape:deskcolor="#d1d1d1"
     showgrid="false"
     inkscape:zoom="1.3014311"
     inkscape:cx="295.05979"
     inkscape:cy="298.13333"
     inkscape:window-width="3840"
     inkscape:window-height="2054"
     inkscape:window-x="1909"
     inkscape:window-y="-11"
     inkscape:window-maximized="1"
     inkscape:current-layer="g1942"
     showguides="true">
    <sodipodi:guide
       position="4.5555254,323.49008"
       orientation="1,0"
       id="guide2380"
       inkscape:locked="false" />
  </sodipodi:namedview>
  <g
     inkscape:groupmode="layer"
     inkscape:label="Image"
     id="g1942"
     transform="translate(-0.0547836,0.33789062)">
    <path
       style="fill:#000000;stroke-width:1.06667"
       d="m 141.42296,569.88421 c -0.4211,-14.51035 -1.01332,-26.63035 -1.31607,-26.93334 -0.30274,-0.30298 -16.35064,-0.71951 -35.662,-0.92562 l -35.111555,-0.37473 v -8.59491 -8.59492 l 35.733335,0.73853 35.73333,0.73851 -0.002,-18.96887 c -0.001,-10.43288 -0.31832,-32.28887 -0.70486,-48.56887 L 139.39027,428.8 H 104.89514 70.400002 v -7.8325 -7.83249 l 17.77036,-0.70084 c 9.773697,-0.38546 25.448408,-0.70084 34.832678,-0.70084 h 17.06232 L 139.44236,384 138.81937,356.26666 h 105.45392 c 112.85071,0 110.56506,-0.0963 127.16704,5.35878 10.82315,3.55627 27.48402,12.36699 37.26051,19.70437 20.21385,15.17074 38.60022,39.34747 46.04908,60.55117 0.58041,1.65217 1.28052,1.40538 5.75545,-2.02879 9.27724,-7.1196 13.26695,-8.38553 26.42798,-8.38553 10.95205,0 12.195,0.22201 18.66667,3.33412 3.81333,1.83376 9.05086,5.17754 11.63897,7.43062 5.79436,5.04426 12.11195,14.63102 13.93677,21.14863 l 1.36817,4.88663 h 25.99471 25.99471 V 401.6 334.93333 h 41.02556 41.02555 l 1.06912,-4 c 4.87752,-18.2488 6.54779,-35.85698 5.22859,-55.12053 -0.74445,-10.87097 -3.89529,-28.36417 -6.14494,-34.11626 l -1.21376,-3.10345 -40.49507,0.65187 -40.49505,0.65186 v -55.41507 -55.41508 h -62.4 c -55.47306,0 -62.4,0.18233 -62.4,1.64249 0,3.13482 -4.11189,9.67646 -8.7967,13.99477 -14.76252,13.60762 -42.0704,10.97358 -51.15528,-4.93429 -1.34641,-2.3576 -2.71545,-4.29024 -3.0423,-4.29476 -0.32684,-0.004 -2.96684,3.22689 -5.86666,7.18091 -6.95267,9.48022 -24.51499,27.64678 -34.56926,35.75862 -32.9562,26.58919 -77.2468,46.19187 -125.72277,55.64391 C 206.46665,238.76013 193.39635,240 167.94537,240 H 144 v -7.05045 c 0,-6.99552 0.0427,-7.0971 5.47403,-13.0399 6.93204,-7.58476 15.15111,-19.20337 19.15598,-27.07923 1.70683,-3.35661 3.10333,-6.35661 3.10333,-6.66667 0,-0.31007 -23.04,-0.56375 -51.2,-0.56375 H 69.333335 v -8.53334 -8.53333 h 54.754165 54.75417 l 2.2961,-9.99571 c 5.8524,-25.47763 4.91244,-55.47512 -2.52282,-80.512386 l -1.63092,-5.491901 H 123.15868 69.333335 v -7.829638 -7.829637 l 24.800001,-0.701242 c 13.640004,-0.385683 36.200004,-0.702346 50.133334,-0.703696 13.93333,-0.0013 25.33334,-0.366325 25.33334,-0.811057 0,-3.792588 -22.59418,-35.847559 -26.25854,-37.253708 -1.08631,-0.416854 -1.4748,-2.82822 -1.4748,-9.1541359 v -8.58820465 l 24.26667,0.72597331 C 193.02517,1.1924967 210.357,2.473889 227.20001,4.9028226 301.87564,15.671811 356.46154,46.825953 391.89026,98.89748 l 5.22359,7.67739 4.90975,-5.22948 c 7.5063,-7.995138 13.18139,-10.145391 26.77641,-10.145391 10.12437,0 11.72746,0.278189 16.69208,2.896612 6.00996,3.169754 11.45196,9.027069 13.41308,14.436719 L 460.16191,112 h 71.25239 71.25238 v 54.81226 54.81227 l 3.46667,0.54477 c 1.90667,0.29963 14.59611,0.27987 28.19875,-0.0438 l 24.7321,-0.58865 -3.26409,-6.50172 c -4.85487,-9.67036 -12.34121,-20.49588 -19.44156,-28.1132 l -6.30813,-6.76743 5.73836,-5.81055 c 3.1561,-3.19584 6.10057,-5.81058 6.54327,-5.81058 1.3648,0 14.64572,16.09073 20.24926,24.53333 10.8273,16.31303 19.65671,37.91269 24.41748,59.73334 2.88228,13.21066 3.95797,42.47118 2.10439,57.24281 -4.19338,33.41805 -17.69624,62.96425 -39.89249,87.29052 l -4.86635,5.33333 -6.06473,-6.20522 -6.06472,-6.20523 5.31266,-5.52811 c 2.92195,-3.04046 6.89661,-7.59672 8.83255,-10.12502 3.67315,-4.79706 12.83992,-20.34444 12.83992,-21.77726 0,-0.4542 -12.72,-0.82582 -28.26667,-0.82582 h -28.26667 v 66.66666 66.66667 h -35.06367 -35.06367 l -0.64813,4.05321 c -1.84616,11.54524 -13.10842,26.07271 -24.54328,31.65899 -14.46753,7.06784 -36.67252,3.95679 -48.99772,-6.86487 l -3.59522,-3.15666 -2.45014,6.088 c -15.13951,37.61794 -48.69639,67.08022 -87.61121,76.92095 -8.67415,2.19351 -10.756,2.23371 -115.66909,2.23371 H 142.18858 Z m 214.31038,8.87403 c 33.2347,-6.67875 61.94438,-29.26132 77.41271,-60.89158 7.46893,-15.27277 9.52063,-24.29865 9.52063,-41.88333 0,-17.56436 -1.3626,-23.47004 -9.04069,-39.18333 -14.38494,-29.43895 -42.56573,-52.5964 -74.69265,-61.37839 -8.34352,-2.28073 -10.68924,-2.35482 -105.45696,-3.33126 -53.308,-0.54926 -97.02605,-0.85428 -97.15123,-0.67783 -0.25652,0.36158 2.16701,209.14331 2.43564,209.82587 0.0949,0.24113 42.77255,0.11934 94.83922,-0.27063 74.8574,-0.56067 96.22909,-1.02302 102.13333,-2.20952 z m 145.21121,-73.47581 c 4.87705,-2.54348 11.70743,-10.78726 13.64203,-16.46495 6.31711,-18.53969 -5.4335,-38.40031 -24.49804,-41.40609 -9.33312,-1.47149 -20.7746,4.49538 -26.07223,13.59699 -3.21234,5.51896 -3.28592,5.94936 -2.9882,17.4807 0.2849,11.03436 0.52043,12.17011 3.53344,17.03847 4.16279,6.72615 10.84605,10.89778 19.20505,11.98759 7.25453,0.94582 12.3541,0.28301 17.17795,-2.23271 z M 196.26667,222.33678 c 61.91854,-7.14059 114.13262,-27.56572 152.27157,-59.56569 5.42937,-4.55542 13.10937,-11.88322 17.06667,-16.28399 8.85118,-9.84305 19.45729,-23.87109 19.45986,-25.73834 0.003,-1.98441 -6.60906,-12.08945 -14.79743,-22.615428 C 353.85625,77.03721 332.89234,59.759308 308.44393,47.18011 271.9568,28.406736 240.61987,21.298643 177.77111,17.539849 l -11.56224,-0.691501 6.04478,8.826349 c 12.0185,17.548979 21.18918,39.279574 26.34981,62.437791 2.04579,9.180481 2.3547,13.747352 2.37331,35.087512 0.0187,21.44096 -0.27765,25.90318 -2.35115,35.40097 -4.52541,20.72883 -13.09385,40.89252 -24.27391,57.1226 L 168.6505,224 l 6.60809,-0.001 c 3.63445,-7.1e-4 13.08808,-0.74859 21.00808,-1.66193 z m 239.92419,-87.67177 c 7.35795,-3.75191 10.0466,-12.04969 6.58258,-20.31532 -1.95618,-4.6677 -6.06856,-6.61636 -13.96295,-6.61636 -7.67005,0 -13.89575,2.71798 -15.80028,6.89796 -3.23358,7.09693 -0.13646,17.32011 6.22182,20.53744 3.82004,1.93296 12.69729,1.66928 16.95883,-0.50372 z M 7.4666669,535.34562 v -28.92105 l 14.6666671,0.44433 c 16.294533,0.49365 22.115125,2.33107 24.589802,7.76239 2.971489,6.52172 0.649979,15.05389 -4.767628,17.52231 l -3.004483,1.36893 3.320966,1.39637 c 5.0177,2.10978 6.794677,5.41649 6.794677,12.64392 0,5.85077 -0.279901,6.56805 -4.024049,10.3122 -5.220893,5.2209 -9.760402,6.37844 -25.042618,6.38569 l -12.5333341,0.006 z m 26.5452851,17.45437 c 1.23656,-1.02666 2.543373,-3.39484 2.904028,-5.26262 0.528933,-2.73926 0.126391,-3.92531 -2.081635,-6.13333 -2.334989,-2.33499 -3.68528,-2.73738 -9.185859,-2.73738 h -6.448485 v 8 8 h 6.28183 c 4.415094,0 6.949943,-0.55471 8.530121,-1.86667 z m -1.182624,-25.39381 c 3.177154,-2.22536 3.177154,-7.25367 0,-9.47904 -1.418622,-0.99364 -4.631385,-1.66048 -8,-1.66048 h -5.629327 v 6.4 6.4 h 5.629327 c 3.368615,0 6.581378,-0.66684 8,-1.66048 z M 7.0733675,429.11685 C 10.933589,418.08924 15.403303,405.22666 17.006066,400.53333 L 19.92018,392 l 7.476886,-0.31011 7.476887,-0.31011 8.176994,23.24345 c 6.236515,17.72754 8.17368,24.57237 8.163025,28.84343 l -0.01397,5.6 H 46.653346 42.106691 L 40.121073,442.13333 38.135454,435.2 H 27.639221 17.142988 l -1.95918,6.66666 -1.959179,6.66667 -6.584923,0.31685 -6.5849224,0.31685 z m 27.7448505,-5.10656 c -0.335515,-0.87434 -1.877801,-5.79434 -3.427302,-10.93333 -1.549502,-5.139 -3.155404,-9.70869 -3.568673,-10.15487 -0.413268,-0.44619 -2.104048,3.87381 -3.757288,9.6 -1.653239,5.72618 -3.235535,11.01124 -3.51621,11.74457 -0.379147,0.99062 1.467602,1.33334 7.184589,1.33334 6.379537,0 7.590632,-0.27175 7.084884,-1.58971 z M 678.40002,399.34955 c 0,-6.99552 0.0427,-7.09711 5.47403,-13.0399 23.16341,-25.34446 35.36307,-58.5589 35.32554,-96.17632 -0.0296,-29.73 -6.90358,-55.87606 -20.99667,-79.86403 -5.19248,-8.83818 -18.1423,-25.57501 -20.48325,-26.47331 -1.05972,-0.40666 -1.45298,-2.88202 -1.45298,-9.14577 v -8.58821 l 24.26666,0.72598 c 26.89183,0.80451 44.22366,2.0859 61.06667,4.51483 74.67563,10.76899 129.26153,41.92313 164.69026,93.99466 l 5.22358,7.67739 4.90975,-5.22949 c 7.50631,-7.99513 13.1814,-10.14538 26.77642,-10.14538 10.12436,0 11.72746,0.27818 16.69207,2.89661 6.00997,3.16976 11.45196,9.02707 13.41308,14.43672 l 1.25675,3.46667 h 31.78567 31.7858 v 8.53333 8.53333 h -32 c -28.10132,0 -32.00004,0.20012 -32.00004,1.6425 0,3.13482 -4.11188,9.67646 -8.79669,13.99477 -14.76253,13.60762 -42.0704,10.97358 -51.15529,-4.93429 -1.34641,-2.3576 -2.71544,-4.29024 -3.04229,-4.29476 -0.32685,-0.004 -2.96685,3.22689 -5.86667,7.1809 -6.95266,9.48023 -24.51498,27.64679 -34.56926,35.75863 -32.95619,26.58919 -77.24679,46.19187 -125.72276,55.64391 -24.11373,4.7018 -37.18404,5.94168 -62.63501,5.94168 h -23.94537 z m 52.26667,-10.61278 c 61.91854,-7.14058 114.13262,-27.56571 152.27157,-59.56568 5.42936,-4.55542 13.10936,-11.88322 17.06666,-16.28399 8.85118,-9.84305 19.45729,-23.87109 19.45986,-25.73835 0.003,-1.9844 -6.60905,-12.08945 -14.79742,-22.61542 -16.4111,-21.09612 -37.375,-38.37403 -61.82341,-50.95323 -36.48714,-18.77337 -67.82407,-25.88146 -130.67282,-29.64025 l -11.56224,-0.6915 6.04477,8.82635 c 12.01851,17.54898 21.18919,39.27957 26.34982,62.43779 2.04579,9.18048 2.3547,13.74735 2.37331,35.08751 0.0187,21.44096 -0.27765,25.90318 -2.35116,35.40097 -4.52541,20.72883 -13.09384,40.89252 -24.27391,57.1226 l -5.7012,8.27643 6.60808,-10e-4 c 3.63446,-7.2e-4 13.08809,-0.74859 21.00809,-1.66193 z m 239.92419,-87.67176 c 7.35795,-3.75191 10.0466,-12.0497 6.58258,-20.31532 -1.95618,-4.6677 -6.06857,-6.61636 -13.96296,-6.61636 -7.67004,0 -13.89574,2.71797 -15.80027,6.89796 -3.23358,7.09693 -0.13646,17.32011 6.22182,20.53744 3.82003,1.93296 12.69729,1.66928 16.95883,-0.50372 z m -473.5242,49.85187 v -29.03581 l 13.6,0.47435 c 14.78894,0.51581 19.76033,1.90553 25.16435,7.0345 9.95994,9.45299 10.86522,30.75373 1.74834,41.1373 -5.47268,6.23302 -12.4323,8.51574 -27.44602,9.00215 l -13.06667,0.42332 z m 27.48101,16.40485 c 4.65882,-3.4156 6.6488,-8.4838 6.65067,-16.93837 0.003,-12.77072 -5.28751,-18.65003 -16.7817,-18.65003 h -5.61664 v 19.3282 19.3282 l 6.41433,-0.46396 c 4.15164,-0.3003 7.44403,-1.21889 9.33334,-2.60404 z M 1075.2,284.8 V 256 h 16.5334 16.5333 v 4.8 4.8 H 1097.6 1086.9334 v 6.4 6.4 h 9.6 9.6 v 4.8 4.8 h -9.6 -9.6 v 8 8 h 10.6666 10.6667 v 4.8 4.8 H 1091.7334 1075.2 Z M 513.96092,218.54122 c -10.60494,-3.01 -16.89424,-13.68482 -16.89424,-28.67456 0,-14.05179 4.68436,-22.96433 14.93334,-28.41235 4.89945,-2.60439 19.99749,-2.67281 25.84915,-0.11713 l 3.98248,1.73932 -1.9786,4.59508 c -2.14174,4.97396 -2.53404,5.07291 -9.70754,2.4485 -12.11359,-4.43173 -20.2067,3.36522 -20.2554,19.51418 -0.0556,18.41717 8.27725,23.69548 27.97657,17.7214 1.58897,-0.48187 1.86667,0.16262 1.86667,4.33219 0,4.3564 -0.3245,5.02426 -2.93333,6.03705 -4.18232,1.62364 -18.22619,2.1256 -22.8391,0.81632 z M 7.4666669,182.27895 v -28.92104 l 14.6666671,0.44433 c 16.294533,0.49365 22.115125,2.33107 24.589802,7.76239 2.971489,6.52171 0.649979,15.05389 -4.767628,17.52231 l -3.004483,1.36893 3.320966,1.39636 c 5.0177,2.10978 6.794677,5.41649 6.794677,12.64393 0,5.85077 -0.279901,6.56805 -4.024049,10.3122 -5.220893,5.2209 -9.760402,6.37843 -25.042618,6.38569 L 7.4666669,211.2 Z m 26.5452851,17.45438 c 1.23656,-1.02667 2.543373,-3.39485 2.904028,-5.26262 0.528933,-2.73927 0.126391,-3.92531 -2.081635,-6.13334 C 32.499356,186.00239 31.149065,185.6 25.648486,185.6 h -6.448485 v 8 8 h 6.28183 c 4.415094,0 6.949943,-0.55471 8.530121,-1.86667 z m -1.182624,-25.39381 c 3.177154,-2.22537 3.177154,-7.25368 0,-9.47904 -1.418622,-0.99364 -4.631385,-1.66048 -8,-1.66048 h -5.629327 v 6.4 6.4 h 5.629327 c 3.368615,0 6.581378,-0.66684 8,-1.66048 z M 7.0733675,74.98352 C 10.933589,63.955917 15.403303,51.093333 17.006066,46.399999 l 2.914114,-8.533333 7.476886,-0.310106 7.476887,-0.310106 8.176994,23.243439 c 6.236515,17.727545 8.17368,24.572374 8.163025,28.843439 l -0.01397,5.6 H 46.653346 42.106691 L 40.121073,87.999999 38.135454,81.066666 H 27.639221 17.142988 l -1.95918,6.666666 -1.959179,6.666667 -6.584923,0.316854 -6.5849224,0.316855 z M 34.818218,69.876962 c -0.335515,-0.874337 -1.877801,-5.794337 -3.427302,-10.933333 -1.549502,-5.138996 -3.155404,-9.70869 -3.568673,-10.154873 -0.413268,-0.446185 -2.104048,3.873815 -3.757288,9.6 -1.653239,5.726183 -3.235535,11.011243 -3.51621,11.744577 -0.379147,0.990609 1.467602,1.333333 7.184589,1.333333 6.379537,0 7.590632,-0.271745 7.084884,-1.589704 z"
       id="path2063"
       clip-path="url(#clipPath2262)" />
    <text
       xml:space="preserve"
       style="font-style:normal;font-variant:normal;font-weight:bold;font-stretch:normal;font-size:63.9999px;font-family:sans-serif;-inkscape-font-specification:'sans-serif Bold';display:inline;fill:#000000;stroke:#000000;stroke-width:0;stroke-dasharray:none"
       x="-0.52764338"
       y="432.44031"
       id="text304"><tspan
         sodipodi:role="line"
         id="tspan302"
         style="font-size:63.9999px;fill:#000000;stroke-width:0"
         x="-0.52764338"
         y="432.44031">P<tspan
   style="font-size:41.5999px;baseline-shift:sub;stroke-width:0"
   id="tspan1015">0</tspan></tspan></text>
    <text
       xml:space="preserve"
       style="font-style:normal;font-variant:normal;font-weight:bold;font-stretch:normal;font-size:63.9999px;font-family:sans-serif;-inkscape-font-specification:'sans-serif Bold';display:inline;fill:#000000;stroke:#000000;stroke-width:0;stroke-dasharray:none"
       x="-1.1408712"
       y="79.511772"
       id="text304-3"><tspan
         sodipodi:role="line"
         id="tspan302-2"
         style="font-size:63.9999px;fill:#000000;stroke-width:0"
         x="-1.1408712"
         y="79.511772">P<tspan
   style="font-size:41.5999px;baseline-shift:sub;stroke-width:0"
   id="tspan1015-8">0</tspan></tspan></text>
    <text
       xml:space="preserve"
       style="font-style:normal;font-variant:normal;font-weight:bold;font-stretch:normal;font-size:63.9999px;font-family:sans-serif;-inkscape-font-specification:'sans-serif Bold';display:inline;fill:#000000;stroke:#000000;stroke-width:0;stroke-dasharray:none"
       x="1070.842"
       y="303.04477"
       id="text304-2-5"><tspan
         sodipodi:role="line"
         id="tspan302-9-6"
         style="font-size:63.9999px;fill:#000000;stroke-width:0"
         x="1070.842"
         y="303.04477">Q<tspan
   style="font-size:65%;baseline-shift:sub"
   id="tspan1741">2</tspan></tspan></text>
    <text
       xml:space="preserve"
       style="font-style:normal;font-variant:normal;font-weight:bold;font-stretch:normal;font-size:63.9999px;font-family:sans-serif;-inkscape-font-specification:'sans-serif Bold';display:inline;fill:#000000;stroke:#000000;stroke-width:0;stroke-dasharray:none"
       x="499.4361"
       y="249.35704"
       id="text304-2-7"><tspan
         sodipodi:role="line"
         id="tspan302-9-5"
         style="font-size:63.9999px;fill:#000000;stroke-width:0"
         x="499.4361"
         y="249.35704">Q<tspan
   style="font-size:65%;baseline-shift:sub"
   id="tspan2257">0</tspan></tspan></text>
    <text
       xml:space="preserve"
       style="font-style:normal;font-variant:normal;font-weight:bold;font-stretch:normal;font-size:63.9999px;font-family:sans-serif;-inkscape-font-specification:'sans-serif Bold';display:inline;fill:#000000;stroke:#000000;stroke-width:0;stroke-dasharray:none"
       x="-0.84858912"
       y="195.15729"
       id="text304-0"><tspan
         sodipodi:role="line"
         id="tspan302-5"
         style="font-size:63.9999px;fill:#000000;stroke-width:0"
         x="-0.84858912"
         y="195.15729">P<tspan
   style="font-size:41.5999px;baseline-shift:sub;stroke-width:0"
   id="tspan1103">1</tspan></tspan></text>
    <text
       xml:space="preserve"
       style="font-style:normal;font-variant:normal;font-weight:bold;font-stretch:normal;font-size:63.9999px;font-family:sans-serif;-inkscape-font-specification:'sans-serif Bold';display:inline;fill:#000000;stroke:#000000;stroke-width:0;stroke-dasharray:none"
       x="-1.5993423"
       y="550.47546"
       id="text304-0-0"><tspan
         sodipodi:role="line"
         id="tspan302-5-9"
         style="font-size:63.9999px;fill:#000000;stroke-width:0"
         x="-1.5993423"
         y="550.47546">P<tspan
   style="font-size:41.5999px;baseline-shift:sub;stroke-width:0"
   id="tspan1103-6">1</tspan></tspan></text>
    <text
       xml:space="preserve"
       style="font-style:normal;font-variant:normal;font-weight:bold;font-stretch:normal;font-size:63.9999px;font-family:sans-serif;-inkscape-font-specification:'sans-serif Bold';display:inline;fill:#000000;stroke:#000000;stroke-width:0;stroke-dasharray:none"
       x="498.26422"
       y="362.31918"
       id="text304-2"><tspan
         sodipodi:role="line"
         id="tspan302-9"
         style="font-size:63.9999px;fill:#000000;stroke-width:0"
         x="498.26422"
         y="362.31918">Q<tspan
   style="font-size:41.5999px;baseline-shift:sub;stroke-width:0"
   id="tspan703">1</tspan></tspan></text>
  </g>
</svg>
