<?xml version="1.0" encoding="UTF-8" standalone="no"?>
<!-- Created with Inkscape (http://www.inkscape.org/) -->

<svg
   version="1.1"
   id="svg9196"
   width="1380.2963"
   height="505"
   viewBox="0 0 1380.2963 505"
   sodipodi:docname="NotAndXorOr_wPQ.svg"
   inkscape:version="1.2.2 (732a01da63, 2022-12-09)"
   xmlns:inkscape="http://www.inkscape.org/namespaces/inkscape"
   xmlns:sodipodi="http://sodipodi.sourceforge.net/DTD/sodipodi-0.dtd"
   xmlns="http://www.w3.org/2000/svg"
   xmlns:svg="http://www.w3.org/2000/svg">
  <defs
     id="defs9200">
    <clipPath
       clipPathUnits="userSpaceOnUse"
       id="clipPath10008">
      <path
         id="path10010"
         style="fill:#ff0000;fill-opacity:1;fill-rule:nonzero;stroke:none"
         d="m 1,0 v 219.89062 c 0.6122047,-1.07878 1.2336687,-2.15245 1.8710938,-3.21679 1.1580957,-1.83122 2.7709525,-4.74489 4.8789062,-5.49414 1.5240972,-0.54173 2.573811,-0.79196 3.414062,-0.80274 1.848561,-0.0237 2.690051,1.11233 5.38086,2.86524 0.40119,0.79241 0.893856,1.54435 1.203125,2.37695 0.325577,0.87651 0.39867,1.98777 0.4375,2.93555 0.03186,0.77775 0.03812,1.55618 0.02734,2.33398 0.833798,-0.10027 1.67609,-0.13028 2.509765,-0.0293 0.419611,0.0508 0.831948,0.1503 1.248047,0.2246 4.738515,0.84581 3.848398,2.6049 1.474609,4.56836 0.0032,0.004 0.0066,0.008 0.0098,0.0117 0.170591,-0.0819 0.344589,-0.15859 0.511719,-0.24609 0.685581,0.1545 1.381015,0.27382 2.072265,0.4082 2.014715,-2.58298 4.597004,-0.1462 11.59961,2.02735 0.04324,0.0134 0.631625,2.16259 0.703125,2.40039 0.977932,3.48323 1.707838,7.02871 2.345703,10.58789 0.453672,2.53339 0.734326,5.0911 0.925781,7.65625 0.182061,1.77309 0.126966,3.54076 -0.05078,5.30273 0.498337,0.72869 0.992075,1.46054 1.490234,2.18945 0.564111,0.82548 1.681269,2.44166 2.22461,3.34375 0.338965,0.56284 0.645091,1.14587 0.966797,1.71875 0.291112,0.76726 0.663863,1.50921 0.873047,2.30274 0.741438,2.81262 0.01891,5.66801 -1.449219,8.0957 -1.387934,2.19972 -3.031256,4.20775 -4.845703,6.07227 -1.336085,1.40315 -2.650388,2.82094 -3.955078,4.25195 -0.492309,1.1021 -1.018098,2.52277 -1.916016,3.33203 -0.826977,0.74532 -1.600182,2.11426 -2.703125,1.96289 -2.673635,-0.36694 -5.365546,-1.28183 -7.660156,-2.73437 -0.08054,1.29269 -0.02252,2.59574 -0.160157,3.88476 -1.348531,12.62961 -12.807242,11.91365 -13.242187,0.0527 -0.35762,0.76432 -0.655377,1.59441 -1.2753908,2.15429 -1.2947334,1.16916 -2.6545079,2.79174 -4.3984374,2.83594 C 3.3933454,293.31769 2.0058674,293.16028 1,292.79297 V 505 H 1338 V 265.54883 c -1.0543,0.53597 -2.2242,0.85665 -3.3965,0.97656 -1.0663,0.0618 -2.1339,0.0674 -3.2012,0.10742 -0.721,0.0323 -1.4419,0.0726 -2.1523,0.20899 -1.1462,0.18724 -2.3018,0.30629 -3.4434,0.52148 -0.9175,0.19426 -1.8219,0.43932 -2.7207,0.70313 -0.2675,0.37988 -0.2988,0.71749 -0.6191,1.10351 -0.7819,0.94234 -1.2185,2.10671 -1.6797,3.22852 0.091,0.85581 -0.039,1.83894 -0.1719,2.85351 0.1052,0.3317 0.2203,0.66224 0.3731,0.96875 0.017,0.0347 0.065,0.0426 0.09,0.0723 0.071,0.084 0.1303,0.17722 0.1953,0.26562 0.282,0.46286 0.5823,0.91245 0.9297,1.32813 7.7664,9.29307 -0.8279,17.25359 -8.4941,10.36523 -3.8491,1.46453 -7.6768,-1.56206 -7.461,-7.63672 -1.5247,-1.47748 -2.6835,-3.94616 -2.955,-7.48046 -0.1553,-2.02129 -0.4171,-4.03095 -0.6582,-6.04297 -0.2748,-2.0688 -0.6103,-4.1272 -0.8301,-6.20313 -0.2102,-2.14922 -0.2722,-4.30926 -0.3262,-6.46679 -0.04,-1.62797 -0.053,-3.2564 -0.062,-4.88477 -0.029,-1.90357 0.1,-3.80392 0.2617,-5.69922 0.1914,-2.22685 0.6587,-4.4115 1.2852,-6.55273 0.1839,-0.47805 0.3298,-0.97347 0.5508,-1.43555 1.1741,-2.45499 2.8718,-4.67352 4.5097,-6.83399 0.9042,-1.21204 1.8526,-2.39752 2.9844,-3.4082 0.7124,-0.63617 1.1626,-0.94458 1.9004,-1.48633 1.7268,-1.20273 3.6647,-2.0411 5.6387,-2.74218 1.1873,-0.41311 2.2856,-0.60535 3.3906,-0.63477 1.105,-0.0294 2.2172,0.10354 3.4336,0.3418 1.6557,0.36265 3.2879,0.96848 4.6621,1.98437 0.3737,0.27624 0.7045,0.60689 1.0566,0.91016 1.112,1.12714 1.8291,2.45961 2.3399,3.89062 1.3891,-3.29589 2.8365,-7.18855 4.5312,-7.17382 0.012,10e-5 0.025,0.005 0.037,0.006 V 0 Z m 488.37109,29.087891 c 0.94434,-0.02013 1.72378,0.190334 2.73633,0.390625 1.70253,0.474762 3.31168,1.209292 4.86524,2.041015 1.52054,0.943024 3.07926,1.994521 4.19922,3.419922 0.38599,0.491315 0.71204,1.02774 1.06835,1.541016 1.02409,1.709334 1.51207,3.628924 1.96289,5.546875 0.32504,1.397042 0.44848,2.827963 0.61133,4.25 0.17317,0.932214 0.25415,1.883328 0.47266,2.80664 0.33366,1.104752 0.62025,2.224139 0.86719,3.351563 0.28735,1.400557 0.42644,2.823788 0.52734,4.248047 0.0232,1.001401 0.16485,2.017772 0.0644,3.019531 -0.0539,0.538908 -0.15337,1.07329 -0.23047,1.609375 -0.21359,0.894781 -0.54581,1.748295 -0.95898,2.560547 0.5338,0.238208 1.05602,0.507307 1.5625,0.833984 0.6286,0.405452 1.0947,0.880446 1.63867,1.384766 1.16239,1.19535 2.02871,2.628286 2.80274,4.09375 0.44591,0.824852 0.90441,1.64073 1.34765,2.466797 0.63312,1.211801 1.18039,2.462048 1.61524,3.757812 0.40213,1.256083 0.59617,2.559791 0.71289,3.869141 0.13124,1.220661 0.0877,2.427708 -0.004,3.648437 -0.65724,3.181012 -1.96342,4.592735 -4.77539,6.070313 -1.15928,0.609154 -2.5885,0.811051 -3.85937,1.060547 -1.64459,0.259407 -3.30577,0.629618 -4.98243,0.548828 -0.50793,-0.02447 -1.01152,-0.100351 -1.51757,-0.150391 -3.39285,-0.732188 -5.27394,-2.498 -7.18555,-5.203125 -1.28112,-1.903212 -1.92656,-4.101671 -2.36914,-6.326172 -0.11717,-0.641552 -0.19676,-1.287631 -0.26172,-1.935546 -0.0303,0.01145 -0.0615,0.01943 -0.0918,0.03125 -1.49781,0.571224 -2.97009,1.20535 -4.46679,1.779296 h -0.002 c -1.05632,0.405063 -2.05888,0.685647 -3.0039,0.857422 -0.25572,1.796146 -0.5466,3.589965 -0.63477,5.400391 -0.50906,10.452924 -8.78054,12.603589 -12.02344,6.451172 -5.4538,8.171621 -15.20297,3.114484 -10.80859,-7.947266 0.14582,-0.367076 0.0555,-0.136994 0.26562,-0.697265 0.31911,-0.805869 0.66291,-1.598664 0.97657,-2.40625 0.4575,-1.192918 0.81973,-2.42111 1.36328,-3.580079 0.46585,-0.972154 0.86955,-1.975564 1.41211,-2.910156 0.53151,-0.992321 1.07982,-1.98141 1.74414,-2.892578 0.59652,-1.035259 1.05922,-2.124419 1.48242,-3.244141 0.83074,-2.174085 1.43837,-4.423764 1.98047,-6.685546 0.46231,-1.85381 0.82718,-3.726294 1.16016,-5.607422 0.11275,-0.609907 0.23723,-1.218104 0.35937,-1.826172 v -0.002 c 0.0737,-1.461141 0.29971,-2.908609 0.50586,-4.355469 0.56007,-3.359241 1.56411,-3.647304 4.375,-2.890625 0.11911,-1.533675 0.21823,-3.068736 0.24805,-4.607422 0.01,-1.473186 0.0223,-2.947733 0.082,-4.419922 0.12503,-2.322166 0.47374,-5.28547 2.6289,-6.726562 1.38777,-0.927949 3.15761,-1.086053 4.73633,-1.628907 0.66039,0.269197 1.30913,0.562248 1.98047,0.808594 1.00029,-0.832871 2.26548,-1.418909 3.80664,-1.699219 0.36634,-0.06663 0.6989,-0.09876 1.01367,-0.105468 z m -18.79297,22.43164 c -0.016,0.0033 -0.0549,0.215388 -0.0605,0.425781 0.006,-0.03725 0.0153,-0.07406 0.0215,-0.111328 0.045,-0.231352 0.0495,-0.316601 0.0391,-0.314453 z m 10.32422,74.525389 c 1.93495,8.6e-4 3.86878,0.0624 5.78321,0.3711 1.42193,0.34425 2.14234,0.40878 3.42773,1.17187 1.8669,1.10831 3.17691,2.79366 3.88867,4.82227 0.48858,1.6285 0.81662,3.29861 0.75782,5.00976 2e-5,1.07429 -10e-5,2.14836 0,3.22266 1.3e-4,1.07891 8e-4,2.15742 0.002,3.23633 10e-4,1.19032 0.002,2.38 0.006,3.57031 0.006,1.40294 0.0125,2.80621 0.0371,4.20898 0.0361,1.94102 0.0815,3.88341 0.18359,5.82227 0.1245,2.23042 0.32039,4.45328 0.56445,6.67383 0.1153,1.80105 0.1776,3.60581 0.0977,5.41015 -0.0509,1.17768 -0.13695,2.35345 -0.33008,3.51758 -0.23144,1.29058 -0.50997,2.58698 -1.00195,3.80664 -0.36664,1.14351 -0.59453,2.3265 -0.99219,3.46094 -0.38435,1.1118 -0.81019,2.20947 -1.30078,3.2793 -0.69856,1.38997 -1.54589,2.68431 -2.64258,3.79687 -1.34669,1.33508 -2.79423,2.56246 -4.41992,3.55078 -1.5781,0.90364 -3.18522,1.76956 -4.88867,2.41602 -8.97017,3.40416 -13.92246,-2.22263 -11.21094,-7.36328 -1.6253,-0.39084 -3.19854,-0.93368 -4.67383,-1.73633 -0.36118,-0.22278 -0.73476,-0.42689 -1.08398,-0.66797 -1.31067,-0.90482 -2.40886,-2.09738 -3.35352,-3.36914 -1.00899,-1.35485 -1.96984,-2.75335 -2.75195,-4.25391 -0.78755,-1.54859 -1.5044,-3.13287 -2.1543,-4.74414 -0.74545,-2.01092 -1.30942,-4.07156 -1.81054,-6.15625 -0.45873,-1.88196 -0.9172,-3.76393 -1.36524,-5.64844 -0.35001,-1.55252 -0.69958,-3.10305 -0.86328,-4.68945 -0.22391,-1.80338 -0.35446,-3.61888 -0.28906,-5.4375 0.10231,-1.73282 0.25888,-3.46857 0.71484,-5.15039 0.47539,-1.53815 1.05713,-3.03971 1.92774,-4.4043 0.76939,-1.22378 1.61057,-2.3992 2.55664,-3.49414 0.92095,-1.07381 1.88835,-2.10545 2.92773,-3.0664 1.22795,-1.13037 2.53468,-2.1701 4.00977,-2.96485 1.31793,-0.72577 2.67837,-1.36555 4.04492,-1.99414 2.1983,-1.03617 4.46197,-2.00608 6.9375,-2.05468 1.77603,-0.0983 3.55149,-0.12398 5.33008,-0.13868 0.64415,-0.006 1.29056,-0.0139 1.93554,-0.0137 z m 0.42969,10.35547 c 0.003,0.067 0.0222,0.13117 0.0332,0.19727 0.0106,0.0388 0.0291,0.0732 0.041,0.11132 -0.015,-0.0816 -0.0267,-0.15865 -0.0469,-0.25 -0.005,-0.021 -0.0283,-0.0802 -0.0274,-0.0586 z m 0.11524,2.95899 c -0.78131,-0.007 -1.5647,0.002 -2.34571,0.01 -1.57615,0.0159 -3.15084,0.0303 -4.72461,0.11914 -0.0651,0.0114 -0.0566,0.008 -0.11133,0.0176 -0.22004,0.31446 -0.45718,0.63071 -0.71289,0.94922 -0.541,0.67387 -1.09486,1.33815 -1.67773,1.97656 -0.36961,0.42638 -0.71755,0.85911 -1.06445,1.30469 -0.093,0.11948 -0.18895,0.23539 -0.28125,0.35547 -0.0759,0.0988 -0.12926,0.38318 -0.22266,0.30078 -0.005,-0.004 -1.2e-4,-0.011 -0.004,-0.0156 -0.0116,0.0235 -0.0234,0.0469 -0.0351,0.0703 -0.0258,0.0515 -0.0664,0.18527 -0.082,0.15234 -0.11716,1.20752 0.0868,2.43066 0.13672,3.63672 0.1581,1.61383 0.31959,3.22838 0.53125,4.83594 0.23009,1.43627 0.55706,2.84129 1.22656,4.14648 0.86324,1.66953 1.81942,3.29683 3.08008,4.70313 1.18734,1.36353 2.44856,2.65502 3.75586,3.90429 1.25055,1.23866 2.43297,2.53919 3.38867,4.01172 0.0196,-0.27586 0.0341,-0.55178 0.0449,-0.82812 0.0556,-1.32484 0.0132,-2.64878 -0.0801,-3.97071 -0.26497,-2.26432 -0.44348,-4.53677 -0.57226,-6.8125 -0.11223,-2.10517 -0.16373,-4.21273 -0.20313,-6.32031 -0.0259,-1.46704 -0.0331,-2.93316 -0.0391,-4.40039 -0.004,-1.2052 -0.005,-2.41198 -0.006,-3.61719 -6.7e-4,-1.08186 -0.002,-2.16229 -0.002,-3.24414 -4e-5,-0.42833 2e-5,-0.85687 0,-1.28515 z m -11.26172,5.24023 c 8.8e-4,-0.009 -9.2e-4,-0.0183 0,-0.0273 -7.8e-4,0.0119 -0.006,0.0277 -0.004,0.0371 7.5e-4,0.003 0.003,-0.0112 0.004,-0.01 z m 0,-0.0273 c 0.002,-0.0263 0.003,-0.0524 0.008,-0.082 -0.004,0.0105 -0.004,0.0236 -0.01,0.0332 -0.002,0.0162 0.004,0.0326 0.002,0.0488 z m 0.13672,-0.54493 c -0.005,-0.001 -0.0164,0.005 -0.0332,0.0215 -0.0751,0.0751 -0.0617,0.19718 -0.0664,0.31055 0.0501,-0.16131 0.12253,-0.32589 0.0996,-0.33204 z m 4.49023,28.00391 c -0.0562,0.0228 -0.10895,0.0542 -0.16406,0.0801 0.0502,-0.0211 0.10026,-0.0414 0.15039,-0.0625 0.004,-0.006 0.0207,-0.0206 0.0137,-0.0176 z m 403.90039,10.97266 c 1.78821,-0.017 3.51481,0.71117 5.04297,2.20117 0.042,0.0317 0.0568,0.0456 0.12109,0.0957 0.0242,0.0122 0.0482,0.0248 0.0723,0.0371 0.005,0.002 0.008,0.005 0.0137,0.008 h 0.002 c 0.0573,0.0278 0.12859,0.063 0.12891,0.0703 0.2088,-3.2e-4 0.41829,-0.007 0.62695,0 0.83808,0 1.67561,-0.002 2.51368,-0.004 0.84195,-0.003 1.68343,-0.005 2.52539,-0.0176 0.75859,-0.0123 1.51793,-0.0228 2.27539,-0.0703 0.92922,-0.0791 1.85332,-0.21913 2.78515,-0.26953 0.58142,-0.0193 1.16361,-0.0375 1.74219,-0.10157 0.90796,-0.14488 1.81157,-0.3288 2.73242,-0.375 1.18097,-0.0841 2.35879,-0.0572 3.53516,0.082 1.42592,0.16724 2.84494,0.41844 4.18945,0.9414 1.24766,0.51459 2.39233,1.18698 3.42578,2.05469 0.70874,0.59608 1.3956,1.2329 1.97852,1.94727 0.32182,0.34965 0.52672,0.63257 1.28125,1.12304 0.97514,0.82557 1.91284,1.68958 2.79883,2.60938 1.31038,1.18516 2.64846,2.34573 3.85937,3.63476 0.34114,0.43625 0.71834,0.84642 1.02344,1.3086 0.92243,1.39738 1.36269,3.03808 1.54687,4.68359 0.077,0.58312 0.14125,1.1707 0.21485,1.75195 0.15652,0.58644 0.41145,1.14726 0.5625,1.73047 0.28347,0.69679 0.74222,1.62843 0.99023,2.43946 0.42994,1.20566 0.8349,2.42139 1.13867,3.66601 0.22775,0.9658 0.47033,1.92889 0.625,2.91016 0.2332,1.26224 0.40411,2.53563 0.53516,3.8125 0.1269,1.07986 0.40109,2.13961 0.46289,3.22851 0.0511,0.86443 0.1397,1.7252 0.1875,2.58985 0.0224,1.31065 -0.0322,2.6204 -0.17969,3.92382 -0.24106,2.03004 -0.61557,4.04639 -1.45117,5.92774 -0.47626,1.00015 -0.65763,1.46301 -1.26953,2.40234 -1.19808,1.83919 -2.73253,3.38194 -4.55078,4.61133 -1.15359,0.70992 -1.43542,0.92074 -2.66406,1.51563 -2.13324,1.03289 -4.39497,1.74887 -6.6836,2.34765 -3.11831,0.74041 -6.2667,1.33639 -9.41015,1.95899 -4.02422,0.87208 -8.03832,1.81745 -12.10938,2.44726 -0.59901,0.0755 -1.19597,0.16806 -1.79687,0.22656 -1.85747,0.18118 -3.73912,0.0879 -5.59571,0.29688 -2.18545,0.18151 -4.36395,0.42547 -6.52539,0.80273 -11.25407,1.96434 -13.98061,-7.67589 -6.05468,-11.77343 -0.91053,-1.63368 -1.15634,-3.52052 -0.88868,-5.62891 0.18835,-1.56467 0.40043,-3.12633 0.62891,-4.68555 0.25432,-1.51376 0.5167,-3.02655 0.80078,-4.53515 0.30553,-1.77229 0.48015,-3.56319 0.74414,-5.3418 0.24969,-2.12763 0.53123,-4.25149 0.71094,-6.38672 0.10407,-1.03508 0.20103,-2.07041 0.30664,-3.10547 0.13352,-0.92999 0.0404,-1.89111 0.1875,-2.82226 0.0639,-0.67019 0.10185,-1.3304 0.0606,-2.00782 -0.0139,-1.05501 -0.0339,-2.10994 -0.084,-3.16406 -0.0635,-1.30252 -0.15748,-2.60299 -0.29101,-3.90039 -0.12456,-1.54773 -0.2265,-3.10288 -0.1836,-4.65625 0.0437,-1.61857 0.0835,-3.24754 0.42969,-4.83594 0.58399,-1.72809 0.84318,-3.1095 2.6582,-4.29296 1.41846,-0.92496 2.86492,-1.39872 4.27344,-1.41211 z m 5.26758,2.39453 c -0.006,-5.3e-4 -0.01,0.003 -0.0156,0.002 0.0103,6.9e-4 0.0108,9e-5 0.0195,0.002 z m 0.0195,0 c 0.0116,0.009 0.0103,0.008 0.0215,0.0176 0.0156,1.6e-4 0.0313,-4e-5 0.0469,0 -0.0381,-0.009 -0.0372,-0.01 -0.0684,-0.0176 z m -0.01,0.008 c -0.0155,0.006 -0.0966,0.009 -0.0723,0.01 0.0293,9.5e-4 0.0586,-3.9e-4 0.0879,0 -0.006,-0.004 -0.009,-0.005 -0.0156,-0.01 z m 16.25,12.41406 c -0.0757,0.005 0.15437,-0.008 0.22657,0.0156 0.0421,0.0138 -0.0888,0.009 -0.13282,0.0137 -0.63123,0.0365 -0.92814,0.12778 -1.63671,0.24414 -1.1341,0.17596 -2.28043,0.22417 -3.42579,0.26367 -0.68914,0.0997 -1.3843,0.16702 -2.07812,0.22852 -1.06974,0.0837 -2.14438,0.10154 -3.2168,0.11914 -0.0111,1.7e-4 -0.0221,-1.7e-4 -0.0332,0 0.26908,1.69662 0.43243,3.4107 0.61719,5.11719 0.30813,2.97885 0.51751,5.96678 0.76367,8.95117 0.37747,3.40783 0.83416,6.80989 1.39062,10.19336 0.27029,1.43327 0.60822,2.85276 0.9668,4.26758 0.37885,0.0168 0.75748,0.0247 1.13672,0.0293 1.27848,0.0147 2.55957,-0.11823 3.81836,-0.33594 0.55946,-0.1147 1.1219,-0.21248 1.68359,-0.31445 -0.20899,-0.76722 -0.40854,-1.53697 -0.59179,-2.31055 -0.46022,-2.05381 -0.72921,-4.14166 -0.9336,-6.23437 -0.12574,-1.3548 -0.17092,-2.71651 -0.20312,-4.07617 1.8e-4,-1.2074 0.1187,-2.40893 0.1875,-3.61328 0.0325,-1.13832 0.16309,-2.27081 0.32812,-3.39649 0.21301,-1.6998 0.88766,-3.26228 1.66992,-4.76758 0.49019,-0.85872 1.0022,-1.70536 1.52735,-2.54296 0.18316,-0.29217 0.36995,-0.56855 0.55859,-0.83594 -0.0682,-0.0728 -0.1529,-0.12816 -0.2207,-0.20117 -0.19482,-0.29526 -0.46969,-0.53627 -0.60742,-0.65235 -0.1579,-0.003 -0.63034,-0.0866 -0.70313,-0.0937 -0.36141,-0.006 -0.7297,-0.0916 -1.0918,-0.0684 z m -11.19726,0.89063 c 6e-4,0.023 -7.9e-4,0.0779 0,0.11328 0.003,-0.0362 0.0116,-0.071 0.0137,-0.10742 -10e-4,-0.008 -4.8e-4,0.001 -0.002,-0.006 -0.004,3e-5 -0.008,-4e-5 -0.0117,0 z m 4.94531,29.74023 c 0.0217,0.0818 0.0406,0.16438 0.0625,0.2461 0.0602,0.16068 0.12354,0.64387 0.18164,0.48242 0.062,-0.17242 -0.0696,-0.44751 -0.24414,-0.72852 z m -12.3164,7.42969 c -0.016,0.12593 -0.0345,0.25028 -0.041,0.37695 -0.004,0.0821 0.0419,-0.15999 0.041,-0.24219 -4.8e-4,-0.0446 -2.6e-4,-0.0899 0,-0.13476 z m 447.02928,10.48437 c -0.3787,0.33685 -0.7559,0.67606 -1.1465,0.99805 -0.6143,0.51421 -1.2061,1.05474 -1.8125,1.57813 1.2466,0.42873 2.2601,1.02618 3.0469,1.72656 -0.021,-0.62974 -0.063,-1.25859 -0.074,-1.88867 -0.012,-0.80465 -0.01,-1.60939 -0.014,-2.41407 z m -4.9141,6.60743 c -0.01,0.0302 -0.014,0.0595 -0.02,0.0898 -0.011,0.0781 -0.049,0.15708 -0.033,0.23438 0.014,0.0658 0.031,-0.13027 0.041,-0.19727 0,-0.0422 0.01,-0.0846 0.012,-0.12695 z m -431.01167,19.64453 c 0.52728,0.0111 1.05494,0.041 1.58203,0.0937 2.37459,0.27408 4.69061,0.81345 6.95899,1.57422 1.51431,0.49903 3.02009,1.02656 4.53906,1.51172 0.5337,-0.44743 1.12163,-0.83733 1.76172,-1.1543 0.39925,-0.1977 0.83462,-0.31085 1.25195,-0.4668 2.32704,-0.64595 4.72316,-0.37343 6.77539,0.9668 1.12793,0.73661 1.4235,1.2566 2.19531,2.24414 0.0784,0.11399 0.15698,0.22709 0.23438,0.3418 0.0957,0.14188 0.3403,0.53219 0.49414,0.71679 0.0129,0.0154 0.0309,0.0231 0.0469,0.0352 0.10331,0.12823 0.22085,0.24666 0.31055,0.38476 0.32216,0.49603 0.61589,1.01066 0.92383,1.51563 0.85887,2.9817 1.39471,3.4089 -0.61523,7.14062 -0.52507,0.97484 -1.56956,1.60209 -2.5293,2.1543 -0.31321,0.18032 -0.63406,0.31787 -0.96094,0.42774 0.0186,0.57054 0.0273,1.14176 0.0723,1.71093 0.10227,1.23495 0.27671,2.4618 0.42773,3.69141 0.15553,1.67631 0.27403,3.35385 0.36133,5.03516 0.10762,1.58515 0.17121,3.172 0.29883,4.75586 0.1496,1.8519 0.28655,3.70448 0.37695,5.56054 0.0953,1.74057 0.12351,3.48528 0.24609,5.22461 0.12943,2.00458 0.26402,4.00809 0.29102,6.01758 0.0192,1.81368 -0.0253,3.62952 -0.20508,5.43555 -0.2199,1.80898 -0.5559,3.60994 -1.33984,5.27148 -0.24091,0.43807 -0.45836,0.89131 -0.72461,1.31445 -0.76073,1.20902 -1.85639,2.16579 -2.98633,3.01563 -0.11117,0.0833 -0.22281,0.1667 -0.33398,0.25 0.0125,-0.0223 0.0579,-0.0813 0.0371,-0.0664 -0.70858,0.50671 -1.15425,1.33601 -1.83007,1.87891 -1.55916,1.53744 -3.11341,3.08929 -4.83789,4.44336 -0.44997,0.3217 -0.88726,0.66316 -1.34961,0.9668 -1.87099,1.22859 -3.9517,2.07215 -6.06055,2.79492 -2.44275,0.77477 -4.93411,1.3435 -7.47852,1.66992 -1.70935,0.23281 -3.43469,0.38017 -5.10351,0.84375 -1.25434,0.32781 -2.50561,0.66801 -3.69531,1.19336 -12.05498,5.32318 -17.31519,-6.94763 -5.24414,-12.23438 1.79412,-0.78581 3.67217,-1.33847 5.5625,-1.83593 1.02662,-0.28947 2.06815,-0.49035 3.11718,-0.65821 -1.02959,-0.12178 -2.13511,-0.28711 -2.17187,-0.51758 -0.37067,-2.32587 -0.76889,-4.1328 -1.11719,-5.64453 -0.79234,-0.89324 -1.56708,-1.80235 -2.22266,-2.80273 -0.60188,-0.99961 -1.13069,-2.03069 -1.5332,-3.12695 -0.55273,-1.34434 -1.00575,-2.73061 -1.22851,-4.17188 -0.0488,-0.39478 -0.12079,-0.78663 -0.14649,-1.18359 -0.099,-1.53049 0.16948,-3.04186 0.57227,-4.51172 0.54764,-1.72279 1.28091,-3.37306 2.34961,-4.84375 0.58689,-0.781 1.20653,-1.53531 1.84179,-2.27735 -0.65266,-0.84665 -1.28047,-1.71226 -1.85937,-2.61328 -0.40779,-0.68372 -0.78184,-1.37879 -1.10547,-2.09961 -0.38107,-0.31204 -0.74946,-0.63629 -1.09375,-0.97656 -0.64449,-0.63696 -0.81508,-1.61844 -1.22266,-2.42773 -0.30865,-1.36876 -0.59978,-2.87599 -0.27929,-4.28125 0.17467,-0.76584 -0.0433,-1.99381 0.69921,-2.25 1.88049,-0.64875 3.27175,-1.16902 4.47266,-1.61914 0.7238,-0.47031 1.4701,-0.89914 2.23633,-1.29297 -1.16828,-0.50575 -1.95238,-0.77034 -2.96289,-1.6875 -2.06251,-1.87198 -3.16454,-4.50005 -2.54883,-7.29297 0.18665,-0.84667 0.64407,-1.60937 0.9668,-2.41406 0.95748,-1.37445 2.05632,-2.63523 3.48633,-3.54102 0.30067,-0.18629 0.59083,-0.39105 0.90234,-0.55859 1.44717,-0.77833 3.03788,-1.15986 4.6582,-1.35938 1.5736,-0.17097 3.15448,-0.30476 4.73633,-0.27148 z m -3.58008,13.5625 c -0.10647,0.0184 -0.21355,0.0366 -0.31836,0.0625 -0.0162,0.004 0.0343,0.009 0.0508,0.006 0.0711,-0.011 0.14264,-0.0241 0.21094,-0.0469 0.028,-0.009 0.0322,-0.0131 0.0566,-0.0215 z m 13.51172,8.29883 c -0.16813,0.18438 -0.32923,0.37544 -0.49414,0.5625 -0.56112,0.546 -1.17166,0.99844 -1.81445,1.39257 0.85672,0.0281 1.71475,0.0634 2.56836,0.13868 -0.0972,-0.69643 -0.18271,-1.39522 -0.25977,-2.09375 z m -1.20898,3.84765 c 0.0474,-0.0282 -0.0979,0.0522 -0.14649,0.0781 -0.0214,0.0148 -0.0375,0.0265 -0.0586,0.041 0.0686,-0.0392 0.13711,-0.0788 0.20508,-0.11914 z m -410.85938,9.44141 c 3.32798,0 6.65625,3.29573 6.65625,9.88476 v 5.90821 c -0.0258,2.18974 0.15156,4.75023 -1.02344,6.71289 -0.56943,0.95113 -1.4028,1.71716 -2.10351,2.57617 -2.5104,1.89785 -5.22915,2.30371 -8.25586,2.44922 -1.42936,0.0458 -2.86004,0.0636 -4.28906,0.008 -2.26175,-0.11353 -4.36476,-0.92269 -6.39258,-1.86719 -1.26075,-0.58865 -2.52782,-1.15537 -3.82813,-1.64453 -0.21838,0.15073 -0.43754,0.29856 -0.65234,0.45508 -0.86887,0.73147 -1.70907,1.49479 -2.48438,2.33008 -0.70972,0.76897 -1.37784,1.56915 -1.96484,2.43164 -0.0814,0.46961 -0.12801,0.94516 -0.16601,1.42187 -0.11301,1.43069 -0.0452,2.86775 0.0547,4.29688 0.14629,1.35785 0.12868,2.73101 0.27539,4.08789 0.099,0.79973 0.14507,1.61513 0.36328,2.39453 0.164,0.8598 0.48908,1.66667 0.85938,2.45508 0.36231,0.86188 0.80925,1.68832 1.29492,2.48633 0.26191,0.19003 0.61648,0.52115 0.91797,0.76758 0.64996,0.49385 1.41152,0.8278 2.14258,1.18554 0.73208,0.41665 1.4981,0.72504 2.2832,1.01563 0.87508,0.31647 1.76619,0.56912 2.66016,0.82226 0.99694,0.23951 1.97886,0.54212 2.98047,0.76172 0.64642,0.13845 1.30679,0.22879 1.96679,0.15039 0.77068,-0.002 1.5005,-0.19222 2.24414,-0.36133 0.71195,-0.18895 1.16515,-0.35812 1.86329,-0.57812 2.2257,-0.5494 4.62467,-0.52328 6.66015,0.69922 0.68259,0.40997 1.2289,1.01166 1.84375,1.51758 0.44255,0.73064 0.96875,1.41643 1.32813,2.1914 0.23207,0.50044 0.34478,1.05262 0.42968,1.59766 0.26891,1.72554 -0.11755,3.27849 -0.73046,4.85937 -0.48672,1.10641 -1.22881,2.07703 -2.10352,2.9043 -0.43838,0.41461 -0.92268,0.76016 -1.37305,1.1582 -1.18282,1.05569 -2.60299,1.77639 -4.01562,2.46875 -1.49306,0.76644 -3.08043,1.34414 -4.75977,1.51953 -0.47807,0.0499 -0.96121,0.0432 -1.4414,0.0645 -1.59609,-0.0506 -3.16948,-0.3275 -4.75782,-0.47071 -2.08413,-0.13728 -4.04462,-0.83938 -5.98632,-1.55078 -1.81508,-0.52889 -3.54902,-1.24118 -5.22266,-2.11718 -1.62917,-0.87447 -3.26931,-1.7261 -4.86328,-2.66407 -1.88419,-1.1486 -3.61225,-2.52329 -5.31055,-3.92578 -1.90368,-1.53119 -3.21374,-3.57274 -4.36914,-5.68945 -1.28654,-2.56131 -1.77492,-5.3935 -2.12695,-8.20899 -0.31706,-2.43465 -0.20011,-4.88552 0.10351,-7.3125 0.3314,-2.43969 1.05767,-4.7787 1.90821,-7.08007 0.74733,-2.13662 1.6432,-4.20396 2.72265,-6.18946 0.0757,-0.22105 0.13667,-0.44555 0.22266,-0.66406 0.914,-2.20661 2.00611,-4.02879 3.76953,-5.66992 0.93335,-0.87033 1.93385,-1.64998 2.95117,-2.4082 0.0795,-0.96088 0.34526,-2.07206 0.79883,-3.53711 0.5482,-1.7707 3.14805,-3.04326 4.74414,-3.72461 1.45842,-0.63546 2.97789,-1.08608 4.53125,-1.41602 0.72518,-0.11683 1.45292,-0.21699 2.17969,-0.32422 0.48646,-0.30748 0.97395,-0.61322 1.45703,-0.92578 1.74366,-1.16913 3.65742,-1.96422 5.66602,-2.54101 1.95911,-0.48967 3.96162,-0.7709 5.9746,-0.9004 0.11895,-0.002 0.23701,0.004 0.35547,0.006 1.16357,-1.20743 2.58709,-1.8164 4.01172,-1.8164 z m 413.36328,4.12109 c -0.29777,0.10261 -0.59872,0.19179 -0.91211,0.25391 -0.49513,0.11735 -0.99411,0.22012 -1.49023,0.33594 -0.31311,0.86414 -0.73097,1.76539 -1.26758,2.69726 -0.22358,0.38826 -0.48927,0.80913 -0.61328,1.27734 -0.0386,0.0966 -0.0444,0.21287 -0.11523,0.28907 -0.0478,0.0516 0.051,-0.13763 0.0391,-0.20703 -0.01,-0.0565 -0.0338,0.10826 -0.0469,0.16406 -0.0548,0.23324 -0.0971,0.46952 -0.14258,0.70508 0.02,0.009 0.0385,0.0208 0.0586,0.0293 1.06149,0.49167 2.15992,0.85412 3.28125,1.18946 0.50474,0.19048 1.0507,0.41775 1.5957,0.66211 -0.0451,-0.78126 -0.0958,-1.56262 -0.14648,-2.34375 -0.13004,-1.68195 -0.14798,-3.36907 -0.24024,-5.05274 z m -7.06445,4.69727 c -0.0702,0.001 -0.13533,0.0123 -0.19531,0.0371 -1.37291,0.56723 -2.2778,1.18978 -2.82813,1.8457 2.79597,0.95343 5.02142,1.33506 4.1875,-1.44141 -0.37179,-0.20003 -0.82028,-0.44648 -1.16406,-0.4414 z M 486.0056,410.6057 c 2.71919,0.0266 5.75105,2.26105 7.49609,7.32226 0.9299,2.69702 1.58109,5.47568 2.20508,8.25586 0.66663,3.02682 1.23103,6.07415 1.96485,9.08594 0.61817,2.27749 1.29597,4.53768 2.05664,6.77149 0.54524,1.37767 1.07496,2.76133 1.67773,4.11523 0.76433,1.68498 1.45071,3.40493 2.21484,5.08984 0.37852,0.9732 0.91195,1.8384 1.53516,2.66211 0.73529,0.92701 1.43917,1.87479 2.08594,2.86524 0.79249,1.26629 1.32446,2.66435 1.89062,4.03906 0.57452,1.33258 0.92152,2.74069 1.16602,4.16602 0.19889,1.35705 0.23198,2.73069 0.26758,4.0996 0.0297,1.13805 0.0447,2.27475 -0.004,3.41211 -0.25252,2.61088 -1.33936,4.56442 -3.46094,6.14258 -0.88335,0.65709 -1.64792,0.85861 -2.6289,1.19922 -2.18263,0.53946 -4.52535,0.50326 -6.59571,-0.46875 -0.45249,-0.21244 -0.88436,-0.46733 -1.32617,-0.70117 -0.86278,-0.55517 -1.73049,-1.10613 -2.64844,-1.56641 -1.88927,-0.93515 -3.44467,-2.31833 -4.83398,-3.88086 -1.14426,-1.36875 -2.03743,-2.91371 -2.89453,-4.4707 -0.77178,-1.38587 -1.55279,-2.76494 -2.27149,-4.17969 -0.14026,-0.29344 -0.26973,-0.5919 -0.40234,-0.88867 -1.09756,0.4197 -2.20539,0.81673 -3.27148,1.3125 -1.62494,0.74089 -3.22281,1.53604 -4.81641,2.3418 -0.16192,0.0865 -0.33541,0.15339 -0.49609,0.24219 -0.47204,0.26096 -0.82152,0.72738 -1.22852,1.06835 -1.07693,1.09116 -2.17915,2.15671 -3.20312,3.29883 -1.03342,1.14602 -2.07145,2.28853 -3.12305,3.41797 -0.81356,0.84368 -1.65028,1.78586 -2.70313,2.33789 -3.59682,1.88589 -11.47791,2.8804 -10.3125,-6.59179 0.15214,-1.37291 0.31441,-2.75091 0.72461,-4.07618 0.44106,-1.38895 0.94704,-2.75801 1.48242,-4.11328 0.64225,-1.61622 1.34126,-3.20875 1.95118,-4.83789 0.847,-1.96591 1.62191,-3.96215 2.45117,-5.93555 1.13627,-2.89959 2.25533,-5.81078 3.18164,-8.78515 0.55909,-1.70874 1.12802,-3.41519 1.55273,-5.16406 0.50522,-1.87267 0.88204,-3.77598 1.24024,-5.68164 0.33027,-1.69209 0.67818,-3.38012 0.93164,-5.08594 0.20309,-1.45967 0.38059,-2.92103 0.38086,-4.39844 0.0878,-1.77188 0.21102,-3.55261 0.67383,-5.27344 0.14498,-0.42992 0.23785,-0.88264 0.43554,-1.29101 1.16661,-2.40983 2.77425,-4.56757 6.15235,-4.60547 2.63095,-0.0295 4.33027,0.85107 5.54297,2.25976 1.00229,-2.26716 2.88836,-3.53004 4.95898,-3.50976 z m -15.85156,10.87695 c -0.0724,-0.0231 0.089,0.3376 0.28515,0.66211 -0.0671,-0.19202 -0.12717,-0.38647 -0.19531,-0.57812 -0.0431,-0.0522 -0.0731,-0.0786 -0.0898,-0.084 z m 7.3164,23.88477 c -0.1228,0.38766 -0.2473,0.77535 -0.37304,1.16211 0.21699,0.064 0.56318,0.16831 0.60546,0.17578 0.02,0.003 0.0405,0.003 0.0605,0.006 -0.0956,-0.44852 -0.19619,-0.89552 -0.29297,-1.34375 z" />
    </clipPath>
  </defs>
  <sodipodi:namedview
     id="namedview9198"
     pagecolor="#ffffff"
     bordercolor="#000000"
     borderopacity="0.25"
     inkscape:showpageshadow="2"
     inkscape:pageopacity="0.0"
     inkscape:pagecheckerboard="0"
     inkscape:deskcolor="#d1d1d1"
     showgrid="false"
     showguides="true"
     inkscape:zoom="1.5775344"
     inkscape:cx="551.17655"
     inkscape:cy="217.4279"
     inkscape:window-width="3818"
     inkscape:window-height="2032"
     inkscape:window-x="1984"
     inkscape:window-y="-12"
     inkscape:window-maximized="0"
     inkscape:current-layer="g9202">
    <sodipodi:guide
       position="553.06759,259.99743"
       orientation="0,-1"
       id="guide9379"
       inkscape:locked="false" />
    <sodipodi:guide
       position="543.87603,156.03773"
       orientation="0,-1"
       id="guide9381"
       inkscape:locked="false" />
    <sodipodi:guide
       position="510.59625,172.51915"
       orientation="0,-1"
       id="guide9383"
       inkscape:locked="false" />
    <sodipodi:guide
       position="526.76072,452.06931"
       orientation="1,0"
       id="guide9385"
       inkscape:locked="false" />
    <sodipodi:guide
       position="523.59121,453.02016"
       orientation="0,-1"
       id="guide9387"
       inkscape:locked="false" />
    <sodipodi:guide
       position="932.77404,292.96026"
       orientation="0,-1"
       id="guide9395"
       inkscape:locked="false" />
    <sodipodi:guide
       position="924.85028,310.07557"
       orientation="0,-1"
       id="guide9397"
       inkscape:locked="false" />
    <sodipodi:guide
       position="919.46213,203.89722"
       orientation="0,-1"
       id="guide9399"
       inkscape:locked="false" />
    <sodipodi:guide
       position="910.27057,188.04971"
       orientation="0,-1"
       id="guide9401"
       inkscape:locked="false" />
    <sodipodi:guide
       position="429.77393,193.12091"
       orientation="1,0"
       id="guide10188"
       inkscape:locked="false" />
  </sodipodi:namedview>
  <g
     inkscape:groupmode="layer"
     inkscape:label="Image"
     id="g9202"
     transform="translate(5.6944319)">
    <path
       style="display:inline;fill:#000000"
       d="m 592,497.89693 c 0,-7.04388 0.0387,-7.14596 4.63958,-12.25 21.371,-23.70799 32.64488,-54.70055 32.61002,-89.64693 -0.0278,-27.87188 -6.47211,-52.38381 -19.68438,-74.87253 -4.86795,-8.28579 -17.00841,-23.97657 -19.20305,-24.81873 C 589.36868,295.9275 589,293.60685 589,287.73458 v -8.05144 l 22.75,0.6806 c 25.21109,0.75423 41.45968,1.95553 57.25,4.23266 71.41564,10.29886 122.43777,39.97006 156.1338,90.79739 l 6.3662,9.60283 49.25,0.002 49.25,0.002 v -42 -42 h 8.5 8.5 v 50 50 h -57.76887 -57.76888 l -6.48112,9.18653 c -7.65615,10.85202 -24.1725,28.38456 -34.86883,37.01414 -30.98058,24.99452 -72.45022,43.3586 -117.9432,52.22901 C 649.69433,503.81191 637.27655,505 613.94878,505 H 592 Z m 48,-9.4562 c 58.04863,-6.6943 106.99933,-25.84286 142.75459,-55.84283 5.09003,-4.27071 12.29003,-11.14052 16,-15.26624 8.29798,-9.22786 18.24121,-22.37915 18.24362,-24.1297 0.003,-1.86038 -6.19599,-11.33386 -13.87259,-21.20196 -15.3854,-19.77761 -35.03906,-35.97565 -57.95944,-47.76865 -34.20669,-17.60004 -63.58506,-24.26387 -122.50577,-27.78774 l -10.8396,-0.64828 5.66698,8.2747 c 11.26735,16.45217 19.86486,36.8246 24.70295,58.53543 1.91793,8.6067 2.20753,12.88814 2.22498,32.89454 0.0175,20.1009 -0.2603,24.28423 -2.20421,33.18841 -4.24257,19.43328 -12.27548,38.33674 -22.75679,53.55244 L 614.10984,490 l 6.19508,-10e-4 c 3.4073,-6.7e-4 12.27008,-0.7018 19.69508,-1.55806 z m -84.79237,8.09607 -5.21866,-5.71004 5.61431,-6.16338 c 6.39877,-7.02455 13.87516,-17.71525 17.77249,-25.41338 L 576.03369,454 H 548.51685 521 v -8 -8 h 30.46126 30.46126 l 1.46689,-4.93956 c 3.60828,-12.15038 4.87103,-24.68414 4.32029,-42.88209 -0.51378,-16.97691 -1.53693,-24.19245 -5.2335,-36.90822 L 580.94413,348 H 550.97207 521 v -7.34445 -7.34445 l 14.25,-0.65189 c 7.8375,-0.35854 19.7625,-0.65354 26.5,-0.65555 6.7375,-0.002 12.25,-0.24362 12.25,-0.5369 0,-0.29329 -1.17825,-2.88079 -2.61832,-5.75 -4.21159,-8.39118 -11.29399,-18.54985 -17.72692,-25.42667 l -5.98251,-6.39532 5.37971,-5.44739 C 556.01081,285.45132 558.77125,283 559.18628,283 c 0.41503,0 3.73612,3.4875 7.38019,7.75 17.51633,20.48902 28.96714,44.48407 34.69028,72.69313 1.9146,9.43695 2.23682,14.13354 2.19934,32.05687 -0.0376,17.95597 -0.37239,22.52202 -2.30999,31.5 -5.93582,27.504 -17.72328,51.13115 -34.05167,68.25419 l -6.66814,6.99266 z M 461.63128,456.29705 C 465.25024,445.95867 469.4406,433.9 470.94319,429.5 l 2.73198,-8 7.07101,-0.29196 7.07102,-0.29197 1.10982,3.36281 c 0.61041,1.84955 4.86642,14.01843 9.4578,27.04197 L 506.73279,475 h -6.12889 -6.12888 l -1.86152,-6.5 -1.86151,-6.5 h -9.84022 -9.84022 l -1.83673,6.25 -1.83673,6.25 -6.17337,0.29705 -6.17336,0.29705 z m 26.0108,-4.7874 c -0.31455,-0.81969 -1.76044,-5.43219 -3.2131,-10.25 -1.45265,-4.81781 -2.95819,-9.10189 -3.34563,-9.52019 -0.38744,-0.4183 -1.97254,3.6317 -3.52246,9 -1.54991,5.3683 -3.03331,10.32304 -3.29644,11.01054 -0.35545,0.9287 1.37587,1.25 6.73555,1.25 5.98082,0 7.11622,-0.25476 6.64208,-1.49035 z m -19.08426,-81.00177 c -8.35846,-2.97757 -12.77341,-9.04404 -14.55691,-20.00232 -3.13753,-19.27767 7.35464,-34.30109 24.06759,-34.46167 3.70796,-0.0356 14.54231,2.33049 15.72335,3.43382 0.23731,0.22171 -2.65538,8.36037 -3.29993,9.28442 -0.10057,0.14417 -2.34364,-0.69369 -4.98461,-1.86192 -12.55898,-5.55544 -21.55696,3.18872 -20.24788,19.67672 1.14039,14.36335 7.38621,18.7365 21.52264,15.06956 L 492,360.29297 v 4.77065 4.77065 l -5.04922,1.08287 c -6.7628,1.45036 -13.59978,1.29823 -18.39296,-0.40926 z M 137,317.47475 V 264 h -27.34444 c -15.039438,0 -32.139438,-0.29338 -37.999997,-0.65197 L 61,262.69607 V 254.84803 247 h 38.096426 38.096424 l -0.34642,-52.5002 c -0.23334,-35.36229 -0.0123,-52.50014 0.67705,-52.5 0.56292,1.1e-4 52.31292,24.56156 115,54.581 62.68709,30.01945 114.53902,54.81759 115.22652,55.10699 0.79517,0.33473 1.25029,-0.33143 1.25079,-1.8308 0.001,-4.42883 5.53826,-14.28127 10.46051,-18.61401 6.98187,-6.14568 14.06817,-8.5965 25.0387,-8.65969 7.71737,-0.0445 9.81523,0.32802 14.72034,2.61353 7.20573,3.35749 14.23397,10.49833 16.43659,16.69994 l 1.6838,4.74086 9.32964,0.24874 C 452.77231,247.04904 456,246.76576 456,246.06754 456,245.34176 463.36319,245 479,245 h 23 v -43 -43 h 9 9 v 95 95 h -9 -9 V 305.97655 262.9531 l -32.11189,0.27345 -32.11189,0.27345 -1.94597,5.21776 c -5.14962,13.80776 -20.97143,21.85687 -37.80231,19.23135 -13.38382,-2.08779 -24.21016,-10.50665 -27.68437,-21.52813 C 369.40372,263.43944 368.3123,261 367.91819,261 c -0.39411,0 -49.24943,23.2333 -108.56738,51.62956 -59.31794,28.39626 -111.11331,53.1349 -115.10081,54.97475 l -7.25,3.3452 z m 109.25,-17.47929 c 49.9125,-23.84973 90.73304,-43.61792 90.7123,-43.9293 C 336.8999,255.12978 154.54063,168.25057 154,168.89968 c -0.7887,0.94695 2.6e-4,175.20842 0.79146,174.81302 0.3897,-0.19475 41.54604,-19.8675 91.45854,-43.71724 z m 168.52424,-31.17979 c 4.34993,-2.66869 6.51147,-7.13529 6.51147,-13.45527 0,-6.81548 -2.58735,-11.22979 -8.27048,-14.1104 -17.56075,-8.90101 -36.35713,10.5856 -23.61852,24.48582 5.68366,6.20195 17.87659,7.6817 25.37753,3.07985 z m 602.49006,91.87223 0.5759,-7.61376 7.3979,-8.56517 c 6.5786,-7.61648 15.5432,-20.94328 17.3275,-25.75897 0.6118,-1.65124 -2.0383,-1.75 -46.95861,-1.75 L 948,317 v -8 -8 h 50.96146 50.96144 l 0.9712,-3.75 c 0.5342,-2.0625 1.4316,-5.55 1.9943,-7.75 5.0512,-19.75012 4.2049,-51.18396 -1.9318,-71.75 L 1048.9424,211 H 998.47122 948 v -7.34028 -7.34029 l 23.25,-0.65741 c 12.7875,-0.36158 33.9375,-0.65845 47,-0.65972 13.0625,-0.001 23.75,-0.3507 23.75,-0.77651 0,-0.42582 -1.9313,-4.1633 -4.2919,-8.3055 -4.6553,-8.16896 -11.7281,-17.75471 -17.8444,-24.18423 C 1016.0836,157.76239 1016,157.5122 1016,150.1788 v -7.49566 l 22.75,0.6806 c 25.2111,0.75423 41.4597,1.95553 57.25,4.23266 71.4156,10.29886 122.4378,39.97006 156.1338,90.79739 l 6.3662,9.60283 18.857,0.002 c 16.7838,0.001 18.7902,0.17559 18.25,1.58348 -0.3339,0.86998 -0.607,4.46998 -0.607,8 v 6.41821 h -18.2689 -18.2688 l -6.432,9.11306 c -11.6412,16.49356 -30.577,34.85431 -48.5303,47.05649 -43.3414,29.45748 -99.9937,45.74105 -165.4057,47.54258 l -21.4058,0.58953 0.5758,-7.61376 z M 1073.5,349.39624 c 35.6773,-4.51909 66.2281,-13.24888 94,-26.86012 24.6003,-12.05682 45.1444,-27.21537 60.2014,-44.41979 8.4517,-9.6572 16.2986,-20.26885 16.2986,-22.04136 0,-1.74565 -6.3985,-11.46492 -13.8744,-21.07497 -15.3854,-19.77761 -35.039,-35.97565 -57.9594,-47.76865 -34.1891,-17.59095 -63.6151,-24.2689 -122.4191,-27.78183 l -10.7529,-0.64238 6.3707,9.52865 c 11.428,17.09263 19.1717,35.63051 23.879,57.16421 1.8787,8.59432 2.1859,13.09249 2.1859,32 0,19.00613 -0.3023,23.38649 -2.2213,32.18841 -4.3303,19.86191 -12.9548,39.80616 -23.6548,54.70188 l -5.6678,7.89029 10.807,-0.68217 c 5.9439,-0.3752 16.2071,-1.36617 22.8071,-2.20217 z M 883,306 v -27 h 15.5 15.5 v 4.5 4.5 h -10 -10 v 6 6 h 9 9 v 4.5 4.5 h -9 -9 v 7.5 7.5 h 10 10 v 4.5 4.5 H 898.5 883 Z m 425,-49 v -27 h 15 15 v 4.5 4.5 h -9.5 -9.5 v 7.5 7.5 h 9 9 v 4.5 4.5 h -9 -9 v 10.5 10.5 h -5.5 -5.5 z M 1,254.88652 v -27.11348 l 13.75,0.41656 c 15.276124,0.4628 20.732929,2.18538 23.052939,7.27724 2.785771,6.11411 0.609355,14.11302 -4.469651,16.42717 l -2.816703,1.28337 3.113405,1.30909 C 38.334084,256.46439 40,259.56443 40,266.34015 c 0,5.4851 -0.262407,6.15755 -3.772546,9.66769 -4.894587,4.89459 -9.150377,5.97978 -23.477454,5.98658 L 1,282 Z M 25.886204,271.25 c 1.159275,-0.9625 2.384412,-3.18267 2.722526,-4.93371 0.495875,-2.56806 0.118492,-3.67998 -1.951533,-5.75 C 24.468145,258.37724 23.202248,258 18.045455,258 H 12 v 7.5 7.5 h 5.889216 c 4.13915,0 6.515571,-0.52004 7.996988,-1.75 z m -1.10871,-23.8067 c 2.978582,-2.08628 2.978582,-6.80032 0,-8.8866 C 23.447536,237.62516 20.435571,237 17.277494,237 H 12 v 6 6 h 5.277494 c 3.158077,0 6.170042,-0.62516 7.5,-1.5567 z M 877,213.98458 v -27.22107 l 12.75,0.4447 c 13.86463,0.48357 18.52531,1.78643 23.59158,6.59484 9.33744,8.86218 10.18614,28.83163 1.63906,38.56622 -5.13063,5.84346 -11.65528,7.98351 -25.73064,8.43952 L 877,241.20565 Z m 25.76344,15.37955 c 4.36765,-3.20213 6.23325,-7.95357 6.23501,-15.87973 C 909.0011,201.51185 904.04141,196 893.2656,196 H 888 v 18.12019 18.12019 l 6.01344,-0.43497 c 3.89216,-0.28153 6.97878,-1.14271 8.75,-2.44128 z M 588,200.14674 v -24.85327 l -7.65088,-0.64673 C 576.14114,174.29103 561.06614,174 546.84912,174 H 521 v -8.15821 -8.15821 l 33,0.69629 33,0.69629 v -34.88252 c 0,-19.18538 -0.29338,-39.677518 -0.65197,-45.538077 L 585.69607,68 H 553.34803 521 v -7.342958 -7.342959 l 16.65971,-0.657041 C 546.82255,52.295669 561.44755,52 570.15971,52 H 586 V 26 0 h 104.38953 c 90.05035,0 105.51052,0.21264666 112.55031,1.5480718 32.17844,6.1041474 55.60068,21.9236672 69.64626,47.0394992 7.21997,12.910525 12.30016,30.641423 13.94256,48.662429 l 0.70632,7.75 H 917.11749 947 v 53.5 53.5 h -8.5 -8.5 v -46 -46 h -21.42804 -21.42805 l -0.66191,5.75 c -5.48725,47.66746 -29.29701,79.83562 -69.03325,93.26732 C 799.31073,225.14836 802.46164,225 690.38953,225 H 588 Z m 203.38803,8.81822 c 44.04283,-6.19651 70.72112,-32.47361 78.16466,-76.9892 2.29071,-13.69948 1.56038,-38.553005 -1.49365,-50.829053 -4.62653,-18.596959 -10.967,-30.312971 -22.59793,-41.756784 -6.82092,-6.711176 -10.02954,-8.990647 -18.6019,-13.215157 C 816.31225,20.977163 806.05485,17.848277 793.5,15.998982 789.36362,15.389704 748.70374,14.704384 694.1087,14.323747 l -92.3913,-0.644154 0.64843,77.410204 c 0.35664,42.575613 0.93214,87.045233 1.2789,98.821383 l 0.63046,21.41119 89.6124,-0.62381 c 56.76884,-0.39518 92.50343,-1.03056 97.50044,-1.7336 z M 468.55782,183.50788 c -8.35846,-2.97757 -12.77341,-9.04404 -14.55691,-20.00232 -3.13753,-19.27767 7.35464,-34.30109 24.06759,-34.46167 3.70796,-0.0356 14.54231,2.33049 15.72335,3.43382 0.23731,0.22171 -2.65538,8.36037 -3.29993,9.28442 -0.10057,0.14417 -2.34364,-0.69369 -4.98461,-1.86192 -12.55898,-5.55544 -21.55696,3.18872 -20.24788,19.67672 1.14039,14.36335 7.38621,18.7365 21.52264,15.06956 L 492,173.29297 v 4.77065 4.77065 l -5.04922,1.08287 c -6.7628,1.45036 -13.59978,1.29823 -18.39296,-0.40926 z M 467.63128,68.297051 C 471.25024,57.958673 475.4406,45.9 476.94319,41.5 l 2.73198,-8 7.07101,-0.291965 7.07102,-0.291964 1.10982,3.362809 c 0.61041,1.849546 4.86642,14.01843 9.4578,27.041965 L 512.73279,87 h -6.12889 -6.12888 L 498.6135,80.5 496.75199,74 h -9.84022 -9.84022 l -1.83673,6.25 -1.83673,6.25 -6.17337,0.297051 -6.17336,0.297051 z m 26.0108,-4.787398 c -0.31455,-0.819691 -1.76044,-5.432191 -3.2131,-10.25 -1.45265,-4.817809 -2.95819,-9.101897 -3.34563,-9.520194 -0.38744,-0.418298 -1.97254,3.631702 -3.52246,9 C 482.01098,58.107756 480.52758,63.0625 480.26445,63.75 479.909,64.678696 481.64032,65 487,65 c 5.98082,0 7.11622,-0.254761 6.64208,-1.490347 z"
       id="path9323"
       clip-path="url(#clipPath10008)" />
    <rect
       style="fill:#000000;fill-rule:evenodd"
       id="rect9377"
       width="21.23567"
       height="16.798365"
       x="501.41534"
       y="157.52429" />
    <rect
       style="fill:#000000;fill-rule:evenodd"
       id="rect9389"
       width="32.96283"
       height="6.3390059"
       x="434.53885"
       y="244.68562" />
    <rect
       style="fill:#000000;fill-rule:evenodd"
       id="rect9391"
       width="74.80027"
       height="17.432266"
       x="508.70523"
       y="331.84695" />
    <rect
       style="fill:#000000;fill-rule:evenodd"
       id="rect9393"
       width="34.230633"
       height="6.0220556"
       x="521.06628"
       y="51.979847" />
    <rect
       style="fill:#000000;fill-rule:evenodd"
       id="rect9403"
       width="21.55262"
       height="16.164465"
       x="938.48981"
       y="300.78583" />
    <rect
       style="fill:#0000ff;fill-rule:evenodd"
       id="rect9768"
       width="1.9017017"
       height="5.7051053"
       x="976.84082"
       y="194.92442" />
    <rect
       style="fill:#000000;fill-rule:evenodd"
       id="rect9770"
       width="107.7631"
       height="16.798365"
       x="935.63727"
       y="194.92442" />
    <rect
       style="fill:#000000;fill-rule:evenodd"
       id="rect9772"
       width="37.400135"
       height="7.6068068"
       x="1016.7766"
       y="204.11598" />
    <rect
       style="fill:#000000;fill-rule:evenodd;stroke-width:1.37437"
       id="rect10023"
       width="14.896664"
       height="16.164465"
       x="60.537506"
       y="246.90427" />
    <text
       xml:space="preserve"
       style="font-style:normal;font-variant:normal;font-weight:bold;font-stretch:normal;font-size:63.9999px;font-family:sans-serif;-inkscape-font-specification:'sans-serif Bold';display:inline;fill:#000000;stroke:#000000;stroke-width:0;stroke-dasharray:none"
       x="451.79099"
       y="78.940468"
       id="text304"><tspan
         sodipodi:role="line"
         id="tspan302"
         style="font-size:63.9999px;fill:#000000;stroke-width:0"
         x="451.79099"
         y="78.940468">P<tspan
   style="font-size:41.5999px;baseline-shift:sub;stroke-width:0"
   id="tspan1015">0</tspan></tspan></text>
    <text
       xml:space="preserve"
       style="font-style:normal;font-variant:normal;font-weight:bold;font-stretch:normal;font-size:63.9999px;font-family:sans-serif;-inkscape-font-specification:'sans-serif Bold';display:inline;fill:#000000;stroke:#000000;stroke-width:0;stroke-dasharray:none"
       x="453.04169"
       y="465.33795"
       id="text304-3"><tspan
         sodipodi:role="line"
         id="tspan302-2"
         style="font-size:63.9999px;fill:#000000;stroke-width:0"
         x="453.04169"
         y="465.33795">P<tspan
   style="font-size:41.5999px;baseline-shift:sub;stroke-width:0"
   id="tspan1015-8">0</tspan></tspan></text>
    <text
       xml:space="preserve"
       style="font-style:normal;font-variant:normal;font-weight:bold;font-stretch:normal;font-size:63.9999px;font-family:sans-serif;-inkscape-font-specification:'sans-serif Bold';display:inline;fill:#000000;stroke:#000000;stroke-width:0;stroke-dasharray:none"
       x="850.36926"
       y="327.29272"
       id="text304-2-5"><tspan
         sodipodi:role="line"
         id="tspan302-9-6"
         style="font-size:63.9999px;fill:#000000;stroke-width:0"
         x="850.36926"
         y="327.29272">Q<tspan
   style="font-size:65%;baseline-shift:sub"
   id="tspan1741">2</tspan></tspan></text>
    <text
       xml:space="preserve"
       style="font-style:normal;font-variant:normal;font-weight:bold;font-stretch:normal;font-size:63.9999px;font-family:sans-serif;-inkscape-font-specification:'sans-serif Bold';display:inline;fill:#000000;stroke:#000000;stroke-width:0;stroke-dasharray:none"
       x="1301.5267"
       y="270.3602"
       id="text304-2-5-1"><tspan
         sodipodi:role="line"
         id="tspan302-9-6-7"
         style="font-size:63.9999px;fill:#000000;stroke-width:0"
         x="1301.5267"
         y="270.3602">Q<tspan
   style="font-size:65%;baseline-shift:sub"
   id="tspan10324">3</tspan></tspan></text>
    <text
       xml:space="preserve"
       style="font-style:normal;font-variant:normal;font-weight:bold;font-stretch:normal;font-size:63.9999px;font-family:sans-serif;-inkscape-font-specification:'sans-serif Bold';display:inline;fill:#000000;stroke:#000000;stroke-width:0;stroke-dasharray:none"
       x="421.31613"
       y="183.47258"
       id="text304-2-7"><tspan
         sodipodi:role="line"
         id="tspan302-9-5"
         style="font-size:63.9999px;fill:#000000;stroke-width:0"
         x="421.31613"
         y="183.47258">Q<tspan
   style="font-size:65%;baseline-shift:sub"
   id="tspan2257">0</tspan></tspan></text>
    <text
       xml:space="preserve"
       style="font-style:normal;font-variant:normal;font-weight:bold;font-stretch:normal;font-size:63.9999px;font-family:sans-serif;-inkscape-font-specification:'sans-serif Bold';display:inline;fill:#000000;stroke:#000000;stroke-width:0;stroke-dasharray:none"
       x="421.75589"
       y="358.26437"
       id="text304-2-7-9"><tspan
         sodipodi:role="line"
         id="tspan302-9-5-4"
         style="font-size:63.9999px;fill:#000000;stroke-width:0"
         x="421.75589"
         y="358.26437">Q<tspan
   style="font-size:65%;baseline-shift:sub"
   id="tspan2257-0">0</tspan></tspan></text>
    <text
       xml:space="preserve"
       style="font-style:normal;font-variant:normal;font-weight:bold;font-stretch:normal;font-size:63.9999px;font-family:sans-serif;-inkscape-font-specification:'sans-serif Bold';display:inline;fill:#000000;stroke:#000000;stroke-width:0;stroke-dasharray:none"
       x="-11.454423"
       y="274.50366"
       id="text304-0"><tspan
         sodipodi:role="line"
         id="tspan302-5"
         style="font-size:63.9999px;fill:#000000;stroke-width:0"
         x="-11.454423"
         y="274.50366">P<tspan
   style="font-size:41.5999px;baseline-shift:sub;stroke-width:0"
   id="tspan1103">1</tspan></tspan></text>
    <rect
       style="fill:#0000ff;fill-rule:evenodd"
       id="rect10025"
       width="1.0095803"
       height="4.038321"
       x="333.31699"
       y="335.61523" />
    <text
       xml:space="preserve"
       style="font-style:normal;font-variant:normal;font-weight:bold;font-stretch:normal;font-size:63.9999px;font-family:sans-serif;-inkscape-font-specification:'sans-serif Bold';display:inline;fill:#000000;stroke:#000000;stroke-width:0;stroke-dasharray:none"
       x="855.34589"
       y="238.66518"
       id="text304-2"><tspan
         sodipodi:role="line"
         id="tspan302-9"
         style="font-size:63.9999px;fill:#000000;stroke-width:0"
         x="855.34589"
         y="238.66518">Q<tspan
   style="font-size:41.5999px;baseline-shift:sub;stroke-width:0"
   id="tspan703">1</tspan></tspan></text>
  </g>
</svg>
