<?xml version="1.0" encoding="UTF-8" standalone="no"?>
<!-- Created with Inkscape (http://www.inkscape.org/) -->

<svg
   version="1.1"
   id="svg10377"
   width="1590.2961"
   height="536.12634"
   viewBox="0 0 1590.2961 536.12634"
   sodipodi:docname="NotXorOrNand_wPQ.svg"
   inkscape:version="1.2.2 (732a01da63, 2022-12-09)"
   xmlns:inkscape="http://www.inkscape.org/namespaces/inkscape"
   xmlns:sodipodi="http://sodipodi.sourceforge.net/DTD/sodipodi-0.dtd"
   xmlns="http://www.w3.org/2000/svg"
   xmlns:svg="http://www.w3.org/2000/svg">
  <defs
     id="defs10381">
    <clipPath
       clipPathUnits="userSpaceOnUse"
       id="clipPath10667">
      <path
         id="path10669"
         style="fill:#ff0000;fill-opacity:1;fill-rule:nonzero;stroke:none"
         d="M 1.0664062,-0.33789062 V 223.56836 c 2.8247432,-5.10998 6.8362949,-7.45855 10.5761718,-7.41406 4.568956,0.0543 8.712827,3.67675 9.785156,10.125 1.127402,-0.003 2.258274,0.0696 3.390625,0.24609 3.820973,0.67864 7.55765,1.74355 10.81836,3.93359 1.339272,0.94934 2.55522,1.72511 3.707031,2.93555 2.210425,2.32296 3.79211,4.95458 4.751953,8.00195 0.953792,2.85849 2.021727,5.70059 2.445313,8.70118 0.497253,2.74029 0.927683,5.49225 1.214843,8.26367 0.204379,1.89378 0.499724,3.77297 0.753907,5.66015 0.419808,2.62464 0.889024,5.2517 0.958984,7.91602 0.04628,2.21372 -0.0063,4.42697 -0.216797,6.63281 -0.240812,2.43643 -0.554273,4.87534 -1.226562,7.23633 -0.74255,2.72817 -1.611608,5.4241 -3.146485,7.82813 -1.410203,2.24703 -2.784692,4.47968 -4.878906,6.18164 -0.605844,0.4417 -1.167417,0.9489 -1.816406,1.32421 -2.652082,1.53423 -5.507366,2.26449 -8.539063,2.4336 -1.021528,0.0529 -2.040774,0.12756 -3.058593,0.22656 -1.18068,0.2345 -2.254589,0.80294 -3.357422,1.26758 -2.356848,0.95323 -4.766121,1.74934 -7.259766,2.26562 C 10.227825,308.59329 5.9097389,308.50361 1.0664062,305.25 V 535.78906 H 1532.8008 V 274.63867 c -0.8267,0.53239 -1.6714,1.03871 -2.5313,1.52149 -0.6032,0.35566 -1.2521,0.63426 -1.8203,1.04687 -4.231,3.07257 -8.185,4.34006 -11.5469,4.3457 0.039,2.00494 0.107,4.00976 0.1661,6.01368 0.1477,3.67356 0.3117,7.35021 0.6543,11.01171 v 0 c 2.1332,22.79971 -20.7463,25.34183 -22.9902,2.55274 -0.4135,-4.19954 -0.6047,-8.41576 -0.7754,-12.63086 -0.1374,-3.94199 -0.2503,-7.88571 -0.1973,-11.83008 0.087,-3.20499 0.2315,-6.40809 0.3125,-9.61328 0.067,-2.82121 0.09,-5.643 0.1074,-8.46484 0.012,-2.67281 0.022,-5.34671 0.022,-8.01953 0,-1.71439 -6e-4,-3.42818 0,-5.14258 -0.013,-1.68572 -0.01,-3.36737 0.08,-5.05078 0.503,-3.63692 1.809,-6.58724 4.5879,-9.13868 2.2516,-2.06723 4.8814,-2.81764 7.7246,-3.51367 2.8205,-0.48081 5.6747,-0.54541 8.5273,-0.51172 0.9509,0.0112 1.9024,0.0333 2.8516,0.0547 2.2742,0.0688 4.5493,0.0807 6.8203,0.2207 2.8134,0.12861 5.4741,0.92192 8.0098,2.08008 V -0.33789062 Z M 491.66992,24.044922 c 2.53665,-0.106492 5.26241,1.108449 9.33789,4.0625 2.56792,1.861264 2.79761,5.842691 3.27539,8.751953 0.40809,2.364551 1.12258,4.655183 1.77735,6.958984 0.98355,3.624276 2.13535,7.200869 3.18945,10.804688 0.77319,2.71455 1.66373,5.390962 2.56055,8.066406 0.87005,2.345336 1.50809,4.769108 2.34375,7.125 0.69513,2.067942 1.33852,4.151816 1.96875,6.240235 0.61079,1.982158 1.11269,3.989219 1.48633,6.029296 0.83721,4.80112 -0.25478,10.231933 -4.70704,13.19336 -1.0598,0.704924 -1.95178,1.193113 -2.76953,1.558594 -1.51587,2.683716 -4.12292,4.474162 -8.64062,6.005862 -4.032,1.367 -7.10574,-1.29735 -10.07422,-3.125003 -2.14462,-1.943831 -3.82162,-4.267584 -5.22656,-6.783203 -0.61064,-1.220066 -1.43798,-2.304947 -2.19922,-3.431641 -1.03563,-1.260157 -2.14212,-2.45833 -3.1875,-3.712891 -0.20187,-0.244721 -0.416,-0.478466 -0.62305,-0.71875 -0.873,1.747786 -1.75689,3.4885 -2.64844,5.226563 -1.42625,2.785029 -2.81087,5.592238 -4.21875,8.386719 -10.30289,20.450366 -30.96406,10.120836 -20.68945,-10.34375 1.43388,-2.855923 2.8573,-5.717544 4.30859,-8.564453 1.64562,-3.209929 3.26877,-6.43247 4.83594,-9.681641 1.51902,-3.032947 2.79952,-6.174126 4.31055,-9.210938 0.90885,-1.992123 2.06122,-3.858036 3.04492,-5.810546 1.17717,-2.386717 2.57603,-4.647087 3.91211,-6.945313 1.12638,-1.7646 2.05157,-3.651812 2.96094,-5.535156 0.79107,-1.827921 1.70458,-3.600156 2.53906,-5.408203 0.98074,-2.419412 1.98176,-4.815909 3.26758,-7.091797 0.55303,-0.727085 0.91049,-1.656812 1.6582,-2.181641 3.32112,-2.33112 5.67038,-3.758742 8.20703,-3.865234 z m 10.11133,17.65625 c -0.0386,0.05771 -0.0844,0.17715 -0.14258,0.294922 0.0272,-0.04239 0.0493,-0.0901 0.0781,-0.13086 0.0213,-0.05482 0.0971,-0.212972 0.0645,-0.164062 z m -6.95117,44.410156 c -0.002,0.02118 -0.002,0.04332 -0.004,0.06445 -0.0129,0.126106 0.0331,0.497295 0.0664,0.375 0.0361,-0.132379 -0.0378,-0.272291 -0.0566,-0.408203 -0.002,-0.0105 -0.004,-0.02075 -0.006,-0.03125 z m -5.89844,1.91211 c -0.0638,0.281806 -0.11321,0.570989 -0.14648,0.86914 -0.006,0.05273 0.0246,-0.10468 0.0371,-0.15625 0.0275,-0.24054 0.0775,-0.4738 0.10937,-0.71289 z m -39.97266,49.035152 c 3.7524,-0.0109 7.97916,0.25338 10.91797,1.65039 5.49803,2.61371 5.16279,3.58371 8.05078,8.41797 0.25325,1.17394 0.56005,2.33726 0.75977,3.52149 0.31786,1.88495 -0.007,3.85787 0.23633,5.75195 0.13908,2.92047 0.34065,5.83917 0.34765,8.76367 0.0188,2.75212 0.0429,5.50458 0.11719,8.25586 0.0773,2.61 0.14929,5.22466 0.41016,7.82422 0.24122,2.46606 0.46108,4.93766 0.45508,7.41797 -0.0821,2.33669 -0.19587,4.68518 -0.74219,6.96875 -0.68627,2.59254 -1.65043,5.09352 -3.13672,7.34375 -0.38476,0.55694 -0.73598,1.13968 -1.1543,1.67187 -1.82176,2.31767 -4.12858,4.18983 -6.73242,5.5625 -2.08901,1.11855 -4.24721,2.06749 -6.48242,2.85743 -3.71546,1.31275 -7.54419,2.25537 -11.40625,3.03125 -5.82233,1.17641 -11.70355,2.17335 -17.64258,2.49609 -20.6686,1.12317 -23.4273,-17.47567 -6.88867,-22.13672 -1.01389,-1.35501 -1.87007,-2.82814 -2.63867,-4.33594 -1.07697,-2.35191 -2.03228,-4.77508 -2.53711,-7.32226 -0.43894,-2.32125 -0.66747,-4.66622 -0.60547,-7.03125 -0.0186,-1.87323 -0.0432,-3.74713 -0.11719,-5.61914 -0.0663,-1.33595 -0.13509,-2.67421 -0.33594,-3.99805 -0.45287,-2.22279 -1.01943,-4.44172 -0.94336,-6.73242 0.12863,-2.67556 0.4681,-5.33353 1.42383,-7.85742 1.3128,-3.30847 3.07734,-6.42555 5.93946,-8.65821 2.78637,-2.13941 5.7478,-4.06166 9.1875,-4.97265 2.52076,-0.5881 5.06705,-0.95653 7.63476,-1.26563 4.10019,-0.64738 8.20065,-1.32661 12.35352,-1.53515 1.07968,-0.0334 2.27862,-0.0667 3.52929,-0.0703 z m -2.99609,23.21485 c -3.11683,0.22488 -6.19591,0.75136 -9.2793,1.23828 -1.47062,0.30967 -2.99548,0.33897 -4.47461,0.59766 0.13209,0.60525 0.27888,1.37229 0.28125,1.38281 0.47978,2.4661 0.65109,4.97425 0.78125,7.47851 0.0938,2.18711 0.12449,4.37762 0.14649,6.56641 -0.0687,0.98482 0.0398,2.18238 0.17969,2.83398 0.19184,0.60183 0.37443,1.13758 0.70312,1.77344 0.43054,0.33357 0.83831,0.70144 1.2793,1.01953 3.7848,2.73007 6.15922,5.69337 7.41992,8.56446 0.36622,-0.12217 0.72973,-0.25137 1.08789,-0.39649 1.0061,-0.48608 2.14905,-0.68791 3.07031,-1.28906 0.0243,-0.0456 0.0324,-0.08 -0.002,-0.0859 -0.0138,-0.002 -0.0743,0.0574 -0.0859,0.0664 -0.0119,0.0224 -0.0292,0.093 -0.0351,0.0684 -0.0875,-0.35544 0.0862,-1.81516 0.0996,-2.22071 -0.0941,-1.45994 -0.21489,-2.91814 -0.35743,-4.375 -0.31574,-3.11907 -0.41792,-6.25479 -0.51172,-9.38671 -0.0803,-2.92815 -0.1049,-5.85818 -0.125,-8.78711 -0.008,-1.68423 -0.0883,-3.36659 -0.17773,-5.04883 z m -14.55078,2.01758 c -0.15241,0.0379 -0.30811,0.0578 -0.45899,0.10351 0.25676,-0.0642 0.34745,-0.066 0.42969,-0.0644 0.01,-0.0129 0.0196,-0.0261 0.0293,-0.0391 z m 509.72266,11.61523 c 0.95572,0.0295 1.94701,0.17214 2.85546,0.27344 2.08037,0.33657 4.17034,0.59293 6.24805,0.94531 1.26627,0.28295 2.57798,0.26484 3.84961,0.50781 0.72098,0.13776 1.43047,0.3228 2.14649,0.48438 2.87856,0.87937 5.55556,2.24522 8.02539,3.94922 0.35701,0.28291 0.71305,0.56507 1.07031,0.84765 0.64805,0.51258 1.29663,1.02367 1.95898,1.51758 2.73718,1.95307 4.88346,4.53843 6.81446,7.25977 0.91504,1.44185 1.82593,2.86553 2.83203,4.24218 1.48692,2.03012 2.55066,4.32527 3.45312,6.66211 0.81658,2.0607 1.30705,4.21865 1.66016,6.40039 0.27674,1.82503 0.36809,3.66914 0.42969,5.51172 0.003,3.15382 -0.50965,6.34371 -1.85157,9.22266 -0.35473,0.76104 -0.80895,1.47094 -1.21289,2.20703 -1.94919,3.02126 -4.73824,5.28353 -7.53515,7.47266 -2.44275,1.97747 -5.14574,3.56683 -7.97657,4.91211 -1.62595,0.84776 -3.37495,1.39813 -5.06836,2.08398 -1.37483,0.65022 -2.79212,1.21438 -4.20507,1.77734 -1.43094,0.56277 -2.9085,0.95381 -4.40625,1.25391 11.59695,17.79458 -5.56851,30.5856 -19.14844,12.88086 -3.52281,-4.59284 -5.91297,-9.85643 -8.01953,-15.20898 -1.59674,-3.91792 -2.89122,-7.93577 -3.78125,-12.07032 -0.66134,-3.67195 -0.84975,-7.40537 -0.99219,-11.12695 -0.13858,-3.15496 0.0317,-6.31198 0.3418,-9.45117 0.34003,-2.80647 0.88661,-5.58507 1.52343,-8.33789 0.45638,-1.90383 0.87355,-3.81955 1.37305,-5.71289 0.77148,-2.5606 1.74539,-5.04535 2.92969,-7.44141 1.44313,-2.92116 3.66673,-5.26848 6.10351,-7.37695 2.98189,-2.44369 5.77106,-3.4114 9.64258,-3.67188 0.30652,-0.0206 0.62087,-0.0235 0.93946,-0.0137 z m -506.55079,8.72461 c 0.13677,0.22166 0.27305,0.44337 0.41602,0.66211 0.0964,0.14754 -0.16392,-0.31232 -0.26172,-0.45899 -0.0639,-0.0959 -0.10269,-0.1327 -0.1543,-0.20312 z m 13.53711,6.89648 c -0.0305,-0.0352 -0.27023,0.0286 -0.43164,0.16211 -0.10422,0.0862 -0.14905,0.13396 -0.21679,0.19532 0.48001,-0.2021 0.67505,-0.32673 0.64843,-0.35743 z m 501.83203,8.88282 c 1.42058,2.72544 2.30665,6.31982 2.30665,10.79296 v 0.80469 6.10157 c 0.67598,-0.25893 1.3665,-0.4831 2.01171,-0.81836 1.26172,-0.44324 2.32652,-1.36041 3.39454,-2.13086 0.55201,-0.42645 1.09706,-0.86233 1.63671,-1.30469 -0.0243,-0.43499 -0.0575,-0.86829 -0.11132,-1.30078 -0.0886,-0.65815 -0.20647,-1.29378 -0.48829,-1.90625 -0.11686,-0.61913 -0.2999,-0.78721 -0.46679,-1.09766 -1.05647,-1.45461 -2.08713,-2.92871 -3,-4.47851 l -0.53125,-0.7461 c -0.0103,-0.0372 -0.007,-0.0796 -0.0293,-0.11133 -0.22281,-0.31969 -0.57461,-0.54511 -0.76562,-0.88476 -0.0459,-0.0817 0.22266,0.23842 0.25586,0.11328 -1.15161,-0.81431 -2.32245,-1.63922 -3.38282,-2.56836 -0.39968,-0.19977 -0.83055,-0.4307 -0.75976,-0.45703 -0.0234,-0.003 -0.0469,-0.005 -0.0703,-0.008 z m 0.10547,0.0117 c 0.0413,0 0.10959,0.0115 0.26758,0.0605 0.17337,0.0182 0.3452,0.0556 0.51953,0.0547 0.10818,-6e-4 -0.21286,-0.0439 -0.32031,-0.0566 -0.15601,-0.0184 -0.3109,-0.0409 -0.4668,-0.0586 z m 9.27539,14.17578 c -0.11347,0.29761 -0.16998,0.59199 0.0254,0.6582 -0.007,-0.21927 -0.0174,-0.43883 -0.0254,-0.6582 z M 1517.3262,241.875 c 4e-4,0.0405 5e-4,0.2227 0,0.32227 0,-0.049 0.018,-0.0954 0.022,-0.14454 -0.021,-0.20989 -0.024,-0.26919 -0.023,-0.17773 z m 0.01,8.51758 v 0.21289 c 0,2.09996 -0.01,4.19887 -0.018,6.29883 0.415,-0.24886 0.8388,-0.48199 1.2656,-0.71094 0.1323,-1.04753 0.2691,-2.09536 0.373,-3.14648 0.1099,-0.86286 0.2412,-1.72211 0.3321,-2.58594 -0.6163,0.002 -1.231,-0.008 -1.8399,-0.0664 -0.038,-8.6e-4 -0.076,-0.001 -0.1133,-0.002 z m 6.1778,0.16211 c -0.077,-0.011 -0.1643,7.1e-4 -0.25,0.006 0.088,0.0299 0.1372,0.0501 0.2695,0.084 0.5432,0.13914 0.339,-0.0386 -0.019,-0.0898 z m -0.3516,0.008 c 0.036,0.0178 0.069,0.0394 0.1055,0.0566 -0.1057,-0.0565 -0.062,-0.0354 -0.1016,-0.0566 0,2.2e-4 0,-2.2e-4 0,0 z m -566.64258,32.58594 c 4.80454,-0.0954 9.2097,2.25242 11.84376,6.27539 1.11302,1.7 1.39497,2.75699 2.01562,4.52539 0.64406,2.21336 1.08795,4.47793 1.58008,6.72851 0.38021,1.97941 0.80718,3.94974 1.13086,5.93946 0.11251,1.66816 0.56664,3.36747 0.49414,5.04883 -0.0463,1.07367 -0.15532,2.14484 -0.23242,3.21679 -0.26409,0.92815 -0.3896,1.90763 -0.79102,2.78516 -2.32197,5.07595 -5.39313,7.17611 -10.44336,8.86523 -2.60844,0.80484 -5.32125,0.87561 -8.02344,0.78711 -0.96736,-0.0478 -1.92801,-0.15655 -2.88476,-0.29297 -0.12401,0.64495 -0.24327,1.29101 -0.37891,1.9336 0.1841,0.0348 0.36925,0.0626 0.55274,0.10156 2.34466,0.52337 4.65876,1.20366 6.79297,2.33203 1.6912,0.95199 3.32499,2.01605 4.70312,3.38867 0.0455,0.0123 0.002,-0.009 0.30859,0.14649 1.94863,0.67874 3.92837,1.24511 5.9043,1.83789 21.93345,6.58005 15.61,28.71912 -6.35351,22.24023 -2.38092,-0.70233 -4.75762,-1.40766 -7.10547,-2.21484 -2.37369,-0.90764 -4.74743,-1.88485 -6.76172,-3.47461 -0.57006,-0.44991 -1.08166,-0.96714 -1.62305,-1.45117 l -0.002,-0.002 c -0.25789,-0.0626 -0.63646,-0.17274 -0.73828,-0.1914 -0.70007,-0.12382 -1.41046,-0.16332 -2.11914,-0.19922 -0.17163,3e-4 -0.33751,-0.0209 -0.50782,-0.0254 -0.43406,0.67931 -0.81304,0.9318 -1.21289,1.33984 -2.33541,17.29387 -21.84037,16.80527 -22.91797,-4.0039 -0.15174,-2.93011 -0.32595,-6.31162 0.87305,-9.06641 0.56025,-1.28721 1.36478,-2.4527 2.04688,-3.67969 1.20756,-2.17228 2.24985,-3.46583 3.1621,-4.07422 -0.37193,-0.91385 -0.75981,-1.82032 -1.13671,-2.73437 -0.72143,-1.81676 -1.33797,-3.65738 -1.82032,-5.55469 -0.66984,-2.64335 -0.94046,-5.35919 -1.15429,-8.07031 -0.072,-1.74604 -0.22018,-3.48035 -0.38672,-5.21875 -0.18775,-1.93069 -0.29358,-3.86661 -0.36328,-5.80469 -0.0635,-2.11401 -0.10205,-4.22842 -0.0195,-6.3418 1.21167,-5.00563 0.66846,-5.29718 5.22656,-9.58007 2.52134,-2.36914 7.38531,-3.19273 10.74414,-3.70118 2.95374,-0.33784 5.92153,-0.50755 8.88086,-0.79101 1.81749,-0.27717 3.6361,-0.5378 5.46484,-0.72852 1.74565,-0.17619 3.49899,-0.24311 5.25195,-0.29101 z M 16.541309,288.6291 c 0.02277,0.11303 0.03458,0.22728 0.06055,0.33984 0.0037,-0.1326 0.02175,-0.16125 0.04297,-0.16602 -0.03199,-0.0586 -0.06708,-0.11583 -0.103516,-0.17382 z m 463.378911,25.45898 c 4.36735,-0.12739 9.0436,2.97584 11.5996,9.67969 1.61292,-0.64946 3.1629,-1.55861 4.88086,-1.7793 5.6827,-0.72993 9.68216,2.24027 12.7461,6.4668 1.62753,2.25942 2.86554,4.73303 3.85351,7.32812 0.8488,2.55616 1.46729,5.18536 2.07813,7.80664 0.59697,3.00028 0.97185,6.0411 1.33594,9.07813 3.52533,2.49468 6.21236,7.62623 6.25976,15.40234 0.0174,2.84734 -0.0436,5.69665 0.043,8.54297 l 0.0644,1.81055 c 0.60583,16.99536 -11.99259,21.8166 -18.84765,13.80078 -1.68172,1.06243 -3.56757,0.23283 -5.79883,-4.35156 -0.80936,-1.66294 -0.47823,-0.91367 -1.03125,-2.23438 -0.43099,-1.14887 -0.79327,-2.31331 -1.0957,-3.49219 -0.19389,3.28131 -0.55682,6.54721 -1.11914,9.78907 -0.74848,3.4414 -1.96144,6.82625 -3.96094,9.75195 -0.43142,0.63126 -0.93733,1.20662 -1.40625,1.81055 -3.44175,3.7988 -7.61733,5.84008 -12.93555,5.07812 -3.5011,-0.50161 -4.60399,-1.80112 -7.19726,-3.76172 -0.73137,-0.92762 -1.56292,-1.78423 -2.19336,-2.7832 -2.06015,-3.26445 -2.56999,-7.20201 -2.96485,-10.95117 -0.34916,-3.61501 -0.30087,-7.25046 -0.0898,-10.8711 0.0719,-4.60403 1.78286,-8.81302 3.69726,-12.91796 1.52148,-3.33881 3.37273,-6.50469 5.1875,-9.6875 -0.0325,-0.55258 -0.0608,-1.10592 -0.10156,-1.65821 -0.72087,-7.70385 -1.5734,-15.39929 -2.79883,-23.04101 -1.92607,-12.0117 3.62495,-18.63644 9.79493,-18.81641 z m 481.9121,20.24023 c -0.0814,0.01 0.1414,0.0848 0.2168,0.11719 0.41405,0.17815 0.41832,0.17241 0.52539,0.21289 -0.27474,-0.19379 -0.55028,-0.35365 -0.74219,-0.33008 z m -453.9121,3.5254 c 0.002,-0.0778 -0.0563,0.1449 -0.0742,0.2207 -0.0676,0.28722 -0.12988,0.57619 -0.18946,0.86523 0.15524,-0.34764 0.25595,-0.71493 0.26368,-1.08593 z m 425.09375,8.625 c 1.44223,5.9999 3.05495,10.68 6.15039,6.76562 -0.81478,-0.74621 -1.57967,-1.86795 -2.27735,-3.47266 -0.70154,-0.34092 -1.3218,-0.83097 -1.98242,-1.24609 -0.79455,-0.5886 -1.26425,-1.3644 -1.89062,-2.04687 z m -461.1543,42.09375 c -0.038,0.0476 -0.0843,0.0859 -0.12109,0.13476 -0.62652,1.17409 -0.19361,0.50737 0.12109,-0.13476 z m 1.1543,25.91796 c 5.01137,0.26989 10.11293,4.98477 11.62304,14.88868 0.35935,2.35668 0.64904,4.72232 0.91407,7.09179 1.59519,-1.67421 3.43616,-3.06236 5.66796,-3.93359 0.62902,-0.20517 1.25235,-0.43408 1.88868,-0.61523 2.24525,-0.63952 4.615,-0.62265 6.91015,-0.32422 2.29528,0.31916 4.56994,0.80003 6.7168,1.69922 0.46576,0.19693 0.9342,0.38836 1.40625,0.56835 2.33153,-1.86867 4.86794,-2.7141 7.24805,-2.61718 6.62236,0.26965 12.00893,7.72747 8.22851,20.04101 -0.54348,1.77023 -0.92389,3.57977 -1.23437,5.40235 1.18476,1.19558 1.31796,3.02131 1.01367,6.75195 -0.23426,2.33718 -0.56965,4.66158 -1.11328,6.94922 -0.0847,0.40737 -0.19291,0.80856 -0.28907,1.21289 0.0409,0.25993 0.0838,0.51939 0.125,0.7793 0.92411,-0.22522 1.82441,-0.3493 2.68946,-0.36524 9.02917,-0.16641 14.28851,10.60904 4.21679,22.70899 -1.2104,1.45416 -0.53593,0.64381 -2.02734,2.43164 -1.83498,2.01408 -3.81562,3.86575 -5.75391,5.77734 -11.0514,10.89923 -22.00211,7.69311 -23.15429,-0.80469 -0.45589,0.13297 -0.8395,0.41286 -1.31055,0.51367 -1.21255,0.10553 -2.42026,0.27601 -3.63672,0.31641 -2.37976,0.079 -4.87055,-0.68674 -7.18164,-1.14844 -0.52439,-0.15177 -0.61008,-0.17387 -0.80078,-0.22656 -0.015,0.002 -0.0299,0.004 -0.0449,0.006 -1.90451,0.22278 -3.78309,0.27502 -5.68164,-0.125 -2.58144,-0.77554 -3.65106,-0.88289 -5.99414,-2.69531 -2.93104,-2.26712 -4.70044,-5.44493 -5.69532,-8.9375 -0.74537,-2.66773 -1.56829,-5.32148 -2.01757,-8.06055 -0.36559,-2.53284 -0.71514,-5.07477 -0.86133,-7.63086 -0.13535,-2.8234 -0.12956,-5.65247 -0.25781,-8.47656 -0.20155,-4.88071 -0.50894,-9.75636 -0.90625,-14.625 -0.4907,-5.71721 -0.99837,-11.437 -1.7461,-17.12695 -1.67825,-12.77098 4.6153,-19.77278 11.0586,-19.42579 z m 25.11328,38.37305 c 0.04,0.2125 0.16335,0.45773 0.32812,0.71484 -0.10337,-0.24048 -0.22357,-0.47465 -0.32812,-0.71484 z m -8.16797,30.52344 c 0.0206,0.073 0.0421,0.14575 0.0625,0.21875 0.0632,0.18525 0.0771,0.39634 0.18945,0.55664 0.0886,0.12641 -0.0536,-0.30688 -0.11328,-0.44922 -0.0455,-0.1084 -0.093,-0.217 -0.13867,-0.32617 z" />
    </clipPath>
  </defs>
  <sodipodi:namedview
     id="namedview10379"
     pagecolor="#ffffff"
     bordercolor="#000000"
     borderopacity="0.25"
     inkscape:showpageshadow="2"
     inkscape:pageopacity="0.0"
     inkscape:pagecheckerboard="0"
     inkscape:deskcolor="#d1d1d1"
     showgrid="false"
     showguides="true"
     inkscape:zoom="1.4142136"
     inkscape:cx="732.91618"
     inkscape:cy="388.90873"
     inkscape:window-width="3840"
     inkscape:window-height="2054"
     inkscape:window-x="1909"
     inkscape:window-y="-11"
     inkscape:window-maximized="1"
     inkscape:current-layer="g10383">
    <sodipodi:guide
       position="1065.7189,338.32888"
       orientation="0,-1"
       id="guide10671"
       inkscape:locked="false" />
    <sodipodi:guide
       position="571.09768,480.8109"
       orientation="0,-1"
       id="guide10677"
       inkscape:locked="false" />
    <sodipodi:guide
       position="54.025865,276.63381"
       orientation="0,-1"
       id="guide10681"
       inkscape:locked="false" />
    <sodipodi:guide
       position="48.899341,258.60259"
       orientation="0,-1"
       id="guide10683"
       inkscape:locked="false" />
    <sodipodi:guide
       position="577.28487,185.06349"
       orientation="0,-1"
       id="guide10689"
       inkscape:locked="false" />
    <sodipodi:guide
       position="590.36634,167.91615"
       orientation="0,-1"
       id="guide10691"
       inkscape:locked="false" />
    <sodipodi:guide
       position="164.15775,237.91972"
       orientation="1,0"
       id="guide10699"
       inkscape:locked="false" />
    <sodipodi:guide
       position="486.7752,314.11048"
       orientation="1,0"
       id="guide10712"
       inkscape:locked="false" />
    <sodipodi:guide
       position="505.51353,308.10007"
       orientation="1,0"
       id="guide10714"
       inkscape:locked="false" />
    <sodipodi:guide
       position="929.07048,245.16757"
       orientation="1,0"
       id="guide10918"
       inkscape:locked="false" />
  </sodipodi:namedview>
  <g
     inkscape:groupmode="layer"
     inkscape:label="Image"
     id="g10383"
     transform="translate(11.245906,0.33789062)">
    <path
       style="fill:#000000;stroke-width:1.06667"
       d="m 614.68195,527.6671 0.61421,-8.12135 7.89114,-9.13618 c 7.01711,-8.12424 16.57938,-22.3395 18.48263,-27.47623 0.65261,-1.76133 -2.17414,-1.86667 -50.08915,-1.86667 H 540.79999 V 472.53334 464 h 54.35889 54.35888 l 1.03598,-4 c 0.56978,-2.2 1.52702,-5.92 2.1272,-8.26666 5.38797,-21.0668 4.48521,-54.59623 -2.06061,-76.53334 l -2.14842,-7.2 h -53.83595 -53.83597 v -7.82963 -7.82964 l 24.8,-0.70124 c 13.64,-0.38569 36.2,-0.70235 50.13333,-0.7037 13.93333,-10e-4 25.33333,-0.37408 25.33333,-0.82828 0,-0.45421 -2.0601,-4.44085 -4.57801,-8.8592 -4.96563,-8.71356 -12.51004,-18.93836 -19.03403,-25.79651 -4.03207,-4.23858 -4.12129,-4.50545 -4.12129,-12.32774 v -7.99538 l 24.26667,0.72598 c 26.89183,0.80451 44.22365,2.0859 61.06666,4.51484 76.17668,10.98545 130.60029,42.63473 166.54272,96.85055 l 6.79061,10.24301 62.13333,0.002 62.13334,0.002 v -48.70299 -48.70298 l 35.73335,0.73852 35.7333,0.73852 v -18.96887 c 0,-10.43288 -0.3201,-32.36166 -0.7087,-48.73062 l -0.7066,-29.76174 -35.0247,0.60454 -35.02665,0.60388 V 163.6428 112 h 9.06665 9.0667 v 43.34498 43.34499 l 4.9489,-0.67832 c 2.7218,-0.37307 14.5565,-0.67832 26.2993,-0.67832 h 21.3505 l -0.623,-27.73333 -0.623,-27.73333 h 105.4539 c 112.8507,0 110.565,-0.0963 127.167,5.35877 10.8232,3.55628 27.4841,12.367 37.2605,19.70437 20.2139,15.17075 38.6002,39.34747 46.0491,60.55117 0.5805,1.65217 1.2805,1.40539 5.7555,-2.02879 9.2772,-7.11959 13.2669,-8.38552 26.4279,-8.38552 10.952,0 12.195,0.222 18.6667,3.33412 3.8133,1.83376 9.0509,5.17754 11.6389,7.43061 5.7945,5.04427 12.112,14.63102 13.9369,21.14863 l 1.3681,4.88664 h 17.4614 17.4614 v 8.53333 8.53334 h -17.4637 -17.4637 l -0.6481,4.05321 c -1.8462,11.54524 -13.1085,26.07271 -24.5433,31.65899 -14.4675,7.06784 -36.6725,3.95679 -48.9977,-6.86488 l -3.5952,-3.15665 -2.4501,6.088 c -15.1396,37.61793 -48.6965,67.08022 -87.6112,76.92095 -8.6742,2.19351 -10.7561,2.23371 -115.6692,2.23371 h -106.8359 l -0.7657,-26.38245 c -0.4211,-14.51035 -0.9927,-26.60963 -1.2704,-26.88728 -0.2776,-0.27765 -12.2455,-0.70454 -26.5953,-0.94864 L 1014.4,327.20449 v 48.66443 48.66442 h -71.22015 -71.22014 l -6.8608,9.72059 c -12.41722,17.59313 -32.6154,37.17793 -51.76559,50.19359 -46.2308,31.42132 -106.65992,48.79046 -176.4328,50.71209 l -22.83279,0.62883 z m 59.9847,-12.04444 c 38.05576,-4.82036 70.64334,-14.13214 100.26667,-28.6508 26.24031,-12.8606 48.15402,-29.02972 64.21478,-47.38111 9.01523,-10.30101 17.38521,-21.6201 17.38521,-23.51078 0,-1.86203 -6.82509,-12.22925 -14.79933,-22.47997 -16.4111,-21.09612 -37.375,-38.37402 -61.8234,-50.95322 -36.4683,-18.76368 -67.85607,-25.88683 -130.58036,-29.63396 l -11.46979,-0.6852 6.79548,10.16389 c 12.18983,18.23214 20.4498,38.00588 25.47085,60.97516 2.00395,9.16727 2.33171,13.96532 2.33171,34.13333 0,20.27321 -0.32243,24.94559 -2.36939,34.33431 -4.61902,21.18603 -13.81852,42.4599 -25.23184,58.34867 l -6.04565,8.41631 11.52753,-0.72765 c 6.34014,-0.40021 17.28753,-1.45725 24.32753,-2.34898 z M 1282.6666,364.35825 c 33.2347,-6.67875 61.9444,-29.26132 77.4127,-60.89158 7.4689,-15.27277 9.5207,-24.29866 9.5207,-41.88333 0,-17.56436 -1.3626,-23.47005 -9.0408,-39.18334 -14.3848,-29.43894 -42.5656,-52.59639 -74.6926,-61.37839 -8.3435,-2.28072 -10.6892,-2.35481 -105.4569,-3.33125 -53.3081,-0.54926 -97.026,-0.85428 -97.1513,-0.67784 -0.2565,0.36158 2.1671,209.14332 2.4357,209.82588 0.095,0.24113 42.7725,0.11934 94.8392,-0.27063 74.8574,-0.56067 96.2291,-1.02302 102.1333,-2.20952 z m 145.2112,-73.47582 c 4.877,-2.54347 11.7074,-10.78725 13.6421,-16.46495 6.3171,-18.53969 -5.4335,-38.40031 -24.4981,-41.40609 -9.3331,-1.47148 -20.7746,4.49538 -26.0722,13.597 -3.2123,5.51896 -3.2859,5.94936 -2.9882,17.4807 0.2849,11.03436 0.5204,12.17011 3.5334,17.03846 4.1629,6.72616 10.8461,10.89779 19.2051,11.9876 7.2545,0.94582 12.354,0.28301 17.1779,-2.23272 z M 476.79999,467.07896 v -28.92105 l 14.66667,0.44433 c 16.29452,0.49366 22.11512,2.33107 24.5898,7.76239 2.97149,6.52172 0.64997,15.05389 -4.76763,17.52232 l -3.00448,1.36892 3.32096,1.39637 c 5.0177,2.10978 6.79468,5.41649 6.79468,12.64392 0,5.85078 -0.27991,6.56806 -4.02405,10.31221 -5.22089,5.22089 -9.7604,6.37843 -25.04262,6.38568 L 476.79999,496 Z m 26.54528,17.45438 c 1.23656,-1.02667 2.54338,-3.39485 2.90403,-5.26263 0.52894,-2.73926 0.12639,-3.92531 -2.08163,-6.13333 -2.335,-2.33499 -3.68528,-2.73738 -9.18587,-2.73738 h -6.44848 v 8 8 h 6.28184 c 4.41509,0 6.94994,-0.55471 8.53011,-1.86666 z m -1.18262,-25.39382 c 1.51878,-1.06379 2.37067,-2.76693 2.37067,-4.73952 0,-4.28505 -3.42709,-6.4 -10.37067,-6.4 h -5.62933 v 6.4 6.4 h 5.62933 c 3.36861,0 6.58138,-0.66683 8,-1.66048 z M 134.4,333.86667 v -56.53333 h -24.36375 c -13.400048,0 -31.640048,-0.31495 -40.533325,-0.69988 L 53.333332,275.93359 V 267.5668 259.2 h 40.707052 40.707046 l -0.72421,-55.9973 -0.72423,-55.99729 7.19811,2.70935 c 3.95896,1.49016 8.64668,3.45111 10.41717,4.35769 1.77048,0.90658 19.05906,9.23569 38.41906,18.50914 19.36,9.27344 45.28,21.75349 57.6,27.73343 12.32,5.97995 25.04,12.00014 28.26666,13.37822 3.22667,1.37807 13.30667,6.18348 22.4,10.67868 9.09334,4.4952 21.57334,10.48194 27.73334,13.30388 6.16,2.82193 21.22467,9.9743 33.47704,15.89415 12.25237,5.91986 22.45237,10.76338 22.66667,10.76338 0.21429,0 0.38962,-1.12332 0.38962,-2.49629 0,-4.37724 6.30717,-15.37402 11.37752,-19.83712 7.27402,-6.40285 14.88929,-8.99527 26.48914,-9.01754 8.1411,-0.0156 10.52727,0.40879 15.7017,2.79277 7.63984,3.51985 15.17735,11.15073 17.51469,17.73164 l 1.77838,5.00715 6.36289,0.31534 c 3.49959,0.17344 8.22577,6.1e-4 10.50261,-0.38406 l 4.13973,-0.69941 v -45.38178 -45.38178 l 64.99115,0.79071 64.99113,0.79072 1.59889,-5.38404 c 3.88335,-13.07665 5.23153,-26.39322 4.64251,-45.85607 -0.54803,-18.108697 -1.63939,-25.805274 -5.5824,-39.368762 l -1.63421,-5.621474 H 572.7702 540.79999 v -7.834078 -7.834078 l 15.2,-0.695354 c 8.36,-0.382444 21.08,-0.697109 28.26666,-0.699255 7.18667,-0.0021 13.06667,-0.259859 13.06667,-0.572696 0,-0.312836 -1.2568,-3.072836 -2.79287,-6.133333 -4.49237,-8.950586 -12.04693,-19.786504 -18.90872,-27.121773 l -6.38134,-6.821683 5.73835,-5.810542 C 578.14485,5.8147439 581.08932,3.2 581.53202,3.2 c 0.4427,0 3.98519,3.72 7.8722,8.266667 18.68409,21.854953 30.89828,47.449672 37.00297,77.539336 2.04224,10.066083 2.38594,15.075777 2.34596,34.193997 -0.0401,19.15304 -0.39722,24.02349 -2.46399,33.6 -6.3159,29.26516 -18.71828,54.17433 -36.20118,72.70713 l -7.11177,7.53884 -5.644,-6.06362 -5.64401,-6.06362 6.00528,-6.5927 c 6.84048,-7.5096 14.81364,-18.90836 18.974,-27.12603 l 2.83511,-5.6 h -17.44384 c -9.59411,0 -33.3622,-0.31763 -52.81797,-0.70585 l -35.37412,-0.70585 v 47.22991 47.22991 l -10.93334,-0.74524 c -6.01333,-0.40989 -14.70512,-0.82572 -19.31508,-0.92406 L 455.2365,276.8 l -2.07997,5.56561 c -5.48422,14.67472 -21.87657,22.96776 -40.35654,20.41671 -14.00238,-1.93294 -25.77891,-11.06133 -29.50019,-22.86661 -1.00251,-3.18031 -2.17454,-5.78237 -2.60452,-5.78237 -0.42998,0 -29.26232,13.61134 -64.07186,30.24744 -34.80956,16.6361 -89.55156,42.7961 -121.64892,58.13333 C 162.87715,377.85135 136.11715,390.4 135.50784,390.4 134.75576,390.4 134.4,372.24515 134.4,333.86667 Z m 117.59999,-18.6828 c 52.65334,-25.13078 95.71377,-45.96792 95.68987,-46.30476 -0.0239,-0.33685 -16.7039,-8.48275 -37.06667,-18.10201 -20.36276,-9.61926 -43.7432,-20.75755 -51.95653,-24.75172 C 225.55141,209.92128 154.15071,176 153.36854,176 c -0.45936,0 -0.83521,42.01689 -0.83521,93.37086 0,88.56886 0.096,93.32289 1.86667,92.43811 1.02666,-0.51302 44.94666,-21.49431 97.59999,-46.6251 z m 178.69252,-32.71382 c 4.63993,-2.8466 6.94557,-7.61098 6.94557,-14.35229 0,-7.26984 -2.75984,-11.97844 -8.82184,-15.05109 -18.73147,-9.49441 -38.78094,11.2913 -25.19309,26.11821 6.06257,6.61541 19.06836,8.19381 27.06936,3.28517 z m 40.38085,84.78014 c 3.86022,-11.02761 8.32994,-23.89019 9.9327,-28.58352 l 2.91411,-8.53333 7.54241,-0.31143 7.54242,-0.31143 1.18381,3.58699 c 0.6511,1.97286 5.19085,14.953 10.08832,28.84477 l 8.9045,25.25776 h -6.53748 -6.53747 l -1.98562,-6.93333 -1.98561,-6.93333 H 491.63921 481.14298 L 479.1838,380 l -1.95918,6.66667 -6.58493,0.31685 -6.58492,0.31686 z m 27.74485,-5.10656 c -0.33552,-0.87434 -1.8778,-5.79434 -3.42731,-10.93333 -1.54949,-5.139 -3.1554,-9.70869 -3.56867,-10.15487 -0.41327,-0.44619 -2.10404,3.87381 -3.75729,9.6 -1.65324,5.72618 -3.23553,11.01124 -3.5162,11.74457 -0.37915,0.99062 1.46759,1.33334 7.18458,1.33334 6.37954,0 7.59064,-0.27175 7.08489,-1.58971 z M 930.13331,316.8 V 288 h 16.53334 16.53333 v 4.8 4.8 h -10.66667 -10.66666 v 6.4 6.4 h 9.6 9.6 v 4.8 4.8 h -9.6 -9.6 v 8 8 h 10.66666 10.66667 v 4.8 4.8 H 946.66665 930.13331 Z M 1.0666666,267.61229 v -28.92105 l 14.6666664,0.44433 c 16.294532,0.49366 22.115124,2.33108 24.589801,7.76239 2.971489,6.52172 0.649979,15.05389 -4.767628,17.52232 l -3.004483,1.36893 3.320966,1.39636 c 5.0177,2.10978 6.794677,5.41649 6.794677,12.64393 0,5.85077 -0.279901,6.56805 -4.024049,10.3122 -5.220893,5.22089 -9.760402,6.37843 -25.042617,6.38568 l -12.5333334,0.006 z M 27.61195,285.06667 c 1.23656,-1.02667 2.543373,-3.39485 2.904028,-5.26263 0.528933,-2.73926 0.126391,-3.92531 -2.081635,-6.13333 -2.334989,-2.33499 -3.685279,-2.73737 -9.185858,-2.73737 H 12.8 v 8 8 h 6.28183 c 4.415093,0 6.949942,-0.55471 8.53012,-1.86667 z m -1.182624,-25.39382 c 3.177154,-2.22536 3.177154,-7.25367 0,-9.47904 -1.418621,-0.99364 -4.631384,-1.66048 -7.999999,-1.66048 H 12.8 v 6.4 6.4 h 5.629327 c 3.368615,0 6.581378,-0.66683 7.999999,-1.66048 z M 1500.8,265.6 v -28.8 h 16 16 v 4.8 4.8 h -10.1334 -10.1333 v 8 8 h 9.6 9.6 v 4.8 4.8 h -9.6 -9.6 v 11.2 11.2 h -5.8667 -5.8666 z m -885.11712,-33.34076 0.51697,-8.0556 7.17138,-8.36848 c 16.58964,-19.35895 26.00464,-38.98623 31.19717,-65.03623 2.60391,-13.06326 2.61215,-42.01042 0.0158,-55.332263 C 648.90915,66.34839 635.4791,38.932808 617.77107,20.317803 613.3748,15.696355 613.33333,15.578053 613.33333,7.6573895 V -0.33798556 L 637.6,0.38798777 C 664.49182,1.1924968 681.82364,2.4738891 698.66665,4.9028226 774.84333,15.888278 829.26694,47.537561 865.20937,101.75338 l 6.79061,10.24302 61.6,0.002 61.6,0.002 v 8.53334 8.53333 h -61.62013 -61.62014 l -6.91319,9.79896 c -19.17916,27.1844 -48.1388,51.01687 -82.64654,68.01367 -41.52428,20.45281 -88.95201,31.29922 -143.35037,32.78329 l -23.88371,0.65159 z m 60.58377,-12.0896 c 65.19104,-8.39964 118.22638,-31.59756 154.63083,-67.63631 11.0523,-10.94128 25.63583,-29.02245 25.63583,-31.78421 0,-1.98624 -6.61483,-12.09479 -14.79933,-22.615786 -16.4111,-21.096123 -37.375,-38.374025 -61.8234,-50.953223 -36.47292,-18.76606 -67.8482,-25.885512 -130.60302,-29.635503 l -11.49243,-0.686743 6.94034,10.236485 c 39.1254,57.707077 38.5962,138.139 -1.25628,190.93839 l -3.94961,5.23272 12.2252,-0.75764 c 6.72386,-0.41671 17.74521,-1.46889 24.49187,-2.33818 z m 253.86666,-12.16699 v -29.0549 l 13.6,0.47434 c 14.78894,0.51581 19.76033,1.90553 25.16435,7.0345 9.95994,9.45299 10.86522,30.75374 1.74834,41.1373 -5.39916,6.1493 -12.41236,8.44668 -27.44602,8.99075 l -13.06667,0.4729 z m 27.48101,16.38576 c 4.65882,-3.41561 6.6488,-8.48381 6.65067,-16.93838 0.003,-12.77072 -5.28751,-18.65003 -16.7817,-18.65003 h -5.61664 v 19.3282 19.32821 l 6.41433,-0.46397 c 4.15164,-0.3003 7.44403,-1.21889 9.33334,-2.60403 z M 433.66167,202.14174 c -6.07336,-2.16354 -9.32146,-4.92667 -12.07021,-10.26801 -7.00769,-13.61728 -4.15922,-34.62915 5.71556,-42.16101 7.49399,-5.71595 15.51488,-6.9447 26.55759,-4.06843 3.47206,0.90435 6.47299,1.80444 6.66875,2.00019 0.28388,0.28387 -2.70991,8.87115 -3.47532,9.96846 -0.10728,0.15378 -2.49988,-0.73994 -5.31692,-1.98605 -13.39624,-5.9258 -22.99409,3.4013 -21.59774,20.9885 1.21642,15.32091 7.87863,19.9856 22.95748,16.0742 l 5.5658,-1.44375 v 5.08869 5.08869 l -5.38584,1.15506 c -7.21365,1.54705 -14.50643,1.38478 -19.61915,-0.43654 z M 468.94002,69.650188 C 472.80025,58.622585 477.26996,45.76 478.87273,41.066667 l 2.91411,-8.533333 7.54241,-0.31143 7.54242,-0.311428 1.18381,3.586996 c 0.6511,1.972849 5.19085,14.952992 10.08832,28.844763 l 8.9045,25.257766 h -6.53748 -6.53748 l -1.98562,-6.933334 -1.98561,-6.933333 h -10.49623 -10.49624 l -1.95918,6.666667 -1.95917,6.666666 -6.58493,0.316855 -6.58492,0.316854 z m 27.74485,-5.106558 c -0.33552,-0.874337 -1.8778,-5.794337 -3.4273,-10.933333 -1.5495,-5.138996 -3.1554,-9.70869 -3.56867,-10.154874 -0.41327,-0.446184 -2.10405,3.873816 -3.75729,9.6 -1.65324,5.726184 -3.23554,11.011244 -3.51621,11.744577 -0.37914,0.990609 1.4676,1.333334 7.18459,1.333334 6.37954,0 7.59063,-0.271745 7.08488,-1.589704 z"
       id="path10504"
       clip-path="url(#clipPath10667)" />
    <rect
       style="fill:#000000;fill-rule:evenodd"
       id="rect10673"
       width="14.849242"
       height="6.1871843"
       x="1011.6931"
       y="197.28279" />
    <rect
       style="fill:#000000;fill-rule:evenodd"
       id="rect10675"
       width="5.833631"
       height="16.970562"
       x="992.60114"
       y="112.07642" />
    <rect
       style="fill:#000000;fill-rule:evenodd"
       id="rect10679"
       width="59.927299"
       height="5.4800777"
       x="540.93671"
       y="54.800774" />
    <rect
       style="fill:#000000;fill-rule:evenodd"
       id="rect10687"
       width="45.961941"
       height="20.682873"
       x="447.95215"
       y="257.91721" />
    <rect
       style="fill:#000000;fill-rule:evenodd"
       id="rect10693"
       width="97.757515"
       height="10.253048"
       x="540.75989"
       y="350.3714" />
    <rect
       style="fill:#000000;fill-rule:evenodd"
       id="rect10695"
       width="41.542522"
       height="5.4800777"
       x="53.209785"
       y="271.70578" />
    <rect
       style="fill:#000000;fill-rule:evenodd"
       id="rect10701"
       width="7.2478447"
       height="194.27759"
       x="145.84077"
       y="175.1857" />
    <rect
       style="fill:#000000;fill-rule:evenodd"
       id="rect10716"
       width="19.445436"
       height="101.11627"
       x="474.8222"
       y="267.63992" />
    <rect
       style="fill:#000000;fill-rule:evenodd;stroke-width:1.57884"
       id="rect10718"
       width="164.57529"
       height="18.36334"
       x="486.48947"
       y="350.3714" />
    <text
       xml:space="preserve"
       style="font-style:normal;font-variant:normal;font-weight:bold;font-stretch:normal;font-size:63.9999px;font-family:sans-serif;-inkscape-font-specification:'sans-serif Bold';display:inline;fill:#000000;stroke:#000000;stroke-width:0;stroke-dasharray:none"
       x="468.23953"
       y="85.034714"
       id="text304"><tspan
         sodipodi:role="line"
         id="tspan302"
         style="font-size:63.9999px;fill:#000000;stroke-width:0"
         x="468.23953"
         y="85.034714">P<tspan
   style="font-size:41.5999px;baseline-shift:sub;stroke-width:0"
   id="tspan1015">0</tspan></tspan></text>
    <text
       xml:space="preserve"
       style="font-style:normal;font-variant:normal;font-weight:bold;font-stretch:normal;font-size:63.9999px;font-family:sans-serif;-inkscape-font-specification:'sans-serif Bold';display:inline;fill:#000000;stroke:#000000;stroke-width:0;stroke-dasharray:none"
       x="469.49026"
       y="489.43222"
       id="text304-3"><tspan
         sodipodi:role="line"
         id="tspan302-2"
         style="font-size:63.9999px;fill:#000000;stroke-width:0"
         x="469.49026"
         y="489.43222">P<tspan
   style="font-size:41.5999px;baseline-shift:sub;stroke-width:0"
   id="tspan1015-8">0</tspan></tspan></text>
    <text
       xml:space="preserve"
       style="font-style:normal;font-variant:normal;font-weight:bold;font-stretch:normal;font-size:63.9999px;font-family:sans-serif;-inkscape-font-specification:'sans-serif Bold';display:inline;fill:#000000;stroke:#000000;stroke-width:0;stroke-dasharray:none"
       x="914.03455"
       y="337.26569"
       id="text304-2-5"><tspan
         sodipodi:role="line"
         id="tspan302-9-6"
         style="font-size:63.9999px;fill:#000000;stroke-width:0"
         x="914.03455"
         y="337.26569">Q<tspan
   style="font-size:65%;baseline-shift:sub"
   id="tspan1741">2</tspan></tspan></text>
    <text
       xml:space="preserve"
       style="font-style:normal;font-variant:normal;font-weight:bold;font-stretch:normal;font-size:63.9999px;font-family:sans-serif;-inkscape-font-specification:'sans-serif Bold';display:inline;fill:#000000;stroke:#000000;stroke-width:0;stroke-dasharray:none"
       x="1505.9752"
       y="282.45444"
       id="text304-2-5-1"><tspan
         sodipodi:role="line"
         id="tspan302-9-6-7"
         style="font-size:63.9999px;fill:#000000;stroke-width:0"
         x="1505.9752"
         y="282.45444">Q<tspan
   style="font-size:65%;baseline-shift:sub"
   id="tspan10324">3</tspan></tspan></text>
    <text
       xml:space="preserve"
       style="font-style:normal;font-variant:normal;font-weight:bold;font-stretch:normal;font-size:63.9999px;font-family:sans-serif;-inkscape-font-specification:'sans-serif Bold';display:inline;fill:#000000;stroke:#000000;stroke-width:0;stroke-dasharray:none"
       x="393.76468"
       y="191.56682"
       id="text304-2-7"><tspan
         sodipodi:role="line"
         id="tspan302-9-5"
         style="font-size:63.9999px;fill:#000000;stroke-width:0"
         x="393.76468"
         y="191.56682">Q<tspan
   style="font-size:65%;baseline-shift:sub"
   id="tspan2257">0</tspan></tspan></text>
    <text
       xml:space="preserve"
       style="font-style:normal;font-variant:normal;font-weight:bold;font-stretch:normal;font-size:63.9999px;font-family:sans-serif;-inkscape-font-specification:'sans-serif Bold';display:inline;fill:#000000;stroke:#000000;stroke-width:0;stroke-dasharray:none"
       x="394.20444"
       y="376.35861"
       id="text304-2-7-9"><tspan
         sodipodi:role="line"
         id="tspan302-9-5-4"
         style="font-size:63.9999px;fill:#000000;stroke-width:0"
         x="394.20444"
         y="376.35861">Q<tspan
   style="font-size:65%;baseline-shift:sub"
   id="tspan2257-0">0</tspan></tspan></text>
    <text
       xml:space="preserve"
       style="font-style:normal;font-variant:normal;font-weight:bold;font-stretch:normal;font-size:63.9999px;font-family:sans-serif;-inkscape-font-specification:'sans-serif Bold';display:inline;fill:#000000;stroke:#000000;stroke-width:0;stroke-dasharray:none"
       x="-17.005898"
       y="286.59793"
       id="text304-0"><tspan
         sodipodi:role="line"
         id="tspan302-5"
         style="font-size:63.9999px;fill:#000000;stroke-width:0"
         x="-17.005898"
         y="286.59793">P<tspan
   style="font-size:41.5999px;baseline-shift:sub;stroke-width:0"
   id="tspan1103">1</tspan></tspan></text>
    <text
       xml:space="preserve"
       style="font-style:normal;font-variant:normal;font-weight:bold;font-stretch:normal;font-size:63.9999px;font-family:sans-serif;-inkscape-font-specification:'sans-serif Bold';display:inline;fill:#000000;stroke:#000000;stroke-width:0;stroke-dasharray:none"
       x="914.76855"
       y="225.30357"
       id="text304-2"><tspan
         sodipodi:role="line"
         id="tspan302-9"
         style="font-size:63.9999px;fill:#000000;stroke-width:0"
         x="914.76855"
         y="225.30357">Q<tspan
   style="font-size:41.5999px;baseline-shift:sub;stroke-width:0"
   id="tspan703">1</tspan></tspan></text>
  </g>
</svg>
