<?xml version="1.0" encoding="UTF-8" standalone="no"?>
<!-- Created with Inkscape (http://www.inkscape.org/) -->

<svg
   width="400.55621mm"
   height="111.14062mm"
   viewBox="0 0 400.55623 111.14062"
   version="1.1"
   id="svg5"
   sodipodi:docname="NotXor_wPQ.svg"
   inkscape:version="1.2.2 (732a01da63, 2022-12-09)"
   inkscape:export-filename="NotXorOnly.svg"
   inkscape:export-xdpi="96"
   inkscape:export-ydpi="96"
   xmlns:inkscape="http://www.inkscape.org/namespaces/inkscape"
   xmlns:sodipodi="http://sodipodi.sourceforge.net/DTD/sodipodi-0.dtd"
   xmlns="http://www.w3.org/2000/svg"
   xmlns:svg="http://www.w3.org/2000/svg">
  <sodipodi:namedview
     id="namedview7"
     pagecolor="#ffffff"
     bordercolor="#000000"
     borderopacity="0.25"
     inkscape:showpageshadow="2"
     inkscape:pageopacity="0.0"
     inkscape:pagecheckerboard="0"
     inkscape:deskcolor="#d1d1d1"
     inkscape:document-units="mm"
     showgrid="false"
     showguides="true"
     inkscape:zoom="1.4142136"
     inkscape:cx="532.80495"
     inkscape:cy="188.79751"
     inkscape:window-width="3840"
     inkscape:window-height="2054"
     inkscape:window-x="1909"
     inkscape:window-y="-11"
     inkscape:window-maximized="1"
     inkscape:current-layer="layer2">
    <sodipodi:guide
       position="277.90301,83.44283"
       orientation="0,-1"
       id="guide182"
       inkscape:locked="false" />
    <sodipodi:guide
       position="228.97709,23.342813"
       orientation="0,-1"
       id="guide242"
       inkscape:locked="false" />
    <sodipodi:guide
       position="239.03126,94.648031"
       orientation="1,0"
       id="guide244"
       inkscape:locked="false" />
    <sodipodi:guide
       position="288.77293,63.030315"
       orientation="1,0"
       id="guide246"
       inkscape:locked="false" />
    <sodipodi:guide
       position="166.12323,36.149564"
       orientation="0,-1"
       id="guide248"
       inkscape:locked="false" />
    <sodipodi:guide
       position="319.70718,90.851161"
       orientation="1,0"
       id="guide250"
       inkscape:locked="false" />
    <sodipodi:guide
       position="202.65107,68.189696"
       orientation="0,-1"
       id="guide1212"
       inkscape:locked="false" />
    <sodipodi:guide
       position="144.89042,40.581335"
       orientation="0,-1"
       id="guide1214"
       inkscape:locked="false" />
    <sodipodi:guide
       position="338.77919,97.955321"
       orientation="1,0"
       id="guide1218"
       inkscape:locked="false" />
    <sodipodi:guide
       position="218.26148,57.606365"
       orientation="1,0"
       id="guide1274"
       inkscape:locked="false" />
    <sodipodi:guide
       position="306.47802,91.777201"
       orientation="1,0"
       id="guide2226"
       inkscape:locked="false" />
    <sodipodi:guide
       position="332.40718,93.364711"
       orientation="1,0"
       id="guide2228"
       inkscape:locked="false" />
    <sodipodi:guide
       position="312.96031,89.925121"
       orientation="1,0"
       id="guide2288"
       inkscape:locked="false" />
    <sodipodi:guide
       position="78.637697,116.53973"
       orientation="0,-1"
       id="guide447"
       inkscape:locked="false" />
  </sodipodi:namedview>
  <defs
     id="defs2">
    <clipPath
       clipPathUnits="userSpaceOnUse"
       id="clipPath678">
      <path
         id="path680"
         style="fill:#ff0000;fill-opacity:1;fill-rule:nonzero;stroke:none;stroke-width:0.264583"
         d="m 129.75607,118.09534 -225.430688,5.2e-4 v 41.80158 c 0.04785,0.002 0.09578,0.004 0.14366,0.005 0.81147,0.0202 1.623506,0.012 2.434994,0.0336 0.718701,0.0163 1.439204,0.0291 2.15439,0.10802 1.539679,0.16986 2.671825,0.66078 3.417879,1.30327 0.55417,0.0622 1.10829,0.12363 1.659331,0.20981 0.40482,0.0633 0.681619,0.11921 1.075904,0.19481 0.795046,0.18516 1.608034,0.24103 2.420006,0.2925 0.395491,0.0206 0.791215,0.0349 1.187008,0.0475 0.818923,-0.25423 1.646288,-0.47833 2.489772,-0.63821 0.275518,-0.0558 0.625433,-0.13204 0.898652,-0.16225 0.602522,-0.0666 1.208982,-0.0635 1.801439,0.0475 -0.0019,-0.035 -0.0055,-0.0699 -0.0072,-0.10491 -0.04294,-0.86968 -0.04474,-1.36154 -0.03928,-2.21743 0.0021,-0.32873 0.0094,-0.65731 0.01394,-0.986 0.03423,-1.96994 0.08396,-3.93939 0.146243,-5.90868 0.01222,-0.53084 0.02996,-1.0617 0.03566,-1.59267 0.0092,-0.85514 -0.01553,-1.71025 -0.02842,-2.56522 -0.03305,-1.32581 -0.08382,-2.65145 -0.140042,-3.97649 -0.07618,-1.65924 -0.167282,-3.3176 -0.307474,-4.97282 -0.128662,-1.30986 -0.247195,-2.62615 -0.514697,-3.91656 -0.114477,-0.53877 -0.229079,-1.07632 -0.422714,-1.5937 v -5.1e-4 c -1.291064,-3.44961 0.162983,-5.53581 2.08721,-5.60845 1.406375,-0.0531 3.055184,0.98722 4.075721,3.33985 0.134181,-0.0565 0.255474,-0.10516 0.410311,-0.17467 0.429363,0.0257 0.861123,0.0224 1.287777,0.077 0.178851,0.0229 0.347554,0.0976 0.51883,0.154 0.397817,0.13088 0.774149,0.32277 1.159102,0.48524 0.496353,0.23075 0.985658,0.47615 1.458828,0.75189 0.439251,0.25253 0.870776,0.51845 1.294495,0.79633 0.650619,0.4145 1.292003,0.84291 1.931146,1.27486 0.837565,0.57377 1.684071,1.13608 2.488737,1.75597 0.905637,0.68785 1.814404,1.37237 2.703195,2.08204 1.020517,0.8252 2.030675,1.66312 3.065447,2.47065 0.923287,0.72653 1.860137,1.43574 2.810163,2.127 0.770769,0.54627 1.536994,1.1001 2.337843,1.60197 0.424177,0.25719 0.846463,0.52012 1.299146,0.72554 0.560814,0.25097 1.149311,0.43204 1.723409,0.65009 1.126479,0.42473 2.253189,0.85753 3.318142,1.42368 0.793864,0.45099 1.573183,0.93231 2.267045,1.53014 0.68916,0.57009 1.351598,1.17345 1.95802,1.83193 0.528643,0.56103 1.032399,1.14277 1.507919,1.74977 0.434578,0.55018 0.851389,1.11487 1.308446,1.64693 0.498981,0.55566 1.036045,1.03323 1.631426,1.48569 0.46934,0.36701 0.93643,0.71904 1.425237,1.05937 0.05761,0.0401 0.111281,0.0853 0.170532,0.12299 0.06542,0.0416 0.135072,0.0766 0.20257,0.11472 0.200197,0.11358 0.419375,0.18016 0.635103,0.2589 0.402299,0.14684 0.804656,0.2946 1.199412,0.46095 0.423296,0.18932 0.620281,0.2661 1.044898,0.51367 0.427902,0.24948 0.805661,0.57293 1.184423,0.88883 0.325424,0.28113 0.655783,0.55667 0.991669,0.82527 0.164404,-0.22369 0.327747,-0.44844 0.494027,-0.67076 0.245094,-0.34609 0.509503,-0.67691 0.786517,-0.99787 0.290446,-0.3238 0.589983,-0.63976 0.894519,-0.95033 0.262551,-0.29251 0.525171,-0.583 0.806151,-0.85834 0.307046,-0.27833 0.604337,-0.56673 0.915707,-0.84026 0.280855,-0.25508 0.567015,-0.50773 0.883666,-0.7183 0.115112,-0.0765 0.234238,-0.14678 0.351401,-0.22015 0.514911,-0.28317 1.067961,-0.49654 1.641242,-0.62735 0.13934,-0.0318 0.280009,-0.0561 0.420132,-0.0842 0.654635,-0.11223 1.314529,-0.19174 1.975588,-0.25425 0.170217,-0.0155 0.338884,-0.0392 0.507463,-0.0667 0.130149,-0.0212 0.169233,-0.014 0.116271,-0.0217 0.347173,-0.077 0.695251,-0.14806 1.045932,-0.20723 0.343332,-0.0579 0.690745,-0.0869 1.03818,-0.10438 0.331005,-0.0158 0.662091,-0.0161 0.99322,-0.007 0.433083,0.0229 0.862203,0.086 1.288293,0.16433 0.266274,0.0569 0.531956,0.1175 0.797886,0.1757 0.51068,0.10921 0.977968,0.34389 1.443839,0.57051 0.450387,0.22123 0.877512,0.48161 1.285708,0.77256 0.3116501,0.23029 0.5967598,0.49413 0.8722996,0.76585 0.012277,0.0124 0.024421,0.0247 0.03669,0.0372 7.938e-4,-2e-5 -0.0054,-0.005 -0.00362,-0.005 0.037301,0.015 0.060018,0.0536 0.089916,0.0806 0.1111198,0.1002 0.2171039,0.20545 0.3255619,0.30851 0.2528993,0.24333 0.471633,0.51751 0.6976322,0.78496 0.1543208,0.16588 0.2937404,0.37153 0.4423515,0.52452 0.2230676,0.2413 0.4238837,0.50211 0.6221836,0.76378 0.1896507,0.25214 0.3397462,0.46657 0.5436368,0.80615 0.1774375,0.29975 0.325829,0.61496 0.4697386,0.93172 0.062198,0.14571 0.1284499,0.28919 0.1865524,0.43667 0.03565,0.0906 0.061619,0.18493 0.102317,0.27337 0.00529,0.0114 -0.00788,-0.0238 -0.01188,-0.0357 0.087291,0.20517 0.1799352,0.40773 0.2661338,0.6134 0.1701191,0.41948 0.2844588,0.8587 0.3849899,1.29915 0.1045686,0.48083 0.1468491,0.9711 0.1741488,1.46141 0.0195,0.43326 0.023363,0.86706 0.026352,1.30069 0.00212,0.51047 0.00818,1.02131 -0.00265,1.53169 -5.291e-4,0.64479 -0.087236,1.25237 -0.2351299,1.87947 -0.1848247,0.68183 -0.4880478,1.3195 -0.8433594,1.92702 -0.2559367,0.45777 -0.5875178,0.86348 -0.9425781,1.24695 -0.2549049,0.26358 -0.5253302,0.51124 -0.806151,0.74672 -0.2279994,0.1879 -0.4545727,0.37776 -0.686263,0.56121 -0.1928892,0.17689 -0.4014523,0.33504 -0.6082321,0.49506 -0.082158,0.0672 -0.2822628,0.24545 -0.4898919,0.416 -0.2203794,0.19734 -0.445098,0.38944 -0.6728277,0.57826 -0.237659,0.20032 -0.484087,0.3902 -0.733806,0.57515 0.01331,-0.009 0.05261,-0.039 0.04031,-0.0284 -0.08101,0.0697 -0.223462,0.17115 -0.29714,0.22686 0.02273,-0.0159 0.01402,-0.0101 0.04238,-0.0294 0.01468,-0.0102 -0.05823,0.0418 -0.04393,0.031 -0.281519,0.19732 -0.193122,0.14177 -0.440282,0.29456 -0.433232,0.26982 -0.911913,0.44266 -1.397849,0.58859 -0.426324,0.1268 -0.868527,0.17487 -1.304828,0.25167 -0.347673,0.0621 -0.697314,0.11183 -1.045932,0.16794 -0.396761,0.0677 -0.797078,0.10931 -1.198377,0.13746 -0.343011,0.0208 -0.686885,0.0287 -1.030428,0.0341 -0.419055,0.0188 -0.835491,-0.0224 -1.249537,-0.0832 -0.380278,-0.0577 -0.752258,-0.15862 -1.123445,-0.25735 -0.302051,-0.09 -0.597527,-0.20029 -0.894003,-0.30592 -0.381352,-0.13054 -0.7307,-0.32807 -1.059884,-0.55707 -0.05131,-0.0357 -0.103161,-0.0703 -0.153477,-0.10749 -0.02154,-0.012 0.01701,0.0133 0.02687,0.0207 -0.2316,-0.15317 -0.447479,-0.31461 -0.654224,-0.51366 -0.05515,-0.0531 -0.106709,-0.10972 -0.157096,-0.16744 l -5.3e-4,-5.3e-4 c -0.23496,-0.18637 -0.469598,-0.37329 -0.698664,-0.56689 -0.178326,-0.16948 -0.306099,-0.25876 -0.577228,-0.48059 -0.255228,-0.17696 -0.485526,-0.38594 -0.727086,-0.58033 -0.235505,-0.18077 -0.464589,-0.36882 -0.686781,-0.56586 -0.127802,-0.0914 -0.233135,-0.22377 -0.372068,-0.29817 -0.274661,-0.1827 -0.549994,-0.36421 -0.818039,-0.55655 -0.225647,-0.16672 -0.44637,-0.33928 -0.664043,-0.51625 -0.364408,-0.30042 -0.675576,-0.65704 -0.932241,-1.05317 -0.118665,-0.18314 -0.181475,-0.30995 -0.254767,-0.46354 -0.115869,0.0188 -0.231476,0.0409 -0.347266,0.0568 -0.251909,0.026 -0.504409,0.0395 -0.757057,0.0465 -0.09007,0.0686 -0.178962,0.13862 -0.265618,0.21135 -0.260022,0.21281 -0.519261,0.42654 -0.777214,0.64183 -0.288348,0.2379 -0.575786,0.47798 -0.881599,0.69349 -0.37116,0.26478 -0.747824,0.52103 -1.141016,0.75241 -0.485121,0.28861 -0.969121,0.57867 -1.469678,0.84026 -0.388604,0.19834 -0.782974,0.38446 -1.165821,0.59376 -0.436512,0.2307 -0.875442,0.45668 -1.308446,0.69402 -0.447172,0.24006 -0.901748,0.46609 -1.341522,0.71985 -0.282041,0.15891 -0.559988,0.32432 -0.816486,0.52297 -0.32277,0.26474 -0.630224,0.54848 -0.927592,0.84129 -0.400788,0.41073 -0.801357,0.82158 -1.206127,1.22835 -0.542872,0.57149 -1.088379,1.14093 -1.656747,1.68723 -0.528349,0.50627 -1.04159,1.02801 -1.581301,1.52239 -0.631523,0.57544 -1.275265,1.13956 -1.969905,1.63866 -0.788188,0.56512 -1.589621,1.11322 -2.409155,1.63194 -0.181047,0.11048 -0.360148,0.22398 -0.543118,0.33125 -0.758198,0.44449 -1.552713,0.82304 -2.345076,1.20147 -0.910969,0.44301 -1.834404,0.85828 -2.745571,1.3007 -1.050753,0.51944 -2.110158,1.02219 -3.14451,1.57406 -0.890905,0.48104 -1.764731,0.9914 -2.616377,1.53944 -0.171336,0.11309 -0.339317,0.22668 -0.504362,0.3421 -0.130754,0.23722 -0.482372,0.74282 -0.631486,0.96118 -0.555183,0.82576 -1.206963,1.57711 -1.845884,2.33733 -0.422032,0.47897 -0.874972,1.01532 -1.417484,1.36271 -0.200769,0.12856 -0.415843,0.23367 -0.623734,0.35036 -1.144964,0.17728 -1.754788,0.36533 -2.288749,0.22635 -0.338013,0.69841 -0.712835,1.38048 -1.170472,2.00866 -0.190709,0.2589 -0.384823,0.51537 -0.580842,0.77049 H 129.75607 Z m -199.22402,24.34684 c 0.02133,0.41398 0.04605,0.82774 0.06511,1.24178 0.05839,1.37126 0.110374,2.74239 0.144693,4.11448 0.01437,0.90967 0.03949,1.81966 0.03049,2.72955 -0.0029,0.29751 -0.03141,1.49375 -0.03721,1.74563 -0.06159,1.95678 -0.111797,3.91402 -0.145727,5.87148 -0.0044,0.32065 -0.01143,0.64152 -0.01344,0.96221 -0.0047,0.75282 -0.0036,1.14588 0.03617,1.89859 0.053,1.00347 0.149495,2.00556 0.235643,3.00654 0.160684,1.8431 0.351716,3.68298 0.532268,5.52421 0.19314,2.08546 0.441396,4.16525 0.677478,6.24613 0.258221,2.18494 0.475772,4.3744 0.629936,6.56911 0.06441,1.07496 0.110435,2.15083 0.156062,3.22667 0.100634,-0.0182 0.200269,-0.0411 0.301273,-0.0574 0.442024,0.0207 0.896456,-0.0437 1.326018,0.0625 0.158758,0.0393 0.304697,0.0837 0.444418,0.13126 0.170063,-0.13747 0.34282,-0.27151 0.519348,-0.40101 0.340545,-0.24983 0.603512,-0.41949 0.951881,-0.65112 1.016232,-0.658 2.060903,-1.26882 3.12539,-1.84485 1.10377,-0.59215 2.235978,-1.12943 3.358452,-1.68465 0.922832,-0.45149 1.860468,-0.8704 2.784324,-1.31982 0.789974,-0.36826 1.572321,-0.75295 2.311487,-1.21595 0.683906,-0.4388 1.357643,-0.89463 2.016414,-1.37046 0.484851,-0.35126 0.93177,-0.75088 1.373044,-1.15445 0.496753,-0.46009 0.973043,-0.94137 1.46141,-1.41025 0.493102,-0.47528 0.967005,-0.97014 1.438154,-1.46709 0.423055,-0.42863 0.845201,-0.85755 1.265039,-1.28933 0.454274,-0.46007 0.936545,-0.89175 1.431438,-1.30741 0.554762,-0.45456 1.160841,-0.83751 1.782321,-1.19269 0.483669,-0.28064 0.984541,-0.52881 1.476396,-0.79427 0.444754,-0.2442 0.896845,-0.47468 1.34462,-0.71314 0.41256,-0.22625 0.83778,-0.42744 1.256768,-0.6413 0.371624,-0.19706 0.730351,-0.4156 1.091409,-0.63097 0.238355,-0.13704 0.461836,-0.29536 0.685229,-0.45475 0.177234,-0.12745 0.342929,-0.26974 0.51108,-0.40876 0.264051,-0.22002 0.529134,-0.4387 0.794784,-0.65681 0.03916,-0.0329 0.08074,-0.0628 0.120407,-0.0951 -1.037844,-0.13482 -2.221574,-0.72909 -3.388942,-1.94769 -0.07598,-0.0453 -0.153967,-0.0877 -0.227894,-0.13332 -0.410017,-0.23435 -0.816742,-0.47379 -1.221113,-0.71779 -0.372491,-0.23613 -0.781881,-0.41194 -1.156002,-0.64596 -0.476083,-0.2898 -0.943689,-0.59331 -1.390097,-0.92759 -0.603056,-0.4499 -1.178091,-0.93455 -1.761648,-1.40921 -0.612333,-0.50221 -1.228114,-1.00032 -1.827798,-1.51774 -0.562951,-0.47632 -1.121068,-0.95831 -1.707388,-1.40612 -0.3815,-0.27534 -0.767013,-0.54525 -1.159618,-0.8046 -0.442402,-0.29837 -0.899919,-0.57313 -1.358056,-0.84646 -0.513712,-0.28031 -1.042699,-0.53111 -1.578716,-0.76584 -0.623819,-0.27366 -1.23988,-0.56824 -1.876372,-0.81132 -0.605504,-0.23216 -1.217496,-0.44661 -1.829864,-0.65991 -0.927234,-0.32523 -1.855901,-0.6472 -2.771404,-1.00459 -0.803212,-0.33157 -1.60078,-0.67636 -2.389002,-1.04231 -0.604528,-0.29717 -1.207434,-0.60006 -1.781287,-0.95395 -0.638161,-0.39533 -1.26226,-0.81293 -1.875853,-1.2454 -0.855493,-0.59803 -1.707049,-1.2065 -2.493907,-1.89394 -0.730425,-0.63722 -1.426025,-1.31055 -2.081527,-2.0252 -0.547714,-0.59235 -1.087515,-1.19205 -1.606103,-1.80971 z m 54.356889,17.46095 c -0.151469,-0.003 -0.303324,0.006 -0.454753,0.008 -0.09023,0.004 -0.180988,0.007 -0.270266,0.0222 -0.256757,0.0412 -0.509482,0.10015 -0.763778,0.154 -0.454832,0.0903 -0.913429,0.16161 -1.375627,0.20257 -0.458219,0.042 -0.914802,0.0976 -1.369425,0.16898 -0.0067,5.3e-4 -0.01342,2.6e-4 -0.02016,0 -0.05217,0.0469 -0.104725,0.0934 -0.157097,0.14004 -0.224885,0.18915 -0.424103,0.40683 -0.649057,0.59583 -0.246711,0.23197 -0.447776,0.51159 -0.693497,0.74673 -0.210706,0.21417 -0.417298,0.43251 -0.621152,0.65319 -0.121787,0.13794 -0.233328,0.28342 -0.342614,0.43098 0.133678,0.0466 0.265975,0.10037 0.396875,0.16381 0.329266,0.15954 0.599218,0.42019 0.898652,0.63045 0.428477,0.43644 0.742111,0.92268 1.016476,1.46038 0.23971,0.7208 0.416439,1.02009 0.329179,1.83193 -0.0417,0.38796 -0.07429,0.81013 -0.293005,1.13326 -0.132326,0.19549 -0.279119,0.38236 -0.432014,0.56431 0.0097,0.007 0.01865,0.0152 0.02842,0.0222 0.229105,0.19087 0.464129,0.37292 0.687297,0.57103 0.01103,0.01 -0.02304,-0.0183 -0.03462,-0.0274 0.149341,0.12748 0.304276,0.24802 0.456819,0.37155 0.188746,0.15156 0.376949,0.30317 0.553455,0.46767 0.02924,0.0109 0.05959,0.019 0.08837,0.031 0.01741,0.007 -0.108702,-0.029 -0.05581,-0.0114 0.119362,0.035 0.243983,0.055 0.360186,0.0982 0.0604,0.009 0.203046,0.0145 -5.29e-4,0.0129 -0.01469,-1e-4 -0.05859,0.002 -0.04393,0.002 0.03722,8e-4 0.0744,-5.3e-4 0.111623,-0.001 0.03782,-5.3e-4 0.07586,-5.3e-4 0.113686,-0.001 0.23028,-0.003 0.460378,-0.008 0.690398,-0.0202 0.202645,-0.0119 0.404051,-0.0358 0.604097,-0.0708 0.322961,-0.0508 0.646433,-0.0981 0.968417,-0.15503 0.172313,-0.029 0.344594,-0.0541 0.516766,-0.0811 0.02085,-0.0165 0.04167,-0.0331 0.06253,-0.0496 0.162817,-0.12054 0.267788,-0.19732 0.449586,-0.35243 0.242567,-0.20078 0.476834,-0.41113 0.717269,-0.61443 0.204378,-0.16113 0.385183,-0.34265 0.619083,-0.51832 0.187679,-0.14511 0.37089,-0.29225 0.550354,-0.4501 0.209855,-0.16596 0.413346,-0.33937 0.620634,-0.5085 0.02492,-0.0234 0.0335,-0.0312 0.05013,-0.047 0.02817,-0.0268 0.05642,-0.0535 0.08475,-0.0801 -0.0016,0.003 -0.0061,0.006 -0.0031,0.008 0.01169,0.008 0.02029,-0.0201 0.03049,-0.03 0.02791,-0.0307 0.03403,-0.038 0.05168,-0.0584 0.0083,-0.0137 0.01656,-0.0271 0.02479,-0.0408 0.02191,-0.0319 0.04386,-0.0574 0.06046,-0.093 0.05,-0.10812 0.06729,-0.17672 0.04599,-0.0512 0.0041,-0.003 0.0084,-0.0138 0.01241,-0.0103 0.005,0.005 0.0026,0.0283 0.0036,0.0212 0.0227,-0.14758 0.0098,-0.29924 0.02326,-0.44752 0.0145,-0.43926 -0.0031,-0.87882 0.0011,-1.31826 -0.0024,-0.33093 -0.0051,-0.66197 -0.01707,-0.99271 -0.0063,-0.12368 -0.01429,-0.24982 -0.02429,-0.37207 -0.0159,-0.0752 -0.03314,-0.14853 -0.05374,-0.22272 -0.01394,-0.0502 -0.01749,-0.0607 -0.0181,-0.0636 -0.06884,-0.16515 -0.150246,-0.32534 -0.214458,-0.49248 -0.09915,-0.24194 -0.117705,-0.3131 -0.209804,-0.52038 -0.05335,-0.11751 -0.103521,-0.23661 -0.1695,-0.34778 -0.04299,-0.0611 -0.09449,-0.13496 -0.123507,-0.17054 -0.0066,-0.009 -0.16265,-0.20968 -0.16278,-0.21032 v -5.3e-4 c -0.02289,-0.0258 -0.04388,-0.0495 -0.03979,-0.0455 -0.211674,-0.23409 -0.408868,-0.47913 -0.613399,-0.71934 -0.08812,-0.10448 -0.239326,-0.28254 -0.259932,-0.31316 -0.0049,-0.007 0.01355,0.0122 0.02016,0.0181 -0.125558,-0.12196 -0.297873,-0.28126 -0.512114,-0.48369 -0.164441,-0.16635 0.233132,0.21093 -0.15503,-0.14626 -0.01744,-0.0161 0.07413,0.0586 0.05788,0.0414 -0.01529,-0.0162 -0.03508,-0.0272 -0.05271,-0.0408 0.02058,0.0128 0.04082,0.0265 0.06201,0.0382 0.01521,0.008 -0.02732,-0.0223 -0.04237,-0.031 -0.08684,-0.0504 -0.176485,-0.0955 -0.262515,-0.14728 -0.07312,-0.0356 -0.175773,-0.0806 -0.264583,-0.12506 -0.117173,-0.0241 -0.233638,-0.0472 -0.344167,-0.076 -0.09862,-0.0178 -0.25027,-0.0426 -0.32556,-0.0491 0.02556,-5.3e-4 0.102566,-0.002 0.077,-0.002 z m -4.0597,0.39119 c 0.03369,-0.0155 -0.05788,0.0464 -0.08785,0.0682 -0.01278,0.0275 -0.03509,0.0407 -0.05943,0.0512 0.04176,-0.0416 0.09933,-0.0974 0.147278,-0.11937 z m 7.60522,3.45612 c 0.0059,0.016 0.0085,0.0243 0.02119,0.0553 0.0021,0.004 -0.0016,-0.008 -0.0026,-0.0124 -0.0056,-0.0145 -0.01275,-0.0285 -0.0186,-0.0429 z m -0.11317,3.64164 c -0.0044,0.006 -0.0062,0.008 -0.01138,0.015 0.0021,-0.002 0.0042,-0.005 0.0062,-0.007 0.0016,-0.003 0.0035,-0.005 0.0052,-0.008 z m -68.609766,1.34462 c -0.777923,0.22707 -1.564772,0.4215 -2.361613,0.5705 -0.227195,0.0425 -0.455837,0.0779 -0.68368,0.11679 -1.328986,0.21219 -2.675054,0.24987 -4.015258,0.33848 -1.516361,0.11597 -3.035428,0.18272 -4.555278,0.22945 -1.256571,0.036 -2.513375,0.0557 -3.770312,0.0718 v 28.47164 h 15.868281 c -2.020316,-3.05191 -0.248682,-5.70498 2.548165,-5.19968 -0.0912,-0.41261 -0.151559,-0.83078 -0.140042,-1.25729 0.007,-0.3801 0.01802,-0.76037 0.03927,-1.13998 0.03626,-0.63206 0.08242,-1.26363 0.147794,-1.89342 0.0529,-0.52363 0.11729,-1.04807 0.09095,-1.57562 -0.05025,-0.75354 -0.17876,-1.49986 -0.239778,-2.25257 -0.05701,-0.50239 -0.109342,-1.00569 -0.197922,-1.50379 -0.16683,-0.9276 -0.223065,-1.20732 0.148828,-1.29294 -0.03504,-0.44235 -0.07302,-0.88447 -0.105418,-1.32705 -0.09485,-1.14187 -0.171831,-2.28456 -0.221694,-3.42925 -0.0683,-2.62595 0.0059,-2.60101 3.065963,-2.50321 -0.189752,-1.65787 -0.378704,-3.31573 -0.532784,-4.97747 -0.04306,-0.43918 -0.08343,-0.87862 -0.127124,-1.31775 -0.293775,0.0237 -0.588402,0.0332 -0.883666,0.0222 -0.448083,-0.007 -0.896308,-0.0163 -1.344105,-0.0341 -0.706879,-0.0288 -1.413073,-0.0658 -2.119767,-0.0987 -0.203555,-0.007 -0.407223,-0.0121 -0.610815,-0.0181 z m 51.013424,1.01027 c -0.01011,0.004 -0.0185,0.0103 -0.02791,0.0155 -0.01185,0.008 -0.02331,0.0167 -0.03514,0.0248 0.0046,-0.003 0.0099,-0.004 0.01447,-0.006 0.01717,-0.01 0.06716,-0.0408 0.04857,-0.0341 z m 10.796756,0.33125 c 0.112255,0.0707 0.121582,0.0809 0.144177,0.0946 -0.01318,-0.0104 -0.0095,-0.008 -0.02429,-0.0196 -0.02352,-0.0186 -0.244083,-0.15314 -0.11989,-0.0749 z m -0.08371,0.0181 v 5.3e-4 c -0.0051,-0.002 0.01161,0.003 0.0155,0.005 -0.0051,-0.002 -0.01037,-0.003 -0.0155,-0.005 z m 0.0155,0.005 c 0.02032,0.007 0.0405,0.0149 0.06098,0.0217 -0.007,-0.003 -0.01371,-0.006 -0.02066,-0.009 h -5.29e-4 c -0.01371,-0.004 -0.02975,-0.01 -0.03979,-0.0129 z m -58.988132,13.61261 c -0.0043,-0.0186 0.0053,0.0379 0.01035,0.0563 0.01651,0.0603 -0.0031,0.18463 0.04496,0.19431 -0.0074,-0.0355 -0.0079,-0.0431 -0.0553,-0.25063 z m 16.385564,7.41918 c -0.03335,0.0271 -0.06248,0.0586 -0.09147,0.0904 0.01045,-0.008 0.01998,-0.0147 0.03049,-0.0228 0.02148,-0.0215 0.08455,-0.0868 0.06098,-0.0677 z" />
    </clipPath>
  </defs>
  <g
     inkscape:groupmode="layer"
     id="layer3"
     inkscape:label="Background"
     transform="translate(208.73648,-92.251153)">
    <g
       inkscape:groupmode="layer"
       id="layer2"
       inkscape:label="Foreground"
       style="display:inline;fill:#ffffff;stroke-width:3.5;stroke-dasharray:none">
      <path
         id="path2286"
         style="fill:none;stroke:#000000;stroke-width:4.50001;stroke-opacity:1"
         d="M 96.154027,149.97915 H 129.75611 Z M 18.512531,120.39872 c 15.742708,15.21355 16.536459,43.92084 0.529167,58.8698 M 30.140489,120.6104 c 15.742708,15.21355 16.734896,43.3586 0.727604,58.30756 m -1.609391,0.56625 c 12.435417,0.39687 50.491163,-1.32693 67.159908,-30.4311 m -67.733329,-28.7073 c 19.314583,0.1323 51.461452,0.39689 67.733332,30.82396 m -66.145832,28.57501 -0.0024,-0.009 M 27.648958,164.96771 H 9.2604166 M 27.648958,135.06979 9.3927082,135.20208 v 0 m -17.0952444,29.63674 17.6247391,0.17415 z m -17.9451728,0.0871 c 0.160225,5.66007 4.245956,8.44657 8.892477,8.44657 4.646521,0 8.0112338,-3.30897 8.0913494,-8.27241 0.080116,-4.96344 -3.0442704,-8.88195 -8.1714654,-8.88195 -5.127187,0 -8.892473,3.91851 -8.812361,8.70779 z m -46.144742,29.43236 -0.160225,-58.77763 44.542495,29.43235 z m -23.873495,-29.51943 22.992259,0.0871 z"
         clip-path="url(#clipPath678)"
         transform="translate(1.5875,-18.520832)" />
      <text
         xml:space="preserve"
         style="font-style:normal;font-variant:normal;font-weight:bold;font-stretch:normal;font-size:38.1px;font-family:sans-serif;-inkscape-font-specification:'sans-serif Bold';fill:#000000;stroke:#000000;stroke-width:0;stroke-dasharray:none"
         x="-34.901688"
         y="121.04195"
         id="text304"><tspan
           sodipodi:role="line"
           id="tspan302"
           style="font-size:38.1px;fill:#000000;stroke-width:0"
           x="-34.901688"
           y="121.04195">P<tspan
   style="font-size:65%;baseline-shift:sub"
   id="tspan529">0</tspan></tspan></text>
      <text
         xml:space="preserve"
         style="font-style:normal;font-variant:normal;font-weight:bold;font-stretch:normal;font-size:38.1px;font-family:sans-serif;-inkscape-font-specification:'sans-serif Bold';display:inline;fill:#000000;stroke:#000000;stroke-width:0;stroke-dasharray:none"
         x="-209.51968"
         y="156.30673"
         id="text304-6"><tspan
           sodipodi:role="line"
           id="tspan302-8"
           style="font-size:38.1px;fill:#000000;stroke-width:0"
           x="-209.51968"
           y="156.30673">P<tspan
   style="font-size:65%;baseline-shift:sub"
   id="tspan563">1</tspan></tspan></text>
      <text
         xml:space="preserve"
         style="font-style:normal;font-variant:normal;font-weight:bold;font-stretch:normal;font-size:38.1px;font-family:sans-serif;-inkscape-font-specification:'sans-serif Bold';fill:#000000;stroke:#000000;stroke-width:0;stroke-dasharray:none"
         x="146.84386"
         y="143.03589"
         id="text304-2"><tspan
           sodipodi:role="line"
           id="tspan302-9"
           style="font-size:38.1px;fill:#000000;stroke-width:0"
           x="146.84386"
           y="143.03589">Q<tspan
   style="font-size:65%;baseline-shift:sub"
   id="tspan374">1</tspan></tspan></text>
      <text
         xml:space="preserve"
         style="font-style:normal;font-variant:normal;font-weight:bold;font-stretch:normal;font-size:38.1px;font-family:sans-serif;-inkscape-font-specification:'sans-serif Bold';display:inline;fill:#000000;stroke:#000000;stroke-width:0;stroke-dasharray:none"
         x="-58.67572"
         y="181.23665"
         id="text304-2-3"><tspan
           sodipodi:role="line"
           id="tspan302-9-7"
           style="font-size:38.1px;fill:#000000;stroke-width:0"
           x="-58.67572"
           y="181.23665">Q<tspan
   style="font-size:65%;baseline-shift:sub"
   id="tspan516">0</tspan></tspan></text>
      <path
         style="fill:none;stroke:#000000;stroke-width:4.44231;stroke-dasharray:none"
         d="m -167.07459,146.28742 23.10318,0.0836 z"
         id="path1189"
         sodipodi:nodetypes="ccc" />
      <path
         style="fill:none;stroke:#000000;stroke-width:5.04113;stroke-dasharray:none"
         d="m -141.69037,174.16415 -0.21075,-55.50279 58.626513,27.79248 z"
         id="path1191"
         sodipodi:nodetypes="cccc" />
      <path
         style="fill:none;stroke:#000000;stroke-width:4.44231;stroke-dasharray:none"
         d="m -77.139326,146.37103 c 0.160986,5.43647 3.541951,8.11287 8.210882,8.11287 4.668928,0 8.130373,-3.59643 8.210869,-7.94557 0.08822,-4.76721 -3.058954,-8.61469 -8.210875,-8.61469 -5.151918,0 -8.291371,3.8473 -8.210876,8.44739 z"
         id="path1195"
         sodipodi:nodetypes="csssc" />
      <path
         style="fill:none;stroke:#000000;stroke-width:4.44231;stroke-dasharray:none"
         d="m -59.107595,146.28742 17.709744,0.16713 z"
         id="path1197" />
      <rect
         style="fill:#000000;fill-rule:evenodd;stroke-width:0.926042"
         id="rect1031"
         width="88.569283"
         height="4.6963482"
         x="-60.075756"
         y="144.09125" />
    </g>
  </g>
</svg>
