<?xml version="1.0" encoding="UTF-8" standalone="no"?>
<!-- Created with Inkscape (http://www.inkscape.org/) -->

<svg
   width="225.43057mm"
   height="80.439957mm"
   viewBox="0 0 225.43058 80.439958"
   version="1.1"
   id="svg5"
   xmlns="http://www.w3.org/2000/svg"
   xmlns:svg="http://www.w3.org/2000/svg">
  <defs
     id="defs2" />
  <g
     id="layer3"
     transform="translate(95.674469,-118.09586)">
    <g
       id="layer2"
       style="display:inline;fill:#ffffff;stroke-width:3.5;stroke-dasharray:none">
      <path
         id="path2286"
         style="fill:none;stroke:#000000;stroke-width:4.50001;stroke-opacity:1"
         d="M 96.154027,149.97915 H 129.75611 Z M 18.512531,120.39872 c 15.742708,15.21355 16.536459,43.92084 0.529167,58.8698 M 30.140489,120.6104 c 15.742708,15.21355 16.734896,43.3586 0.727604,58.30756 m -1.609391,0.56625 c 12.435417,0.39687 50.491163,-1.32693 67.159908,-30.4311 m -67.733329,-28.7073 c 19.314583,0.1323 51.461452,0.39689 67.733332,30.82396 m -66.145832,28.57501 -0.0024,-0.009 M 27.648958,164.96771 H 9.2604166 M 27.648958,135.06979 9.3927082,135.20208 v 0 m -17.0952444,29.63674 17.6247391,0.17415 z m -17.9451728,0.0871 c 0.160225,5.66007 4.245956,8.44657 8.892477,8.44657 4.646521,0 8.0112338,-3.30897 8.0913494,-8.27241 0.080116,-4.96344 -3.0442704,-8.88195 -8.1714654,-8.88195 -5.127187,0 -8.892473,3.91851 -8.812361,8.70779 z m -46.144742,29.43236 -0.160225,-58.77763 44.542495,29.43235 z m -23.873495,-29.51943 22.992259,0.0871 z" />
    </g>
  </g>
</svg>
