<?xml version="1.0" encoding="UTF-8" standalone="no"?>
<!-- Created with Inkscape (http://www.inkscape.org/) -->

<svg
   version="1.1"
   id="svg6371"
   width="2000.7072"
   height="1383.5397"
   viewBox="0 0 2000.7072 1383.5397"
   sodipodi:docname="TwoToFourDecoder_wPQ.svg"
   inkscape:version="1.2.2 (732a01da63, 2022-12-09)"
   xmlns:inkscape="http://www.inkscape.org/namespaces/inkscape"
   xmlns:sodipodi="http://sodipodi.sourceforge.net/DTD/sodipodi-0.dtd"
   xmlns="http://www.w3.org/2000/svg"
   xmlns:svg="http://www.w3.org/2000/svg">
  <defs
     id="defs6375">
    <clipPath
       clipPathUnits="userSpaceOnUse"
       id="clipPath1425">
      <path
         id="path1427"
         style="fill:#ff0000;fill-opacity:1;fill-rule:nonzero;stroke:none"
         d="M 1034.9903,-71.285156 V 46.337891 c 6.7367,-8.309078 15.3886,-12.538728 23.9864,-12.539063 11.8329,-4.59e-4 23.3678,8.058743 29.5722,23.796875 h 112.1856 V -71.285156 Z" />
    </clipPath>
    <clipPath
       clipPathUnits="userSpaceOnUse"
       id="clipPath3240">
      <path
         id="path3242"
         style="fill:#ff0000;fill-opacity:1;fill-rule:nonzero;stroke:none"
         d="M 0.055016,-0.250983 V 226.54003 c 8.013681,5.1928 14.781422,15.84616 17.007812,32.45117 0.51412,3.83452 0.72159,7.70108 0.9043,11.5625 0.13099,3.08872 0.17849,6.17833 0.21289,9.26954 25.3422,-19.94844 54.50887,4.75055 32.76367,43.51562 -0.17363,0.30957 -0.35426,0.61365 -0.5293,0.92188 0.44086,1.66855 0.88122,3.33638 1.30469,5.00976 0.48445,2.33979 1.06739,4.65597 1.64844,6.97266 0.26733,1.33193 0.72712,3.26413 0.96289,4.18945 0.38214,0.93135 1.27032,3.28204 1.30859,3.38672 2.67062,8.19045 2.29596,15.59578 -1.3789,23.55859 -1.92219,4.16513 -3.91964,5.97006 -6.74024,8.93946 -4.45024,4.16326 -8.7573,6.66896 -14.58789,8.625 -2.46526,0.82704 -4.64187,1.06848 -7.17773,1.46679 -2.85643,0.45513 -5.7658,0.3372 -8.63086,0.64258 -3.16769,0.43264 -6.33895,0.4096 -9.527346,0.3418 -2.839317,-0.7954 -5.294719,-1.36029 -7.541016,-1.98828 v 227.53711 c 4.939788,-12.11924 13.993822,-18.20508 23.064452,-18.20508 13.44143,0 26.88477,13.30731 26.88477,39.91992 v 11.71484 13.4961 9.06054 c 1.36192,5.28568 1.61364,11.60428 0.38281,18.80274 7.1e-4,0.0124 0.003,0.0228 0.004,0.0352 0.0893,1.68378 0.11134,3.37087 0.1289,5.05664 -0.003,-0.27185 -0.0151,-0.54461 -0.01,-0.81641 0.002,-0.0681 0.0165,0.13532 0.0234,0.20312 0.0213,0.20939 0.0409,0.41935 0.0605,0.62891 0.0107,0.11389 -0.004,-0.0262 0.004,0.0664 0.007,0.0213 0.0107,0.019 0.0234,0.0781 0.0625,0.35618 0.0722,0.71896 0.12696,1.07617 0.42195,1.04227 0.83745,2.09893 1.22851,3.20704 1.17985,3.34333 2.23201,6.7283 3.375,10.08398 0.0841,0.25106 0.16783,0.50284 0.25196,0.75391 0.17423,0.36418 0.32592,0.73059 0.39257,1.08593 0.0245,0.13055 -0.1017,-0.24439 -0.15234,-0.36718 -0.0802,-0.23936 -0.16003,-0.47939 -0.24023,-0.71875 -0.32626,-0.68191 -0.76093,-1.35078 -1.07032,-1.89844 -1.08338,-1.91781 -2.10246,-3.52326 -3.07226,-4.89063 0.0516,1.21471 0.1104,2.42958 0.12695,3.64453 0.005,0.44767 0.006,0.66978 0.008,0.91602 10e-4,0.0144 0.004,0.0286 0.006,0.043 0.16463,1.3008 0.23954,2.60986 0.32227,3.91797 19.83117,32.31612 -9.37727,57.98374 -39.74805,33.375 -5.102058,3.67933 -9.417942,2.51949 -11.644529,-11.4336 -0.164815,-1.03344 -0.155245,-0.98458 -0.22461,-1.41015 -0.08644,-0.13599 -0.166499,-0.27555 -0.251953,-0.41211 V 1289.6025 H 688.93392 c -7.63778,-6.8097 -13.51188,-15.6313 -18.0957,-24.6953 -1.0969,-2.169 -2.05114,-4.4094 -3.07617,-6.6133 -4.40002,-9.8085 -7.71651,-20.0358 -10.83008,-30.3086 -3.59827,-11.243 -3.63529,-23.0982 -3.51367,-34.7714 0.1626,-5.7675 0.10648,-11.5575 0.66992,-17.3067 0.43414,-4.4301 0.60704,-4.9479 1.36133,-9.2051 2.18941,-10.409 7.04163,-18.9826 12.98047,-27.6171 4.50011,-6.3622 9.09922,-12.8079 15.42578,-17.5293 2.24967,-1.6789 4.78283,-2.9416 7.17383,-4.4122 12.42303,-3.612 13.46476,-5.527 26.75195,-2.7089 0.74296,0.1576 1.4056,0.4071 2.08398,0.6386 -0.63707,-4.7943 -1.00498,-9.8702 -0.71484,-15.5625 0.18353,-3.6006 -0.0258,-7.215 0.0801,-10.8183 0.0324,-4.9937 0.0842,-9.9858 0.19922,-14.9785 0.1289,-5.9073 0.30306,-11.8138 0.44921,-17.7207 -0.009,-7.0946 -0.0224,-14.189 -0.0527,-21.2832 -0.0461,-10.0841 -0.10612,-20.1706 -0.23828,-30.254 -0.13183,-8.59639 -0.40225,-17.19109 -0.40625,-25.78899 v -23.6934 -28.79491 -27.26757 c 0,-9.43006 1e-5,-18.86096 0,-28.29102 -10e-6,-7.90024 9e-5,-15.80093 0,-23.70117 -9e-5,-6.00618 5.9e-4,-12.01341 0,-18.01953 0,-7.49904 -0.002,-14.99697 -0.006,-22.4961 -0.004,-5.76283 -0.007,-11.52618 -0.0332,-17.28906 -0.0305,-6.22933 -0.0733,-12.45893 -0.1875,-18.6875 -0.15613,-8.10983 -0.35684,-16.22024 -0.75782,-24.32226 -0.36258,-7.12992 -0.66883,-14.2647 -1.30664,-21.37696 -0.34983,-5.25094 -0.67704,-10.50546 -0.61914,-15.77148 -0.0596,-5.76115 -0.13179,-11.52184 -0.28711,-17.28125 -0.18511,-6.26257 -0.41948,-12.52652 -0.36718,-18.79297 -0.0216,-5.45213 -0.0494,-10.90388 -0.13672,-16.35547 -0.11568,-6.65826 -0.26451,-13.31599 -0.51563,-19.9707 -0.19018,-5.33518 -0.33076,-10.67211 -0.55469,-16.00586 -0.18169,-4.50441 -0.21073,-9.00984 -0.17773,-13.51758 -10e-4,-4.39619 -0.003,-8.7913 -0.006,-13.1875 -0.004,-4.96397 -0.009,-9.92861 -0.0293,-14.89258 -0.024,-5.31517 -0.0525,-10.63088 -0.15039,-15.94531 -0.0993,-5.14676 -0.23921,-10.2914 -0.48242,-15.43359 -0.15119,-5.66345 -0.11909,-11.32997 -0.24219,-16.99414 -0.1254,-6.15211 -0.26311,-12.3064 -0.63867,-18.44922 -0.40819,-6.28186 -0.74112,-12.56831 -1.1582,-18.84961 -0.3997,-6.9326 -0.92032,-13.85694 -1.76172,-20.75196 -0.77526,-7.20857 -1.81676,-14.38966 -2.36328,-21.62304 -0.61253,-7.27694 -1.13926,-14.55938 -1.62695,-21.84571 -0.51783,-7.66059 -1.03269,-15.32763 -1.23438,-23.0039 -0.13603,-5.41138 -0.1342,-10.82023 0.0684,-16.23047 0.14355,-4.41737 0.4065,-8.82773 0.74219,-13.23438 -3.27446,0.021 -6.55207,-0.06 -9.82227,-0.10937 -4.30518,0.20948 -8.60036,0.24821 -12.9082,0.0957 -4.61606,-0.25878 -9.23024,-0.54126 -13.82422,-1.06836 -4.1438,-0.37155 -8.23601,-1.06782 -12.30469,-1.91992 -0.72193,-0.23147 -1.55873,-0.63004 -2.32031,-0.86914 -4.76542,1.12688 -10.01755,1.88714 -15.78711,2.18164 -2.71308,0.13849 -1.34096,0.0696 -4.11328,0.19922 -69.9234,3.26935 -73.21917,-67.38152 -3.29492,-70.63281 2.30801,-0.10734 1.22277,-0.0555 3.25586,-0.15625 2.18482,-0.10827 4.30717,-0.1432 6.36328,-0.11133 3.22187,0.0499 6.27739,0.27566 9.18164,0.64258 1.46437,-0.66293 2.93929,-1.31071 4.40039,-1.95899 3.82151,-1.45056 7.81373,-2.20816 11.81836,-2.91015 5.38658,-0.94424 10.4267,-1.36411 15.10937,-1.33203 11.69522,0.0801 21.15304,2.98282 28.19532,7.57421 10e-4,-2.84379 -0.003,-5.68782 0.0293,-8.53125 0.0399,-2.49479 0.10958,-4.98856 0.2793,-7.47851 0.24292,-3.3375 0.59425,-6.66579 1.11328,-9.97266 0.5357,-3.5279 1.00176,-7.06963 1.81445,-10.54883 0.41105,-1.58638 0.56782,-2.07289 0.75586,-2.73242 -0.2502,-1.8986 -0.60422,-3.78569 -0.71289,-5.70117 -0.38094,-3.56927 -0.87652,-7.13041 -1.05273,-10.71875 -0.36039,-4.99871 -0.83415,-9.98682 -1.1582,-14.98828 -0.35647,-6.00971 -0.4326,-12.02335 -0.3418,-18.04297 0.0272,-7.95374 0.0579,-15.90806 0.1543,-23.86133 0.0846,-5.99246 0.18671,-11.98734 0.50976,-17.97265 0.44078,-8.16659 1.86283,-15.2288 3.90039,-21.39258 -2.58209,-6.03587 -4.5763,-13.08026 -5.64062,-21.33008 -0.10174,-0.78894 -0.0502,-0.41173 -0.15039,-1.13086 -0.51127,-2.81188 -1.30512,-5.5639 -1.96875,-8.3418 -1.40586,-6.03781 -2.9588,-12.07954 -3.12305,-18.3164 -0.1079,-3.97217 -0.087,-7.944496 -0.082,-11.917976 0.007,-5.92002 0.51111,-11.32596 1.41211,-16.24414 -1.75615,0.0927 -3.51265,0.178 -5.26953,0.25977 -1.41066,0.0784 -2.81392,0.19246 -4.19532,0.51172 -43.8368,10.13118 -58.73054,-26.17633 -30.9082,-44.62891 -4.07205,0.28994 -8.14298,0.60058 -12.22266,0.75 -12.15263,0.51808 -24.3078,0.61201 -36.4707,0.52539 -31.63993,-0.22527 -44.46942,-19.298434 -38.48242,-34.662107 z m 1097.898484,0 c 3.3276,4.973474 4.8465,10.647899 4.8144,16.148438 0.5472,-0.01888 1.0933,-0.05833 1.6406,-0.07617 53.1972,-1.734203 54.912,52.105401 1.711,53.740231 -1.503,0.0462 -3.0066,0.0903 -4.5078,0.17969 -0.2233,0.0182 -0.4467,0.036 -0.67,0.0547 0.7219,5.6446 1.0256,11.71764 0.4219,18.56445 -0.4639,5.26156 -0.843,10.53129 -1.2598,15.796884 -0.1347,1.87372 -0.2653,3.74743 -0.4003,5.62109 6.2052,0.899 12.3155,2.26661 18.0214,5.01954 5.0806,2.45121 6.8627,4.02893 11.1329,7.18359 4.8215,3.95346 9.5273,8.14549 13.2812,13.16016 0.8241,1.10078 1.5607,2.26277 2.3418,3.39453 4.1334,7.04939 5.9632,13.27266 6.2578,21.42968 0.1369,3.78835 -0.5778,7.54258 -1.1289,11.26758 -0.8546,6.59231 -1.8062,13.16707 -3.0195,19.70313 -1.5905,8.60328 -2.7573,17.27981 -4.168,25.91406 -2.1202,12.17953 -4.9733,24.21214 -7.0488,36.39844 -2.0876,13.21012 -3.7092,26.48731 -5.4492,39.74609 -1.6979,12.0479 -2.6318,24.18349 -3.4317,36.31836 -0.6029,9.34333 -0.936,18.69915 -1.1445,28.05859 -0.1799,8.98673 -0.2043,17.97668 -0.2363,26.96485 -0.047,8.93681 0.2132,17.87152 0.3554,26.80664 0.1684,10.88064 0.2033,21.76284 0.2403,32.64453 0.1083,12.7797 -0.01,25.55775 -0.1914,38.33594 -0.052,3.31609 -0.069,6.63283 -0.1114,9.94922 22.1069,2.6786 43.4391,24.35988 46.7735,67.33398 0.174,2.24192 0.3972,2.23576 1.2832,4.72656 0.7584,2.00783 1.3764,4.06642 2.1504,6.06836 0.4633,1.19817 -0.2708,-0.86177 -0.3985,-1.11914 -0.7364,-1.48387 -1.5029,-2.95316 -2.2539,-4.42969 -1.4416,-2.07241 -2.8826,-4.14436 -4.3242,-6.21679 -36.3607,-52.27261 -34.4563,22.41941 -43.5703,60.83789 0,7.30789 0,14.6158 0,21.92383 v 48.86132 c -0.02,3.85532 -0.042,7.71108 -0.062,11.56641 12.0293,6.89089 21.6459,23.07337 21.9765,48.63672 0.077,5.96977 -0.3592,11.9287 -0.5937,17.89062 -0.2868,14.71795 -0.8655,29.42639 -1.291,44.14063 -0.4466,16.88479 -0.608,33.77643 -0.7422,50.66601 -0.1049,17.87382 -0.1945,35.74714 -0.1055,53.6211 -0.018,23.39716 0.9833,46.77716 1.7071,70.15816 0.5437,21.95927 1.1592,43.91507 1.6718,65.87507 0.3028,15.759 0.691,31.5168 1.291,47.2675 0.575,13.5497 0.9566,27.1033 1.2149,40.6621 0.1238,9.2188 0.352,18.4394 0.873,27.6446 0.4942,8.9133 1.6299,17.7724 2.209,26.6797 0.1717,2.6422 0.285,5.2856 0.4278,7.9296 0.7777,15.5027 0.2103,31.006 -0.9766,46.4668 -0.7018,7.1326 -1.2306,14.3301 -2.8027,21.3418 -1.1402,5.0852 -1.626,6.1677 -3.2071,10.8946 -1.0991,2.7368 -2.3508,5.4426 -3.6894,8.1015 h 665.0332 v -93.9375 c -11.1167,27.9528 -23.3236,51.2459 -39.7969,28.7246 -9.3867,2.8064 -16.1317,-3.5837 -17.3691,-28.8125 -0.1311,-2.6721 -0.2936,-5.3327 -0.2676,-8.0078 -0.029,-1.9806 -0.082,-3.9605 -0.1641,-5.9394 -0.8853,-4.0401 -1.63,-8.1099 -2.1367,-12.211 -0.7807,-1.8289 -1.5448,-3.4527 -2.541,-6.4004 -0.1725,-0.5104 0.375,1.0126 0.5625,1.5176 0.5358,1.2349 -0.3671,-0.8397 -0.6602,-1.6601 -1.4504,-4.0628 -2.8961,-8.2436 -3.6347,-12.5157 -1.9194,-8.9523 -3.453,-18.0163 -2.0762,-27.1992 0.6628,-4.9074 1.4787,-9.7968 2.6777,-14.6054 0.9753,-4.2779 2.1315,-8.5061 3.291,-12.7364 1.9374,-7.7528 4.1855,-15.4554 7.6914,-22.6679 2.2115,-4.6249 4.4341,-9.2543 6.8399,-13.7793 13.7392,-25.8414 30.9053,-41.1853 47.584,-47.9297 v -8.1563 c -28.6566,4.0699 -59.5112,-22.37077 -59.5059,-79.39644 10e-5,-3.03413 0,-6.06949 0,-9.10351 0,-5.16983 -4e-4,-10.33994 0.01,-15.50977 0.01,-5.36508 0.012,-10.73072 0.047,-16.0957 0.041,-4.17583 0.099,-8.35217 0.3554,-12.52149 0.347,-5.0423 0.8601,-10.07883 1.9356,-15.02539 0.044,-0.20768 0.1448,-0.83478 0.1308,-0.62304 -0.028,0.41234 -0.2348,1.63508 -0.1718,1.22656 0.4491,-2.92583 0.88,-5.85359 1.5,-8.75 0.09,-0.42134 0.074,-0.32607 0.084,-0.35742 0.16,-1.92759 0.3264,-3.85444 0.625,-5.76758 0.4089,-2.63514 0.8458,-5.24634 1.4063,-7.85352 0.6588,-4.99257 0.9498,-10.05257 2.0449,-14.99023 1.2075,-5.69448 2.5624,-11.37749 4.4844,-16.87891 11.6783,-33.42854 29.3953,-52.85521 47.0527,-60.10156 V 504.89941 c -0.7164,3.24256 -1.4461,6.48317 -2.1211,9.73437 -1.1159,5.4281 -1.9028,10.91483 -2.8828,16.36719 -1.0375,5.72341 -1.885,11.47558 -2.4941,17.25977 -0.4417,4.04621 -0.4754,8.13651 -1.2617,12.14257 -0.2432,1.23906 -0.5897,2.45406 -0.8848,3.68164 -12.4394,51.75168 -42.3226,-66.65605 -51.834,-14.2871 -0.067,0.36883 -0.1393,0.73764 -0.2012,1.10742 -0.037,0.30961 -0.03,0.62586 -0.08,0.93359 -0.035,0.21695 6e-4,-0.44046 0.027,-0.6582 0.013,-0.0924 0.037,-0.18339 0.053,-0.27539 0.332,-2.76436 0.262,-5.58893 0.7168,-8.33789 0.7617,-7.09512 1.7789,-14.1546 3.0586,-21.17578 1.0922,-5.91686 1.8928,-11.88764 3.1582,-17.77344 1.1484,-5.45469 2.3535,-10.89975 3.5606,-16.3418 1.6019,-7.05854 3.2963,-14.09968 4.6504,-21.21094 1.0761,-5.89848 1.674,-11.87308 1.8925,-17.86523 0.091,-8.75919 -0.5081,-17.49898 -1.2675,-26.22266 -0.8207,-8.61431 -1.8959,-17.20294 -2.6368,-25.82422 -0.3324,-5.01323 -0.4772,-10.03383 -0.6445,-15.05468 -0.2759,-5.87116 -0.7108,-11.72957 -1.3398,-17.57422 -0.6697,-6.87885 -1.6021,-13.73133 -2.1309,-20.62305 -0.511,-6.1104 -0.9627,-12.23708 -0.9297,-18.37305 v -13.52929 c -10e-5,-4.17243 3e-4,-8.34531 0,-12.51758 v -13.38477 c 0,-3.65849 8e-4,-7.316 -0.018,-10.97461 -0.013,-2.51144 -0.032,-5.02421 -0.088,-7.53515 -0.059,-2.41042 -0.1084,-4.82399 -0.3497,-7.22461 -0.2997,-2.92178 -0.7741,-5.82126 -1.25,-8.71875 -0.6099,-3.12059 -1.2479,-6.23443 -2.1191,-9.29492 -1.0804,-3.90845 -2.2436,-7.7914 -3.5684,-11.625 -1.8345,-5.93841 -3.369,-11.96181 -4.6738,-18.03907 -1.5294,-7.16202 -2.9174,-14.35417 -3.9824,-21.60156 -1.0645,-6.55506 -2.186,-13.1026 -3.1738,-19.66992 -0.5708,-4.04594 -1.0912,-8.0988 -1.4688,-12.16797 -2.6153,-28.15488 11.1498,-43.11812 25.4102,-43.01758 12.5827,0.0887 25.5514,11.9041 27.9883,36.73438 0.3548,3.61469 0.7621,7.22469 1.291,10.81836 0.9488,6.23607 2.0117,12.45369 3.0234,18.67968 0.9313,6.35728 2.1282,12.67163 3.4824,18.95118 0.9845,4.4907 2.0649,8.96099 3.4434,13.34765 1.5096,4.36518 2.8116,8.79633 4.0449,13.2461 1.2314,4.38846 2.1925,8.84168 3.0684,13.3125 0.7954,4.41351 1.4541,8.85086 1.9433,13.30859 0.3609,3.35219 0.4913,6.72132 0.586,10.08984 V -0.250983 Z M 813.52767,67.344724 c -2.64482,0.0735 -5.29251,0.16358 -7.92578,0.43554 -2.99418,0.3263 -5.97566,0.76899 -8.94922,1.24414 -2.84899,0.51895 -5.66568,1.203 -8.52734,1.6543 -3.97413,0.73604 -7.87228,1.82755 -11.8457,2.56836 -1.5423,0.245 -3.10286,0.34757 -4.64844,0.57031 1.50237,5.73217 2.45941,12.19702 2.70508,19.41992 0.1078,3.16796 -0.17173,6.35827 0.041,9.521486 0.0534,0.3397 -0.005,-0.3917 0.0664,-0.3125 0.44566,0.4924 1.08987,4.27363 1.25,4.95899 0.94779,3.61558 1.7909,7.25949 2.51758,10.92578 0.5396,3.14801 0.29818,1.61731 0.73632,4.59375 1.6571,11.25708 0.99761,20.77855 -1.03125,28.82617 2.54049,7.69583 3.94965,16.85468 3.375,27.83984 -0.26193,5.00719 -0.33745,10.02044 -0.40625,15.03321 -0.0922,7.70565 -0.12213,15.41303 -0.14843,23.11914 -0.007,4.44982 -0.11935,8.90021 0.20117,13.34179 0.32633,4.78496 0.76592,9.56039 1.11328,14.34375 0.13445,2.75843 0.53212,5.4928 0.83008,8.23633 0.12222,1.24322 0.16066,1.56694 0.25976,2.8086 0.0279,0.34975 -0.0697,-0.69689 -0.0937,-1.04688 -0.003,-0.0396 0.0213,0.076 0.0273,0.11524 0.0667,0.42407 0.1306,0.84847 0.1914,1.27343 0.068,0.47516 0.13062,0.95019 0.19532,1.42578 0.39865,2.93839 0.55291,5.90042 0.65625,8.86133 0.28702,4.79206 -0.2865,9.5403 -1.35938,14.20508 -0.33882,1.54396 -0.8744,3.02799 -1.36133,4.52734 -0.0728,0.38493 -0.15734,0.76702 -0.22851,1.15235 -0.22933,1.24151 -0.34692,2.59099 -0.53907,3.85742 -0.22362,1.43008 -0.39477,2.86605 -0.48437,4.31055 -0.0714,1.20444 -0.096,2.41108 -0.11328,3.61718 -0.0341,3.50697 -0.0285,7.01439 -0.0312,10.52149 0.12024,7.35174 -0.0951,14.68648 -0.61133,22.01953 -0.74835,8.86475 -1.43209,17.73438 -2.07227,26.60742 -0.5912,7.17645 -0.86436,14.37307 -1.30859,21.5586 -0.34111,4.19722 -0.59486,8.39689 -0.72656,12.60546 -0.0952,2.43585 -0.0403,4.87125 -0.0332,7.30665 1.41738,-2.88559 3.34943,-5.49626 5.02343,-8.24415 3.82954,-3.25222 7.14144,-7.23654 11.48828,-9.75585 7.19601,-4.17069 15.315,-5.34636 23.4043,-4.52149 3.00698,0.30662 6.06785,0.85808 8.81836,2.11133 0.68763,0.31332 1.00872,0.50318 1.61523,0.78711 -0.67387,-10.69733 -1.45063,-21.38909 -2.52539,-32.05469 -0.72744,-7.02762 -1.42593,-14.05985 -2.35351,-21.06445 -1.02291,-7.45253 -1.96584,-14.91871 -2.69531,-22.40625 -0.868,-9.10598 -1.40626,-18.23599 -1.23047,-27.38867 0.0238,-7.81457 0.0594,-15.62954 0.17187,-23.44336 0.15495,-9.55896 0.32193,-19.12655 1.05664,-28.66211 1.02102,-11.06505 2.47415,-22.08274 3.77539,-33.11719 1.7125,-14.70132 3.57516,-29.38372 5.48438,-44.06055 -0.0494,-6.94439 -0.0877,-13.89034 -0.3711,-20.83008 -0.21007,-4.28817 -0.38959,-8.60363 -1.20898,-12.82812 -0.79003,-3.79519 -1.65103,-7.57573 -3.02148,-11.21094 -2.13414,-6.174156 -4.26556,-12.363106 -5.75391,-18.732416 -1.85199,-7.92551 -2.25576,-13.24699 -1.53711,-16.58204 -0.62047,-0.0134 -1.2408,-0.0315 -1.86133,-0.043 z m 81.59571,0.25586 c 0.27752,1.75567 0.67913,3.35637 0.87109,5.21484 0.494,4.78284 0.86791,9.57605 1.26953,14.36719 1.18966,-1.33895 2.36543,-2.68849 3.63477,-3.96094 1.56388,-1.69354 3.56492,-2.89716 5.25,-4.44922 0.18282,-0.16838 -0.74661,0.64755 -0.5918,0.45313 0.26897,-0.33782 0.61717,-0.60323 0.93945,-0.89063 0.85252,-0.76027 1.72307,-1.50125 2.58399,-2.25195 3.19548,-2.60853 6.75458,-4.82666 10.54298,-6.50782 -1.735,-0.17802 -3.4703,-0.35312 -5.207,-0.51953 -2.5355,-0.27737 -5.06786,-0.6106 -7.61723,-0.73632 -2.20349,-0.16571 -4.39961,-0.35056 -6.60938,-0.43555 -1.68823,-0.10885 -3.37758,-0.19096 -5.0664,-0.2832 z m 91.06831,1.26171 c -4.3388,0.027 -8.6794,0.0447 -13.0175,0.15039 -3.6714,0.1175 -7.3367,0.33277 -11.0078,0.45704 -2.9308,0.0505 -5.8614,0.13805 -8.7911,0.24218 3.6391,1.49183 7.1377,3.28727 10.3789,5.78321 3.5552,2.73739 4.9149,4.55422 7.5118,7.61718 1.9546,2.30852 3.6478,4.82302 5.5117,7.19922 2.5551,2.98831 4.8349,6.2081 7.0234,9.47071 3.4254,5.265106 6.0317,10.957296 8.3653,16.765626 0.4236,-0.89911 0.8868,-1.77466 1.5019,-2.54688 2.988,-3.75079 5.3536,-8.6082 9.70701,-10.61914 8.205,-3.789996 17.5306,-4.339266 26.3633,-6.314456 0.4388,-5.65838 0.8302,-11.32184 1.3984,-16.96875 0.2915,-2.89682 0.8406,-5.45721 1.3379,-8.08594 -3.9534,-0.21764 -7.9057,-0.45418 -11.8554,-0.74023 -3.0773,-0.25963 -6.1549,-0.51661 -9.2344,-0.75195 -4.9732,-0.31364 -9.9379,-0.73572 -14.89841,-1.20899 -3.4258,-0.30927 -6.8505,-0.6014 -10.295,-0.44922 z m -34.4316,62.869146 c -0.18,0.27264 -0.3577,0.5465 -0.5332,0.82226 0.01,-0.004 0.014,-0.0119 0.019,-0.0156 0.1957,-0.31159 0.5433,-0.84771 0.5137,-0.80664 z m -170.45507,154.4082 c -0.10234,0.31922 -0.1933,0.64171 -0.28907,0.96289 -0.0794,0.26613 0.16855,-0.52882 0.24805,-0.79492 0.0138,-0.056 0.0209,-0.0796 0.041,-0.16797 z m -109.80664,18.40821 c 0.25479,0.0546 0.51517,0.0727 0.77148,0.11718 -0.0209,-0.006 -0.0436,-0.0115 -0.0645,-0.0176 -0.23574,-0.0331 -0.9398,-0.1495 -0.70703,-0.0996 z m 17.30664,7.86718 c -4.93131,4.77459 -1.27605,10.97636 5.64648,17.64063 -0.30872,-4.01104 -0.98368,-7.95901 -2.19727,-11.78125 -0.75691,-2.38401 -1.95958,-4.29217 -3.44921,-5.85938 z M 4.8265,361.37402 c 0.02008,0.0597 0.03409,0.12003 0.05469,0.17968 0.06365,0.15368 0.124275,0.30876 0.191406,0.46094 0.05341,0.12108 0.222759,0.47875 0.169922,0.35742 -0.143973,-0.33057 -0.273925,-0.6666 -0.416016,-0.99804 z M 1026.637,758.2412 c -0.126,0.73813 -0.2538,1.47624 -0.3769,2.21485 -0.1577,0.94611 -0.409,1.882 -0.459,2.83984 -0.099,1.90665 -9e-4,3.81929 0.01,5.72852 0.036,5.97339 0.1885,11.94318 0.4238,17.91211 0.1244,2.68838 0.3323,5.37097 0.4902,8.05664 1.2101,-0.69588 2.4556,-1.33616 3.7305,-1.93164 -0.2344,-2.00003 -0.5454,-3.98966 -0.7617,-5.99219 -1.0784,-9.6023 -2.0886,-19.21364 -3.0567,-28.82813 z m -43.15621,37.8711 c 0,-0.003 -0.014,0.011 -0.014,0.0117 0,-0.003 0.01,-0.007 0.014,-0.01 z m -0.014,0.0117 c -0.049,0.0312 -0.097,0.0604 -0.1464,0.0918 0.022,-0.0103 0.045,-0.0208 0.066,-0.0312 0.03,-0.0145 0.079,-0.0564 0.08,-0.0605 z m 770.94921,37.38476 c 0.1334,-0.62004 -0.1185,1.26467 -0.2421,1.88672 -0.11,0.55379 0.1457,-1.11979 0.2187,-1.67969 0.01,-0.0687 0.014,-0.13827 0.023,-0.20703 z m -2.0898,14.30469 c -0.032,0.25987 -0.052,0.37037 -0.086,0.72461 -0.025,0.24847 -0.061,0.99669 -0.039,0.74805 0.044,-0.49064 0.084,-0.98167 0.125,-1.47266 z m -732.6094,75.14844 c -0.1532,0.0646 -0.322,0.13199 -0.4824,0.19531 0.1526,0.12917 0.3194,0.24029 0.4707,0.37109 0,-0.18882 0.01,-0.37758 0.012,-0.5664 z m -39.78901,2.75 c -0.2845,0.01 -0.5691,0.0195 -0.8535,0.0293 -0.065,0.0235 -0.2591,0.0483 -0.1934,0.0684 0.1424,0.0437 0.2999,0.0313 0.4473,0.01 0.2008,-0.0301 0.3982,-0.0787 0.5996,-0.10742 z m 15.6582,2.50976 c -0.03,0.19214 -0.077,0.38173 -0.1055,0.57424 -0.047,0.3186 -0.3718,0.7934 -0.098,0.9609 0.2658,0.1619 0.1354,-0.6104 0.1679,-0.9199 0.021,-0.2044 0.025,-0.40992 0.035,-0.61524 z m -21.6895,49.01364 v 0 c 0.2611,0.2285 0.5017,0.4797 0.7891,0.666 0.059,0.038 -0.1032,-0.095 -0.1484,-0.1484 -0.023,-0.027 0.047,-0.083 0.019,-0.1055 -0.1615,-0.1303 -0.3463,-0.2295 -0.5195,-0.3438 -0.044,-0.029 -0.096,-0.042 -0.1407,-0.07 z m -74.08787,38.95901 c -1.15735,0.8718 -2.34599,1.6681 -3.58594,2.3692 0.203,0.2639 0.37928,0.546 0.58399,0.8086 1.22691,1.5555 2.6104,2.979 3.87305,4.5039 -0.31388,-2.5579 -0.60822,-5.1181 -0.8711,-7.6817 z m -9.58789,17.1875 c 0.0275,0.01 0.0545,0.014 0.082,0.024 0.63242,0.097 0.33399,0.016 0.125,-0.024 z m -99.64648,16.6641 c 0.003,1.9517 0.0112,3.9036 0.0137,5.8555 -0.11148,6.4505 -0.32449,12.8997 -0.46484,19.3496 -0.0852,3.6834 -0.11586,7.3663 -0.14649,11.0508 4.26025,-0.2154 8.52308,-0.3833 12.77734,-0.5333 5.22765,-0.1948 10.4543,-0.1364 15.67774,0.051 -0.71164,-0.4786 -1.48536,-0.8487 -2.17383,-1.3672 -1.11201,-0.8706 -2.24771,-1.7112 -3.33594,-2.6113 -3.29125,-2.7226 -6.04323,-6.0289 -8.67187,-9.373 -1.76683,-2.4414 -3.44319,-4.9402 -4.98047,-7.5332 -1.9062,-2.9897 -3.81843,-5.9781 -5.67578,-8.9981 -1.09807,-1.9215 -2.06115,-3.905 -3.01953,-5.8906 z m -7.73438,98.7598 c 0.0312,-0.086 -0.0792,0.167 -0.11914,0.25 l -0.008,0.021 c 0.037,-0.097 0.0912,-0.1723 0.12695,-0.2714 z m 28.74219,7.5625 c -2.11898,-0.023 -4.23751,-0.01 -6.35742,0.066 -8.23477,0.285 -16.52436,0.449 -24.6836,1.6757 -0.0881,0.495 -0.15296,1.02 -0.26171,1.4961 -1.13784,7.7933 -1.93543,15.6192 -2.31446,23.4903 -0.43447,8.2168 -0.5805,16.4199 -0.0391,24.6406 0.37534,9.3766 0.8363,18.7468 1.4082,28.1133 -0.0409,3.2074 -0.0309,5.6698 -0.37109,8.289 11.38974,2.4128 22.77005,4.867 34.1582,7.2891 -1.00799,-2.2994 -1.9306,-4.639 -2.66015,-7.0586 -0.37771,-1.4991 -0.80405,-2.9856 -1.13282,-4.4961 -0.98681,-4.5338 -1.19919,-9.197 -1.5664,-13.8066 -0.21596,-5.6751 -0.14922,-11.3513 -0.0762,-17.0293 0.0973,-8.3513 0.18242,-16.7084 0.72656,-25.0449 0.78146,-9.3941 2.00393,-18.8072 5.54492,-27.5586 -0.79168,-0.019 -1.58314,-0.058 -2.375,-0.066 z m 117.73243,12.3007 c -2.0583,0.9449 -4.1157,1.8986 -6.1836,2.8008 -2.4348,1.062 -4.8906,2.0735 -7.3359,3.1113 -10.47146,4.3108 -21.50335,6.9602 -32.18363,10.6543 -1.91205,0.6613 -3.17529,1.1977 -4.48438,1.7071 -0.0544,0.5947 -0.10265,1.0214 -0.23047,2.7168 -0.36303,6.7269 -0.42806,13.4665 -0.50586,20.2011 -0.001,0.2565 -0.006,0.5131 -0.008,0.7696 2.97963,-0.1143 5.95888,-0.232 8.94141,-0.2813 2.01593,-0.086 4.03575,-0.05 6.05468,-0.039 0.71469,-0.3692 1.4306,-0.738 2.16211,-1.0723 1.3054,-0.5967 2.62499,-1.1615 3.9375,-1.7422 6.11743,-2.4991 12.47675,-4.3116 18.83395,-6.0801 4.2719,-1.1038 8.5222,-2.2885 12.7754,-3.4609 -0.3785,-5.9342 -0.7607,-11.8678 -1.0976,-17.8047 -0.2418,-3.826 -0.4459,-7.6539 -0.6758,-11.4805 z m -54.81056,20.0664 c -0.77246,0.3236 -1.55403,0.6263 -2.29687,1.0118 -0.0646,0.034 0.10027,0.1656 0.16797,0.1386 0.64502,-0.2541 1.2797,-0.5543 1.85742,-0.9375 0.1,-0.066 0.17415,-0.1454 0.27148,-0.2129 z m 21.29688,21.4258 c -0.33889,0.033 -0.67487,0.091 -1.01172,0.1407 0.49858,0 0.99804,0.01 1.49609,-0.012 0.16667,-0.01 -0.31835,-0.1449 -0.48437,-0.1289 z m -125.15039,10.541 c 0.0161,0.038 0.0327,0.075 0.0488,0.1133 0.039,0.062 0.14748,0.2545 0.11718,0.1875 -0.0483,-0.107 -0.11626,-0.1954 -0.16601,-0.3008 z m 108.0625,5.5528 c 0.0197,0.2072 0.05,0.5412 0.0605,0.6347 0.0124,0.11 0.0564,0.4384 0.0664,0.3282 0.0161,-0.1853 -0.0163,-0.3733 -0.0469,-0.5567 -0.0227,-0.1362 -0.0543,-0.2706 -0.0801,-0.4062 z m 201.70898,30.8379 c -0.1914,0.2207 -0.4308,0.5612 -0.6367,0.8457 0.022,0.024 -0.106,0.4107 0.1172,0.2422 0.1657,-0.3666 0.38,-0.7119 0.5195,-1.0879 z m -0.7637,1.0136 c -0.2209,0.3144 -0.3742,0.4213 -0.6601,0.875 -0.03,0.047 0.1154,-0.031 0.1484,-0.076 0.1871,-0.2547 0.3331,-0.5393 0.5117,-0.7989 z m -145.75191,21.7696 c -0.024,0.1821 -0.067,0.3604 -0.084,0.5429 -0.016,0.171 -0.079,0.6346 0.041,0.5118 0.2325,-0.2378 0.158,-0.6356 0.043,-1.0547 z" />
    </clipPath>
  </defs>
  <sodipodi:namedview
     id="namedview6373"
     pagecolor="#ffffff"
     bordercolor="#000000"
     borderopacity="0.25"
     inkscape:showpageshadow="2"
     inkscape:pageopacity="0.0"
     inkscape:pagecheckerboard="0"
     inkscape:deskcolor="#d1d1d1"
     showgrid="false"
     inkscape:zoom="2"
     inkscape:cx="1001.75"
     inkscape:cy="855"
     inkscape:window-width="3840"
     inkscape:window-height="2054"
     inkscape:window-x="1909"
     inkscape:window-y="-11"
     inkscape:window-maximized="1"
     inkscape:current-layer="g6377"
     showguides="true">
    <sodipodi:guide
       position="776.17708,2437.4529"
       orientation="0,-1"
       id="guide7077"
       inkscape:locked="false" />
    <sodipodi:guide
       position="1837.6638,2028.3698"
       orientation="1,0"
       id="guide7079"
       inkscape:locked="false" />
    <sodipodi:guide
       position="1157.8611,1514.8501"
       orientation="0,-1"
       id="guide333"
       inkscape:locked="false" />
    <sodipodi:guide
       position="800.00001,1382.6628"
       orientation="0,-1"
       id="guide335"
       inkscape:locked="false" />
    <sodipodi:guide
       position="0.61109141,1956.0321"
       orientation="1,0"
       id="guide583"
       inkscape:locked="false" />
    <sodipodi:guide
       position="986.22254,2519.0608"
       orientation="0,-1"
       id="guide1297"
       inkscape:locked="false" />
    <sodipodi:guide
       position="1213,1158.6628"
       orientation="1,0"
       id="guide1481"
       inkscape:locked="false" />
    <sodipodi:guide
       position="410.00001,959.59474"
       orientation="0,-1"
       id="guide1534"
       inkscape:locked="false" />
    <sodipodi:guide
       position="14.142136,932.96672"
       orientation="0,-1"
       id="guide1536"
       inkscape:locked="false" />
    <sodipodi:guide
       position="644.88139,1226.4841"
       orientation="1,0"
       id="guide1538"
       inkscape:locked="false" />
    <sodipodi:guide
       position="676.00001,1275.5397"
       orientation="1,0"
       id="guide1540"
       inkscape:locked="false" />
    <sodipodi:guide
       position="665.38749,1213.7562"
       orientation="0,-1"
       id="guide1542"
       inkscape:locked="false" />
    <sodipodi:guide
       position="664.68039,1114.7612"
       orientation="0,-1"
       id="guide1544"
       inkscape:locked="false" />
    <sodipodi:guide
       position="666.0946,1093.548"
       orientation="0,-1"
       id="guide1546"
       inkscape:locked="false" />
    <sodipodi:guide
       position="1860,1062.5397"
       orientation="0,-1"
       id="guide1548"
       inkscape:locked="false" />
    <sodipodi:guide
       position="1721.805,1036.9795"
       orientation="0,-1"
       id="guide1550"
       inkscape:locked="false" />
    <sodipodi:guide
       position="1628,-17.460322"
       orientation="0,-1"
       id="guide1552"
       inkscape:locked="false" />
    <sodipodi:guide
       position="828.00001,1444.5397"
       orientation="1,0"
       id="guide1582"
       inkscape:locked="false" />
    <sodipodi:guide
       position="1019,1168.6628"
       orientation="1,0"
       id="guide1584"
       inkscape:locked="false" />
    <sodipodi:guide
       position="1053,1151.6628"
       orientation="1,0"
       id="guide1586"
       inkscape:locked="false" />
    <sodipodi:guide
       position="862.00001,1154.6628"
       orientation="1,0"
       id="guide1590"
       inkscape:locked="false" />
    <sodipodi:guide
       position="1245,1151.6628"
       orientation="1,0"
       id="guide1592"
       inkscape:locked="false" />
    <sodipodi:guide
       position="719.83472,785.18139"
       orientation="0,-1"
       id="guide1600"
       inkscape:locked="false" />
    <sodipodi:guide
       position="1711.1984,757.60424"
       orientation="0,-1"
       id="guide1602"
       inkscape:locked="false" />
    <sodipodi:guide
       position="818.82966,165.75585"
       orientation="0,-1"
       id="guide1604"
       inkscape:locked="false" />
    <sodipodi:guide
       position="1639.0735,110.60153"
       orientation="0,-1"
       id="guide1606"
       inkscape:locked="false" />
    <sodipodi:guide
       position="86.974135,572.34226"
       orientation="0,-1"
       id="guide1612"
       inkscape:locked="false" />
    <sodipodi:guide
       position="366.98843,602.04074"
       orientation="0,-1"
       id="guide1614"
       inkscape:locked="false" />
    <sodipodi:guide
       position="1204.2029,819.12252"
       orientation="0,-1"
       id="guide3076"
       inkscape:locked="false" />
    <sodipodi:guide
       position="1260.0643,842.45704"
       orientation="0,-1"
       id="guide3078"
       inkscape:locked="false" />
    <sodipodi:guide
       position="1292.5912,723.6631"
       orientation="0,-1"
       id="guide3082"
       inkscape:locked="false" />
    <sodipodi:guide
       position="39.59798,696.79305"
       orientation="0,-1"
       id="guide3084"
       inkscape:locked="false" />
    <sodipodi:guide
       position="802.5662,189.79749"
       orientation="0,-1"
       id="guide3090"
       inkscape:locked="false" />
    <sodipodi:guide
       position="1643.3162,136.05737"
       orientation="0,-1"
       id="guide3092"
       inkscape:locked="false" />
    <sodipodi:guide
       position="1136,393.03968"
       orientation="0,-1"
       id="guide3104"
       inkscape:locked="false" />
    <sodipodi:guide
       position="1136.5,417.03968"
       orientation="0,-1"
       id="guide3106"
       inkscape:locked="false" />
    <sodipodi:guide
       position="239.7092,529.20874"
       orientation="1,0"
       id="guide3110"
       inkscape:locked="false" />
    <sodipodi:guide
       position="212.83915,590.72703"
       orientation="1,0"
       id="guide3112"
       inkscape:locked="false" />
    <sodipodi:guide
       position="1821.5071,604.16206"
       orientation="1,0"
       id="guide3118"
       inkscape:locked="false" />
  </sodipodi:namedview>
  <g
     inkscape:groupmode="layer"
     inkscape:label="Image"
     id="g6377"
     transform="translate(89.556312,91.229124)">
    <path
       style="fill:#000000;stroke-width:16.9398;stroke-dasharray:none"
       d="m 844.8,1205.3333 v -84.2666 h -44.26667 -44.26666 v 83.7333 83.7333 H 744.53333 732.8 v -196.8 -196.79997 H 621.05037 509.30074 l -1.86471,5.25019 c -5.07806,14.2976 -21.88066,22.73264 -40.23603,20.19879 -14.00238,-1.93293 -25.77891,-11.06132 -29.50019,-22.8666 -1.00251,-3.18031 -2.17454,-5.78238 -2.60452,-5.78238 -0.42998,0 -29.26232,13.61135 -64.07187,30.24745 -34.80955,16.63609 -89.55156,42.79609 -121.64891,58.13333 C 217.27715,995.45135 190.51715,1008 189.90784,1008 189.15577,1008 188.8,989.84515 188.8,951.46667 v -56.53334 h -29.86667 -29.86666 v -89.6 -89.6 H 98.133333 67.2 V 705.6 695.46667 H 400 732.8 v -83.23904 -83.23904 l -111.58579,0.3057 -111.58579,0.30571 -2.07593,5.56561 c -5.47218,14.67106 -21.87063,22.96801 -40.35249,20.4167 -14.00238,-1.93293 -25.77891,-11.06132 -29.50019,-22.8666 -1.00251,-3.18031 -2.17454,-5.78238 -2.60452,-5.78238 -0.42998,0 -29.26232,13.61135 -64.07187,30.24745 -34.80955,16.63609 -89.55156,42.79609 -121.64891,58.13333 C 217.27715,630.65135 190.51715,643.2 189.90784,643.2 189.15577,643.2 188.8,625.04515 188.8,586.66667 v -56.53334 h -29.18835 -29.18834 l -0.67833,-4.94887 c -0.37307,-2.72189 -0.67831,-42.80189 -0.67831,-89.06667 V 352 H 98.133333 67.2 V 341.86667 331.73333 H 400 732.8 V 205.86667 80 h 11.73333 11.73334 V 268.26667 456.53333 H 800.53333 844.8 V 268.26667 80 h 11.73333 11.73334 V 268.26667 456.53333 H 901.33333 934.4 V 268.26667 80 h 11.73333 11.73334 v 48.53333 48.53334 h 46.40003 46.4 V 128.53333 80 h 11.7333 11.7333 v 48.44868 48.44869 l 71.7334,0.35131 c 39.4533,0.19323 83.2071,0.19183 97.2307,-0.003 l 25.4974,-0.35441 -0.621,-27.64559 -0.6211,-27.64559 h 105.4539 c 112.8507,0 110.565,-0.0963 127.1671,5.35878 10.8231,3.55627 27.484,12.36699 37.2604,19.70437 20.2139,15.17074 38.6002,39.34747 46.0491,60.55117 0.5805,1.65217 1.2805,1.40538 5.7555,-2.02879 9.2772,-7.1196 13.2669,-8.38553 26.428,-8.38553 10.952,0 12.195,0.22201 18.6666,3.33413 3.8134,1.83376 9.0509,5.17753 11.639,7.43061 5.7944,5.04427 12.112,14.63102 13.9368,21.14863 l 1.3681,4.88663 h 35.5948 35.5947 v 8.53334 8.53333 h -35.597 -35.5971 l -0.6481,4.05322 c -1.8462,11.54523 -13.1084,26.0727 -24.5432,31.65898 -14.4675,7.06784 -36.6726,3.95679 -48.9978,-6.86487 l -3.5952,-3.15665 -2.4501,6.088 c -15.1395,37.61793 -48.6964,67.08021 -87.6112,76.92095 -8.6741,2.1935 -10.7561,2.2337 -115.6691,2.2337 h -106.836 l -0.7656,-26.38245 c -0.4212,-14.51035 -1.0133,-26.63035 -1.316,-26.93333 -0.3027,-0.30299 -44.1906,-0.69217 -97.5287,-0.86487 l -96.9783,-0.31389 v 74.6142 74.6142 l 72.2667,0.36646 c 39.7467,0.20155 83.7405,0.20697 97.7641,0.0121 l 25.4973,-0.35441 -0.621,-27.64559 -0.621,-27.64559 h 105.4539 c 112.8506,0 110.565,-0.0963 127.167,5.35877 10.8232,3.55628 27.4841,12.367 37.2605,19.70437 20.2139,15.17075 38.6002,39.34747 46.0491,60.55117 0.5804,1.65217 1.2805,1.40539 5.7555,-2.02879 9.2772,-7.11959 13.2669,-8.38552 26.4279,-8.38552 10.952,0 12.195,0.222 18.6667,3.33412 3.8133,1.83376 9.0509,5.17754 11.6389,7.43061 5.7945,5.04427 12.112,14.63102 13.9369,21.14863 l 1.3681,4.88664 h 35.5948 35.5946 v 8.53333 8.53333 h -35.597 -35.597 l -0.6481,4.05322 c -1.8462,11.54524 -13.1085,26.0727 -24.5433,31.65899 -14.4675,7.06784 -36.6725,3.95679 -48.9977,-6.86488 l -3.5952,-3.15665 -2.4501,6.088 c -15.1396,37.61793 -48.6965,67.08021 -87.6112,76.92095 -8.6742,2.1935 -10.7561,2.23371 -115.6692,2.23371 h -106.8359 l -0.7657,-26.38246 c -0.4211,-14.51034 -1.0133,-26.63034 -1.3159,-26.93333 -0.3027,-0.30299 -44.4306,-0.69207 -98.0621,-0.86464 l -97.5116,-0.31377 v 116.84709 116.8471 h 97.2327 97.2327 l -0.623,-27.73334 -0.623,-27.73333 h 105.4539 c 112.8507,0 110.565,-0.0963 127.1671,5.35877 10.8231,3.55628 27.484,12.367 37.2604,19.70438 20.2139,15.17074 38.6002,39.34746 46.0491,60.55116 0.5805,1.65218 1.2805,1.40539 5.7555,-2.02878 9.2772,-7.1196 13.2669,-8.38553 26.428,-8.38553 10.952,0 12.195,0.22201 18.6666,3.33412 3.8134,1.83376 9.0509,5.17754 11.639,7.43062 5.7944,5.04426 12.112,14.63101 13.9368,21.14863 l 1.3681,4.88663 h 35.5948 35.5947 v 8.53333 8.53334 h -35.597 -35.5971 l -0.6481,4.05321 c -1.8462,11.54524 -13.1084,26.07271 -24.5432,31.65899 -14.4675,7.06784 -36.6726,3.95679 -48.9978,-6.86488 l -3.5952,-3.15665 -2.4501,6.088 c -15.1395,37.61793 -48.6964,67.08022 -87.6112,76.92092 -8.6741,2.1935 -10.7561,2.2337 -115.6691,2.2337 h -106.836 l -0.7656,-26.38241 c -0.4212,-14.51035 -1.0133,-26.63035 -1.316,-26.93334 -0.3027,-0.30298 -44.1906,-0.69217 -97.5287,-0.86486 l -96.9783,-0.314 v 76.75201 76.752 l 71.7334,0.362 c 39.4533,0.1991 83.2071,0.2025 97.2307,0.011 l 25.4974,-0.3544 -0.621,-27.6456 -0.6211,-27.6456 h 105.4539 c 112.8507,0 110.565,-0.096 127.1671,5.3588 10.8231,3.5563 27.484,12.367 37.2604,19.7044 20.2139,15.1708 38.6002,39.3475 46.0491,60.5511 0.5805,1.6522 1.2805,1.4055 5.7555,-2.0288 9.2772,-7.1195 13.2669,-8.3855 26.428,-8.3855 10.952,0 12.195,0.222 18.6666,3.3341 3.8134,1.8338 9.0509,5.1776 11.639,7.4306 5.7944,5.0443 12.112,14.6311 13.9368,21.1487 l 1.3681,4.8866 h 35.5948 35.5947 v 8.5334 8.5333 h -35.597 -35.5971 l -0.6481,4.0532 c -1.8462,11.5452 -13.1084,26.0728 -24.5432,31.659 -14.4675,7.0679 -36.6726,3.9568 -48.9978,-6.8648 l -3.5952,-3.1567 -2.4501,6.088 c -15.1395,37.6179 -48.6964,67.0802 -87.6112,76.9209 -8.6741,2.1935 -10.7561,2.2337 -115.6691,2.2337 h -106.836 l -0.7656,-26.3824 c -0.4212,-14.5104 -1.0133,-26.6304 -1.316,-26.9333 -0.3027,-0.303 -44.1906,-0.6923 -97.5287,-0.865 l -96.9783,-0.3139 v 27.2473 27.2473 H 1062.4 1050.6667 v -27.2 -27.2 h -46.4 -46.40003 v 27.7334 27.7333 H 946.13333 934.4 v -27.7333 -27.7334 h -33.06667 -33.06666 v 27.7334 27.7333 H 856.53333 844.8 v -84.2667 z m 639.4667,65.6917 c 33.2346,-6.6789 61.9443,-29.2614 77.4127,-60.8917 7.4689,-15.2727 9.5206,-24.2986 9.5206,-41.8833 0,-17.5643 -1.3626,-23.4701 -9.0407,-39.1833 -14.3849,-29.439 -42.5657,-52.5964 -74.6926,-61.3784 -8.3436,-2.2807 -10.6893,-2.3548 -105.457,-3.3313 -53.308,-0.5492 -97.026,-0.8543 -97.1512,-0.6778 -0.2566,0.3616 2.167,209.1433 2.4356,209.8259 0.095,0.2411 42.7726,0.1193 94.8392,-0.2706 74.8574,-0.5607 96.2292,-1.0231 102.1334,-2.2095 z M 1269.3313,1199.2 c 0,-10.4133 -0.3184,-32.2533 -0.705,-48.5333 l -0.7027,-29.6 h -96.8951 -96.8952 v 47.9936 47.9936 l 84.5334,0.2795 c 46.4933,0.1539 90.4133,0.3967 97.6,0.5398 l 13.0666,0.2601 V 1199.2 Z M 934.4,1169.0667 v -48 h -33.06667 -33.06666 v 48 48 H 901.33333 934.4 Z m 116.2667,0 v -48 h -46.4 -46.40003 v 48 48 h 46.40003 46.4 z m 578.8112,28.4824 c 4.877,-2.5434 11.7074,-10.7873 13.642,-16.4649 6.3171,-18.5398 -5.4335,-38.4004 -24.498,-41.4061 -9.3332,-1.4715 -20.7746,4.4953 -26.0722,13.597 -3.2124,5.5189 -3.286,5.9493 -2.9883,17.4806 0.2849,11.0344 0.5204,12.1702 3.5334,17.0385 4.1629,6.7262 10.8461,10.8977 19.2051,11.9877 7.2546,0.9458 12.3541,0.283 17.178,-2.2328 z M 844.8,999.46667 V 894.93333 H 800.53333 756.26667 V 999.46667 1104 H 800.53333 844.8 Z m 89.6,0 V 894.93333 H 901.33333 868.26667 V 999.46667 1104 H 901.33333 934.4 Z m 116.2667,0 V 894.93333 h -46.4 -46.40003 V 999.46667 1104 h 46.40003 46.4 z m 433.6,-12.17509 c 33.2346,-6.67875 61.9443,-29.26132 77.4127,-60.89158 7.4689,-15.27277 9.5206,-24.29866 9.5206,-41.88333 0,-17.56436 -1.3626,-23.47005 -9.0407,-39.18334 -14.3849,-29.43894 -42.5657,-52.59639 -74.6926,-61.37839 -8.3436,-2.28072 -10.6893,-2.35481 -105.457,-3.33125 -53.308,-0.54926 -97.026,-0.85428 -97.1512,-0.67783 -0.2566,0.36157 2.167,209.14331 2.4356,209.82587 0.095,0.24113 42.7726,0.11934 94.8392,-0.27063 74.8574,-0.56067 96.2292,-1.02302 102.1334,-2.20952 z M 306.4,932.78387 c 52.65333,-25.13078 95.71597,-45.96792 95.69475,-46.30477 -0.0554,-0.87848 -193.26279,-92.88391 -195.04671,-92.88129 -1.18239,0.002 -1.34553,1.33927 -0.8,6.55866 0.37691,3.60606 0.68529,45.62294 0.68529,93.37086 0,82.32461 0.0965,86.76615 1.86667,85.88164 1.02667,-0.51302 44.94667,-21.49431 97.6,-46.6251 z m 962.9313,-17.85054 c 0,-10.12 -0.3184,-31.72 -0.705,-48 l -0.7027,-29.6 h -96.8951 -96.8952 v 48 48 h 97.6 97.6 v -18.4 z m 360.1466,-1.11756 c 4.877,-2.54348 11.7074,-10.78726 13.642,-16.46495 6.3171,-18.53969 -5.4335,-38.40031 -24.498,-41.40609 -9.3332,-1.47149 -20.7746,4.49538 -26.0722,13.59699 -3.2124,5.51896 -3.286,5.94936 -2.9883,17.4807 0.2849,11.03436 0.5204,12.17011 3.5334,17.03847 4.1629,6.72615 10.8461,10.89778 19.2051,11.98759 7.2546,0.94582 12.3541,0.28301 17.178,-2.23271 z M 485.09252,900.07005 c 4.63993,-2.8466 6.94557,-7.61098 6.94557,-14.35229 0,-7.26985 -2.75984,-11.97844 -8.82184,-15.05109 -18.73147,-9.49441 -38.78094,11.2913 -25.19309,26.1182 6.06257,6.61542 19.06836,8.19382 27.06936,3.28518 z m -48.82585,-20.43302 c 0,-4.37723 6.30716,-15.37401 11.37752,-19.83712 7.27402,-6.40284 14.88929,-8.99526 26.48914,-9.01753 8.1411,-0.0156 10.52727,0.40879 15.7017,2.79277 7.44114,3.42831 14.96647,10.92935 17.42614,17.36992 l 1.82866,4.78826 H 620.94492 732.8 v -80 -80 H 441.6 150.4 V 796.26667 876.8 h 19.30286 19.30285 l -0.36952,-56.00021 c -0.24336,-36.8803 -0.005,-55.9911 0.69714,-55.97348 0.58667,0.0147 56.02667,26.3625 123.2,58.55063 67.17334,32.18813 122.49334,58.57619 122.93334,58.64014 0.44,0.0639 0.8,-1.00707 0.8,-2.38005 z M 844.8,795.73333 v -80 h -44.26667 -44.26666 v 80 80 H 800.53333 844.8 Z m 89.6,60.8 v -19.2 h -33.06667 -33.06666 v 19.2 19.2 H 901.33333 934.4 Z m 116.2667,0 v -19.2 h -46.4 -46.40003 v 19.2 19.2 h 46.40003 46.4 z M 934.4,674.66667 v -145.6 h -33.06667 -33.06666 v 145.6 145.6 H 901.33333 934.4 Z m 116.2667,-27.73334 V 473.6 h -46.4 -46.40003 v 173.33333 173.33334 h 46.40003 46.4 z M 844.8,612.26667 v -83.2 h -44.26667 -44.26666 v 83.2 83.2 H 800.53333 844.8 Z m 640.5333,11.29158 c 33.2347,-6.67875 61.9444,-29.26132 77.4127,-60.89158 7.4689,-15.27277 9.5207,-24.29866 9.5207,-41.88333 0,-17.56436 -1.3626,-23.47005 -9.0408,-39.18334 -14.3848,-29.43894 -42.5656,-52.59639 -74.6926,-61.37839 -8.3435,-2.28072 -10.6892,-2.35482 -105.4569,-3.33125 -53.3081,-0.54926 -97.0261,-0.85429 -97.1513,-0.67784 -0.2565,0.36158 2.1671,209.14332 2.4356,209.82588 0.095,0.24113 42.7726,0.11934 94.8393,-0.27063 74.8574,-0.56068 96.2291,-1.02302 102.1333,-2.20952 z M 306.4,567.98387 c 52.65333,-25.13078 95.71597,-45.96792 95.69475,-46.30477 -0.0554,-0.87848 -193.26279,-92.88391 -195.04671,-92.88129 -1.18239,0.002 -1.34553,1.33927 -0.8,6.55866 0.37691,3.60606 0.68529,45.62294 0.68529,93.37086 0,82.32461 0.0965,86.76615 1.86667,85.88164 1.02667,-0.51302 44.94667,-21.49431 97.6,-46.6251 z m 963.998,-16.25054 c 0,-10.41333 -0.3184,-32.25333 -0.705,-48.53333 l -0.7027,-29.6 h -97.4285 -97.4285 v 47.99361 47.99362 l 85.0667,0.27953 c 46.7867,0.15374 90.9467,0.39661 98.1333,0.53971 l 13.0667,0.2602 v -18.93334 z m 360.1465,-1.6509 c 4.877,-2.54348 11.7074,-10.78725 13.6421,-16.46495 6.3171,-18.53969 -5.4335,-38.40031 -24.4981,-41.40609 -9.3331,-1.47149 -20.7746,4.49538 -26.0722,13.59699 -3.2124,5.51897 -3.286,5.94937 -2.9882,17.48071 0.2849,11.03436 0.5204,12.17011 3.5334,17.03846 4.1629,6.72616 10.8461,10.89778 19.2051,11.9876 7.2545,0.94582 12.354,0.283 17.1779,-2.23272 z M 485.09252,535.27005 c 4.63993,-2.8466 6.94557,-7.61098 6.94557,-14.35229 0,-7.26985 -2.75984,-11.97844 -8.82184,-15.05109 -18.73147,-9.49441 -38.78094,11.2913 -25.19309,26.1182 6.06257,6.61542 19.06836,8.19382 27.06936,3.28518 z m -48.82585,-20.43302 c 0,-4.37723 6.30716,-15.37401 11.37752,-19.83712 7.27402,-6.40284 14.88929,-8.99526 26.48914,-9.01753 8.1105,-0.0156 10.53474,0.41227 15.62449,2.75743 7.27595,3.35246 14.25049,10.06877 17.06632,16.43441 l 2.07569,4.69245 H 620.84991 732.8 V 430.93333 352 H 441.6 150.4 v 80 80 h 19.30286 19.30285 l -0.36952,-56.00021 c -0.24336,-36.8803 -0.005,-55.9911 0.69714,-55.97348 0.58667,0.0147 56.02667,26.3625 123.2,58.55063 67.17334,32.18813 122.49334,58.57619 122.93334,58.64014 0.44,0.0639 0.8,-1.00707 0.8,-2.38005 z M 844.8,491.73333 V 473.6 h -44.26667 -44.26666 v 18.13333 18.13334 H 800.53333 844.8 Z m 89.6,0 V 473.6 h -33.06667 -33.06666 v 18.13333 18.13334 H 901.33333 934.4 Z M 1050.6667,324.8 V 193.06667 h -46.4 -46.40003 V 324.8 456.53333 h 46.40003 46.4 z m 433.6,19.29158 c 33.2346,-6.67875 61.9443,-29.26132 77.4127,-60.89158 7.4689,-15.27277 9.5206,-24.29866 9.5206,-41.88333 0,-17.56436 -1.3626,-23.47005 -9.0407,-39.18334 -14.3849,-29.43894 -42.5657,-52.59639 -74.6926,-61.37839 -8.3436,-2.28072 -10.6893,-2.35481 -105.457,-3.33125 -53.308,-0.54926 -97.026,-0.85428 -97.1512,-0.67783 -0.2566,0.36157 2.167,209.14331 2.4356,209.82587 0.095,0.24113 42.7726,0.11934 94.8392,-0.27063 74.8574,-0.56067 96.2292,-1.02302 102.1334,-2.20952 z M 1268.9022,242.95805 c -0.4202,-26.53308 -0.8856,-48.36365 -1.0344,-48.51239 -0.1487,-0.14872 -43.7997,-0.59863 -97.0024,-0.99979 l -96.7321,-0.72938 v 48.17509 48.17509 l 58.9334,0.14455 c 32.4133,0.0795 70.4533,0.4701 84.5333,0.86799 14.08,0.3979 31.5549,0.81284 38.8331,0.92211 L 1269.666,291.2 Z m 360.5757,27.65772 c 4.877,-2.54348 11.7074,-10.78726 13.642,-16.46495 6.3171,-18.53969 -5.4335,-38.40031 -24.498,-41.40609 -9.3332,-1.47149 -20.7746,4.49538 -26.0722,13.59699 -3.2124,5.51896 -3.286,5.94936 -2.9883,17.4807 0.2849,11.03436 0.5204,12.17011 3.5334,17.03847 4.1629,6.72615 10.8461,10.89778 19.2051,11.98759 7.2546,0.94582 12.3541,0.28301 17.178,-2.23271 z m 131.5888,896.31753 v -28.8 h 5.8666 5.8667 v 11.2 11.2 h 11.2 11.2 v -11.2 -11.2 h 6.4 6.4 v 28.8 28.8 h -6.4 -6.4 v -12.8 -12.8 h -11.2 -11.2 v 12.8 12.8 h -5.8667 -5.8666 z m 13.9808,-254.40384 c -6.321,-1.97097 -12.4414,-8.15581 -14.6494,-14.80328 -2.1731,-6.54276 -2.3872,-17.58303 -0.4731,-24.40357 1.795,-6.39627 8.2665,-13.86073 14.0088,-16.15834 6.1812,-2.47321 15.5222,-3.22356 22.3549,-1.79572 8.545,1.78565 8.8842,2.13907 6.8236,7.10948 -0.9551,2.30375 -1.8447,4.30724 -1.9768,4.45219 -0.1322,0.14496 -2.5199,-0.51316 -5.3061,-1.4625 -9.3616,-3.1898 -18.7666,-0.14635 -22.629,7.32267 -2.2932,4.43458 -3.0487,14.1829 -1.5333,19.78471 2.4339,8.9974 10.045,13.70074 18.6685,11.53639 2.5495,-0.6399 2.7311,-1.10961 2.7311,-7.06514 v -6.37968 h -5.3334 -5.3333 v -4.8 -4.8 h 11.2293 11.2293 l -0.2959,15.2 -0.296,15.2 -5.8667,1.23047 c -7.9564,1.66879 -17.6871,1.59891 -23.3525,-0.16768 z M 7.4666667,702.81229 v -28.92105 l 14.6666663,0.44433 c 16.294533,0.49366 22.115125,2.33108 24.589802,7.76239 2.971489,6.52172 0.649979,15.05389 -4.767628,17.52232 l -3.004483,1.36893 3.320965,1.39636 c 5.017701,2.10978 6.794678,5.41649 6.794678,12.64392 0,5.85078 -0.279901,6.56806 -4.024049,10.31221 -5.220893,5.22089 -9.760403,6.37843 -25.042618,6.38568 l -12.5333333,0.006 z m 26.5452843,17.45438 c 1.23656,-1.02667 2.543373,-3.39485 2.904028,-5.26263 0.528933,-2.73926 0.126391,-3.92531 -2.081636,-6.13333 -2.334988,-2.33499 -3.685278,-2.73738 -9.185858,-2.73738 H 19.2 v 8 8 h 6.28183 c 4.415094,0 6.949943,-0.55471 8.530121,-1.86666 z m -1.182624,-25.39382 c 3.177154,-2.22536 3.177154,-7.25367 0,-9.47904 -1.418622,-0.99364 -4.631385,-1.66048 -8,-1.66048 H 19.2 v 6.4 6.4 h 5.629327 c 3.368615,0 6.581378,-0.66683 8,-1.66048 z M 1762.1333,516.26667 v -28.8 h 16 16 v 4.8 4.8 H 1784 1773.8667 v 8 8 h 9.6 9.6 v 4.8 4.8 h -9.6 -9.6 v 11.2 11.2 H 1768 1762.1333 Z M 7.0733673,344.85019 C 10.933588,333.82258 15.403302,320.96 17.006065,316.26667 l 2.914114,-8.53334 7.542415,-0.31142 7.542416,-0.31144 1.183816,3.587 c 0.651098,1.97286 5.19084,14.95299 10.088314,28.84477 L 55.181638,364.8 H 48.644164 42.10669 l -1.985618,-6.93333 -1.985619,-6.93334 H 27.63922 17.142988 l -1.95918,6.66667 -1.95918,6.66667 -6.5849222,0.31685 -6.58492221,0.31685 z m 27.7448497,-5.10656 c -0.335515,-0.87434 -1.877801,-5.79434 -3.427302,-10.93334 -1.549502,-5.13899 -3.155404,-9.70868 -3.568673,-10.15487 -0.413268,-0.44618 -2.104048,3.87382 -3.757287,9.6 -1.65324,5.72619 -3.235535,11.01125 -3.51621,11.74458 -0.379147,0.99061 1.467602,1.33333 7.184588,1.33333 6.379537,0 7.590632,-0.27174 7.084884,-1.5897 z M 1761.0667,236.8 V 208 h 16.5333 16.5333 v 4.8 4.8 H 1783.4667 1772.8 v 6.4 6.4 h 9.6 9.6 v 4.8 4.8 h -9.6 -9.6 v 8 8 h 10.6667 10.6666 v 4.8 4.8 H 1777.6 1761.0667 Z M 931.79501,59.208403 c -8.91569,-3.176072 -13.62497,-9.646975 -15.52737,-21.335804 -3.3467,-20.562855 7.84495,-36.5878353 25.67209,-36.7591133 3.95516,-0.038 15.5118,2.485854 16.77158,3.6627432 0.25313,0.2364844 -2.83241,8.9177261 -3.51993,9.9033751 -0.10727,0.153783 -2.49988,-0.73994 -5.31692,-1.986049 -13.39624,-5.9257972 -22.99409,3.401302 -21.59773,20.988502 1.21641,15.320908 7.87862,19.985603 22.95748,16.074196 L 956.8,48.312506 v 5.088692 5.088692 l -5.38583,1.155055 c -7.21366,1.547053 -14.50644,1.384783 -19.61916,-0.436542 z M 834.13333,30.812286 V 1.8912387 L 848.8,2.3355731 c 16.29453,0.4936514 22.11513,2.3310688 24.5898,7.7623939 2.97149,6.521708 0.64998,15.053878 -4.76762,17.522305 l -3.00448,1.368934 3.32096,1.396361 c 5.01769,2.109784 6.79467,5.416487 6.79467,12.64393 0,5.850765 -0.2799,6.568051 -4.02405,10.312199 -5.22089,5.220893 -9.76039,6.378435 -25.04261,6.385689 l -12.53334,0.0059 z m 26.54528,17.454381 c 1.23657,-1.026667 2.54338,-3.394848 2.90404,-5.262626 0.52893,-2.739258 0.12638,-3.925307 -2.08164,-6.133334 -2.33499,-2.334989 -3.68528,-2.737374 -9.18586,-2.737374 h -6.44848 v 8 8 h 6.28183 c 4.41509,0 6.94994,-0.554707 8.53011,-1.866666 z m -1.18262,-25.393818 c 1.51878,-1.063794 2.37068,-2.766925 2.37068,-4.739516 0,-4.285056 -3.4271,-6.4 -10.37068,-6.4 h -5.62932 v 6.4 6.4 h 5.62932 c 3.36862,0 6.58139,-0.666842 8,-1.660484 z M 724.94003,37.650188 C 728.80026,26.622585 733.26997,13.76 734.87274,9.0666667 l 2.91411,-8.53333337 7.54241,-0.311429 7.54242,-0.31142901 1.18381,3.58699718 c 0.6511,1.9728485 5.19085,14.9529915 10.08832,28.8447625 L 773.04831,57.6 h -6.53748 -6.53748 l -1.98562,-6.933333 -1.98561,-6.933334 H 745.50589 735.00965 L 733.05047,50.4 l -1.95917,6.666667 -6.58493,0.316854 -6.58492,0.316854 z m 27.74486,-5.106558 c -0.33552,-0.874337 -1.87781,-5.794337 -3.42731,-10.933333 -1.54949,-5.138997 -3.1554,-9.708691 -3.56867,-10.154874 -0.41327,-0.446185 -2.10405,3.873815 -3.75729,9.6 -1.65324,5.726183 -3.23553,11.011244 -3.51621,11.744577 -0.37914,0.990609 1.4676,1.333333 7.18459,1.333333 6.37954,0 7.59063,-0.271745 7.08489,-1.589703 z M 1040,28.783556 V -0.25225195 l 13.6,0.47434218 c 14.7889,0.51581023 19.7603,1.90552137 25.1644,7.03449417 9.9599,9.4529966 10.8651,30.7537426 1.7482,41.1373026 -5.4726,6.233027 -12.4322,8.515749 -27.4459,9.002154 L 1040,57.819364 Z m 27.481,16.404853 c 4.6588,-3.415606 6.6488,-8.48381 6.6506,-16.938384 C 1074.1345,15.479307 1068.8442,9.6 1057.35,9.6 h -5.6167 v 19.328204 19.328203 l 6.4144,-0.463971 c 4.1516,-0.300302 7.444,-1.21889 9.3333,-2.604027 z"
       id="path6498"
       clip-path="url(#clipPath3240)" />
    <text
       xml:space="preserve"
       style="font-style:normal;font-variant:normal;font-weight:bold;font-stretch:normal;font-size:144px;font-family:sans-serif;-inkscape-font-specification:'sans-serif Bold';display:inline;fill:#000000;stroke:#000000;stroke-width:0;stroke-dasharray:none"
       x="-98.516312"
       y="363.75275"
       id="text304"><tspan
         sodipodi:role="line"
         id="tspan302"
         style="font-size:144px;fill:#000000;stroke-width:0"
         x="-98.516312"
         y="363.75275">P<tspan
   style="font-size:65%;baseline-shift:sub"
   id="tspan581">0</tspan></tspan></text>
    <text
       xml:space="preserve"
       style="font-style:normal;font-variant:normal;font-weight:bold;font-stretch:normal;font-size:144px;font-family:sans-serif;-inkscape-font-specification:'sans-serif Bold';display:inline;fill:#000000;stroke:#000000;stroke-width:0;stroke-dasharray:none"
       x="499.59564"
       y="15.702278"
       id="text304-3"><tspan
         sodipodi:role="line"
         id="tspan302-2"
         style="font-size:144px;fill:#000000;stroke-width:0"
         x="499.59564"
         y="15.702278">P<tspan
   style="font-size:65%;baseline-shift:sub"
   id="tspan589">0</tspan></tspan></text>
    <text
       xml:space="preserve"
       style="font-style:normal;font-variant:normal;font-weight:bold;font-stretch:normal;font-size:144px;font-family:sans-serif;-inkscape-font-specification:'sans-serif Bold';display:inline;fill:#000000;stroke:#000000;stroke-width:0;stroke-dasharray:none"
       x="1742.0765"
       y="260.12909"
       id="text304-2-5"><tspan
         sodipodi:role="line"
         id="tspan302-9-6"
         style="font-size:144px;fill:#000000;stroke-width:0"
         x="1742.0765"
         y="260.12909">Q<tspan
   style="font-size:65%;baseline-shift:sub"
   id="tspan587">2</tspan></tspan></text>
    <text
       xml:space="preserve"
       style="font-style:normal;font-variant:normal;font-weight:bold;font-stretch:normal;font-size:144px;font-family:sans-serif;-inkscape-font-specification:'sans-serif Bold';display:inline;fill:#000000;stroke:#000000;stroke-width:0;stroke-dasharray:none"
       x="1742.3303"
       y="542.08679"
       id="text304-2-5-1"><tspan
         sodipodi:role="line"
         id="tspan302-9-6-7"
         style="font-size:144px;fill:#000000;stroke-width:0"
         x="1742.3303"
         y="542.08679">Q<tspan
   style="font-size:65%;baseline-shift:sub"
   id="tspan585">3</tspan></tspan></text>
    <text
       xml:space="preserve"
       style="font-style:normal;font-variant:normal;font-weight:bold;font-stretch:normal;font-size:144px;font-family:sans-serif;-inkscape-font-specification:'sans-serif Bold';display:inline;fill:#000000;stroke:#000000;stroke-width:0;stroke-dasharray:none"
       x="1741.0588"
       y="903.00995"
       id="text304-2-5-1-2"><tspan
         sodipodi:role="line"
         id="tspan302-9-6-7-6"
         style="font-size:144px;fill:#000000;stroke-width:0"
         x="1741.0588"
         y="903.00995">Q<tspan
   style="font-size:65%;baseline-shift:sub"
   id="tspan1487">4</tspan></tspan></text>
    <text
       xml:space="preserve"
       style="font-style:normal;font-variant:normal;font-weight:bold;font-stretch:normal;font-size:144px;font-family:sans-serif;-inkscape-font-specification:'sans-serif Bold';display:inline;fill:#000000;stroke:#000000;stroke-width:0;stroke-dasharray:none"
       x="1741.973"
       y="1189.4781"
       id="text304-2-5-1-2-8"><tspan
         sodipodi:role="line"
         id="tspan302-9-6-7-6-7"
         style="font-size:144px;fill:#000000;stroke-width:0"
         x="1741.973"
         y="1189.4781">Q<tspan
   style="font-size:65%;baseline-shift:sub"
   id="tspan1485">5</tspan></tspan></text>
    <text
       xml:space="preserve"
       style="font-style:normal;font-variant:normal;font-weight:bold;font-stretch:normal;font-size:144px;font-family:sans-serif;-inkscape-font-specification:'sans-serif Bold';display:inline;fill:#000000;stroke:#000000;stroke-width:0;stroke-dasharray:none"
       x="878.03522"
       y="17.351452"
       id="text304-2-7"><tspan
         sodipodi:role="line"
         id="tspan302-9-5"
         style="font-size:144px;fill:#000000;stroke-width:0"
         x="878.03522"
         y="17.351452">Q<tspan
   style="font-size:65%;baseline-shift:sub"
   id="tspan1483">0</tspan></tspan></text>
    <text
       xml:space="preserve"
       style="font-style:normal;font-variant:normal;font-weight:bold;font-stretch:normal;font-size:144px;font-family:sans-serif;-inkscape-font-specification:'sans-serif Bold';display:inline;fill:#000000;stroke:#000000;stroke-width:0;stroke-dasharray:none"
       x="1078.9177"
       y="17.170876"
       id="text304-2-7-5"><tspan
         sodipodi:role="line"
         id="tspan302-9-5-6"
         style="font-size:144px;fill:#000000;stroke-width:0"
         x="1078.9177"
         y="17.170876">Q<tspan
   style="font-size:65%;baseline-shift:sub"
   id="tspan3720">1</tspan></tspan></text>
    <text
       xml:space="preserve"
       style="font-style:normal;font-variant:normal;font-weight:bold;font-stretch:normal;font-size:144px;font-family:sans-serif;-inkscape-font-specification:'sans-serif Bold';display:inline;fill:#000000;stroke:#000000;stroke-width:0;stroke-dasharray:none"
       x="690.91162"
       y="15.654877"
       id="text304-0"><tspan
         sodipodi:role="line"
         id="tspan302-5"
         style="font-size:144px;fill:#000000;stroke-width:0"
         x="690.91162"
         y="15.654877">P<tspan
   style="font-size:65%;baseline-shift:sub"
   id="tspan1295">1</tspan></tspan></text>
    <text
       xml:space="preserve"
       style="font-style:normal;font-variant:normal;font-weight:bold;font-stretch:normal;font-size:144px;font-family:sans-serif;-inkscape-font-specification:'sans-serif Bold';display:inline;fill:#000000;stroke:#000000;stroke-width:0;stroke-dasharray:none"
       x="-97.895157"
       y="726.5473"
       id="text304-0-9"><tspan
         sodipodi:role="line"
         id="tspan302-5-1"
         style="font-size:144px;fill:#000000;stroke-width:0"
         x="-97.895157"
         y="726.5473">P<tspan
   style="font-size:65%;baseline-shift:sub"
   id="tspan537">1</tspan></tspan></text>
    <rect
       style="fill:#000000;fill-rule:evenodd"
       id="rect1554"
       width="27.577164"
       height="1211.9811"
       x="554.61792"
       y="77.915337" />
    <rect
       style="fill:#000000;fill-rule:evenodd"
       id="rect1580"
       width="487.90369"
       height="27.577164"
       x="67.421394"
       y="331.76669" />
    <rect
       style="fill:#000000;fill-rule:evenodd"
       id="rect1594"
       width="24.04163"
       height="1210.5668"
       x="748.88855"
       y="78.622444" />
    <rect
       style="fill:#000000;fill-rule:evenodd"
       id="rect1596"
       width="24.748737"
       height="1211.2739"
       x="940.15912"
       y="77.622444" />
    <rect
       style="fill:#000000;fill-rule:evenodd"
       id="rect1598"
       width="24.748737"
       height="1214.1023"
       x="1130.6171"
       y="78.208229" />
    <rect
       style="fill:#0000ff;fill-rule:evenodd"
       id="rect1608"
       width="1.4142135"
       height="21.213203"
       x="510.07022"
       y="873.41046" />
    <rect
       style="fill:#000000;fill-rule:evenodd;stroke-width:1.10801"
       id="rect1610"
       width="638.9306"
       height="25.455826"
       x="502.29208"
       y="874.11755" />
    <rect
       style="fill:#000000;fill-rule:evenodd"
       id="rect1616"
       width="647.70984"
       height="24.748747"
       x="67.421394"
       y="691.68402" />
    <rect
       style="fill:#000000;fill-rule:evenodd;stroke-width:1.08251"
       id="rect1618"
       width="443.30212"
       height="25.455845"
       x="505.12051"
       y="507.12915" />
    <rect
       style="fill:#000000;fill-rule:evenodd;stroke-width:0.776973"
       id="rect3072"
       width="144.70918"
       height="24.041626"
       x="1137.0364"
       y="178.20319" />
    <rect
       style="fill:#000000;fill-rule:evenodd;stroke-width:0.89867"
       id="rect3074"
       width="323.22244"
       height="25.455845"
       x="949.81598"
       y="283.68341" />
    <rect
       style="fill:#000000;fill-rule:evenodd"
       id="rect3080"
       width="701.44995"
       height="24.04163"
       x="574.41693"
       y="449.85352" />
    <rect
       style="fill:#000000;fill-rule:evenodd;stroke-width:0.742759"
       id="rect3086"
       width="135.36607"
       height="26.870073"
       x="1140.5009"
       y="569.35455" />
    <rect
       style="fill:#000000;fill-rule:evenodd;stroke-width:1.03178"
       id="rect3088"
       width="692.53821"
       height="28.991365"
       x="64.592972"
       y="690.97693" />
    <rect
       style="fill:#000000;fill-rule:evenodd;stroke-width:0.961093"
       id="rect3094"
       width="520.56415"
       height="24.748747"
       x="755.3028"
       y="932.80743" />
    <rect
       style="fill:#000000;fill-rule:evenodd;stroke-width:0.900245"
       id="rect3096"
       width="324.9295"
       height="26.870085"
       x="951.64441"
       y="810.47797" />
    <rect
       style="fill:#000000;fill-rule:evenodd"
       id="rect3098"
       width="713.47076"
       height="24.748737"
       x="560.27478"
       y="1101.8059" />
    <rect
       style="fill:#000000;fill-rule:evenodd;stroke-width:0.959245"
       id="rect3100"
       width="518.56421"
       height="26.162947"
       x="760.83826"
       y="1209.2863" />
    <rect
       style="fill:#000000;fill-rule:evenodd"
       id="rect3102"
       width="65.760933"
       height="26.870058"
       x="128.23259"
       y="505.71497" />
    <rect
       style="fill:#000000;fill-rule:evenodd"
       id="rect3108"
       width="69.296463"
       height="28.991379"
       x="127.52547"
       y="867.7536" />
    <rect
       style="fill:#000000;fill-rule:evenodd"
       id="rect3114"
       width="21.213203"
       height="187.3833"
       x="123.28283"
       y="345.90881" />
    <rect
       style="fill:#000000;fill-rule:evenodd"
       id="rect3116"
       width="20.506096"
       height="185.26198"
       x="123.28283"
       y="710.77594" />
    <rect
       style="fill:#000000;fill-rule:evenodd"
       id="rect3120"
       width="72.124893"
       height="26.162951"
       x="1660.533"
       y="229.23621" />
    <rect
       style="fill:#000000;fill-rule:evenodd"
       id="rect3122"
       width="79.903069"
       height="27.577164"
       x="1653.4619"
       y="507.12915" />
    <rect
       style="fill:#000000;fill-rule:evenodd"
       id="rect3124"
       width="76.367531"
       height="26.870058"
       x="1656.2904"
       y="871.28918" />
    <rect
       style="fill:#000000;fill-rule:evenodd"
       id="rect3126"
       width="75.660477"
       height="24.748734"
       x="1656.9974"
       y="1156.2532" />
    <rect
       style="fill:#000000;fill-rule:evenodd"
       id="rect3348"
       width="28"
       height="1208"
       x="743.44366"
       y="79.715813" />
    <rect
       style="fill:#000000;fill-rule:evenodd"
       id="rect3350"
       width="32"
       height="1212"
       x="930.44366"
       y="77.715813" />
    <rect
       style="fill:#000000;fill-rule:evenodd"
       id="rect3352"
       width="30"
       height="1208"
       x="1124.4437"
       y="80.715813" />
    <rect
       style="fill:#000000;fill-rule:evenodd"
       id="rect4150"
       width="33"
       height="1215"
       x="553.44366"
       y="76.770874" />
    <rect
       style="fill:#000000;fill-rule:evenodd"
       id="rect4152"
       width="34"
       height="1218"
       x="737.44366"
       y="77.770874" />
    <rect
       style="fill:#000000;fill-rule:evenodd"
       id="rect4263"
       width="32"
       height="1214"
       x="1122.4437"
       y="77.770874" />
  </g>
</svg>
