<?xml version="1.0" encoding="UTF-8" standalone="no"?>
<!-- Created with Inkscape (http://www.inkscape.org/) -->

<svg
   version="1.1"
   id="svg6371"
   width="1819.3881"
   height="1289.8555"
   viewBox="0 0 1819.3881 1289.8555"
   sodipodi:docname="TwoToFourDecoder_wPQ.svg"
   inkscape:version="1.2.2 (732a01da63, 2022-12-09)"
   xmlns:inkscape="http://www.inkscape.org/namespaces/inkscape"
   xmlns:sodipodi="http://sodipodi.sourceforge.net/DTD/sodipodi-0.dtd"
   xmlns="http://www.w3.org/2000/svg"
   xmlns:svg="http://www.w3.org/2000/svg">
  <defs
     id="defs6375">
    <clipPath
       clipPathUnits="userSpaceOnUse"
       id="clipPath7073">
      <path
         id="path7075"
         style="fill:#ff0000;fill-opacity:1;fill-rule:nonzero;stroke:none"
         d="M 0.0546875,-0.25195312 V 226.53906 c 8.0137609,5.1928 14.7814025,15.84596 17.0078125,32.45117 0.514116,3.83452 0.721592,7.70098 0.904297,11.5625 0.130996,3.08872 0.178489,6.17833 0.212891,9.26954 25.342467,-19.94864 54.509085,4.75015 32.763671,43.51562 -0.173641,0.30957 -0.354257,0.61365 -0.529297,0.92188 0.440869,1.66865 0.881208,3.33638 1.304688,5.00976 0.484446,2.33979 1.067391,4.65597 1.648438,6.97266 0.267343,1.33193 0.727118,3.26413 0.96289,4.18945 0.382145,0.93135 1.270326,3.28204 1.308594,3.38672 2.670645,8.19055 2.296009,15.59568 -1.378906,23.55859 -1.922197,4.16513 -3.919618,5.97006 -6.740235,8.93946 -4.450302,4.16336 -8.757245,6.66896 -14.58789,8.625 -2.465277,0.82704 -4.641837,1.06848 -7.177735,1.46679 -2.856447,0.45513 -5.765769,0.3372 -8.630859,0.64258 -3.167716,0.43264 -6.33892,0.4096 -9.5273439,0.3418 -2.8393459,-0.7954 -5.2946966,-1.36029 -7.5410156,-1.98828 v 227.53711 c 4.9398369,-12.11934 13.9937345,-18.20508 23.0644535,-18.20508 13.44156,0 26.884765,13.30701 26.884765,39.91992 v 11.71484 13.4961 9.06054 c 1.361931,5.28568 1.613654,11.60418 0.382813,18.80274 7.11e-4,0.0124 0.0032,0.0247 0.0039,0.0371 0.08929,1.68381 0.111346,3.36892 0.128906,5.05469 -0.0034,-0.27185 -0.01577,-0.54266 -0.0098,-0.81446 0.0016,-0.0681 0.01654,0.13533 0.02344,0.20313 0.02131,0.20939 0.04092,0.41934 0.06055,0.6289 0.01067,0.11389 -0.0045,-0.0281 0.0039,0.0645 0.0074,0.0213 0.01068,0.019 0.02344,0.0781 0.06245,0.35618 0.0722,0.71896 0.126953,1.07617 0.421955,1.04227 0.83745,2.09892 1.228515,3.20703 1.179865,3.34343 2.232003,6.72831 3.375,10.08399 0.08413,0.25106 0.167829,0.50284 0.251954,0.75391 0.174239,0.36418 0.325921,0.73059 0.392578,1.08593 0.02449,0.13055 -0.10171,-0.24439 -0.152344,-0.36718 -0.0802,-0.23936 -0.160032,-0.47939 -0.240234,-0.71875 -0.32626,-0.68191 -0.760927,-1.35078 -1.070313,-1.89844 -1.083409,-1.91781 -2.102452,-3.52326 -3.072265,-4.89063 0.05157,1.21471 0.110407,2.42948 0.126953,3.64453 0.0046,0.44767 0.0057,0.66978 0.0078,0.91602 0.0014,0.0144 0.0041,0.0286 0.0059,0.043 0.164629,1.3008 0.239534,2.60986 0.322266,3.91797 19.831372,32.31642 -9.376968,57.98404 -39.748047,33.375 -5.1021278,3.67947 -9.41792,2.51959 -11.644531,-11.4336 -0.16488174,-1.03323 -0.1552438,-0.98458 -0.22460938,-1.41015 -0.086437,-0.13599 -0.16649824,-0.27555 -0.25195312,-0.41211 V 1289.6035 H 1808 v -93.9394 c -11.1167,27.9535 -23.3236,51.2478 -39.7969,28.7265 -9.3867,2.8064 -16.1317,-3.5837 -17.3691,-28.8125 -0.1311,-2.6721 -0.2936,-5.3346 -0.2676,-8.0097 -0.029,-1.9806 -0.082,-3.9606 -0.1641,-5.9395 -0.8853,-4.0401 -1.63,-8.1079 -2.1367,-12.209 -0.7807,-1.8289 -1.5448,-3.4527 -2.541,-6.4004 -0.1725,-0.5104 0.375,1.0107 0.5625,1.5157 0.5358,1.2349 -0.367,-0.8398 -0.6601,-1.6602 -1.4511,-4.0628 -2.8962,-8.2435 -3.6348,-12.5156 -1.9194,-8.9526 -3.453,-18.0156 -2.0762,-27.1992 0.6628,-4.9074 1.4788,-9.7969 2.6778,-14.6055 0.9753,-4.2779 2.1315,-8.5041 3.291,-12.7344 1.9374,-7.7528 4.1852,-15.4555 7.6914,-22.668 2.2115,-4.6249 4.434,-9.2543 6.8398,-13.7793 13.7392,-25.8421 30.9053,-41.1872 47.584,-47.9316 v -8.1543 c -28.6566,4.0699 -59.5112,-22.37207 -59.5059,-79.39843 1e-4,-3.03416 0,-6.06939 0,-9.10351 0,-5.16983 -6e-4,-10.33994 0.01,-15.50977 0.01,-5.36518 0.01,-10.73062 0.045,-16.0957 0.041,-4.17583 0.099,-8.35217 0.3555,-12.52149 0.347,-5.0424 0.86,-10.07883 1.9355,-15.02539 0.044,-0.20768 0.1449,-0.83478 0.1309,-0.62304 -0.028,0.41234 -0.2349,1.63508 -0.1719,1.22656 0.4491,-2.92583 0.88,-5.85359 1.5,-8.75 0.09,-0.42134 0.074,-0.32607 0.084,-0.35742 0.16,-1.92759 0.3264,-3.85444 0.625,-5.76758 0.4089,-2.63514 0.8458,-5.24634 1.4063,-7.85352 0.6588,-4.99267 0.9498,-10.05247 2.0449,-14.99023 1.2075,-5.69448 2.5624,-11.37749 4.4844,-16.87891 11.679,-33.42894 29.3953,-52.85511 47.0527,-60.10156 V 504.89844 c -0.7164,3.24266 -1.4441,6.48307 -2.1191,9.73437 -1.1166,5.4281 -1.9048,10.91473 -2.8848,16.36719 -1.0375,5.72351 -1.8851,11.47558 -2.4942,17.25977 -0.4417,4.04631 -0.4754,8.13641 -1.2617,12.14257 -0.2432,1.23906 -0.5896,2.45396 -0.8847,3.68164 -12.4394,51.75218 -42.3226,-66.65655 -51.834,-14.2871 -0.067,0.36893 -0.1393,0.73764 -0.2012,1.10742 -0.037,0.30961 -0.03,0.62586 -0.08,0.93359 -0.035,0.21695 6e-4,-0.44046 0.029,-0.6582 0.013,-0.0924 0.035,-0.18339 0.051,-0.27539 0.332,-2.76436 0.262,-5.58883 0.7168,-8.33789 0.7617,-7.09512 1.7789,-14.15451 3.0586,-21.17579 1.0922,-5.91686 1.8941,-11.88753 3.1602,-17.77343 1.1484,-5.45469 2.3514,-10.89975 3.5585,-16.3418 1.6019,-7.05864 3.2963,-14.09968 4.6504,-21.21094 1.0761,-5.89858 1.6741,-11.87298 1.8926,-17.86523 0.091,-8.75929 -0.5082,-17.49888 -1.2676,-26.22266 -0.8207,-8.61441 -1.8958,-17.20294 -2.6367,-25.82422 -0.3324,-5.01333 -0.4772,-10.03373 -0.6445,-15.05468 -0.2759,-5.87116 -0.7109,-11.72947 -1.3399,-17.57422 -0.6697,-6.87885 -1.602,-13.73123 -2.1308,-20.62305 -0.511,-6.1105 -0.9627,-12.23708 -0.9297,-18.37305 v -13.52929 c -10e-5,-4.17243 3e-4,-8.34521 0,-12.51758 V 285.0957 c 0,-3.65859 0,-7.316 -0.016,-10.97461 -0.013,-2.51154 -0.032,-5.02414 -0.088,-7.53515 -0.059,-2.41042 -0.1083,-4.82399 -0.3496,-7.22461 -0.2997,-2.92178 -0.7741,-5.82126 -1.25,-8.71875 -0.6099,-3.12059 -1.248,-6.23433 -2.1192,-9.29492 -1.0804,-3.90845 -2.2435,-7.7913 -3.5683,-11.625 -1.8345,-5.93841 -3.3691,-11.96181 -4.6739,-18.03907 -1.5294,-7.16212 -2.9174,-14.35407 -3.9824,-21.60156 -1.0645,-6.55516 -2.186,-13.1025 -3.1738,-19.66992 -0.5708,-4.04594 -1.0912,-8.0988 -1.4688,-12.16797 -2.6153,-28.15518 11.1498,-43.11812 25.4102,-43.01758 12.5827,0.0887 25.5514,11.9039 27.9883,36.73438 0.3548,3.61479 0.7621,7.22469 1.291,10.81836 0.9488,6.23617 2.0117,12.45359 3.0234,18.67968 0.9313,6.35728 2.1283,12.67163 3.4825,18.95118 0.9845,4.4908 2.0648,8.96089 3.4433,13.34765 1.5096,4.36518 2.8116,8.79633 4.0449,13.2461 1.2314,4.38856 2.1925,8.84168 3.0684,13.3125 0.7954,4.41361 1.4542,8.85086 1.9434,13.30859 0.3609,3.35219 0.4912,6.72122 0.5859,10.08984 V -0.25195312 h -710.043 c 3.3276,4.97352432 4.8466,10.64784112 4.8145,16.14843712 0.5472,-0.01888 1.0933,-0.05833 1.6406,-0.07617 53.1979,-1.734213 54.9122,52.105389 1.7109,53.740235 -1.503,0.04619 -3.0066,0.09028 -4.5078,0.179687 -4.1476,0.337149 -8.2874,0.774752 -12.4414,1.029297 -4.3464,0.260779 -8.6974,0.375726 -13.0469,0.548828 -4.0718,0.272083 -8.1388,0.609613 -12.2031,0.978516 -4.7719,0.259958 -9.5461,0.308217 -14.3242,0.210937 -4.9067,-0.05724 -9.8165,-0.116826 -14.7187,-0.345703 -4.7563,-0.240326 -9.5079,-0.546608 -14.2579,-0.890625 -3.0773,-0.259639 -6.1548,-0.516612 -9.2343,-0.751953 -4.9732,-0.313642 -9.9379,-0.735709 -14.89847,-1.208984 -3.42584,-0.309276 -6.85049,-0.601416 -10.29492,-0.449219 -4.33914,0.02703 -8.67948,0.0447 -13.01758,0.150391 -3.67141,0.117491 -7.33662,0.332765 -11.00781,0.457031 -3.76102,0.06474 -7.5234,0.136137 -11.28125,0.310547 -3.57017,0.14356 -7.14012,0.184134 -10.71289,0.208984 -2.32961,0.03803 -4.65716,0.12016 -6.98438,0.232422 -3.42407,0.09053 -6.84345,-0.0078 -10.25586,-0.316406 -2.84349,-0.240105 -5.67533,-0.577453 -8.51562,-0.849609 -2.5355,-0.277374 -5.06779,-0.610597 -7.61719,-0.736329 -2.20356,-0.165708 -4.39961,-0.350547 -6.60938,-0.435547 -2.62283,-0.169115 -5.243,-0.372166 -7.87109,-0.441406 -2.90897,-0.140563 -5.81443,-0.349055 -8.72266,-0.49414 -3.15286,-0.161464 -6.30099,-0.378607 -9.44336,-0.685547 -1.3068,-0.142924 -2.07896,-0.147337 -3.61914,-0.123047 -1.94483,0.0039 -3.89114,0.0094 -5.83593,0.02344 -2.39067,0.01901 -4.78027,0.04431 -7.16993,0.121094 -2.26172,0.07786 -4.52578,0.156632 -6.78125,0.347656 -2.87524,0.369872 -5.7549,0.725771 -8.64453,0.960938 -3.22212,0.157784 -6.44463,0.165934 -9.66992,0.121094 -2.90333,-0.02399 -5.80633,-0.06523 -8.70898,-0.132813 -3.39859,-0.07668 -6.79639,-0.173588 -10.19532,-0.236328 -2.64485,0.0735 -5.29251,0.163585 -7.92578,0.435547 -2.99418,0.326301 -5.97566,0.76899 -8.94922,1.244141 -2.84902,0.518959 -5.66561,1.20299 -8.52734,1.654296 -3.97413,0.73604 -7.87225,1.827553 -11.8457,2.56836 -5.47251,0.869325 -10.96275,1.63912 -16.49414,2.021484 -5.73401,0.397569 -11.47484,0.728619 -17.22266,0.824219 -4.57105,0.173473 -9.14332,0.349359 -13.71875,0.318359 -5.54595,0.04216 -11.09273,0.06984 -16.63672,0.230469 -4.14894,0.160239 -8.29207,0.4183 -12.43945,0.611328 -1.41073,0.07842 -2.81391,0.192458 -4.19531,0.511719 -43.8373,10.131284 -58.73085,-26.176132 -30.90821,-44.628906 -4.07208,0.289943 -8.14297,0.600578 -12.22265,0.75 -12.15276,0.518083 -24.30771,0.61201 -36.47071,0.52539 C 584.32912,34.184776 571.50125,15.11187 577.48828,-0.25195312 Z M 4.8261719,361.37305 c 0.020083,0.0597 0.034088,0.12003 0.054687,0.17968 0.06365,0.15368 0.1242743,0.30876 0.1914062,0.46094 0.053409,0.12108 0.2227598,0.47875 0.1699219,0.35742 -0.1439742,-0.33057 -0.2739195,-0.6666 -0.4160151,-0.99804 z M 1754.416,833.50781 c 0.1334,-0.62004 -0.1186,1.26467 -0.2422,1.88672 -0.11,0.55379 0.1458,-1.11979 0.2188,-1.67969 0.01,-0.0687 0.014,-0.13827 0.023,-0.20703 z m -2.0898,14.30469 c -0.032,0.25987 -0.052,0.37037 -0.086,0.72461 -0.025,0.24847 -0.061,0.99669 -0.039,0.74805 0.044,-0.49064 0.084,-0.98167 0.125,-1.47266 z" />
    </clipPath>
  </defs>
  <sodipodi:namedview
     id="namedview6373"
     pagecolor="#ffffff"
     bordercolor="#000000"
     borderopacity="0.25"
     inkscape:showpageshadow="2"
     inkscape:pageopacity="0.0"
     inkscape:pagecheckerboard="0"
     inkscape:deskcolor="#d1d1d1"
     showgrid="false"
     inkscape:zoom="0.92994194"
     inkscape:cx="602.18813"
     inkscape:cy="657.03027"
     inkscape:window-width="3840"
     inkscape:window-height="2054"
     inkscape:window-x="1909"
     inkscape:window-y="-11"
     inkscape:window-maximized="1"
     inkscape:current-layer="g6377"
     showguides="true">
    <sodipodi:guide
       position="686.56597,1278.9583"
       orientation="0,-1"
       id="guide7077"
       inkscape:locked="false" />
    <sodipodi:guide
       position="1748.0527,869.87525"
       orientation="1,0"
       id="guide7079"
       inkscape:locked="false" />
  </sodipodi:namedview>
  <g
     inkscape:groupmode="layer"
     inkscape:label="Image"
     id="g6377"
     transform="translate(-0.05478359,0.25195312)">
    <path
       style="fill:#000000;stroke-width:1.06667"
       d="m 844.8,1205.3333 v -84.2666 h -44.26667 -44.26666 v 83.7333 83.7333 H 744.53333 732.8 v -196.8 -196.79997 H 621.05037 509.30074 l -1.86471,5.25019 c -5.07806,14.2976 -21.88066,22.73264 -40.23603,20.19879 -14.00238,-1.93293 -25.77891,-11.06132 -29.50019,-22.8666 -1.00251,-3.18031 -2.17454,-5.78238 -2.60452,-5.78238 -0.42998,0 -29.26232,13.61135 -64.07187,30.24745 -34.80955,16.63609 -89.55156,42.79609 -121.64891,58.13333 C 217.27715,995.45135 190.51715,1008 189.90784,1008 189.15577,1008 188.8,989.84515 188.8,951.46667 v -56.53334 h -29.86667 -29.86666 v -89.6 -89.6 H 98.133333 67.2 V 705.6 695.46667 H 400 732.8 v -83.23904 -83.23904 l -111.58579,0.3057 -111.58579,0.30571 -2.07593,5.56561 c -5.47218,14.67106 -21.87063,22.96801 -40.35249,20.4167 -14.00238,-1.93293 -25.77891,-11.06132 -29.50019,-22.8666 -1.00251,-3.18031 -2.17454,-5.78238 -2.60452,-5.78238 -0.42998,0 -29.26232,13.61135 -64.07187,30.24745 -34.80955,16.63609 -89.55156,42.79609 -121.64891,58.13333 C 217.27715,630.65135 190.51715,643.2 189.90784,643.2 189.15577,643.2 188.8,625.04515 188.8,586.66667 v -56.53334 h -29.18835 -29.18834 l -0.67833,-4.94887 c -0.37307,-2.72189 -0.67831,-42.80189 -0.67831,-89.06667 V 352 H 98.133333 67.2 V 341.86667 331.73333 H 400 732.8 V 205.86667 80 h 11.73333 11.73334 V 268.26667 456.53333 H 800.53333 844.8 V 268.26667 80 h 11.73333 11.73334 V 268.26667 456.53333 H 901.33333 934.4 V 268.26667 80 h 11.73333 11.73334 v 48.53333 48.53334 h 46.40003 46.4 V 128.53333 80 h 11.7333 11.7333 v 48.44868 48.44869 l 71.7334,0.35131 c 39.4533,0.19323 83.2071,0.19183 97.2307,-0.003 l 25.4974,-0.35441 -0.621,-27.64559 -0.6211,-27.64559 h 105.4539 c 112.8507,0 110.565,-0.0963 127.1671,5.35878 10.8231,3.55627 27.484,12.36699 37.2604,19.70437 20.2139,15.17074 38.6002,39.34747 46.0491,60.55117 0.5805,1.65217 1.2805,1.40538 5.7555,-2.02879 9.2772,-7.1196 13.2669,-8.38553 26.428,-8.38553 10.952,0 12.195,0.22201 18.6666,3.33413 3.8134,1.83376 9.0509,5.17753 11.639,7.43061 5.7944,5.04427 12.112,14.63102 13.9368,21.14863 l 1.3681,4.88663 h 35.5948 35.5947 v 8.53334 8.53333 h -35.597 -35.5971 l -0.6481,4.05322 c -1.8462,11.54523 -13.1084,26.0727 -24.5432,31.65898 -14.4675,7.06784 -36.6726,3.95679 -48.9978,-6.86487 l -3.5952,-3.15665 -2.4501,6.088 c -15.1395,37.61793 -48.6964,67.08021 -87.6112,76.92095 -8.6741,2.1935 -10.7561,2.2337 -115.6691,2.2337 h -106.836 l -0.7656,-26.38245 c -0.4212,-14.51035 -1.0133,-26.63035 -1.316,-26.93333 -0.3027,-0.30299 -44.1906,-0.69217 -97.5287,-0.86487 l -96.9783,-0.31389 v 74.6142 74.6142 l 72.2667,0.36646 c 39.7467,0.20155 83.7405,0.20697 97.7641,0.0121 l 25.4973,-0.35441 -0.621,-27.64559 -0.621,-27.64559 h 105.4539 c 112.8506,0 110.565,-0.0963 127.167,5.35877 10.8232,3.55628 27.4841,12.367 37.2605,19.70437 20.2139,15.17075 38.6002,39.34747 46.0491,60.55117 0.5804,1.65217 1.2805,1.40539 5.7555,-2.02879 9.2772,-7.11959 13.2669,-8.38552 26.4279,-8.38552 10.952,0 12.195,0.222 18.6667,3.33412 3.8133,1.83376 9.0509,5.17754 11.6389,7.43061 5.7945,5.04427 12.112,14.63102 13.9369,21.14863 l 1.3681,4.88664 h 35.5948 35.5946 v 8.53333 8.53333 h -35.597 -35.597 l -0.6481,4.05322 c -1.8462,11.54524 -13.1085,26.0727 -24.5433,31.65899 -14.4675,7.06784 -36.6725,3.95679 -48.9977,-6.86488 l -3.5952,-3.15665 -2.4501,6.088 c -15.1396,37.61793 -48.6965,67.08021 -87.6112,76.92095 -8.6742,2.1935 -10.7561,2.23371 -115.6692,2.23371 h -106.8359 l -0.7657,-26.38246 c -0.4211,-14.51034 -1.0133,-26.63034 -1.3159,-26.93333 -0.3027,-0.30299 -44.4306,-0.69207 -98.0621,-0.86464 l -97.5116,-0.31377 v 116.84709 116.8471 h 97.2327 97.2327 l -0.623,-27.73334 -0.623,-27.73333 h 105.4539 c 112.8507,0 110.565,-0.0963 127.1671,5.35877 10.8231,3.55628 27.484,12.367 37.2604,19.70438 20.2139,15.17074 38.6002,39.34746 46.0491,60.55116 0.5805,1.65218 1.2805,1.40539 5.7555,-2.02878 9.2772,-7.1196 13.2669,-8.38553 26.428,-8.38553 10.952,0 12.195,0.22201 18.6666,3.33412 3.8134,1.83376 9.0509,5.17754 11.639,7.43062 5.7944,5.04426 12.112,14.63101 13.9368,21.14863 l 1.3681,4.88663 h 35.5948 35.5947 v 8.53333 8.53334 h -35.597 -35.5971 l -0.6481,4.05321 c -1.8462,11.54524 -13.1084,26.07271 -24.5432,31.65899 -14.4675,7.06784 -36.6726,3.95679 -48.9978,-6.86488 l -3.5952,-3.15665 -2.4501,6.088 c -15.1395,37.61793 -48.6964,67.08022 -87.6112,76.92092 -8.6741,2.1935 -10.7561,2.2337 -115.6691,2.2337 h -106.836 l -0.7656,-26.38241 c -0.4212,-14.51035 -1.0133,-26.63035 -1.316,-26.93334 -0.3027,-0.30298 -44.1906,-0.69217 -97.5287,-0.86486 l -96.9783,-0.314 v 76.75201 76.752 l 71.7334,0.362 c 39.4533,0.1991 83.2071,0.2025 97.2307,0.011 l 25.4974,-0.3544 -0.621,-27.6456 -0.6211,-27.6456 h 105.4539 c 112.8507,0 110.565,-0.096 127.1671,5.3588 10.8231,3.5563 27.484,12.367 37.2604,19.7044 20.2139,15.1708 38.6002,39.3475 46.0491,60.5511 0.5805,1.6522 1.2805,1.4055 5.7555,-2.0288 9.2772,-7.1195 13.2669,-8.3855 26.428,-8.3855 10.952,0 12.195,0.222 18.6666,3.3341 3.8134,1.8338 9.0509,5.1776 11.639,7.4306 5.7944,5.0443 12.112,14.6311 13.9368,21.1487 l 1.3681,4.8866 h 35.5948 35.5947 v 8.5334 8.5333 h -35.597 -35.5971 l -0.6481,4.0532 c -1.8462,11.5452 -13.1084,26.0728 -24.5432,31.659 -14.4675,7.0679 -36.6726,3.9568 -48.9978,-6.8648 l -3.5952,-3.1567 -2.4501,6.088 c -15.1395,37.6179 -48.6964,67.0802 -87.6112,76.9209 -8.6741,2.1935 -10.7561,2.2337 -115.6691,2.2337 h -106.836 l -0.7656,-26.3824 c -0.4212,-14.5104 -1.0133,-26.6304 -1.316,-26.9333 -0.3027,-0.303 -44.1906,-0.6923 -97.5287,-0.865 l -96.9783,-0.3139 v 27.2473 27.2473 H 1062.4 1050.6667 v -27.2 -27.2 h -46.4 -46.40003 v 27.7334 27.7333 H 946.13333 934.4 v -27.7333 -27.7334 h -33.06667 -33.06666 v 27.7334 27.7333 H 856.53333 844.8 v -84.2667 z m 639.4667,65.6917 c 33.2346,-6.6789 61.9443,-29.2614 77.4127,-60.8917 7.4689,-15.2727 9.5206,-24.2986 9.5206,-41.8833 0,-17.5643 -1.3626,-23.4701 -9.0407,-39.1833 -14.3849,-29.439 -42.5657,-52.5964 -74.6926,-61.3784 -8.3436,-2.2807 -10.6893,-2.3548 -105.457,-3.3313 -53.308,-0.5492 -97.026,-0.8543 -97.1512,-0.6778 -0.2566,0.3616 2.167,209.1433 2.4356,209.8259 0.095,0.2411 42.7726,0.1193 94.8392,-0.2706 74.8574,-0.5607 96.2292,-1.0231 102.1334,-2.2095 z M 1269.3313,1199.2 c 0,-10.4133 -0.3184,-32.2533 -0.705,-48.5333 l -0.7027,-29.6 h -96.8951 -96.8952 v 47.9936 47.9936 l 84.5334,0.2795 c 46.4933,0.1539 90.4133,0.3967 97.6,0.5398 l 13.0666,0.2601 V 1199.2 Z M 934.4,1169.0667 v -48 h -33.06667 -33.06666 v 48 48 H 901.33333 934.4 Z m 116.2667,0 v -48 h -46.4 -46.40003 v 48 48 h 46.40003 46.4 z m 578.8112,28.4824 c 4.877,-2.5434 11.7074,-10.7873 13.642,-16.4649 6.3171,-18.5398 -5.4335,-38.4004 -24.498,-41.4061 -9.3332,-1.4715 -20.7746,4.4953 -26.0722,13.597 -3.2124,5.5189 -3.286,5.9493 -2.9883,17.4806 0.2849,11.0344 0.5204,12.1702 3.5334,17.0385 4.1629,6.7262 10.8461,10.8977 19.2051,11.9877 7.2546,0.9458 12.3541,0.283 17.178,-2.2328 z M 844.8,999.46667 V 894.93333 H 800.53333 756.26667 V 999.46667 1104 H 800.53333 844.8 Z m 89.6,0 V 894.93333 H 901.33333 868.26667 V 999.46667 1104 H 901.33333 934.4 Z m 116.2667,0 V 894.93333 h -46.4 -46.40003 V 999.46667 1104 h 46.40003 46.4 z m 433.6,-12.17509 c 33.2346,-6.67875 61.9443,-29.26132 77.4127,-60.89158 7.4689,-15.27277 9.5206,-24.29866 9.5206,-41.88333 0,-17.56436 -1.3626,-23.47005 -9.0407,-39.18334 -14.3849,-29.43894 -42.5657,-52.59639 -74.6926,-61.37839 -8.3436,-2.28072 -10.6893,-2.35481 -105.457,-3.33125 -53.308,-0.54926 -97.026,-0.85428 -97.1512,-0.67783 -0.2566,0.36157 2.167,209.14331 2.4356,209.82587 0.095,0.24113 42.7726,0.11934 94.8392,-0.27063 74.8574,-0.56067 96.2292,-1.02302 102.1334,-2.20952 z M 306.4,932.78387 c 52.65333,-25.13078 95.71597,-45.96792 95.69475,-46.30477 -0.0554,-0.87848 -193.26279,-92.88391 -195.04671,-92.88129 -1.18239,0.002 -1.34553,1.33927 -0.8,6.55866 0.37691,3.60606 0.68529,45.62294 0.68529,93.37086 0,82.32461 0.0965,86.76615 1.86667,85.88164 1.02667,-0.51302 44.94667,-21.49431 97.6,-46.6251 z m 962.9313,-17.85054 c 0,-10.12 -0.3184,-31.72 -0.705,-48 l -0.7027,-29.6 h -96.8951 -96.8952 v 48 48 h 97.6 97.6 v -18.4 z m 360.1466,-1.11756 c 4.877,-2.54348 11.7074,-10.78726 13.642,-16.46495 6.3171,-18.53969 -5.4335,-38.40031 -24.498,-41.40609 -9.3332,-1.47149 -20.7746,4.49538 -26.0722,13.59699 -3.2124,5.51896 -3.286,5.94936 -2.9883,17.4807 0.2849,11.03436 0.5204,12.17011 3.5334,17.03847 4.1629,6.72615 10.8461,10.89778 19.2051,11.98759 7.2546,0.94582 12.3541,0.28301 17.178,-2.23271 z M 485.09252,900.07005 c 4.63993,-2.8466 6.94557,-7.61098 6.94557,-14.35229 0,-7.26985 -2.75984,-11.97844 -8.82184,-15.05109 -18.73147,-9.49441 -38.78094,11.2913 -25.19309,26.1182 6.06257,6.61542 19.06836,8.19382 27.06936,3.28518 z m -48.82585,-20.43302 c 0,-4.37723 6.30716,-15.37401 11.37752,-19.83712 7.27402,-6.40284 14.88929,-8.99526 26.48914,-9.01753 8.1411,-0.0156 10.52727,0.40879 15.7017,2.79277 7.44114,3.42831 14.96647,10.92935 17.42614,17.36992 l 1.82866,4.78826 H 620.94492 732.8 v -80 -80 H 441.6 150.4 V 796.26667 876.8 h 19.30286 19.30285 l -0.36952,-56.00021 c -0.24336,-36.8803 -0.005,-55.9911 0.69714,-55.97348 0.58667,0.0147 56.02667,26.3625 123.2,58.55063 67.17334,32.18813 122.49334,58.57619 122.93334,58.64014 0.44,0.0639 0.8,-1.00707 0.8,-2.38005 z M 844.8,795.73333 v -80 h -44.26667 -44.26666 v 80 80 H 800.53333 844.8 Z m 89.6,60.8 v -19.2 h -33.06667 -33.06666 v 19.2 19.2 H 901.33333 934.4 Z m 116.2667,0 v -19.2 h -46.4 -46.40003 v 19.2 19.2 h 46.40003 46.4 z M 934.4,674.66667 v -145.6 h -33.06667 -33.06666 v 145.6 145.6 H 901.33333 934.4 Z m 116.2667,-27.73334 V 473.6 h -46.4 -46.40003 v 173.33333 173.33334 h 46.40003 46.4 z M 844.8,612.26667 v -83.2 h -44.26667 -44.26666 v 83.2 83.2 H 800.53333 844.8 Z m 640.5333,11.29158 c 33.2347,-6.67875 61.9444,-29.26132 77.4127,-60.89158 7.4689,-15.27277 9.5207,-24.29866 9.5207,-41.88333 0,-17.56436 -1.3626,-23.47005 -9.0408,-39.18334 -14.3848,-29.43894 -42.5656,-52.59639 -74.6926,-61.37839 -8.3435,-2.28072 -10.6892,-2.35482 -105.4569,-3.33125 -53.3081,-0.54926 -97.0261,-0.85429 -97.1513,-0.67784 -0.2565,0.36158 2.1671,209.14332 2.4356,209.82588 0.095,0.24113 42.7726,0.11934 94.8393,-0.27063 74.8574,-0.56068 96.2291,-1.02302 102.1333,-2.20952 z M 306.4,567.98387 c 52.65333,-25.13078 95.71597,-45.96792 95.69475,-46.30477 -0.0554,-0.87848 -193.26279,-92.88391 -195.04671,-92.88129 -1.18239,0.002 -1.34553,1.33927 -0.8,6.55866 0.37691,3.60606 0.68529,45.62294 0.68529,93.37086 0,82.32461 0.0965,86.76615 1.86667,85.88164 1.02667,-0.51302 44.94667,-21.49431 97.6,-46.6251 z m 963.998,-16.25054 c 0,-10.41333 -0.3184,-32.25333 -0.705,-48.53333 l -0.7027,-29.6 h -97.4285 -97.4285 v 47.99361 47.99362 l 85.0667,0.27953 c 46.7867,0.15374 90.9467,0.39661 98.1333,0.53971 l 13.0667,0.2602 v -18.93334 z m 360.1465,-1.6509 c 4.877,-2.54348 11.7074,-10.78725 13.6421,-16.46495 6.3171,-18.53969 -5.4335,-38.40031 -24.4981,-41.40609 -9.3331,-1.47149 -20.7746,4.49538 -26.0722,13.59699 -3.2124,5.51897 -3.286,5.94937 -2.9882,17.48071 0.2849,11.03436 0.5204,12.17011 3.5334,17.03846 4.1629,6.72616 10.8461,10.89778 19.2051,11.9876 7.2545,0.94582 12.354,0.283 17.1779,-2.23272 z M 485.09252,535.27005 c 4.63993,-2.8466 6.94557,-7.61098 6.94557,-14.35229 0,-7.26985 -2.75984,-11.97844 -8.82184,-15.05109 -18.73147,-9.49441 -38.78094,11.2913 -25.19309,26.1182 6.06257,6.61542 19.06836,8.19382 27.06936,3.28518 z m -48.82585,-20.43302 c 0,-4.37723 6.30716,-15.37401 11.37752,-19.83712 7.27402,-6.40284 14.88929,-8.99526 26.48914,-9.01753 8.1105,-0.0156 10.53474,0.41227 15.62449,2.75743 7.27595,3.35246 14.25049,10.06877 17.06632,16.43441 l 2.07569,4.69245 H 620.84991 732.8 V 430.93333 352 H 441.6 150.4 v 80 80 h 19.30286 19.30285 l -0.36952,-56.00021 c -0.24336,-36.8803 -0.005,-55.9911 0.69714,-55.97348 0.58667,0.0147 56.02667,26.3625 123.2,58.55063 67.17334,32.18813 122.49334,58.57619 122.93334,58.64014 0.44,0.0639 0.8,-1.00707 0.8,-2.38005 z M 844.8,491.73333 V 473.6 h -44.26667 -44.26666 v 18.13333 18.13334 H 800.53333 844.8 Z m 89.6,0 V 473.6 h -33.06667 -33.06666 v 18.13333 18.13334 H 901.33333 934.4 Z M 1050.6667,324.8 V 193.06667 h -46.4 -46.40003 V 324.8 456.53333 h 46.40003 46.4 z m 433.6,19.29158 c 33.2346,-6.67875 61.9443,-29.26132 77.4127,-60.89158 7.4689,-15.27277 9.5206,-24.29866 9.5206,-41.88333 0,-17.56436 -1.3626,-23.47005 -9.0407,-39.18334 -14.3849,-29.43894 -42.5657,-52.59639 -74.6926,-61.37839 -8.3436,-2.28072 -10.6893,-2.35481 -105.457,-3.33125 -53.308,-0.54926 -97.026,-0.85428 -97.1512,-0.67783 -0.2566,0.36157 2.167,209.14331 2.4356,209.82587 0.095,0.24113 42.7726,0.11934 94.8392,-0.27063 74.8574,-0.56067 96.2292,-1.02302 102.1334,-2.20952 z M 1268.9022,242.95805 c -0.4202,-26.53308 -0.8856,-48.36365 -1.0344,-48.51239 -0.1487,-0.14872 -43.7997,-0.59863 -97.0024,-0.99979 l -96.7321,-0.72938 v 48.17509 48.17509 l 58.9334,0.14455 c 32.4133,0.0795 70.4533,0.4701 84.5333,0.86799 14.08,0.3979 31.5549,0.81284 38.8331,0.92211 L 1269.666,291.2 Z m 360.5757,27.65772 c 4.877,-2.54348 11.7074,-10.78726 13.642,-16.46495 6.3171,-18.53969 -5.4335,-38.40031 -24.498,-41.40609 -9.3332,-1.47149 -20.7746,4.49538 -26.0722,13.59699 -3.2124,5.51896 -3.286,5.94936 -2.9883,17.4807 0.2849,11.03436 0.5204,12.17011 3.5334,17.03847 4.1629,6.72615 10.8461,10.89778 19.2051,11.98759 7.2546,0.94582 12.3541,0.28301 17.178,-2.23271 z m 131.5888,896.31753 v -28.8 h 5.8666 5.8667 v 11.2 11.2 h 11.2 11.2 v -11.2 -11.2 h 6.4 6.4 v 28.8 28.8 h -6.4 -6.4 v -12.8 -12.8 h -11.2 -11.2 v 12.8 12.8 h -5.8667 -5.8666 z m 13.9808,-254.40384 c -6.321,-1.97097 -12.4414,-8.15581 -14.6494,-14.80328 -2.1731,-6.54276 -2.3872,-17.58303 -0.4731,-24.40357 1.795,-6.39627 8.2665,-13.86073 14.0088,-16.15834 6.1812,-2.47321 15.5222,-3.22356 22.3549,-1.79572 8.545,1.78565 8.8842,2.13907 6.8236,7.10948 -0.9551,2.30375 -1.8447,4.30724 -1.9768,4.45219 -0.1322,0.14496 -2.5199,-0.51316 -5.3061,-1.4625 -9.3616,-3.1898 -18.7666,-0.14635 -22.629,7.32267 -2.2932,4.43458 -3.0487,14.1829 -1.5333,19.78471 2.4339,8.9974 10.045,13.70074 18.6685,11.53639 2.5495,-0.6399 2.7311,-1.10961 2.7311,-7.06514 v -6.37968 h -5.3334 -5.3333 v -4.8 -4.8 h 11.2293 11.2293 l -0.2959,15.2 -0.296,15.2 -5.8667,1.23047 c -7.9564,1.66879 -17.6871,1.59891 -23.3525,-0.16768 z M 7.4666667,702.81229 v -28.92105 l 14.6666663,0.44433 c 16.294533,0.49366 22.115125,2.33108 24.589802,7.76239 2.971489,6.52172 0.649979,15.05389 -4.767628,17.52232 l -3.004483,1.36893 3.320965,1.39636 c 5.017701,2.10978 6.794678,5.41649 6.794678,12.64392 0,5.85078 -0.279901,6.56806 -4.024049,10.31221 -5.220893,5.22089 -9.760403,6.37843 -25.042618,6.38568 l -12.5333333,0.006 z m 26.5452843,17.45438 c 1.23656,-1.02667 2.543373,-3.39485 2.904028,-5.26263 0.528933,-2.73926 0.126391,-3.92531 -2.081636,-6.13333 -2.334988,-2.33499 -3.685278,-2.73738 -9.185858,-2.73738 H 19.2 v 8 8 h 6.28183 c 4.415094,0 6.949943,-0.55471 8.530121,-1.86666 z m -1.182624,-25.39382 c 3.177154,-2.22536 3.177154,-7.25367 0,-9.47904 -1.418622,-0.99364 -4.631385,-1.66048 -8,-1.66048 H 19.2 v 6.4 6.4 h 5.629327 c 3.368615,0 6.581378,-0.66683 8,-1.66048 z M 1762.1333,516.26667 v -28.8 h 16 16 v 4.8 4.8 H 1784 1773.8667 v 8 8 h 9.6 9.6 v 4.8 4.8 h -9.6 -9.6 v 11.2 11.2 H 1768 1762.1333 Z M 7.0733673,344.85019 C 10.933588,333.82258 15.403302,320.96 17.006065,316.26667 l 2.914114,-8.53334 7.542415,-0.31142 7.542416,-0.31144 1.183816,3.587 c 0.651098,1.97286 5.19084,14.95299 10.088314,28.84477 L 55.181638,364.8 H 48.644164 42.10669 l -1.985618,-6.93333 -1.985619,-6.93334 H 27.63922 17.142988 l -1.95918,6.66667 -1.95918,6.66667 -6.5849222,0.31685 -6.58492221,0.31685 z m 27.7448497,-5.10656 c -0.335515,-0.87434 -1.877801,-5.79434 -3.427302,-10.93334 -1.549502,-5.13899 -3.155404,-9.70868 -3.568673,-10.15487 -0.413268,-0.44618 -2.104048,3.87382 -3.757287,9.6 -1.65324,5.72619 -3.235535,11.01125 -3.51621,11.74458 -0.379147,0.99061 1.467602,1.33333 7.184588,1.33333 6.379537,0 7.590632,-0.27174 7.084884,-1.5897 z M 1761.0667,236.8 V 208 h 16.5333 16.5333 v 4.8 4.8 H 1783.4667 1772.8 v 6.4 6.4 h 9.6 9.6 v 4.8 4.8 h -9.6 -9.6 v 8 8 h 10.6667 10.6666 v 4.8 4.8 H 1777.6 1761.0667 Z M 931.79501,59.208403 c -8.91569,-3.176072 -13.62497,-9.646975 -15.52737,-21.335804 -3.3467,-20.562855 7.84495,-36.5878353 25.67209,-36.7591133 3.95516,-0.038 15.5118,2.485854 16.77158,3.6627432 0.25313,0.2364844 -2.83241,8.9177261 -3.51993,9.9033751 -0.10727,0.153783 -2.49988,-0.73994 -5.31692,-1.986049 -13.39624,-5.9257972 -22.99409,3.401302 -21.59773,20.988502 1.21641,15.320908 7.87862,19.985603 22.95748,16.074196 L 956.8,48.312506 v 5.088692 5.088692 l -5.38583,1.155055 c -7.21366,1.547053 -14.50644,1.384783 -19.61916,-0.436542 z M 834.13333,30.812286 V 1.8912387 L 848.8,2.3355731 c 16.29453,0.4936514 22.11513,2.3310688 24.5898,7.7623939 2.97149,6.521708 0.64998,15.053878 -4.76762,17.522305 l -3.00448,1.368934 3.32096,1.396361 c 5.01769,2.109784 6.79467,5.416487 6.79467,12.64393 0,5.850765 -0.2799,6.568051 -4.02405,10.312199 -5.22089,5.220893 -9.76039,6.378435 -25.04261,6.385689 l -12.53334,0.0059 z m 26.54528,17.454381 c 1.23657,-1.026667 2.54338,-3.394848 2.90404,-5.262626 0.52893,-2.739258 0.12638,-3.925307 -2.08164,-6.133334 -2.33499,-2.334989 -3.68528,-2.737374 -9.18586,-2.737374 h -6.44848 v 8 8 h 6.28183 c 4.41509,0 6.94994,-0.554707 8.53011,-1.866666 z m -1.18262,-25.393818 c 1.51878,-1.063794 2.37068,-2.766925 2.37068,-4.739516 0,-4.285056 -3.4271,-6.4 -10.37068,-6.4 h -5.62932 v 6.4 6.4 h 5.62932 c 3.36862,0 6.58139,-0.666842 8,-1.660484 z M 724.94003,37.650188 C 728.80026,26.622585 733.26997,13.76 734.87274,9.0666667 l 2.91411,-8.53333337 7.54241,-0.311429 7.54242,-0.31142901 1.18381,3.58699718 c 0.6511,1.9728485 5.19085,14.9529915 10.08832,28.8447625 L 773.04831,57.6 h -6.53748 -6.53748 l -1.98562,-6.933333 -1.98561,-6.933334 H 745.50589 735.00965 L 733.05047,50.4 l -1.95917,6.666667 -6.58493,0.316854 -6.58492,0.316854 z m 27.74486,-5.106558 c -0.33552,-0.874337 -1.87781,-5.794337 -3.42731,-10.933333 -1.54949,-5.138997 -3.1554,-9.708691 -3.56867,-10.154874 -0.41327,-0.446185 -2.10405,3.873815 -3.75729,9.6 -1.65324,5.726183 -3.23553,11.011244 -3.51621,11.744577 -0.37914,0.990609 1.4676,1.333333 7.18459,1.333333 6.37954,0 7.59063,-0.271745 7.08489,-1.589703 z M 1040,28.783556 V -0.25225195 l 13.6,0.47434218 c 14.7889,0.51581023 19.7603,1.90552137 25.1644,7.03449417 9.9599,9.4529966 10.8651,30.7537426 1.7482,41.1373026 -5.4726,6.233027 -12.4322,8.515749 -27.4459,9.002154 L 1040,57.819364 Z m 27.481,16.404853 c 4.6588,-3.415606 6.6488,-8.48381 6.6506,-16.938384 C 1074.1345,15.479307 1068.8442,9.6 1057.35,9.6 h -5.6167 v 19.328204 19.328203 l 6.4144,-0.463971 c 4.1516,-0.300302 7.444,-1.21889 9.3333,-2.604027 z"
       id="path6498"
       clip-path="url(#clipPath7073)" />
    <text
       xml:space="preserve"
       style="font-style:normal;font-variant:normal;font-weight:bold;font-stretch:normal;font-size:63.9999px;font-family:sans-serif;-inkscape-font-specification:'sans-serif Bold';display:inline;fill:#000000;stroke:#000000;stroke-width:0;stroke-dasharray:none"
       x="-4.5163131"
       y="363.75275"
       id="text304"><tspan
         sodipodi:role="line"
         id="tspan302"
         style="font-size:63.9999px;fill:#000000;stroke-width:0"
         x="-4.5163131"
         y="363.75275">P<tspan
   style="font-size:41.5999px;baseline-shift:sub;stroke-width:0"
   id="tspan1015">0</tspan></tspan></text>
    <text
       xml:space="preserve"
       style="font-style:normal;font-variant:normal;font-weight:bold;font-stretch:normal;font-size:63.9999px;font-family:sans-serif;-inkscape-font-specification:'sans-serif Bold';display:inline;fill:#000000;stroke:#000000;stroke-width:0;stroke-dasharray:none"
       x="709.59564"
       y="55.702278"
       id="text304-3"><tspan
         sodipodi:role="line"
         id="tspan302-2"
         style="font-size:63.9999px;fill:#000000;stroke-width:0"
         x="709.59564"
         y="55.702278">P<tspan
   style="font-size:41.5999px;baseline-shift:sub;stroke-width:0"
   id="tspan1015-8">0</tspan></tspan></text>
    <text
       xml:space="preserve"
       style="font-style:normal;font-variant:normal;font-weight:bold;font-stretch:normal;font-size:63.9999px;font-family:sans-serif;-inkscape-font-specification:'sans-serif Bold';display:inline;fill:#000000;stroke:#000000;stroke-width:0;stroke-dasharray:none"
       x="1746.0765"
       y="258.12909"
       id="text304-2-5"><tspan
         sodipodi:role="line"
         id="tspan302-9-6"
         style="font-size:63.9999px;fill:#000000;stroke-width:0"
         x="1746.0765"
         y="258.12909">Q<tspan
   style="font-size:65%;baseline-shift:sub"
   id="tspan1741">2</tspan></tspan></text>
    <text
       xml:space="preserve"
       style="font-style:normal;font-variant:normal;font-weight:bold;font-stretch:normal;font-size:63.9999px;font-family:sans-serif;-inkscape-font-specification:'sans-serif Bold';display:inline;fill:#000000;stroke:#000000;stroke-width:0;stroke-dasharray:none"
       x="1742.3303"
       y="542.08679"
       id="text304-2-5-1"><tspan
         sodipodi:role="line"
         id="tspan302-9-6-7"
         style="font-size:63.9999px;fill:#000000;stroke-width:0"
         x="1742.3303"
         y="542.08679">Q<tspan
   style="font-size:65%;baseline-shift:sub"
   id="tspan10324">3</tspan></tspan></text>
    <text
       xml:space="preserve"
       style="font-style:normal;font-variant:normal;font-weight:bold;font-stretch:normal;font-size:63.9999px;font-family:sans-serif;-inkscape-font-specification:'sans-serif Bold';display:inline;fill:#000000;stroke:#000000;stroke-width:0;stroke-dasharray:none"
       x="1743.0588"
       y="903.00995"
       id="text304-2-5-1-2"><tspan
         sodipodi:role="line"
         id="tspan302-9-6-7-6"
         style="font-size:63.9999px;fill:#000000;stroke-width:0"
         x="1743.0588"
         y="903.00995">Q<tspan
   style="font-size:65%;baseline-shift:sub"
   id="tspan5425">4</tspan></tspan></text>
    <text
       xml:space="preserve"
       style="font-style:normal;font-variant:normal;font-weight:bold;font-stretch:normal;font-size:63.9999px;font-family:sans-serif;-inkscape-font-specification:'sans-serif Bold';display:inline;fill:#000000;stroke:#000000;stroke-width:0;stroke-dasharray:none"
       x="1743.973"
       y="1189.4781"
       id="text304-2-5-1-2-8"><tspan
         sodipodi:role="line"
         id="tspan302-9-6-7-6-7"
         style="font-size:63.9999px;fill:#000000;stroke-width:0"
         x="1743.973"
         y="1189.4781">Q<tspan
   style="font-size:65%;baseline-shift:sub"
   id="tspan5427">5</tspan></tspan></text>
    <text
       xml:space="preserve"
       style="font-style:normal;font-variant:normal;font-weight:bold;font-stretch:normal;font-size:63.9999px;font-family:sans-serif;-inkscape-font-specification:'sans-serif Bold';display:inline;fill:#000000;stroke:#000000;stroke-width:0;stroke-dasharray:none"
       x="912.03522"
       y="55.351452"
       id="text304-2-7"><tspan
         sodipodi:role="line"
         id="tspan302-9-5"
         style="font-size:63.9999px;fill:#000000;stroke-width:0"
         x="912.03522"
         y="55.351452">Q<tspan
   style="font-size:65%;baseline-shift:sub"
   id="tspan2257">0</tspan></tspan></text>
    <text
       xml:space="preserve"
       style="font-style:normal;font-variant:normal;font-weight:bold;font-stretch:normal;font-size:63.9999px;font-family:sans-serif;-inkscape-font-specification:'sans-serif Bold';display:inline;fill:#000000;stroke:#000000;stroke-width:0;stroke-dasharray:none"
       x="1026.6381"
       y="57.115814"
       id="text304-2-7-9"><tspan
         sodipodi:role="line"
         id="tspan302-9-5-4"
         style="font-size:63.9999px;fill:#000000;stroke-width:0"
         x="1026.6381"
         y="57.115814">Q<tspan
   style="font-size:65%;baseline-shift:sub"
   id="tspan5224">1</tspan></tspan></text>
    <text
       xml:space="preserve"
       style="font-style:normal;font-variant:normal;font-weight:bold;font-stretch:normal;font-size:63.9999px;font-family:sans-serif;-inkscape-font-specification:'sans-serif Bold';display:inline;fill:#000000;stroke:#000000;stroke-width:0;stroke-dasharray:none"
       x="824.91162"
       y="57.654877"
       id="text304-0"><tspan
         sodipodi:role="line"
         id="tspan302-5"
         style="font-size:63.9999px;fill:#000000;stroke-width:0"
         x="824.91162"
         y="57.654877">P<tspan
   style="font-size:41.5999px;baseline-shift:sub;stroke-width:0"
   id="tspan1103">1</tspan></tspan></text>
    <text
       xml:space="preserve"
       style="font-style:normal;font-variant:normal;font-weight:bold;font-stretch:normal;font-size:63.9999px;font-family:sans-serif;-inkscape-font-specification:'sans-serif Bold';display:inline;fill:#000000;stroke:#000000;stroke-width:0;stroke-dasharray:none"
       x="-3.8951583"
       y="726.5473"
       id="text304-0-9"><tspan
         sodipodi:role="line"
         id="tspan302-5-1"
         style="font-size:63.9999px;fill:#000000;stroke-width:0"
         x="-3.8951583"
         y="726.5473">P<tspan
   style="font-size:41.5999px;baseline-shift:sub;stroke-width:0"
   id="tspan1103-1">1</tspan></tspan></text>
  </g>
</svg>
